<?xml version="1.0" encoding="UTF-8" standalone="no"?>
<!DOCTYPE svg PUBLIC "-//W3C//DTD SVG 1.1//EN"
 "http://www.w3.org/Graphics/SVG/1.1/DTD/svg11.dtd">
<!-- Generated by graphviz version 14.1.3 (20260303.0454)
 -->
<!-- Title: G Pages: 1 -->
<svg width="4412pt" height="281pt"
 viewBox="0.00 0.00 4412.00 281.00" xmlns="http://www.w3.org/2000/svg" xmlns:xlink="http://www.w3.org/1999/xlink">
<g id="graph0" class="graph" transform="scale(2.5 2.5) rotate(0) translate(4 108.27)">
<title>G</title>
<polygon fill="white" stroke="none" points="-4,4 -4,-108.27 1760.62,-108.27 1760.62,4 -4,4"/>
<text xml:space="preserve" text-anchor="middle" x="878.31" y="-83.17" font-family="Microsoft YaHei" font-size="18.00">图1&#45;1 论文研究思路与技术路线图</text>
<!-- bg -->
<g id="node1" class="node">
<title>bg</title>
<path fill="none" stroke="black" d="M210.66,-64.02C210.66,-64.02 12,-64.02 12,-64.02 6,-64.02 0,-58.02 0,-52.02 0,-52.02 0,-19.5 0,-19.5 0,-13.5 6,-7.5 12,-7.5 12,-7.5 210.66,-7.5 210.66,-7.5 216.66,-7.5 222.66,-13.5 222.66,-19.5 222.66,-19.5 222.66,-52.02 222.66,-52.02 222.66,-58.02 216.66,-64.02 210.66,-64.02"/>
<text xml:space="preserve" text-anchor="middle" x="111.33" y="-47.81" font-family="Microsoft YaHei" font-size="11.00">企业背景与现实约束</text>
<text xml:space="preserve" text-anchor="middle" x="111.33" y="-32.81" font-family="Microsoft YaHei" font-size="11.00">湛江中小制造企业投入有限</text>
<text xml:space="preserve" text-anchor="middle" x="111.33" y="-17.81" font-family="Microsoft YaHei" font-size="11.00">南派食品存在批次、权限和流程脱节问题</text>
</g>
<!-- req -->
<g id="node2" class="node">
<title>req</title>
<path fill="none" stroke="black" d="M464.32,-64.02C464.32,-64.02 310.66,-64.02 310.66,-64.02 304.66,-64.02 298.66,-58.02 298.66,-52.02 298.66,-52.02 298.66,-19.5 298.66,-19.5 298.66,-13.5 304.66,-7.5 310.66,-7.5 310.66,-7.5 464.32,-7.5 464.32,-7.5 470.32,-7.5 476.32,-13.5 476.32,-19.5 476.32,-19.5 476.32,-52.02 476.32,-52.02 476.32,-58.02 470.32,-64.02 464.32,-64.02"/>
<text xml:space="preserve" text-anchor="middle" x="387.49" y="-47.81" font-family="Microsoft YaHei" font-size="11.00">需求分析</text>
<text xml:space="preserve" text-anchor="middle" x="387.49" y="-32.81" font-family="Microsoft YaHei" font-size="11.00">组织与主数据、物料与仓储</text>
<text xml:space="preserve" text-anchor="middle" x="387.49" y="-17.81" font-family="Microsoft YaHei" font-size="11.00">流程协同、语义解释与移动场景</text>
</g>
<!-- bg&#45;&gt;req -->
<g id="edge1" class="edge">
<title>bg&#45;&gt;req</title>
<path fill="none" stroke="black" d="M223.05,-35.76C244.93,-35.76 267.74,-35.76 289.13,-35.76"/>
<polygon fill="black" stroke="black" points="289.02,-38.56 297.02,-35.76 289.02,-32.96 289.02,-38.56"/>
</g>
<!-- arch -->
<g id="node3" class="node">
<title>arch</title>
<path fill="none" stroke="black" d="M661.73,-64.02C661.73,-64.02 564.32,-64.02 564.32,-64.02 558.32,-64.02 552.32,-58.02 552.32,-52.02 552.32,-52.02 552.32,-19.5 552.32,-19.5 552.32,-13.5 558.32,-7.5 564.32,-7.5 564.32,-7.5 661.73,-7.5 661.73,-7.5 667.73,-7.5 673.73,-13.5 673.73,-19.5 673.73,-19.5 673.73,-52.02 673.73,-52.02 673.73,-58.02 667.73,-64.02 661.73,-64.02"/>
<text xml:space="preserve" text-anchor="middle" x="613.03" y="-47.81" font-family="Microsoft YaHei" font-size="11.00">系统总体设计</text>
<text xml:space="preserve" text-anchor="middle" x="613.03" y="-32.81" font-family="Microsoft YaHei" font-size="11.00">数据库中心架构</text>
<text xml:space="preserve" text-anchor="middle" x="613.03" y="-17.81" font-family="Microsoft YaHei" font-size="11.00">微前端拆分核心模块</text>
</g>
<!-- req&#45;&gt;arch -->
<g id="edge2" class="edge">
<title>req&#45;&gt;arch</title>
<path fill="none" stroke="black" d="M476.52,-35.76C498.45,-35.76 521.66,-35.76 542.55,-35.76"/>
<polygon fill="black" stroke="black" points="542.47,-38.56 550.47,-35.76 542.47,-32.96 542.47,-38.56"/>
</g>
<!-- key -->
<g id="node4" class="node">
<title>key</title>
<path fill="none" stroke="black" d="M886.89,-71.52C886.89,-71.52 761.73,-71.52 761.73,-71.52 755.73,-71.52 749.73,-65.52 749.73,-59.52 749.73,-59.52 749.73,-12 749.73,-12 749.73,-6 755.73,0 761.73,0 761.73,0 886.89,0 886.89,0 892.89,0 898.89,-6 898.89,-12 898.89,-12 898.89,-59.52 898.89,-59.52 898.89,-65.52 892.89,-71.52 886.89,-71.52"/>
<text xml:space="preserve" text-anchor="middle" x="824.31" y="-55.31" font-family="Microsoft YaHei" font-size="11.00">关键技术路线</text>
<text xml:space="preserve" text-anchor="middle" x="824.31" y="-40.31" font-family="Microsoft YaHei" font-size="11.00">PostgreSQL + PostgREST</text>
<text xml:space="preserve" text-anchor="middle" x="824.31" y="-25.31" font-family="Microsoft YaHei" font-size="11.00">Vue 3 + qiankun</text>
<text xml:space="preserve" text-anchor="middle" x="824.31" y="-10.31" font-family="Microsoft YaHei" font-size="11.00">BPMN + 轻量语义增强</text>
</g>
<!-- arch&#45;&gt;key -->
<g id="edge3" class="edge">
<title>arch&#45;&gt;key</title>
<path fill="none" stroke="black" d="M674,-35.76C694.61,-35.76 718.06,-35.76 740.18,-35.76"/>
<polygon fill="black" stroke="black" points="740.05,-38.56 748.05,-35.76 740.05,-32.96 740.05,-38.56"/>
</g>
<!-- impl -->
<g id="node5" class="node">
<title>impl</title>
<path fill="none" stroke="black" d="M1192.3,-64.02C1192.3,-64.02 986.89,-64.02 986.89,-64.02 980.89,-64.02 974.89,-58.02 974.89,-52.02 974.89,-52.02 974.89,-19.5 974.89,-19.5 974.89,-13.5 980.89,-7.5 986.89,-7.5 986.89,-7.5 1192.3,-7.5 1192.3,-7.5 1198.3,-7.5 1204.3,-13.5 1204.3,-19.5 1204.3,-19.5 1204.3,-52.02 1204.3,-52.02 1204.3,-58.02 1198.3,-64.02 1192.3,-64.02"/>
<text xml:space="preserve" text-anchor="middle" x="1089.6" y="-47.81" font-family="Microsoft YaHei" font-size="11.00">系统实现</text>
<text xml:space="preserve" text-anchor="middle" x="1089.6" y="-32.81" font-family="Microsoft YaHei" font-size="11.00">人事、物料、应用中心、移动端</text>
<text xml:space="preserve" text-anchor="middle" x="1089.6" y="-17.81" font-family="Microsoft YaHei" font-size="11.00">FlashBuilder、Agent Runtime、冷库模式</text>
</g>
<!-- key&#45;&gt;impl -->
<g id="edge4" class="edge">
<title>key&#45;&gt;impl</title>
<path fill="none" stroke="black" d="M899.35,-35.76C919.94,-35.76 942.86,-35.76 965.46,-35.76"/>
<polygon fill="black" stroke="black" points="965.25,-38.56 973.25,-35.76 965.25,-32.96 965.25,-38.56"/>
</g>
<!-- verify -->
<g id="node6" class="node">
<title>verify</title>
<path fill="none" stroke="black" d="M1445.96,-64.02C1445.96,-64.02 1292.3,-64.02 1292.3,-64.02 1286.3,-64.02 1280.3,-58.02 1280.3,-52.02 1280.3,-52.02 1280.3,-19.5 1280.3,-19.5 1280.3,-13.5 1286.3,-7.5 1292.3,-7.5 1292.3,-7.5 1445.96,-7.5 1445.96,-7.5 1451.96,-7.5 1457.96,-13.5 1457.96,-19.5 1457.96,-19.5 1457.96,-52.02 1457.96,-52.02 1457.96,-58.02 1451.96,-64.02 1445.96,-64.02"/>
<text xml:space="preserve" text-anchor="middle" x="1369.13" y="-47.81" font-family="Microsoft YaHei" font-size="11.00">测试与验证</text>
<text xml:space="preserve" text-anchor="middle" x="1369.13" y="-32.81" font-family="Microsoft YaHei" font-size="11.00">登录鉴权、页面访问、库存链路</text>
<text xml:space="preserve" text-anchor="middle" x="1369.13" y="-17.81" font-family="Microsoft YaHei" font-size="11.00">流程读取与受控工具验证</text>
</g>
<!-- impl&#45;&gt;verify -->
<g id="edge5" class="edge">
<title>impl&#45;&gt;verify</title>
<path fill="none" stroke="black" d="M1204.68,-35.76C1226.56,-35.76 1249.29,-35.76 1270.59,-35.76"/>
<polygon fill="black" stroke="black" points="1270.43,-38.56 1278.43,-35.76 1270.43,-32.96 1270.43,-38.56"/>
</g>
<!-- thesis -->
<g id="node7" class="node">
<title>thesis</title>
<path fill="none" stroke="black" d="M1744.62,-64.02C1744.62,-64.02 1545.96,-64.02 1545.96,-64.02 1539.96,-64.02 1533.96,-58.02 1533.96,-52.02 1533.96,-52.02 1533.96,-19.5 1533.96,-19.5 1533.96,-13.5 1539.96,-7.5 1545.96,-7.5 1545.96,-7.5 1744.62,-7.5 1744.62,-7.5 1750.62,-7.5 1756.62,-13.5 1756.62,-19.5 1756.62,-19.5 1756.62,-52.02 1756.62,-52.02 1756.62,-58.02 1750.62,-64.02 1744.62,-64.02"/>
<text xml:space="preserve" text-anchor="middle" x="1645.29" y="-47.81" font-family="Microsoft YaHei" font-size="11.00">论文形成</text>
<text xml:space="preserve" text-anchor="middle" x="1645.29" y="-32.81" font-family="Microsoft YaHei" font-size="11.00">绪论→需求分析→总体设计→数据库设计</text>
<text xml:space="preserve" text-anchor="middle" x="1645.29" y="-17.81" font-family="Microsoft YaHei" font-size="11.00">详细设计→系统实现→测试与总结</text>
</g>
<!-- verify&#45;&gt;thesis -->
<g id="edge6" class="edge">
<title>verify&#45;&gt;thesis</title>
<path fill="none" stroke="black" d="M1458.39,-35.76C1479.34,-35.76 1502.05,-35.76 1524.16,-35.76"/>
<polygon fill="black" stroke="black" points="1524.08,-38.56 1532.08,-35.76 1524.08,-32.96 1524.08,-38.56"/>
</g>
</g>
</svg>
