<?xml version="1.0" encoding="UTF-8" standalone="no"?>
<!DOCTYPE svg PUBLIC "-//W3C//DTD SVG 1.1//EN"
 "http://www.w3.org/Graphics/SVG/1.1/DTD/svg11.dtd">
<!-- Generated by graphviz version 14.1.3 (20260303.0454)
 -->
<!-- Title: G Pages: 1 -->
<svg width="3833pt" height="1163pt"
 viewBox="0.00 0.00 3833.00 1163.00" xmlns="http://www.w3.org/2000/svg" xmlns:xlink="http://www.w3.org/1999/xlink">
<g id="graph0" class="graph" transform="scale(3.05556 3.05556) rotate(0) translate(4 376.59)">
<title>G</title>
<polygon fill="white" stroke="none" points="-4,4 -4,-376.59 1250.3,-376.59 1250.3,4 -4,4"/>
<text xml:space="preserve" text-anchor="middle" x="623.15" y="-351.49" font-family="Microsoft YaHei" font-size="18.00">图1&#45;1 论文研究思路与技术路线图</text>
<!-- bg -->
<g id="node1" class="node">
<title>bg</title>
<path fill="none" stroke="black" d="M205.17,-339.84C205.17,-339.84 12,-339.84 12,-339.84 6,-339.84 0,-333.84 0,-327.84 0,-327.84 0,-280.56 0,-280.56 0,-274.56 6,-268.56 12,-268.56 12,-268.56 205.17,-268.56 205.17,-268.56 211.17,-268.56 217.17,-274.56 217.17,-280.56 217.17,-280.56 217.17,-327.84 217.17,-327.84 217.17,-333.84 211.17,-339.84 205.17,-339.84"/>
<text xml:space="preserve" text-anchor="middle" x="108.59" y="-318.85" font-family="Microsoft YaHei" font-size="13.00">企业背景与现实约束</text>
<text xml:space="preserve" text-anchor="middle" x="108.59" y="-300.85" font-family="Microsoft YaHei" font-size="13.00">南派食品存在批次追溯、权限边界</text>
<text xml:space="preserve" text-anchor="middle" x="108.59" y="-282.85" font-family="Microsoft YaHei" font-size="13.00">流程脱节与冷库弱网等问题</text>
</g>
<!-- req -->
<g id="node2" class="node">
<title>req</title>
<path fill="none" stroke="black" d="M449.8,-339.84C449.8,-339.84 269.38,-339.84 269.38,-339.84 263.38,-339.84 257.38,-333.84 257.38,-327.84 257.38,-327.84 257.38,-280.56 257.38,-280.56 257.38,-274.56 263.38,-268.56 269.38,-268.56 269.38,-268.56 449.8,-268.56 449.8,-268.56 455.8,-268.56 461.8,-274.56 461.8,-280.56 461.8,-280.56 461.8,-327.84 461.8,-327.84 461.8,-333.84 455.8,-339.84 449.8,-339.84"/>
<text xml:space="preserve" text-anchor="middle" x="359.59" y="-318.85" font-family="Microsoft YaHei" font-size="13.00">需求分析</text>
<text xml:space="preserve" text-anchor="middle" x="359.59" y="-300.85" font-family="Microsoft YaHei" font-size="13.00">组织与主数据、物料与仓储</text>
<text xml:space="preserve" text-anchor="middle" x="359.59" y="-282.85" font-family="Microsoft YaHei" font-size="13.00">流程协同、语义解释、移动场景</text>
</g>
<!-- bg&#45;&gt;req -->
<g id="edge1" class="edge">
<title>bg&#45;&gt;req</title>
<path fill="none" stroke="black" stroke-width="1.1" d="M217.58,-304C217.58,-304 247.36,-304 247.36,-304"/>
<polygon fill="black" stroke="black" stroke-width="1.1" points="247.36,-306.8 255.36,-304 247.36,-301.2 247.36,-306.8"/>
</g>
<!-- arch -->
<g id="node3" class="node">
<title>arch</title>
<path fill="none" stroke="black" d="M630.92,-339.84C630.92,-339.84 514.25,-339.84 514.25,-339.84 508.25,-339.84 502.25,-333.84 502.25,-327.84 502.25,-327.84 502.25,-280.56 502.25,-280.56 502.25,-274.56 508.25,-268.56 514.25,-268.56 514.25,-268.56 630.92,-268.56 630.92,-268.56 636.92,-268.56 642.92,-274.56 642.92,-280.56 642.92,-280.56 642.92,-327.84 642.92,-327.84 642.92,-333.84 636.92,-339.84 630.92,-339.84"/>
<text xml:space="preserve" text-anchor="middle" x="572.59" y="-318.85" font-family="Microsoft YaHei" font-size="13.00">系统总体设计</text>
<text xml:space="preserve" text-anchor="middle" x="572.59" y="-300.85" font-family="Microsoft YaHei" font-size="13.00">数据库中心架构</text>
<text xml:space="preserve" text-anchor="middle" x="572.59" y="-282.85" font-family="Microsoft YaHei" font-size="13.00">微前端拆分核心模块</text>
</g>
<!-- req&#45;&gt;arch -->
<g id="edge2" class="edge">
<title>req&#45;&gt;arch</title>
<path fill="none" stroke="black" stroke-width="1.1" d="M462.03,-304C462.03,-304 492.36,-304 492.36,-304"/>
<polygon fill="black" stroke="black" stroke-width="1.1" points="492.36,-306.8 500.36,-304 492.36,-301.2 492.36,-306.8"/>
</g>
<!-- tech -->
<g id="node4" class="node">
<title>tech</title>
<path fill="none" stroke="black" d="M650.42,-214.56C650.42,-214.56 494.75,-214.56 494.75,-214.56 488.75,-214.56 482.75,-208.56 482.75,-202.56 482.75,-202.56 482.75,-137.28 482.75,-137.28 482.75,-131.28 488.75,-125.28 494.75,-125.28 494.75,-125.28 650.42,-125.28 650.42,-125.28 656.42,-125.28 662.42,-131.28 662.42,-137.28 662.42,-137.28 662.42,-202.56 662.42,-202.56 662.42,-208.56 656.42,-214.56 650.42,-214.56"/>
<text xml:space="preserve" text-anchor="middle" x="572.59" y="-193.57" font-family="Microsoft YaHei" font-size="13.00">关键技术路线</text>
<text xml:space="preserve" text-anchor="middle" x="572.59" y="-175.57" font-family="Microsoft YaHei" font-size="13.00">PostgreSQL + PostgREST</text>
<text xml:space="preserve" text-anchor="middle" x="572.59" y="-157.57" font-family="Microsoft YaHei" font-size="13.00">Vue 3 + qiankun</text>
<text xml:space="preserve" text-anchor="middle" x="572.59" y="-139.57" font-family="Microsoft YaHei" font-size="13.00">BPMN + 轻量语义增强</text>
</g>
<!-- arch&#45;&gt;tech -->
<g id="edge3" class="edge">
<title>arch&#45;&gt;tech</title>
<path fill="none" stroke="black" stroke-width="1.1" d="M572.59,-268.22C572.59,-268.22 572.59,-224.32 572.59,-224.32"/>
<polygon fill="black" stroke="black" stroke-width="1.1" points="575.39,-224.32 572.59,-216.32 569.79,-224.32 575.39,-224.32"/>
</g>
<!-- impl -->
<g id="node5" class="node">
<title>impl</title>
<path fill="none" stroke="black" d="M964.3,-205.56C964.3,-205.56 714.88,-205.56 714.88,-205.56 708.88,-205.56 702.88,-199.56 702.88,-193.56 702.88,-193.56 702.88,-146.28 702.88,-146.28 702.88,-140.28 708.88,-134.28 714.88,-134.28 714.88,-134.28 964.3,-134.28 964.3,-134.28 970.3,-134.28 976.3,-140.28 976.3,-146.28 976.3,-146.28 976.3,-193.56 976.3,-193.56 976.3,-199.56 970.3,-205.56 964.3,-205.56"/>
<text xml:space="preserve" text-anchor="middle" x="839.59" y="-184.57" font-family="Microsoft YaHei" font-size="13.00">系统实现</text>
<text xml:space="preserve" text-anchor="middle" x="839.59" y="-166.57" font-family="Microsoft YaHei" font-size="13.00">人事、物料、应用中心、移动端</text>
<text xml:space="preserve" text-anchor="middle" x="839.59" y="-148.57" font-family="Microsoft YaHei" font-size="13.00">FlashBuilder、Agent Runtime、冷库模式</text>
</g>
<!-- tech&#45;&gt;impl -->
<g id="edge4" class="edge">
<title>tech&#45;&gt;impl</title>
<path fill="none" stroke="black" stroke-width="1.1" d="M662.61,-170C662.61,-170 692.81,-170 692.81,-170"/>
<polygon fill="black" stroke="black" stroke-width="1.1" points="692.81,-172.8 700.81,-170 692.81,-167.2 692.81,-172.8"/>
</g>
<!-- verify -->
<g id="node6" class="node">
<title>verify</title>
<path fill="none" stroke="black" d="M1208.8,-205.56C1208.8,-205.56 1028.38,-205.56 1028.38,-205.56 1022.38,-205.56 1016.38,-199.56 1016.38,-193.56 1016.38,-193.56 1016.38,-146.28 1016.38,-146.28 1016.38,-140.28 1022.38,-134.28 1028.38,-134.28 1028.38,-134.28 1208.8,-134.28 1208.8,-134.28 1214.8,-134.28 1220.8,-140.28 1220.8,-146.28 1220.8,-146.28 1220.8,-193.56 1220.8,-193.56 1220.8,-199.56 1214.8,-205.56 1208.8,-205.56"/>
<text xml:space="preserve" text-anchor="middle" x="1118.59" y="-184.57" font-family="Microsoft YaHei" font-size="13.00">测试与验证</text>
<text xml:space="preserve" text-anchor="middle" x="1118.59" y="-166.57" font-family="Microsoft YaHei" font-size="13.00">登录鉴权、页面访问、库存链路</text>
<text xml:space="preserve" text-anchor="middle" x="1118.59" y="-148.57" font-family="Microsoft YaHei" font-size="13.00">流程读取与受控工具验证</text>
</g>
<!-- impl&#45;&gt;verify -->
<g id="edge5" class="edge">
<title>impl&#45;&gt;verify</title>
<path fill="none" stroke="black" stroke-width="1.1" d="M976.63,-170C976.63,-170 1006.27,-170 1006.27,-170"/>
<polygon fill="black" stroke="black" stroke-width="1.1" points="1006.27,-172.8 1014.27,-170 1006.27,-167.2 1006.27,-172.8"/>
</g>
<!-- thesis -->
<g id="node7" class="node">
<title>thesis</title>
<path fill="none" stroke="black" d="M1234.3,-71.28C1234.3,-71.28 1002.88,-71.28 1002.88,-71.28 996.88,-71.28 990.88,-65.28 990.88,-59.28 990.88,-59.28 990.88,-12 990.88,-12 990.88,-6 996.88,0 1002.88,0 1002.88,0 1234.3,0 1234.3,0 1240.3,0 1246.3,-6 1246.3,-12 1246.3,-12 1246.3,-59.28 1246.3,-59.28 1246.3,-65.28 1240.3,-71.28 1234.3,-71.28"/>
<text xml:space="preserve" text-anchor="middle" x="1118.59" y="-50.29" font-family="Microsoft YaHei" font-size="13.00">论文形成</text>
<text xml:space="preserve" text-anchor="middle" x="1118.59" y="-32.29" font-family="Microsoft YaHei" font-size="13.00">绪论→需求分析→总体设计→数据库设计</text>
<text xml:space="preserve" text-anchor="middle" x="1118.59" y="-14.29" font-family="Microsoft YaHei" font-size="13.00">详细设计→系统实现→测试与总结</text>
</g>
<!-- verify&#45;&gt;thesis -->
<g id="edge6" class="edge">
<title>verify&#45;&gt;thesis</title>
<path fill="none" stroke="black" stroke-width="1.1" d="M1118.59,-133.94C1118.59,-133.94 1118.59,-81.39 1118.59,-81.39"/>
<polygon fill="black" stroke="black" stroke-width="1.1" points="1121.39,-81.39 1118.59,-73.39 1115.79,-81.39 1121.39,-81.39"/>
</g>
</g>
</svg>
