<?plantuml 1.2026.1?><svg xmlns="http://www.w3.org/2000/svg" xmlns:xlink="http://www.w3.org/1999/xlink" contentStyleType="text/css" data-diagram-type="ACTIVITY" height="685px" preserveAspectRatio="none" style="width:403px;height:685px;background:#FFFFFF;" version="1.1" viewBox="0 0 403 685" width="403px" zoomAndPan="magnify"><title>&#22270;3-5 &#37319;&#36141;&#20837;&#24211;&#19982;&#26469;&#26009;&#26816;&#39564;&#27963;&#21160;&#22270;</title><defs/><g><g class="title" data-source-line="1"><text fill="#000000" font-family="sans-serif" font-size="14" font-weight="bold" lengthAdjust="spacing" textLength="212.1662" x="94.3364" y="32.9951">&#22270;3-5 &#37319;&#36141;&#20837;&#24211;&#19982;&#26469;&#26009;&#26816;&#39564;&#27963;&#21160;&#22270;</text></g><ellipse cx="173.4602" cy="57.2969" fill="#222222" rx="10" ry="10" style="stroke:#222222;stroke-width:1;"/><rect fill="#F1F1F1" height="33.9688" rx="12.5" ry="12.5" style="stroke:#181818;stroke-width:0.5;" width="146.0125" x="100.4539" y="87.2969"/><text fill="#000000" font-family="sans-serif" font-size="12" lengthAdjust="spacing" textLength="126.0125" x="110.4539" y="108.4355">PMC/&#37319;&#36141;&#30830;&#35748;&#21040;&#36135;&#38656;&#27714;</text><rect fill="#F1F1F1" height="33.9688" rx="12.5" ry="12.5" style="stroke:#181818;stroke-width:0.5;" width="192.0443" x="77.438" y="141.2656"/><text fill="#000000" font-family="sans-serif" font-size="12" lengthAdjust="spacing" textLength="172.0443" x="87.438" y="162.4043">&#37319;&#36141;&#20154;&#21592;&#32500;&#25252;&#37319;&#36141;&#35746;&#21333;/&#21040;&#36135;&#20449;&#24687;</text><rect fill="#F1F1F1" height="33.9688" rx="12.5" ry="12.5" style="stroke:#181818;stroke-width:0.5;" width="104.0006" x="121.4598" y="195.2344"/><text fill="#000000" font-family="sans-serif" font-size="12" lengthAdjust="spacing" textLength="84.0006" x="131.4598" y="216.373">&#20179;&#31649;&#21592;&#30331;&#35760;&#21040;&#36135;</text><rect fill="#F1F1F1" height="33.9688" rx="12.5" ry="12.5" style="stroke:#181818;stroke-width:0.5;" width="140.0009" x="103.4597" y="249.2031"/><text fill="#000000" font-family="sans-serif" font-size="12" lengthAdjust="spacing" textLength="120.0009" x="113.4597" y="270.3418">&#36136;&#26816;&#20154;&#21592;&#21457;&#36215;&#26469;&#26009;&#26816;&#39564;</text><polygon fill="#F1F1F1" points="137.5412,303.1719,209.3791,303.1719,221.3791,315.1719,209.3791,327.1719,137.5412,327.1719,125.5412,315.1719,137.5412,303.1719" style="stroke:#181818;stroke-width:0.5;"/><text fill="#000000" font-family="sans-serif" font-size="11" lengthAdjust="spacing" textLength="71.8379" x="137.5412" y="318.98">&#26816;&#39564;&#26159;&#21542;&#21512;&#26684;?</text><text fill="#000000" font-family="sans-serif" font-size="11" lengthAdjust="spacing" textLength="10.9999" x="114.5413" y="312.5776">&#26159;</text><text fill="#000000" font-family="sans-serif" font-size="11" lengthAdjust="spacing" textLength="10.9999" x="221.3791" y="312.5776">&#21542;</text><rect fill="#F1F1F1" height="33.9688" rx="12.5" ry="12.5" style="stroke:#181818;stroke-width:0.5;" width="104.0006" x="17" y="337.1719"/><text fill="#000000" font-family="sans-serif" font-size="12" lengthAdjust="spacing" textLength="84.0006" x="27" y="358.3105">&#29983;&#25104;&#37319;&#36141;&#20837;&#24211;&#21333;</text><rect fill="#F1F1F1" height="33.9688" rx="12.5" ry="12.5" style="stroke:#181818;stroke-width:0.5;" width="92.0005" x="23.0001" y="391.1406"/><text fill="#000000" font-family="sans-serif" font-size="12" lengthAdjust="spacing" textLength="72.0005" x="33.0001" y="412.2793">&#20889;&#20837;&#24211;&#23384;&#25209;&#27425;</text><rect fill="#F1F1F1" height="33.9688" rx="12.5" ry="12.5" style="stroke:#181818;stroke-width:0.5;" width="92.0005" x="23.0001" y="445.1094"/><text fill="#000000" font-family="sans-serif" font-size="12" lengthAdjust="spacing" textLength="72.0005" x="33.0001" y="466.248">&#20889;&#20837;&#24211;&#23384;&#27969;&#27700;</text><rect fill="#F1F1F1" height="33.9688" rx="12.5" ry="12.5" style="stroke:#181818;stroke-width:0.5;" width="116.0007" x="11" y="514.0781"/><text fill="#000000" font-family="sans-serif" font-size="12" lengthAdjust="spacing" textLength="96.0007" x="21" y="535.2168">&#26356;&#26032;&#37319;&#36141;&#25191;&#34892;&#29366;&#24577;</text><rect fill="#F1F1F1" height="33.9688" rx="12.5" ry="12.5" style="stroke:#181818;stroke-width:0.5;" width="104.0006" x="225.9196" y="337.1719"/><text fill="#000000" font-family="sans-serif" font-size="12" lengthAdjust="spacing" textLength="84.0006" x="235.9196" y="358.3105">&#35760;&#24405;&#19981;&#21512;&#26684;&#32467;&#26524;</text><rect fill="#F1F1F1" height="33.9688" rx="12.5" ry="12.5" style="stroke:#181818;stroke-width:0.5;" width="128.0008" x="213.9195" y="391.1406"/><text fill="#000000" font-family="sans-serif" font-size="12" lengthAdjust="spacing" textLength="108.0008" x="223.9195" y="412.2793">&#20445;&#30041;&#38468;&#20214;&#19982;&#22788;&#29702;&#24847;&#35265;</text><polygon fill="#F1F1F1" points="231.0011,445.1094,324.8388,445.1094,336.8388,457.1094,324.8388,469.1094,231.0011,469.1094,219.0011,457.1094,231.0011,445.1094" style="stroke:#181818;stroke-width:0.5;"/><text fill="#000000" font-family="sans-serif" font-size="11" lengthAdjust="spacing" textLength="93.8378" x="231.0011" y="460.9175">&#26159;&#21542;&#20801;&#35768;&#21518;&#32493;&#34917;&#24405;?</text><text fill="#000000" font-family="sans-serif" font-size="11" lengthAdjust="spacing" textLength="10.9999" x="208.0011" y="454.5151">&#26159;</text><text fill="#000000" font-family="sans-serif" font-size="11" lengthAdjust="spacing" textLength="10.9999" x="336.8388" y="454.5151">&#21542;</text><rect fill="#F1F1F1" height="33.9688" rx="12.5" ry="12.5" style="stroke:#181818;stroke-width:0.5;" width="104.0006" x="157.0007" y="479.1094"/><text fill="#000000" font-family="sans-serif" font-size="12" lengthAdjust="spacing" textLength="84.0006" x="167.0007" y="500.248">&#20445;&#30041;&#24453;&#34917;&#24405;&#29366;&#24577;</text><rect fill="#F1F1F1" height="33.9688" rx="12.5" ry="12.5" style="stroke:#181818;stroke-width:0.5;" width="92.0005" x="300.8385" y="479.1094"/><text fill="#000000" font-family="sans-serif" font-size="12" lengthAdjust="spacing" textLength="72.0005" x="310.8385" y="500.248">&#32456;&#27490;&#27491;&#24335;&#20837;&#24211;</text><polygon fill="#F1F1F1" points="277.9199,519.0781,289.9199,531.0781,277.9199,543.0781,265.9199,531.0781,277.9199,519.0781" style="stroke:#181818;stroke-width:0.5;"/><polygon fill="#F1F1F1" points="173.4602,554.0469,185.4602,566.0469,173.4602,578.0469,161.4602,566.0469,173.4602,554.0469" style="stroke:#181818;stroke-width:0.5;"/><rect fill="#F1F1F1" height="33.9688" rx="12.5" ry="12.5" style="stroke:#181818;stroke-width:0.5;" width="184.6613" x="81.1295" y="598.0469"/><text fill="#000000" font-family="sans-serif" font-size="12" lengthAdjust="spacing" textLength="164.6613" x="91.1295" y="619.1855">&#24418;&#25104;&#37319;&#36141;&#21333;-&#26816;&#39564;&#21333;-&#20837;&#24211;&#21333;&#20851;&#32852;</text><ellipse cx="173.4602" cy="663.0156" fill="none" rx="11" ry="11" style="stroke:#222222;stroke-width:1;"/><ellipse cx="173.4602" cy="663.0156" fill="#222222" rx="6" ry="6" style="stroke:#222222;stroke-width:1;"/><line style="stroke:#181818;stroke-width:1;" x1="173.4602" x2="173.4602" y1="67.2969" y2="87.2969"/><polygon fill="#181818" points="169.4602,77.2969,173.4602,87.2969,177.4602,77.2969,173.4602,81.2969" style="stroke:#181818;stroke-width:1;"/><line style="stroke:#181818;stroke-width:1;" x1="173.4602" x2="173.4602" y1="121.2656" y2="141.2656"/><polygon fill="#181818" points="169.4602,131.2656,173.4602,141.2656,177.4602,131.2656,173.4602,135.2656" style="stroke:#181818;stroke-width:1;"/><line style="stroke:#181818;stroke-width:1;" x1="173.4602" x2="173.4602" y1="175.2344" y2="195.2344"/><polygon fill="#181818" points="169.4602,185.2344,173.4602,195.2344,177.4602,185.2344,173.4602,189.2344" style="stroke:#181818;stroke-width:1;"/><line style="stroke:#181818;stroke-width:1;" x1="173.4602" x2="173.4602" y1="229.2031" y2="249.2031"/><polygon fill="#181818" points="169.4602,239.2031,173.4602,249.2031,177.4602,239.2031,173.4602,243.2031" style="stroke:#181818;stroke-width:1;"/><line style="stroke:#181818;stroke-width:1;" x1="69.0004" x2="69.0004" y1="371.1406" y2="391.1406"/><polygon fill="#181818" points="65.0004,381.1406,69.0004,391.1406,73.0004,381.1406,69.0004,385.1406" style="stroke:#181818;stroke-width:1;"/><line style="stroke:#181818;stroke-width:1;" x1="69.0004" x2="69.0004" y1="425.1094" y2="445.1094"/><polygon fill="#181818" points="65.0004,435.1094,69.0004,445.1094,73.0004,435.1094,69.0004,439.1094" style="stroke:#181818;stroke-width:1;"/><line style="stroke:#181818;stroke-width:1;" x1="69.0004" x2="69.0004" y1="479.0781" y2="514.0781"/><polygon fill="#181818" points="65.0004,504.0781,69.0004,514.0781,73.0004,504.0781,69.0004,508.0781" style="stroke:#181818;stroke-width:1;"/><line style="stroke:#181818;stroke-width:1;" x1="277.9199" x2="277.9199" y1="371.1406" y2="391.1406"/><polygon fill="#181818" points="273.9199,381.1406,277.9199,391.1406,281.9199,381.1406,277.9199,385.1406" style="stroke:#181818;stroke-width:1;"/><line style="stroke:#181818;stroke-width:1;" x1="219.0011" x2="209.0011" y1="457.1094" y2="457.1094"/><line style="stroke:#181818;stroke-width:1;" x1="209.0011" x2="209.0011" y1="457.1094" y2="479.1094"/><polygon fill="#181818" points="205.0011,469.1094,209.0011,479.1094,213.0011,469.1094,209.0011,473.1094" style="stroke:#181818;stroke-width:1;"/><line style="stroke:#181818;stroke-width:1;" x1="336.8388" x2="346.8388" y1="457.1094" y2="457.1094"/><line style="stroke:#181818;stroke-width:1;" x1="346.8388" x2="346.8388" y1="457.1094" y2="479.1094"/><polygon fill="#181818" points="342.8388,469.1094,346.8388,479.1094,350.8388,469.1094,346.8388,473.1094" style="stroke:#181818;stroke-width:1;"/><line style="stroke:#181818;stroke-width:1;" x1="209.0011" x2="209.0011" y1="513.0781" y2="531.0781"/><line style="stroke:#181818;stroke-width:1;" x1="209.0011" x2="265.9199" y1="531.0781" y2="531.0781"/><polygon fill="#181818" points="255.9199,527.0781,265.9199,531.0781,255.9199,535.0781,259.9199,531.0781" style="stroke:#181818;stroke-width:1;"/><line style="stroke:#181818;stroke-width:1;" x1="346.8388" x2="346.8388" y1="513.0781" y2="531.0781"/><line style="stroke:#181818;stroke-width:1;" x1="346.8388" x2="289.9199" y1="531.0781" y2="531.0781"/><polygon fill="#181818" points="299.9199,527.0781,289.9199,531.0781,299.9199,535.0781,295.9199,531.0781" style="stroke:#181818;stroke-width:1;"/><line style="stroke:#181818;stroke-width:1;" x1="277.9199" x2="277.9199" y1="425.1094" y2="445.1094"/><polygon fill="#181818" points="273.9199,435.1094,277.9199,445.1094,281.9199,435.1094,277.9199,439.1094" style="stroke:#181818;stroke-width:1;"/><line style="stroke:#181818;stroke-width:1;" x1="125.5412" x2="69.0004" y1="315.1719" y2="315.1719"/><line style="stroke:#181818;stroke-width:1;" x1="69.0004" x2="69.0004" y1="315.1719" y2="337.1719"/><polygon fill="#181818" points="65.0004,327.1719,69.0004,337.1719,73.0004,327.1719,69.0004,331.1719" style="stroke:#181818;stroke-width:1;"/><line style="stroke:#181818;stroke-width:1;" x1="221.3791" x2="277.9199" y1="315.1719" y2="315.1719"/><line style="stroke:#181818;stroke-width:1;" x1="277.9199" x2="277.9199" y1="315.1719" y2="337.1719"/><polygon fill="#181818" points="273.9199,327.1719,277.9199,337.1719,281.9199,327.1719,277.9199,331.1719" style="stroke:#181818;stroke-width:1;"/><line style="stroke:#181818;stroke-width:1;" x1="69.0004" x2="69.0004" y1="548.0469" y2="566.0469"/><line style="stroke:#181818;stroke-width:1;" x1="69.0004" x2="161.4602" y1="566.0469" y2="566.0469"/><polygon fill="#181818" points="151.4602,562.0469,161.4602,566.0469,151.4602,570.0469,155.4602,566.0469" style="stroke:#181818;stroke-width:1;"/><line style="stroke:#181818;stroke-width:1;" x1="277.9199" x2="277.9199" y1="543.0781" y2="566.0469"/><line style="stroke:#181818;stroke-width:1;" x1="277.9199" x2="185.4602" y1="566.0469" y2="566.0469"/><polygon fill="#181818" points="195.4602,562.0469,185.4602,566.0469,195.4602,570.0469,191.4602,566.0469" style="stroke:#181818;stroke-width:1;"/><line style="stroke:#181818;stroke-width:1;" x1="173.4602" x2="173.4602" y1="283.1719" y2="303.1719"/><polygon fill="#181818" points="169.4602,293.1719,173.4602,303.1719,177.4602,293.1719,173.4602,297.1719" style="stroke:#181818;stroke-width:1;"/><line style="stroke:#181818;stroke-width:1;" x1="173.4602" x2="173.4602" y1="578.0469" y2="598.0469"/><polygon fill="#181818" points="169.4602,588.0469,173.4602,598.0469,177.4602,588.0469,173.4602,592.0469" style="stroke:#181818;stroke-width:1;"/><line style="stroke:#181818;stroke-width:1;" x1="173.4602" x2="173.4602" y1="632.0156" y2="652.0156"/><polygon fill="#181818" points="169.4602,642.0156,173.4602,652.0156,177.4602,642.0156,173.4602,646.0156" style="stroke:#181818;stroke-width:1;"/><?plantuml-src PLBDJi906BplK-mH3eQ3yK8F7ZoR-0ecGYGnQgGFG0t_uQS6C3JYJ_aHOcp1M10fmilq-tPv2xTTLDHBivcPpivCLase9p4ADuljhHswokMuOq6c1xEQDwtWRG-l3UoaLaybT5me3eIEaAHwUA6IwC7-NaJ-m4oRsrt8ZxZJNxLI-7AfaAYalDaChfhCTR3ObGYtsr1kHAJQMvge3ONQSslCDdsfuN9x95c1SsSWxfSkKBtYuxVDK0eXYJWDhHCsXw0_Wfx7X_bkcAh7iLD1DOTXGccKrUynhs_s4o4Kdu6iiGQi9XRUyTdy3uyr73a1Z3SENe-a3nRwt2onuWHJca9Y9yaO3Oa4mNr-Xu-6DotBFCojuLqhSF2MjwnXh8oqvqx4nj1DCpsBwIhlQpuVz95DCXgtfw1Nc6jnioVi_hRwTeD5HYg-mb3wAuu_W9j7gurM1-PLMInGdHubuaH-IHG-sZyZbHjRSbV_z3qPP5wvLbV46pWx9vy0?></g></svg>