<?plantuml 1.2026.1?><svg xmlns="http://www.w3.org/2000/svg" xmlns:xlink="http://www.w3.org/1999/xlink" contentStyleType="text/css" data-diagram-type="ACTIVITY" height="841px" preserveAspectRatio="none" style="width:420px;height:841px;background:#FFFFFF;" version="1.1" viewBox="0 0 420 841" width="420px" zoomAndPan="magnify"><title>&#22270;3-6 &#29983;&#20135;&#39046;&#26009;&#19982;&#34917;&#26009;&#27963;&#21160;&#22270;</title><defs/><g><g class="title" data-source-line="1"><text fill="#000000" font-family="sans-serif" font-size="14" font-weight="bold" lengthAdjust="spacing" textLength="184.1663" x="116.4179" y="32.9951">&#22270;3-6 &#29983;&#20135;&#39046;&#26009;&#19982;&#34917;&#26009;&#27963;&#21160;&#22270;</text></g><ellipse cx="242.5013" cy="57.2969" fill="#222222" rx="10" ry="10" style="stroke:#222222;stroke-width:1;"/><rect fill="#F1F1F1" height="33.9688" rx="12.5" ry="12.5" style="stroke:#181818;stroke-width:0.5;" width="117.9693" x="183.5166" y="87.2969"/><text fill="#000000" font-family="sans-serif" font-size="12" lengthAdjust="spacing" textLength="97.9693" x="193.5166" y="108.4355">PMC&#19979;&#36798;&#29983;&#20135;&#20219;&#21153;</text><rect fill="#F1F1F1" height="33.9688" rx="12.5" ry="12.5" style="stroke:#181818;stroke-width:0.5;" width="140.0009" x="172.5008" y="141.2656"/><text fill="#000000" font-family="sans-serif" font-size="12" lengthAdjust="spacing" textLength="120.0009" x="182.5008" y="162.4043">&#31995;&#32479;&#29983;&#25104;&#24037;&#21333;&#29992;&#26009;&#38656;&#27714;</text><rect fill="#F1F1F1" height="33.9688" rx="12.5" ry="12.5" style="stroke:#181818;stroke-width:0.5;" width="116.0007" x="184.5009" y="195.2344"/><text fill="#000000" font-family="sans-serif" font-size="12" lengthAdjust="spacing" textLength="96.0007" x="194.5009" y="216.373">&#29983;&#20135;&#20027;&#31649;&#21457;&#36215;&#39046;&#26009;</text><rect fill="#F1F1F1" height="33.9688" rx="12.5" ry="12.5" style="stroke:#181818;stroke-width:0.5;" width="164.0011" x="160.5007" y="249.2031"/><text fill="#000000" font-family="sans-serif" font-size="12" lengthAdjust="spacing" textLength="144.0011" x="170.5007" y="270.3418">&#20179;&#31649;&#21592;&#25353;&#25209;&#27425;&#25191;&#34892;&#39046;&#26009;&#20986;&#24211;</text><polygon fill="#F1F1F1" points="168.0826,303.1719,316.92,303.1719,328.92,315.1719,316.92,327.1719,168.0826,327.1719,156.0826,315.1719,168.0826,303.1719" style="stroke:#181818;stroke-width:0.5;"/><text fill="#000000" font-family="sans-serif" font-size="11" lengthAdjust="spacing" textLength="148.8374" x="168.0826" y="318.98">&#29983;&#20135;&#36807;&#31243;&#20013;&#21407;&#26009;&#23646;&#24615;&#26159;&#21542;&#27874;&#21160;?</text><text fill="#000000" font-family="sans-serif" font-size="11" lengthAdjust="spacing" textLength="10.9999" x="145.0827" y="312.5776">&#26159;</text><text fill="#000000" font-family="sans-serif" font-size="11" lengthAdjust="spacing" textLength="10.9999" x="328.92" y="312.5776">&#21542;</text><rect fill="#F1F1F1" height="33.9688" rx="12.5" ry="12.5" style="stroke:#181818;stroke-width:0.5;" width="116.0007" x="82.0004" y="337.1719"/><text fill="#000000" font-family="sans-serif" font-size="12" lengthAdjust="spacing" textLength="96.0007" x="92.0004" y="358.3105">&#36710;&#38388;&#25552;&#20986;&#34917;&#26009;&#38656;&#27714;</text><rect fill="#F1F1F1" height="33.9688" rx="12.5" ry="12.5" style="stroke:#181818;stroke-width:0.5;" width="128.0008" x="76.0003" y="391.1406"/><text fill="#000000" font-family="sans-serif" font-size="12" lengthAdjust="spacing" textLength="108.0008" x="86.0003" y="412.2793">&#20179;&#31649;&#21592;&#23457;&#26680;&#25209;&#27425;&#24211;&#23384;</text><polygon fill="#F1F1F1" points="104.0818,445.1094,175.9197,445.1094,187.9197,457.1094,175.9197,469.1094,104.0818,469.1094,92.0818,457.1094,104.0818,445.1094" style="stroke:#181818;stroke-width:0.5;"/><text fill="#000000" font-family="sans-serif" font-size="11" lengthAdjust="spacing" textLength="71.8379" x="104.0818" y="460.9175">&#24211;&#23384;&#26159;&#21542;&#20805;&#36275;?</text><text fill="#000000" font-family="sans-serif" font-size="11" lengthAdjust="spacing" textLength="10.9999" x="81.0819" y="454.5151">&#26159;</text><text fill="#000000" font-family="sans-serif" font-size="11" lengthAdjust="spacing" textLength="10.9999" x="187.9197" y="454.5151">&#21542;</text><rect fill="#F1F1F1" height="33.9688" rx="12.5" ry="12.5" style="stroke:#181818;stroke-width:0.5;" width="92.0005" x="29.0001" y="479.1094"/><text fill="#000000" font-family="sans-serif" font-size="12" lengthAdjust="spacing" textLength="72.0005" x="39.0001" y="500.248">&#25191;&#34892;&#34917;&#26009;&#20986;&#24211;</text><rect fill="#F1F1F1" height="33.9688" rx="12.5" ry="12.5" style="stroke:#181818;stroke-width:0.5;" width="128.0008" x="11" y="533.0781"/><text fill="#000000" font-family="sans-serif" font-size="12" lengthAdjust="spacing" textLength="108.0008" x="21" y="554.2168">&#35760;&#24405;&#34917;&#26009;&#21407;&#22240;&#19982;&#25968;&#37327;</text><rect fill="#F1F1F1" height="33.9688" rx="12.5" ry="12.5" style="stroke:#181818;stroke-width:0.5;" width="92.0005" x="159.0008" y="479.1094"/><text fill="#000000" font-family="sans-serif" font-size="12" lengthAdjust="spacing" textLength="72.0005" x="169.0008" y="500.248">&#25552;&#31034;&#24211;&#23384;&#19981;&#36275;</text><polygon fill="#F1F1F1" points="140.0008,573.0469,152.0008,585.0469,140.0008,597.0469,128.0008,585.0469,140.0008,573.0469" style="stroke:#181818;stroke-width:0.5;"/><rect fill="#F1F1F1" height="33.9688" rx="12.5" ry="12.5" style="stroke:#181818;stroke-width:0.5;" width="128.0008" x="281.0014" y="337.1719"/><text fill="#000000" font-family="sans-serif" font-size="12" lengthAdjust="spacing" textLength="108.0008" x="291.0014" y="358.3105">&#25353;&#26631;&#20934;&#37197;&#26041;&#32487;&#32493;&#29983;&#20135;</text><polygon fill="#F1F1F1" points="242.5013,603.0469,254.5013,615.0469,242.5013,627.0469,230.5013,615.0469,242.5013,603.0469" style="stroke:#181818;stroke-width:0.5;"/><rect fill="#F1F1F1" height="33.9688" rx="12.5" ry="12.5" style="stroke:#181818;stroke-width:0.5;" width="68.0004" x="208.5011" y="647.0469"/><text fill="#000000" font-family="sans-serif" font-size="12" lengthAdjust="spacing" textLength="48.0004" x="218.5011" y="668.1855">&#29983;&#20135;&#25253;&#24037;</text><rect fill="#F1F1F1" height="33.9688" rx="12.5" ry="12.5" style="stroke:#181818;stroke-width:0.5;" width="68.0004" x="208.5011" y="701.0156"/><text fill="#000000" font-family="sans-serif" font-size="12" lengthAdjust="spacing" textLength="48.0004" x="218.5011" y="722.1543">&#23436;&#24037;&#20837;&#24211;</text><rect fill="#F1F1F1" height="33.9688" rx="12.5" ry="12.5" style="stroke:#181818;stroke-width:0.5;" width="212.1303" x="136.4361" y="754.9844"/><text fill="#000000" font-family="sans-serif" font-size="12" lengthAdjust="spacing" textLength="192.1303" x="146.4361" y="776.123">&#24418;&#25104;&#39046;&#26009;/&#34917;&#26009;/&#25253;&#24037;/&#20837;&#24211;&#21487;&#36861;&#28335;&#38142;&#36335;</text><ellipse cx="242.5013" cy="819.9531" fill="none" rx="11" ry="11" style="stroke:#222222;stroke-width:1;"/><ellipse cx="242.5013" cy="819.9531" fill="#222222" rx="6" ry="6" style="stroke:#222222;stroke-width:1;"/><line style="stroke:#181818;stroke-width:1;" x1="242.5013" x2="242.5013" y1="67.2969" y2="87.2969"/><polygon fill="#181818" points="238.5013,77.2969,242.5013,87.2969,246.5013,77.2969,242.5013,81.2969" style="stroke:#181818;stroke-width:1;"/><line style="stroke:#181818;stroke-width:1;" x1="242.5013" x2="242.5013" y1="121.2656" y2="141.2656"/><polygon fill="#181818" points="238.5013,131.2656,242.5013,141.2656,246.5013,131.2656,242.5013,135.2656" style="stroke:#181818;stroke-width:1;"/><line style="stroke:#181818;stroke-width:1;" x1="242.5013" x2="242.5013" y1="175.2344" y2="195.2344"/><polygon fill="#181818" points="238.5013,185.2344,242.5013,195.2344,246.5013,185.2344,242.5013,189.2344" style="stroke:#181818;stroke-width:1;"/><line style="stroke:#181818;stroke-width:1;" x1="242.5013" x2="242.5013" y1="229.2031" y2="249.2031"/><polygon fill="#181818" points="238.5013,239.2031,242.5013,249.2031,246.5013,239.2031,242.5013,243.2031" style="stroke:#181818;stroke-width:1;"/><line style="stroke:#181818;stroke-width:1;" x1="140.0008" x2="140.0008" y1="371.1406" y2="391.1406"/><polygon fill="#181818" points="136.0008,381.1406,140.0008,391.1406,144.0008,381.1406,140.0008,385.1406" style="stroke:#181818;stroke-width:1;"/><line style="stroke:#181818;stroke-width:1;" x1="75.0004" x2="75.0004" y1="513.0781" y2="533.0781"/><polygon fill="#181818" points="71.0004,523.0781,75.0004,533.0781,79.0004,523.0781,75.0004,527.0781" style="stroke:#181818;stroke-width:1;"/><line style="stroke:#181818;stroke-width:1;" x1="92.0818" x2="75.0004" y1="457.1094" y2="457.1094"/><line style="stroke:#181818;stroke-width:1;" x1="75.0004" x2="75.0004" y1="457.1094" y2="479.1094"/><polygon fill="#181818" points="71.0004,469.1094,75.0004,479.1094,79.0004,469.1094,75.0004,473.1094" style="stroke:#181818;stroke-width:1;"/><line style="stroke:#181818;stroke-width:1;" x1="187.9197" x2="205.0011" y1="457.1094" y2="457.1094"/><line style="stroke:#181818;stroke-width:1;" x1="205.0011" x2="205.0011" y1="457.1094" y2="479.1094"/><polygon fill="#181818" points="201.0011,469.1094,205.0011,479.1094,209.0011,469.1094,205.0011,473.1094" style="stroke:#181818;stroke-width:1;"/><line style="stroke:#181818;stroke-width:1;" x1="75.0004" x2="75.0004" y1="567.0469" y2="585.0469"/><line style="stroke:#181818;stroke-width:1;" x1="75.0004" x2="128.0008" y1="585.0469" y2="585.0469"/><polygon fill="#181818" points="118.0008,581.0469,128.0008,585.0469,118.0008,589.0469,122.0008,585.0469" style="stroke:#181818;stroke-width:1;"/><line style="stroke:#181818;stroke-width:1;" x1="205.0011" x2="205.0011" y1="513.0781" y2="585.0469"/><line style="stroke:#181818;stroke-width:1;" x1="205.0011" x2="152.0008" y1="585.0469" y2="585.0469"/><polygon fill="#181818" points="162.0008,581.0469,152.0008,585.0469,162.0008,589.0469,158.0008,585.0469" style="stroke:#181818;stroke-width:1;"/><line style="stroke:#181818;stroke-width:1;" x1="140.0008" x2="140.0008" y1="425.1094" y2="445.1094"/><polygon fill="#181818" points="136.0008,435.1094,140.0008,445.1094,144.0008,435.1094,140.0008,439.1094" style="stroke:#181818;stroke-width:1;"/><line style="stroke:#181818;stroke-width:1;" x1="156.0826" x2="140.0008" y1="315.1719" y2="315.1719"/><line style="stroke:#181818;stroke-width:1;" x1="140.0008" x2="140.0008" y1="315.1719" y2="337.1719"/><polygon fill="#181818" points="136.0008,327.1719,140.0008,337.1719,144.0008,327.1719,140.0008,331.1719" style="stroke:#181818;stroke-width:1;"/><line style="stroke:#181818;stroke-width:1;" x1="328.92" x2="345.0018" y1="315.1719" y2="315.1719"/><line style="stroke:#181818;stroke-width:1;" x1="345.0018" x2="345.0018" y1="315.1719" y2="337.1719"/><polygon fill="#181818" points="341.0018,327.1719,345.0018,337.1719,349.0018,327.1719,345.0018,331.1719" style="stroke:#181818;stroke-width:1;"/><line style="stroke:#181818;stroke-width:1;" x1="140.0008" x2="140.0008" y1="597.0469" y2="615.0469"/><line style="stroke:#181818;stroke-width:1;" x1="140.0008" x2="230.5013" y1="615.0469" y2="615.0469"/><polygon fill="#181818" points="220.5013,611.0469,230.5013,615.0469,220.5013,619.0469,224.5013,615.0469" style="stroke:#181818;stroke-width:1;"/><line style="stroke:#181818;stroke-width:1;" x1="345.0018" x2="345.0018" y1="371.1406" y2="615.0469"/><line style="stroke:#181818;stroke-width:1;" x1="345.0018" x2="254.5013" y1="615.0469" y2="615.0469"/><polygon fill="#181818" points="264.5013,611.0469,254.5013,615.0469,264.5013,619.0469,260.5013,615.0469" style="stroke:#181818;stroke-width:1;"/><line style="stroke:#181818;stroke-width:1;" x1="242.5013" x2="242.5013" y1="283.1719" y2="303.1719"/><polygon fill="#181818" points="238.5013,293.1719,242.5013,303.1719,246.5013,293.1719,242.5013,297.1719" style="stroke:#181818;stroke-width:1;"/><line style="stroke:#181818;stroke-width:1;" x1="242.5013" x2="242.5013" y1="627.0469" y2="647.0469"/><polygon fill="#181818" points="238.5013,637.0469,242.5013,647.0469,246.5013,637.0469,242.5013,641.0469" style="stroke:#181818;stroke-width:1;"/><line style="stroke:#181818;stroke-width:1;" x1="242.5013" x2="242.5013" y1="681.0156" y2="701.0156"/><polygon fill="#181818" points="238.5013,691.0156,242.5013,701.0156,246.5013,691.0156,242.5013,695.0156" style="stroke:#181818;stroke-width:1;"/><line style="stroke:#181818;stroke-width:1;" x1="242.5013" x2="242.5013" y1="734.9844" y2="754.9844"/><polygon fill="#181818" points="238.5013,744.9844,242.5013,754.9844,246.5013,744.9844,242.5013,748.9844" style="stroke:#181818;stroke-width:1;"/><line style="stroke:#181818;stroke-width:1;" x1="242.5013" x2="242.5013" y1="788.9531" y2="808.9531"/><polygon fill="#181818" points="238.5013,798.9531,242.5013,808.9531,246.5013,798.9531,242.5013,802.9531" style="stroke:#181818;stroke-width:1;"/><?plantuml-src NPBDJi9G48NtzocwX8LXOUAYB5ouDl4LJ8H8OjH87y2OO4M1rY28mGWbyhEG0W6bj05UfZFtzYsSCcAYk_RErtFEFLCZPvnbD6YkTdVsDFdK2lr-rBd5-aleLPJJfGUS1N0_84A8l75yPGZzwF0Wz1xKQiLy613Wf8Kkfu4CMdI8TpRCkr2koQS1AKIlrpYvYG7clK2w3bYFwdFENZGAWsfy-DZ0KX6B2_nmiDXNJea1C7tmgsaXSbajmIfgRSh1G-WDeTAAYSaRNlUnCGAxXzCE9TvFQiPfvbnBq65IQ9gkbhteUOQMJMfyjMqm6lxwW-jWs-C8v0d3HZoFVVcDBQ1GK5_J_nQamwbPVfjwCr3k69Qrdq6b1SqsDOorSMHQCP4vosV8mkvjTInRllji6NfbCjjGvoUvhFZ3wd5XRHFCswXGnlf21dqP3BcZjE0FjitZVPVsGcs3MueNLEXkykcmxD3AkEeKHqmncs86h95QBz4VHTMLce_Iz2TSN8fl?></g></svg>