<?xml version="1.0" encoding="UTF-8" standalone="no"?>
<!DOCTYPE svg PUBLIC "-//W3C//DTD SVG 1.1//EN"
 "http://www.w3.org/Graphics/SVG/1.1/DTD/svg11.dtd">
<!-- Generated by graphviz version 14.1.3 (20260303.0454)
 -->
<!-- Title: G Pages: 1 -->
<svg width="1228pt" height="219pt"
 viewBox="0.00 0.00 1228.00 219.00" xmlns="http://www.w3.org/2000/svg" xmlns:xlink="http://www.w3.org/1999/xlink">
<g id="graph0" class="graph" transform="scale(1 1) rotate(0) translate(4 215.04)">
<title>G</title>
<polygon fill="white" stroke="none" points="-4,4 -4,-215.04 1223.92,-215.04 1223.92,4 -4,4"/>
<!-- root -->
<g id="node1" class="node">
<title>root</title>
<path fill="none" stroke="black" d="M728.05,-211.04C728.05,-211.04 609.88,-211.04 609.88,-211.04 603.88,-211.04 597.88,-205.04 597.88,-199.04 597.88,-199.04 597.88,-187.04 597.88,-187.04 597.88,-181.04 603.88,-175.04 609.88,-175.04 609.88,-175.04 728.05,-175.04 728.05,-175.04 734.05,-175.04 740.05,-181.04 740.05,-187.04 740.05,-187.04 740.05,-199.04 740.05,-199.04 740.05,-205.04 734.05,-211.04 728.05,-211.04"/>
<text xml:space="preserve" text-anchor="middle" x="668.96" y="-189.89" font-family="Microsoft YaHei" font-size="12.00">EISCore系统功能结构</text>
</g>
<!-- basic -->
<g id="node2" class="node">
<title>basic</title>
<path fill="none" stroke="black" d="M505.55,-132.04C505.55,-132.04 210.38,-132.04 210.38,-132.04 204.38,-132.04 198.38,-126.04 198.38,-120.04 198.38,-120.04 198.38,-99.52 198.38,-99.52 198.38,-93.52 204.38,-87.52 210.38,-87.52 210.38,-87.52 505.55,-87.52 505.55,-87.52 511.55,-87.52 517.55,-93.52 517.55,-99.52 517.55,-99.52 517.55,-120.04 517.55,-120.04 517.55,-126.04 511.55,-132.04 505.55,-132.04"/>
<text xml:space="preserve" text-anchor="middle" x="357.96" y="-114.88" font-family="Microsoft YaHei" font-size="12.00">基础平台与主数据</text>
<text xml:space="preserve" text-anchor="middle" x="357.96" y="-98.38" font-family="Microsoft YaHei" font-size="12.00">组织、岗位、用户、角色、物料、客户、供应商、BOM</text>
</g>
<!-- root&#45;&gt;basic -->
<g id="edge1" class="edge">
<title>root&#45;&gt;basic</title>
<path fill="none" stroke="black" d="M600.68,-174.63C600.68,-152.13 600.68,-117 600.68,-117 600.68,-117 527.34,-117 527.34,-117"/>
<polygon fill="black" stroke="black" points="527.34,-114.2 519.34,-117 527.34,-119.8 527.34,-114.2"/>
</g>
<!-- hr -->
<g id="node3" class="node">
<title>hr</title>
<path fill="none" stroke="black" d="M217.92,-44.52C217.92,-44.52 12,-44.52 12,-44.52 6,-44.52 0,-38.52 0,-32.52 0,-32.52 0,-12 0,-12 0,-6 6,0 12,0 12,0 217.92,0 217.92,0 223.92,0 229.92,-6 229.92,-12 229.92,-12 229.92,-32.52 229.92,-32.52 229.92,-38.52 223.92,-44.52 217.92,-44.52"/>
<text xml:space="preserve" text-anchor="middle" x="114.96" y="-27.36" font-family="Microsoft YaHei" font-size="12.00">人事管理</text>
<text xml:space="preserve" text-anchor="middle" x="114.96" y="-10.86" font-family="Microsoft YaHei" font-size="12.00">员工档案、组织结构、用户管理、考勤</text>
</g>
<!-- root&#45;&gt;hr -->
<g id="edge2" class="edge">
<title>root&#45;&gt;hr</title>
<path fill="none" stroke="black" d="M597.66,-193C444.78,-193 99.19,-193 99.19,-193 99.19,-193 99.19,-54.45 99.19,-54.45"/>
<polygon fill="black" stroke="black" points="101.99,-54.45 99.19,-46.45 96.39,-54.45 101.99,-54.45"/>
</g>
<!-- scm -->
<g id="node4" class="node">
<title>scm</title>
<path fill="none" stroke="black" d="M599.92,-44.52C599.92,-44.52 274,-44.52 274,-44.52 268,-44.52 262,-38.52 262,-32.52 262,-32.52 262,-12 262,-12 262,-6 268,0 274,0 274,0 599.92,0 599.92,0 605.92,0 611.92,-6 611.92,-12 611.92,-12 611.92,-32.52 611.92,-32.52 611.92,-38.52 605.92,-44.52 599.92,-44.52"/>
<text xml:space="preserve" text-anchor="middle" x="436.96" y="-27.36" font-family="Microsoft YaHei" font-size="12.00">物料与仓储</text>
<text xml:space="preserve" text-anchor="middle" x="436.96" y="-10.86" font-family="Microsoft YaHei" font-size="12.00">物料主数据、仓库管理、库存台账、入库、出库、盘点、批次</text>
</g>
<!-- root&#45;&gt;scm -->
<g id="edge3" class="edge">
<title>root&#45;&gt;scm</title>
<path fill="none" stroke="black" d="M603.49,-174.76C603.49,-174.76 603.49,-54.5 603.49,-54.5"/>
<polygon fill="black" stroke="black" points="606.29,-54.5 603.49,-46.5 600.69,-54.5 606.29,-54.5"/>
</g>
<!-- appc -->
<g id="node5" class="node">
<title>appc</title>
<path fill="none" stroke="black" d="M909.92,-44.52C909.92,-44.52 656,-44.52 656,-44.52 650,-44.52 644,-38.52 644,-32.52 644,-32.52 644,-12 644,-12 644,-6 650,0 656,0 656,0 909.92,0 909.92,0 915.92,0 921.92,-6 921.92,-12 921.92,-12 921.92,-32.52 921.92,-32.52 921.92,-38.52 915.92,-44.52 909.92,-44.52"/>
<text xml:space="preserve" text-anchor="middle" x="782.96" y="-27.36" font-family="Microsoft YaHei" font-size="12.00">应用中心</text>
<text xml:space="preserve" text-anchor="middle" x="782.96" y="-10.86" font-family="Microsoft YaHei" font-size="12.00">数据应用配置、流程设计、审批中心、发布路由</text>
</g>
<!-- root&#45;&gt;appc -->
<g id="edge4" class="edge">
<title>root&#45;&gt;appc</title>
<path fill="none" stroke="black" d="M606.3,-174.55C606.3,-140.87 606.3,-73 606.3,-73 606.3,-73 782.96,-73 782.96,-73 782.96,-73 782.96,-54.47 782.96,-54.47"/>
<polygon fill="black" stroke="black" points="785.76,-54.47 782.96,-46.47 780.16,-54.47 785.76,-54.47"/>
</g>
<!-- mobile -->
<g id="node6" class="node">
<title>mobile</title>
<path fill="none" stroke="black" d="M1207.92,-44.52C1207.92,-44.52 966,-44.52 966,-44.52 960,-44.52 954,-38.52 954,-32.52 954,-32.52 954,-12 954,-12 954,-6 960,0 966,0 966,0 1207.92,0 1207.92,0 1213.92,0 1219.92,-6 1219.92,-12 1219.92,-12 1219.92,-32.52 1219.92,-32.52 1219.92,-38.52 1213.92,-44.52 1207.92,-44.52"/>
<text xml:space="preserve" text-anchor="middle" x="1086.96" y="-27.36" font-family="Microsoft YaHei" font-size="12.00">移动端</text>
<text xml:space="preserve" text-anchor="middle" x="1086.96" y="-10.86" font-family="Microsoft YaHei" font-size="12.00">移动登录、扫码、盘点、标签打印、冷库模式</text>
</g>
<!-- root&#45;&gt;mobile -->
<g id="edge5" class="edge">
<title>root&#45;&gt;mobile</title>
<path fill="none" stroke="black" d="M740.44,-193C870.21,-193 1131.28,-193 1131.28,-193 1131.28,-193 1131.28,-54.45 1131.28,-54.45"/>
<polygon fill="black" stroke="black" points="1134.08,-54.45 1131.28,-46.45 1128.48,-54.45 1134.08,-54.45"/>
</g>
<!-- support -->
<g id="node7" class="node">
<title>support</title>
<path fill="none" stroke="black" d="M914.05,-132.04C914.05,-132.04 627.88,-132.04 627.88,-132.04 621.88,-132.04 615.88,-126.04 615.88,-120.04 615.88,-120.04 615.88,-99.52 615.88,-99.52 615.88,-93.52 621.88,-87.52 627.88,-87.52 627.88,-87.52 914.05,-87.52 914.05,-87.52 920.05,-87.52 926.05,-93.52 926.05,-99.52 926.05,-99.52 926.05,-120.04 926.05,-120.04 926.05,-126.04 920.05,-132.04 914.05,-132.04"/>
<text xml:space="preserve" text-anchor="middle" x="770.96" y="-114.88" font-family="Microsoft YaHei" font-size="12.00">数据与权限支撑</text>
<text xml:space="preserve" text-anchor="middle" x="770.96" y="-98.38" font-family="Microsoft YaHei" font-size="12.00">RLS、流程状态映射、附件关联、追溯链路、语义增强</text>
</g>
<!-- root&#45;&gt;support -->
<g id="edge6" class="edge">
<title>root&#45;&gt;support</title>
<path fill="none" stroke="black" d="M677.96,-174.56C677.96,-174.56 677.96,-141.87 677.96,-141.87"/>
<polygon fill="black" stroke="black" points="680.76,-141.87 677.96,-133.87 675.16,-141.87 680.76,-141.87"/>
</g>
<!-- basic&#45;&gt;hr -->
<g id="edge7" class="edge">
<title>basic&#45;&gt;hr</title>
<path fill="none" stroke="black" d="M214.15,-87.24C214.15,-87.24 214.15,-54.24 214.15,-54.24"/>
<polygon fill="black" stroke="black" points="216.95,-54.24 214.15,-46.24 211.35,-54.24 216.95,-54.24"/>
</g>
<!-- basic&#45;&gt;scm -->
<g id="edge8" class="edge">
<title>basic&#45;&gt;scm</title>
<path fill="none" stroke="black" d="M347.18,-87.24C347.18,-87.24 347.18,-54.24 347.18,-54.24"/>
<polygon fill="black" stroke="black" points="349.98,-54.24 347.18,-46.24 344.38,-54.24 349.98,-54.24"/>
</g>
<!-- basic&#45;&gt;appc -->
<g id="edge9" class="edge">
<title>basic&#45;&gt;appc</title>
<path fill="none" stroke="black" d="M432.36,-87.06C432.36,-73.54 432.36,-59 432.36,-59 432.36,-59 713.48,-59 713.48,-59 713.48,-59 713.48,-54.41 713.48,-54.41"/>
<polygon fill="black" stroke="black" points="716.28,-54.41 713.48,-46.41 710.68,-54.41 716.28,-54.41"/>
</g>
<!-- support&#45;&gt;scm -->
<g id="edge10" class="edge">
<title>support&#45;&gt;scm</title>
<path fill="none" stroke="black" d="M615.66,-102C611.48,-102 609.11,-102 609.11,-102 609.11,-102 609.11,-54.41 609.11,-54.41"/>
<polygon fill="black" stroke="black" points="611.91,-54.41 609.11,-46.41 606.31,-54.41 611.91,-54.41"/>
</g>
<!-- support&#45;&gt;appc -->
<g id="edge11" class="edge">
<title>support&#45;&gt;appc</title>
<path fill="none" stroke="black" d="M852.44,-87.24C852.44,-87.24 852.44,-54.24 852.44,-54.24"/>
<polygon fill="black" stroke="black" points="855.24,-54.24 852.44,-46.24 849.64,-54.24 855.24,-54.24"/>
</g>
<!-- support&#45;&gt;mobile -->
<g id="edge12" class="edge">
<title>support&#45;&gt;mobile</title>
<path fill="none" stroke="black" d="M926.24,-110C987.1,-110 1042.64,-110 1042.64,-110 1042.64,-110 1042.64,-54.37 1042.64,-54.37"/>
<polygon fill="black" stroke="black" points="1045.44,-54.37 1042.64,-46.37 1039.84,-54.37 1045.44,-54.37"/>
</g>
</g>
</svg>
