<?plantuml 1.2026.2?><svg xmlns="http://www.w3.org/2000/svg" xmlns:xlink="http://www.w3.org/1999/xlink" contentStyleType="text/css" data-diagram-type="ACTIVITY" height="4100.625px" preserveAspectRatio="none" style="width:2701px;height:4100px;background:#FFFFFF;" version="1.1" viewBox="0 0 2701 4100" width="2701.875px" zoomAndPan="magnify"><title>&#22270;3-1 &#21335;&#27966;&#39135;&#21697;&#29616;&#26377;&#20135;&#38144;&#21327;&#21516;&#19994;&#21153;&#27969;&#31243;&#22270;</title><defs/><g><g class="title" data-source-line="1"><text fill="#000000" font-family="Microsoft YaHei" font-size="26.25" font-weight="bold" lengthAdjust="spacing" textLength="471.6541" x="1112.5305" y="65.2753">&#22270;3-1 &#21335;&#27966;&#39135;&#21697;&#29616;&#26377;&#20135;&#38144;&#21327;&#21516;&#19994;&#21153;&#27969;&#31243;&#22270;</text></g><rect fill="none" height="44.5441" style="stroke:none;stroke-width:1.875;" width="2640.4651" x="28.125" y="98.7909"/><ellipse cx="225" cy="171.46" fill="#000000" rx="18.75" ry="18.75" style="stroke:#222222;stroke-width:1.875;"/><rect fill="#FFFFFF" height="67.196" rx="23.4375" ry="23.4375" style="stroke:#000000;stroke-width:0.9375;" width="172.5" x="138.75" y="227.71"/><text fill="#000000" font-family="Microsoft YaHei" font-size="22.5" lengthAdjust="spacing" textLength="135" x="157.5" y="270.2673">&#23458;&#25143;&#38656;&#27714;&#30830;&#35748;</text><rect fill="#FFFFFF" height="67.196" rx="23.4375" ry="23.4375" style="stroke:#000000;stroke-width:0.9375;" width="172.5" x="138.75" y="332.406"/><text fill="#000000" font-family="Microsoft YaHei" font-size="22.5" lengthAdjust="spacing" textLength="135" x="157.5" y="374.9634">&#38144;&#21806;&#21512;&#21516;&#24405;&#20837;</text><rect fill="#FFFFFF" height="67.196" rx="23.4375" ry="23.4375" style="stroke:#000000;stroke-width:0.9375;" width="172.5" x="138.75" y="437.1021"/><text fill="#000000" font-family="Microsoft YaHei" font-size="22.5" lengthAdjust="spacing" textLength="135" x="157.5" y="479.6594">&#38144;&#21806;&#35746;&#21333;&#21019;&#24314;</text><rect fill="#FFFFFF" height="67.196" rx="23.4375" ry="23.4375" style="stroke:#000000;stroke-width:0.9375;" width="127.5" x="329.0625" y="3127.7669"/><text fill="#000000" font-family="Microsoft YaHei" font-size="22.5" lengthAdjust="spacing" textLength="90" x="347.8125" y="3170.3242">&#29289;&#27969;&#21327;&#35843;</text><rect fill="#FFFFFF" height="67.196" rx="23.4375" ry="23.4375" style="stroke:#000000;stroke-width:0.9375;" width="127.5" x="329.0625" y="3232.4629"/><text fill="#000000" font-family="Microsoft YaHei" font-size="22.5" lengthAdjust="spacing" textLength="90" x="347.8125" y="3275.0203">&#21457;&#36135;&#36890;&#30693;</text><rect fill="#FFFFFF" height="67.196" rx="23.4375" ry="23.4375" style="stroke:#000000;stroke-width:0.9375;" width="127.5" x="39.375" y="3797.4971"/><text fill="#000000" font-family="Microsoft YaHei" font-size="22.5" lengthAdjust="spacing" textLength="90" x="58.125" y="3840.0545">&#23458;&#25143;&#31614;&#25910;</text><rect fill="#FFFFFF" height="67.196" rx="23.4375" ry="23.4375" style="stroke:#000000;stroke-width:0.9375;" width="127.5" x="39.375" y="3902.1931"/><text fill="#000000" font-family="Microsoft YaHei" font-size="22.5" lengthAdjust="spacing" textLength="90" x="58.125" y="3944.7505">&#20132;&#20184;&#23436;&#25104;</text><ellipse cx="103.125" cy="4027.5142" fill="none" rx="20.625" ry="20.625" style="stroke:#222222;stroke-width:1.875;"/><ellipse cx="103.125" cy="4027.5142" fill="#222222" rx="11.25" ry="11.25" style="stroke:#222222;stroke-width:1.875;"/><line style="stroke:#000000;stroke-width:2.8125;" x1="28.125" x2="28.125" y1="98.7909" y2="4078.1392"/><rect fill="#FFFFFF" height="67.196" rx="23.4375" ry="23.4375" style="stroke:#000000;stroke-width:0.9375;" width="172.5" x="620.625" y="541.7981"/><text fill="#000000" font-family="Microsoft YaHei" font-size="22.5" lengthAdjust="spacing" textLength="135" x="639.375" y="584.3555">&#25104;&#21697;&#24211;&#23384;&#26680;&#23545;</text><polygon fill="#FFFFFF" points="640.02,646.4941,773.73,646.4941,796.23,668.9941,773.73,691.4941,640.02,691.4941,617.52,668.9941,640.02,646.4941" style="stroke:#000000;stroke-width:0.9375;"/><text fill="#000000" font-family="Microsoft YaHei" font-size="20.625" lengthAdjust="spacing" textLength="133.71" x="640.02" y="677.2069">&#24211;&#23384;&#28385;&#36275;&#35746;&#21333;?</text><text fill="#000000" font-family="Microsoft YaHei" font-size="20.625" lengthAdjust="spacing" textLength="20.625" x="596.895" y="663.5962">&#26159;</text><text fill="#000000" font-family="Microsoft YaHei" font-size="20.625" lengthAdjust="spacing" textLength="20.625" x="796.23" y="663.5962">&#21542;</text><rect fill="#FFFFFF" height="67.196" rx="23.4375" ry="23.4375" style="stroke:#000000;stroke-width:0.9375;" width="127.5" x="475.3125" y="728.9941"/><text fill="#000000" font-family="Microsoft YaHei" font-size="22.5" lengthAdjust="spacing" textLength="90" x="494.0625" y="771.5515">&#21457;&#36135;&#36890;&#30693;</text><rect fill="#FFFFFF" height="67.196" rx="23.4375" ry="23.4375" style="stroke:#000000;stroke-width:0.9375;" width="172.5" x="788.4375" y="833.6902"/><text fill="#000000" font-family="Microsoft YaHei" font-size="22.5" lengthAdjust="spacing" textLength="135" x="807.1875" y="876.2476">&#19979;&#36798;&#29983;&#20135;&#35746;&#21333;</text><rect fill="#FFFFFF" height="67.196" rx="23.4375" ry="23.4375" style="stroke:#000000;stroke-width:0.9375;" width="172.5" x="788.4375" y="938.3862"/><text fill="#000000" font-family="Microsoft YaHei" font-size="22.5" lengthAdjust="spacing" textLength="135" x="807.1875" y="980.9436">&#29289;&#26009;&#38656;&#27714;&#20998;&#26512;</text><polygon fill="#FFFFFF" points="818.145,1043.0823,931.23,1043.0823,953.73,1065.5823,931.23,1088.0823,818.145,1088.0823,795.645,1065.5823,818.145,1043.0823" style="stroke:#000000;stroke-width:0.9375;"/><text fill="#000000" font-family="Microsoft YaHei" font-size="20.625" lengthAdjust="spacing" textLength="20.625" x="882.1875" y="1109.9057">&#21542;</text><text fill="#000000" font-family="Microsoft YaHei" font-size="20.625" lengthAdjust="spacing" textLength="113.085" x="818.145" y="1073.795">&#21407;&#36741;&#26009;&#20805;&#36275;?</text><text fill="#000000" font-family="Microsoft YaHei" font-size="20.625" lengthAdjust="spacing" textLength="20.625" x="775.02" y="1060.1843">&#26159;</text><polygon fill="#FFFFFF" points="874.6875,1725.1561,897.1875,1747.6561,874.6875,1770.1561,852.1875,1747.6561,874.6875,1725.1561" style="stroke:#000000;stroke-width:0.9375;"/><rect fill="#FFFFFF" height="67.196" rx="23.4375" ry="23.4375" style="stroke:#000000;stroke-width:0.9375;" width="172.5" x="788.4375" y="3023.0708"/><text fill="#000000" font-family="Microsoft YaHei" font-size="22.5" lengthAdjust="spacing" textLength="135" x="807.1875" y="3065.6282">&#23436;&#24037;&#20449;&#24687;&#21453;&#39304;</text><polygon fill="#FFFFFF" points="706.875,3318.409,729.375,3340.909,706.875,3363.409,684.375,3340.909,706.875,3318.409" style="stroke:#000000;stroke-width:0.9375;"/><rect fill="#FFFFFF" height="67.196" rx="23.4375" ry="23.4375" style="stroke:#000000;stroke-width:0.9375;" width="240" x="708.75" y="3588.105"/><text fill="#000000" font-family="Microsoft YaHei" font-size="22.5" lengthAdjust="spacing" textLength="202.5" x="727.5" y="3630.6624">&#21453;&#39304;&#24322;&#24120;&#24182;&#37325;&#26032;&#21327;&#35843;</text><ellipse cx="828.75" cy="3713.4261" fill="none" rx="20.625" ry="20.625" style="stroke:#222222;stroke-width:1.875;"/><ellipse cx="828.75" cy="3713.4261" fill="#222222" rx="11.25" ry="11.25" style="stroke:#222222;stroke-width:1.875;"/><line style="stroke:#000000;stroke-width:2.8125;" x1="464.0625" x2="464.0625" y1="98.7909" y2="4078.1392"/><rect fill="#FFFFFF" height="67.196" rx="23.4375" ry="23.4375" style="stroke:#000000;stroke-width:0.9375;" width="191.5503" x="993.105" y="728.9941"/><text fill="#000000" font-family="Microsoft YaHei" font-size="22.5" lengthAdjust="spacing" textLength="154.0503" x="1011.855" y="771.5515">BOM/&#24037;&#33402;&#25552;&#20379;</text><line style="stroke:#000000;stroke-width:2.8125;" x1="981.855" x2="981.855" y1="98.7909" y2="4078.1392"/><rect fill="#FFFFFF" height="67.196" rx="23.4375" ry="23.4375" style="stroke:#000000;stroke-width:0.9375;" width="172.5" x="1203.4053" y="1135.443"/><text fill="#000000" font-family="Microsoft YaHei" font-size="22.5" lengthAdjust="spacing" textLength="135" x="1222.1553" y="1178.0003">&#37319;&#36141;&#35746;&#21333;&#19979;&#36798;</text><rect fill="#FFFFFF" height="67.196" rx="23.4375" ry="23.4375" style="stroke:#000000;stroke-width:0.9375;" width="127.5" x="1225.9053" y="1240.139"/><text fill="#000000" font-family="Microsoft YaHei" font-size="22.5" lengthAdjust="spacing" textLength="90" x="1244.6553" y="1282.6964">&#21040;&#36135;&#36319;&#36394;</text><rect fill="#FFFFFF" height="67.196" rx="23.4375" ry="23.4375" style="stroke:#000000;stroke-width:0.9375;" width="195" x="1302.7803" y="1541.7101"/><text fill="#000000" font-family="Microsoft YaHei" font-size="22.5" lengthAdjust="spacing" textLength="157.5" x="1321.5303" y="1584.2674">&#36864;&#36135;&#25110;&#24322;&#24120;&#22788;&#29702;</text><ellipse cx="1400.2803" cy="1667.0311" fill="none" rx="20.625" ry="20.625" style="stroke:#222222;stroke-width:1.875;"/><ellipse cx="1400.2803" cy="1667.0311" fill="#222222" rx="11.25" ry="11.25" style="stroke:#222222;stroke-width:1.875;"/><line style="stroke:#000000;stroke-width:2.8125;" x1="1192.1553" x2="1192.1553" y1="98.7909" y2="4078.1392"/><rect fill="#FFFFFF" height="67.196" rx="23.4375" ry="23.4375" style="stroke:#000000;stroke-width:0.9375;" width="182.5305" x="1690.204" y="1344.8351"/><text fill="#000000" font-family="Microsoft YaHei" font-size="22.5" lengthAdjust="spacing" textLength="145.0305" x="1708.954" y="1387.3924">&#26469;&#26009;&#26816;&#39564;(IQC)</text><polygon fill="#FFFFFF" points="1714.6143,1459.2101,1848.3243,1459.2101,1870.8243,1481.7101,1848.3243,1504.2101,1714.6143,1504.2101,1692.1143,1481.7101,1714.6143,1459.2101" style="stroke:#000000;stroke-width:0.9375;"/><text fill="#000000" font-family="Microsoft YaHei" font-size="20.625" lengthAdjust="spacing" textLength="133.71" x="1714.6143" y="1489.9228">&#26469;&#26009;&#26816;&#39564;&#21512;&#26684;?</text><text fill="#000000" font-family="Microsoft YaHei" font-size="20.625" lengthAdjust="spacing" textLength="20.625" x="1671.4893" y="1476.3121">&#26159;</text><text fill="#000000" font-family="Microsoft YaHei" font-size="20.625" lengthAdjust="spacing" textLength="20.625" x="1870.8243" y="1476.3121">&#21542;</text><rect fill="#FFFFFF" height="67.196" rx="23.4375" ry="23.4375" style="stroke:#000000;stroke-width:0.9375;" width="196.2964" x="1683.3211" y="2401.301"/><text fill="#000000" font-family="Microsoft YaHei" font-size="22.5" lengthAdjust="spacing" textLength="158.7964" x="1702.0711" y="2443.8583">&#36807;&#31243;&#26816;&#39564;(IPQC)</text><rect fill="#FFFFFF" height="67.196" rx="23.4375" ry="23.4375" style="stroke:#000000;stroke-width:0.9375;" width="82.5" x="1740.2193" y="2731.1787"/><text fill="#000000" font-family="Microsoft YaHei" font-size="22.5" lengthAdjust="spacing" textLength="45" x="1758.9693" y="2773.7361">&#22797;&#26816;</text><polygon fill="#FFFFFF" points="1714.6143,2505.997,1848.3243,2505.997,1870.8243,2528.497,1848.3243,2550.997,1714.6143,2550.997,1692.1143,2528.497,1714.6143,2505.997" style="stroke:#000000;stroke-width:0.9375;"/><text fill="#000000" font-family="Microsoft YaHei" font-size="20.625" lengthAdjust="spacing" textLength="20.625" x="1788.9693" y="2572.8204">&#26159;</text><text fill="#000000" font-family="Microsoft YaHei" font-size="20.625" lengthAdjust="spacing" textLength="133.71" x="1714.6143" y="2536.7097">&#36807;&#31243;&#26816;&#39564;&#24322;&#24120;?</text><polygon fill="#FFFFFF" points="1781.4693,2835.8748,1803.9693,2858.3748,1781.4693,2880.8748,1758.9693,2858.3748,1781.4693,2835.8748" style="stroke:#000000;stroke-width:0.9375;"/><rect fill="#FFFFFF" height="67.196" rx="23.4375" ry="23.4375" style="stroke:#000000;stroke-width:0.9375;" width="194.2529" x="1516.5303" y="3400.909"/><text fill="#000000" font-family="Microsoft YaHei" font-size="22.5" lengthAdjust="spacing" textLength="156.7529" x="1535.2803" y="3443.4663">&#20986;&#36135;&#26816;&#39564;(OQC)</text><polygon fill="#FFFFFF" points="1567.4268,3505.605,1659.8868,3505.605,1682.3868,3528.105,1659.8868,3550.605,1567.4268,3550.605,1544.9268,3528.105,1567.4268,3505.605" style="stroke:#000000;stroke-width:0.9375;"/><text fill="#000000" font-family="Microsoft YaHei" font-size="20.625" lengthAdjust="spacing" textLength="92.46" x="1567.4268" y="3536.3177">&#20801;&#35768;&#20986;&#36135;?</text><text fill="#000000" font-family="Microsoft YaHei" font-size="20.625" lengthAdjust="spacing" textLength="20.625" x="1524.3018" y="3522.7071">&#26159;</text><text fill="#000000" font-family="Microsoft YaHei" font-size="20.625" lengthAdjust="spacing" textLength="20.625" x="1682.3868" y="3522.7071">&#21542;</text><line style="stroke:#000000;stroke-width:2.8125;" x1="1505.2803" x2="1505.2803" y1="98.7909" y2="4078.1392"/><rect fill="#FFFFFF" height="67.196" rx="23.4375" ry="23.4375" style="stroke:#000000;stroke-width:0.9375;" width="172.5" x="2091.1368" y="1541.7101"/><text fill="#000000" font-family="Microsoft YaHei" font-size="22.5" lengthAdjust="spacing" textLength="135" x="2109.8868" y="1584.2674">&#21150;&#29702;&#37319;&#36141;&#20837;&#24211;</text><rect fill="#FFFFFF" height="67.196" rx="23.4375" ry="23.4375" style="stroke:#000000;stroke-width:0.9375;" width="127.5" x="2224.2618" y="2004.7128"/><text fill="#000000" font-family="Microsoft YaHei" font-size="22.5" lengthAdjust="spacing" textLength="90" x="2243.0118" y="2047.2702">&#34917;&#26009;&#20986;&#24211;</text><rect fill="#FFFFFF" height="67.196" rx="23.4375" ry="23.4375" style="stroke:#000000;stroke-width:0.9375;" width="127.5" x="2224.2618" y="2918.3748"/><text fill="#000000" font-family="Microsoft YaHei" font-size="22.5" lengthAdjust="spacing" textLength="90" x="2243.0118" y="2960.9322">&#29983;&#20135;&#20837;&#24211;</text><rect fill="#FFFFFF" height="67.196" rx="23.4375" ry="23.4375" style="stroke:#000000;stroke-width:0.9375;" width="127.5" x="1934.5743" y="3588.105"/><text fill="#000000" font-family="Microsoft YaHei" font-size="22.5" lengthAdjust="spacing" textLength="90" x="1953.3243" y="3630.6624">&#38144;&#21806;&#20986;&#24211;</text><rect fill="#FFFFFF" height="67.196" rx="23.4375" ry="23.4375" style="stroke:#000000;stroke-width:0.9375;" width="172.5" x="1912.0743" y="3692.8011"/><text fill="#000000" font-family="Microsoft YaHei" font-size="22.5" lengthAdjust="spacing" textLength="135" x="1930.8243" y="3735.3584">&#29289;&#27969;&#20449;&#24687;&#30331;&#35760;</text><line style="stroke:#000000;stroke-width:2.8125;" x1="1900.8243" x2="1900.8243" y1="98.7909" y2="4078.1392"/><rect fill="#FFFFFF" height="67.196" rx="23.4375" ry="23.4375" style="stroke:#000000;stroke-width:0.9375;" width="127.5" x="2433.6168" y="1807.6561"/><text fill="#000000" font-family="Microsoft YaHei" font-size="22.5" lengthAdjust="spacing" textLength="90" x="2452.3668" y="1850.2135">&#29983;&#20135;&#39046;&#26009;</text><polygon fill="#FFFFFF" points="2409.8868,1912.3521,2584.8468,1912.3521,2607.3468,1934.8521,2584.8468,1957.3521,2409.8868,1957.3521,2387.3868,1934.8521,2409.8868,1912.3521" style="stroke:#000000;stroke-width:0.9375;"/><text fill="#000000" font-family="Microsoft YaHei" font-size="20.625" lengthAdjust="spacing" textLength="20.625" x="2504.8668" y="1979.1756">&#26159;</text><text fill="#000000" font-family="Microsoft YaHei" font-size="20.625" lengthAdjust="spacing" textLength="174.96" x="2409.8868" y="1943.0649">&#26159;&#21542;&#38656;&#35201;&#29983;&#20135;&#34917;&#26009;?</text><polygon fill="#FFFFFF" points="2497.3668,2109.4089,2519.8668,2131.9089,2497.3668,2154.4089,2474.8668,2131.9089,2497.3668,2109.4089" style="stroke:#000000;stroke-width:0.9375;"/><rect fill="#FFFFFF" height="67.196" rx="23.4375" ry="23.4375" style="stroke:#000000;stroke-width:0.9375;" width="172.5" x="2411.1168" y="2191.9089"/><text fill="#000000" font-family="Microsoft YaHei" font-size="22.5" lengthAdjust="spacing" textLength="135" x="2429.8668" y="2234.4662">&#36710;&#38388;&#29983;&#20135;&#21152;&#24037;</text><rect fill="#FFFFFF" height="67.196" rx="23.4375" ry="23.4375" style="stroke:#000000;stroke-width:0.9375;" width="127.5" x="2433.6168" y="2296.6049"/><text fill="#000000" font-family="Microsoft YaHei" font-size="22.5" lengthAdjust="spacing" textLength="90" x="2452.3668" y="2339.1623">&#29983;&#20135;&#25253;&#24037;</text><rect fill="#FFFFFF" height="67.196" rx="23.4375" ry="23.4375" style="stroke:#000000;stroke-width:0.9375;" width="195" x="2399.8668" y="2598.3577"/><text fill="#000000" font-family="Microsoft YaHei" font-size="22.5" lengthAdjust="spacing" textLength="157.5" x="2418.6168" y="2640.9151">&#36820;&#24037;&#25110;&#24037;&#33402;&#35843;&#25972;</text><line style="stroke:#000000;stroke-width:2.8125;" x1="2359.2618" x2="2359.2618" y1="98.7909" y2="4078.1392"/><line style="stroke:#000000;stroke-width:2.8125;" x1="2665.4718" x2="2665.4718" y1="98.7909" y2="4078.1392"/><line style="stroke:#000000;stroke-width:1.875;" x1="225" x2="225" y1="190.21" y2="227.71"/><polygon fill="#000000" points="217.5,208.96,225,227.71,232.5,208.96,225,216.46" style="stroke:#000000;stroke-width:1.875;"/><line style="stroke:#000000;stroke-width:1.875;" x1="225" x2="225" y1="294.906" y2="332.406"/><polygon fill="#000000" points="217.5,313.656,225,332.406,232.5,313.656,225,321.156" style="stroke:#000000;stroke-width:1.875;"/><line style="stroke:#000000;stroke-width:1.875;" x1="225" x2="225" y1="399.6021" y2="437.1021"/><polygon fill="#000000" points="217.5,418.3521,225,437.1021,232.5,418.3521,225,425.8521" style="stroke:#000000;stroke-width:1.875;"/><line style="stroke:#000000;stroke-width:1.875;" x1="392.8125" x2="392.8125" y1="3194.9629" y2="3232.4629"/><polygon fill="#000000" points="385.3125,3213.7129,392.8125,3232.4629,400.3125,3213.7129,392.8125,3221.2129" style="stroke:#000000;stroke-width:1.875;"/><line style="stroke:#000000;stroke-width:1.875;" x1="103.125" x2="103.125" y1="3864.6931" y2="3902.1931"/><polygon fill="#000000" points="95.625,3883.4431,103.125,3902.1931,110.625,3883.4431,103.125,3890.9431" style="stroke:#000000;stroke-width:1.875;"/><line style="stroke:#000000;stroke-width:1.875;" x1="103.125" x2="103.125" y1="3969.3892" y2="4006.8892"/><polygon fill="#000000" points="95.625,3988.1392,103.125,4006.8892,110.625,3988.1392,103.125,3995.6392" style="stroke:#000000;stroke-width:1.875;"/><line style="stroke:#000000;stroke-width:1.875;" x1="874.6875" x2="874.6875" y1="900.8862" y2="938.3862"/><polygon fill="#000000" points="867.1875,919.6362,874.6875,938.3862,882.1875,919.6362,874.6875,927.1362" style="stroke:#000000;stroke-width:1.875;"/><line style="stroke:#000000;stroke-width:1.875;" x1="795.645" x2="640.3125" y1="1065.5823" y2="1065.5823"/><polygon fill="#000000" points="632.8125,1402.9601,640.3125,1421.7101,647.8125,1402.9601,640.3125,1410.4601" style="stroke:#000000;stroke-width:1.875;"/><line style="stroke:#000000;stroke-width:1.875;" x1="640.3125" x2="640.3125" y1="1065.5823" y2="1747.6561"/><line style="stroke:#000000;stroke-width:1.875;" x1="640.3125" x2="852.1875" y1="1747.6561" y2="1747.6561"/><polygon fill="#000000" points="833.4375,1740.1561,852.1875,1747.6561,833.4375,1755.1561,840.9375,1747.6561" style="stroke:#000000;stroke-width:1.875;"/><line style="stroke:#000000;stroke-width:1.875;" x1="874.6875" x2="874.6875" y1="1005.5823" y2="1043.0823"/><polygon fill="#000000" points="867.1875,1024.3323,874.6875,1043.0823,882.1875,1024.3323,874.6875,1031.8323" style="stroke:#000000;stroke-width:1.875;"/><line style="stroke:#000000;stroke-width:1.875;" x1="617.52" x2="539.0625" y1="668.9941" y2="668.9941"/><line style="stroke:#000000;stroke-width:1.875;" x1="539.0625" x2="539.0625" y1="668.9941" y2="728.9941"/><polygon fill="#000000" points="531.5625,710.2441,539.0625,728.9941,546.5625,710.2441,539.0625,717.7441" style="stroke:#000000;stroke-width:1.875;"/><line style="stroke:#000000;stroke-width:1.875;" x1="539.0625" x2="539.0625" y1="796.1902" y2="3340.909"/><line style="stroke:#000000;stroke-width:1.875;" x1="539.0625" x2="684.375" y1="3340.909" y2="3340.909"/><polygon fill="#000000" points="665.625,3333.409,684.375,3340.909,665.625,3348.409,673.125,3340.909" style="stroke:#000000;stroke-width:1.875;"/><line style="stroke:#000000;stroke-width:1.875;" x1="706.875" x2="706.875" y1="608.9941" y2="646.4941"/><polygon fill="#000000" points="699.375,627.7441,706.875,646.4941,714.375,627.7441,706.875,635.2441" style="stroke:#000000;stroke-width:1.875;"/><line style="stroke:#000000;stroke-width:1.875;" x1="828.75" x2="828.75" y1="3655.3011" y2="3692.8011"/><polygon fill="#000000" points="821.25,3674.0511,828.75,3692.8011,836.25,3674.0511,828.75,3681.5511" style="stroke:#000000;stroke-width:1.875;"/><line style="stroke:#000000;stroke-width:1.875;" x1="1289.6553" x2="1289.6553" y1="1202.639" y2="1240.139"/><polygon fill="#000000" points="1282.1553,1221.389,1289.6553,1240.139,1297.1553,1221.389,1289.6553,1228.889" style="stroke:#000000;stroke-width:1.875;"/><line style="stroke:#000000;stroke-width:1.875;" x1="1400.2803" x2="1400.2803" y1="1608.9061" y2="1646.4061"/><polygon fill="#000000" points="1392.7803,1627.6561,1400.2803,1646.4061,1407.7803,1627.6561,1400.2803,1635.1561" style="stroke:#000000;stroke-width:1.875;"/><line style="stroke:#000000;stroke-width:1.875;" x1="1781.4693" x2="1781.4693" y1="1412.0311" y2="1459.2101"/><polygon fill="#000000" points="1773.9693,1440.4601,1781.4693,1459.2101,1788.9693,1440.4601,1781.4693,1447.9601" style="stroke:#000000;stroke-width:1.875;"/><line style="stroke:#000000;stroke-width:1.875;" x1="1692.1143" x2="1665.2193" y1="2528.497" y2="2528.497"/><polygon fill="#000000" points="1657.7193,2679.6162,1665.2193,2698.3662,1672.7193,2679.6162,1665.2193,2687.1162" style="stroke:#000000;stroke-width:1.875;"/><line style="stroke:#000000;stroke-width:1.875;" x1="1665.2193" x2="1665.2193" y1="2528.497" y2="2858.3748"/><line style="stroke:#000000;stroke-width:1.875;" x1="1665.2193" x2="1758.9693" y1="2858.3748" y2="2858.3748"/><polygon fill="#000000" points="1740.2193,2850.8748,1758.9693,2858.3748,1740.2193,2865.8748,1747.7193,2858.3748" style="stroke:#000000;stroke-width:1.875;"/><line style="stroke:#000000;stroke-width:1.875;" x1="1781.4693" x2="1781.4693" y1="2798.3748" y2="2835.8748"/><polygon fill="#000000" points="1773.9693,2817.1248,1781.4693,2835.8748,1788.9693,2817.1248,1781.4693,2824.6248" style="stroke:#000000;stroke-width:1.875;"/><line style="stroke:#000000;stroke-width:1.875;" x1="1781.4693" x2="1781.4693" y1="2468.497" y2="2505.997"/><polygon fill="#000000" points="1773.9693,2487.247,1781.4693,2505.997,1788.9693,2487.247,1781.4693,2494.747" style="stroke:#000000;stroke-width:1.875;"/><line style="stroke:#000000;stroke-width:1.875;" x1="1613.6568" x2="1613.6568" y1="3468.105" y2="3505.605"/><polygon fill="#000000" points="1606.1568,3486.855,1613.6568,3505.605,1621.1568,3486.855,1613.6568,3494.355" style="stroke:#000000;stroke-width:1.875;"/><line style="stroke:#000000;stroke-width:1.875;" x1="1998.3243" x2="1998.3243" y1="3655.3011" y2="3692.8011"/><polygon fill="#000000" points="1990.8243,3674.0511,1998.3243,3692.8011,2005.8243,3674.0511,1998.3243,3681.5511" style="stroke:#000000;stroke-width:1.875;"/><line style="stroke:#000000;stroke-width:1.875;" x1="2607.3468" x2="2629.8468" y1="1934.8521" y2="1934.8521"/><polygon fill="#000000" points="2622.3468,2019.5609,2629.8468,2038.3109,2637.3468,2019.5609,2629.8468,2027.0609" style="stroke:#000000;stroke-width:1.875;"/><line style="stroke:#000000;stroke-width:1.875;" x1="2629.8468" x2="2629.8468" y1="1934.8521" y2="2131.9089"/><line style="stroke:#000000;stroke-width:1.875;" x1="2629.8468" x2="2519.8668" y1="2131.9089" y2="2131.9089"/><polygon fill="#000000" points="2538.6168,2124.4089,2519.8668,2131.9089,2538.6168,2139.4089,2531.1168,2131.9089" style="stroke:#000000;stroke-width:1.875;"/><line style="stroke:#000000;stroke-width:1.875;" x1="2497.3668" x2="2497.3668" y1="1874.8521" y2="1912.3521"/><polygon fill="#000000" points="2489.8668,1893.6021,2497.3668,1912.3521,2504.8668,1893.6021,2497.3668,1901.1021" style="stroke:#000000;stroke-width:1.875;"/><line style="stroke:#000000;stroke-width:1.875;" x1="2497.3668" x2="2497.3668" y1="2154.4089" y2="2191.9089"/><polygon fill="#000000" points="2489.8668,2173.1589,2497.3668,2191.9089,2504.8668,2173.1589,2497.3668,2180.6589" style="stroke:#000000;stroke-width:1.875;"/><line style="stroke:#000000;stroke-width:1.875;" x1="2497.3668" x2="2497.3668" y1="2259.1049" y2="2296.6049"/><polygon fill="#000000" points="2489.8668,2277.8549,2497.3668,2296.6049,2504.8668,2277.8549,2497.3668,2285.3549" style="stroke:#000000;stroke-width:1.875;"/><line style="stroke:#000000;stroke-width:1.875;" x1="225" x2="225" y1="504.2981" y2="513.6731"/><line style="stroke:#000000;stroke-width:1.875;" x1="225" x2="706.875" y1="513.6731" y2="513.6731"/><line style="stroke:#000000;stroke-width:1.875;" x1="706.875" x2="706.875" y1="513.6731" y2="541.7981"/><polygon fill="#000000" points="699.375,523.0481,706.875,541.7981,714.375,523.0481,706.875,530.5481" style="stroke:#000000;stroke-width:1.875;"/><line style="stroke:#000000;stroke-width:1.875;" x1="1088.8802" x2="1088.8802" y1="796.1902" y2="805.5652"/><line style="stroke:#000000;stroke-width:1.875;" x1="1088.8802" x2="874.6875" y1="805.5652" y2="805.5652"/><line style="stroke:#000000;stroke-width:1.875;" x1="874.6875" x2="874.6875" y1="805.5652" y2="833.6902"/><polygon fill="#000000" points="867.1875,814.9402,874.6875,833.6902,882.1875,814.9402,874.6875,822.4402" style="stroke:#000000;stroke-width:1.875;"/><line style="stroke:#000000;stroke-width:1.875;" x1="1289.6553" x2="1289.6553" y1="1307.3351" y2="1316.7101"/><line style="stroke:#000000;stroke-width:1.875;" x1="1289.6553" x2="1781.4693" y1="1316.7101" y2="1316.7101"/><line style="stroke:#000000;stroke-width:1.875;" x1="1781.4693" x2="1781.4693" y1="1316.7101" y2="1344.8351"/><polygon fill="#000000" points="1773.9693,1326.0851,1781.4693,1344.8351,1788.9693,1326.0851,1781.4693,1333.5851" style="stroke:#000000;stroke-width:1.875;"/><line style="stroke:#000000;stroke-width:1.875;" x1="1692.1143" x2="1669.6143" y1="1481.7101" y2="1481.7101"/><line style="stroke:#000000;stroke-width:1.875;" x1="1669.6143" x2="1669.6143" y1="1481.7101" y2="1515.4601"/><line style="stroke:#000000;stroke-width:1.875;" x1="1669.6143" x2="2177.3868" y1="1515.4601" y2="1515.4601"/><line style="stroke:#000000;stroke-width:1.875;" x1="2177.3868" x2="2177.3868" y1="1515.4601" y2="1541.7101"/><polygon fill="#000000" points="2169.8868,1522.9601,2177.3868,1541.7101,2184.8868,1522.9601,2177.3868,1530.4601" style="stroke:#000000;stroke-width:1.875;"/><line style="stroke:#000000;stroke-width:1.875;" x1="1870.8243" x2="1893.3243" y1="1481.7101" y2="1481.7101"/><line style="stroke:#000000;stroke-width:1.875;" x1="1893.3243" x2="1893.3243" y1="1481.7101" y2="1515.4601"/><line style="stroke:#000000;stroke-width:1.875;" x1="1893.3243" x2="1400.2803" y1="1515.4601" y2="1515.4601"/><line style="stroke:#000000;stroke-width:1.875;" x1="1400.2803" x2="1400.2803" y1="1515.4601" y2="1541.7101"/><polygon fill="#000000" points="1392.7803,1522.9601,1400.2803,1541.7101,1407.7803,1522.9601,1400.2803,1530.4601" style="stroke:#000000;stroke-width:1.875;"/><line style="stroke:#000000;stroke-width:1.875;" x1="2177.3868" x2="2177.3868" y1="1608.9061" y2="1701.4758"/><line style="stroke:#000000;stroke-width:1.875;" x1="2177.3868" x2="874.6875" y1="1701.4758" y2="1701.4758"/><line style="stroke:#000000;stroke-width:1.875;" x1="874.6875" x2="874.6875" y1="1701.4758" y2="1725.1561"/><polygon fill="#000000" points="867.1875,1706.4061,874.6875,1725.1561,882.1875,1706.4061,874.6875,1713.9061" style="stroke:#000000;stroke-width:1.875;"/><line style="stroke:#000000;stroke-width:1.875;" x1="874.6875" x2="874.6875" y1="1088.0823" y2="1111.7626"/><line style="stroke:#000000;stroke-width:1.875;" x1="874.6875" x2="1289.6553" y1="1111.7626" y2="1111.7626"/><line style="stroke:#000000;stroke-width:1.875;" x1="1289.6553" x2="1289.6553" y1="1111.7626" y2="1135.443"/><polygon fill="#000000" points="1282.1553,1116.693,1289.6553,1135.443,1297.1553,1116.693,1289.6553,1124.193" style="stroke:#000000;stroke-width:1.875;"/><line style="stroke:#000000;stroke-width:1.875;" x1="874.6875" x2="874.6875" y1="1770.1561" y2="1779.5311"/><line style="stroke:#000000;stroke-width:1.875;" x1="874.6875" x2="2497.3668" y1="1779.5311" y2="1779.5311"/><line style="stroke:#000000;stroke-width:1.875;" x1="2497.3668" x2="2497.3668" y1="1779.5311" y2="1807.6561"/><polygon fill="#000000" points="2489.8668,1788.9061,2497.3668,1807.6561,2504.8668,1788.9061,2497.3668,1796.4061" style="stroke:#000000;stroke-width:1.875;"/><line style="stroke:#000000;stroke-width:1.875;" x1="2497.3668" x2="2497.3668" y1="1957.3521" y2="1981.0325"/><line style="stroke:#000000;stroke-width:1.875;" x1="2497.3668" x2="2288.0118" y1="1981.0325" y2="1981.0325"/><line style="stroke:#000000;stroke-width:1.875;" x1="2288.0118" x2="2288.0118" y1="1981.0325" y2="2004.7128"/><polygon fill="#000000" points="2280.5118,1985.9628,2288.0118,2004.7128,2295.5118,1985.9628,2288.0118,1993.4628" style="stroke:#000000;stroke-width:1.875;"/><line style="stroke:#000000;stroke-width:1.875;" x1="2288.0118" x2="2288.0118" y1="2071.9089" y2="2085.7285"/><line style="stroke:#000000;stroke-width:1.875;" x1="2288.0118" x2="2497.3668" y1="2085.7285" y2="2085.7285"/><line style="stroke:#000000;stroke-width:1.875;" x1="2497.3668" x2="2497.3668" y1="2085.7285" y2="2109.4089"/><polygon fill="#000000" points="2489.8668,2090.6589,2497.3668,2109.4089,2504.8668,2090.6589,2497.3668,2098.1589" style="stroke:#000000;stroke-width:1.875;"/><line style="stroke:#000000;stroke-width:1.875;" x1="2497.3668" x2="2497.3668" y1="2363.801" y2="2373.176"/><line style="stroke:#000000;stroke-width:1.875;" x1="2497.3668" x2="1781.4693" y1="2373.176" y2="2373.176"/><line style="stroke:#000000;stroke-width:1.875;" x1="1781.4693" x2="1781.4693" y1="2373.176" y2="2401.301"/><polygon fill="#000000" points="1773.9693,2382.551,1781.4693,2401.301,1788.9693,2382.551,1781.4693,2390.051" style="stroke:#000000;stroke-width:1.875;"/><line style="stroke:#000000;stroke-width:1.875;" x1="2497.3668" x2="2497.3668" y1="2665.5537" y2="2698.3662"/><line style="stroke:#000000;stroke-width:1.875;" x1="2497.3668" x2="1781.4693" y1="2698.3662" y2="2698.3662"/><line style="stroke:#000000;stroke-width:1.875;" x1="1781.4693" x2="1781.4693" y1="2698.3662" y2="2731.1787"/><polygon fill="#000000" points="1773.9693,2712.4287,1781.4693,2731.1787,1788.9693,2712.4287,1781.4693,2719.9287" style="stroke:#000000;stroke-width:1.875;"/><line style="stroke:#000000;stroke-width:1.875;" x1="1781.4693" x2="1781.4693" y1="2550.997" y2="2574.6774"/><line style="stroke:#000000;stroke-width:1.875;" x1="1781.4693" x2="2497.3668" y1="2574.6774" y2="2574.6774"/><line style="stroke:#000000;stroke-width:1.875;" x1="2497.3668" x2="2497.3668" y1="2574.6774" y2="2598.3577"/><polygon fill="#000000" points="2489.8668,2579.6077,2497.3668,2598.3577,2504.8668,2579.6077,2497.3668,2587.1077" style="stroke:#000000;stroke-width:1.875;"/><line style="stroke:#000000;stroke-width:1.875;" x1="1781.4693" x2="1781.4693" y1="2880.8748" y2="2890.2498"/><line style="stroke:#000000;stroke-width:1.875;" x1="1781.4693" x2="2288.0118" y1="2890.2498" y2="2890.2498"/><line style="stroke:#000000;stroke-width:1.875;" x1="2288.0118" x2="2288.0118" y1="2890.2498" y2="2918.3748"/><polygon fill="#000000" points="2280.5118,2899.6248,2288.0118,2918.3748,2295.5118,2899.6248,2288.0118,2907.1248" style="stroke:#000000;stroke-width:1.875;"/><line style="stroke:#000000;stroke-width:1.875;" x1="2288.0118" x2="2288.0118" y1="2985.5708" y2="2994.9458"/><line style="stroke:#000000;stroke-width:1.875;" x1="2288.0118" x2="874.6875" y1="2994.9458" y2="2994.9458"/><line style="stroke:#000000;stroke-width:1.875;" x1="874.6875" x2="874.6875" y1="2994.9458" y2="3023.0708"/><polygon fill="#000000" points="867.1875,3004.3208,874.6875,3023.0708,882.1875,3004.3208,874.6875,3011.8208" style="stroke:#000000;stroke-width:1.875;"/><line style="stroke:#000000;stroke-width:1.875;" x1="874.6875" x2="874.6875" y1="3090.2669" y2="3099.6419"/><line style="stroke:#000000;stroke-width:1.875;" x1="874.6875" x2="392.8125" y1="3099.6419" y2="3099.6419"/><line style="stroke:#000000;stroke-width:1.875;" x1="392.8125" x2="392.8125" y1="3099.6419" y2="3127.7669"/><polygon fill="#000000" points="385.3125,3109.0169,392.8125,3127.7669,400.3125,3109.0169,392.8125,3116.5169" style="stroke:#000000;stroke-width:1.875;"/><line style="stroke:#000000;stroke-width:1.875;" x1="796.23" x2="1088.8802" y1="668.9941" y2="668.9941"/><line style="stroke:#000000;stroke-width:1.875;" x1="1088.8802" x2="1088.8802" y1="668.9941" y2="728.9941"/><polygon fill="#000000" points="1081.3802,710.2441,1088.8802,728.9941,1096.3802,710.2441,1088.8802,717.7441" style="stroke:#000000;stroke-width:1.875;"/><line style="stroke:#000000;stroke-width:1.875;" x1="392.8125" x2="392.8125" y1="3299.659" y2="3307.159"/><line style="stroke:#000000;stroke-width:1.875;" x1="392.8125" x2="763.125" y1="3307.159" y2="3307.159"/><line style="stroke:#000000;stroke-width:1.875;" x1="763.125" x2="763.125" y1="3307.159" y2="3340.909"/><line style="stroke:#000000;stroke-width:1.875;" x1="763.125" x2="729.375" y1="3340.909" y2="3340.909"/><polygon fill="#000000" points="748.125,3333.409,729.375,3340.909,748.125,3348.409,740.625,3340.909" style="stroke:#000000;stroke-width:1.875;"/><line style="stroke:#000000;stroke-width:1.875;" x1="706.875" x2="706.875" y1="3363.409" y2="3372.784"/><line style="stroke:#000000;stroke-width:1.875;" x1="706.875" x2="1613.6568" y1="3372.784" y2="3372.784"/><line style="stroke:#000000;stroke-width:1.875;" x1="1613.6568" x2="1613.6568" y1="3372.784" y2="3400.909"/><polygon fill="#000000" points="1606.1568,3382.159,1613.6568,3400.909,1621.1568,3382.159,1613.6568,3389.659" style="stroke:#000000;stroke-width:1.875;"/><line style="stroke:#000000;stroke-width:1.875;" x1="1998.3243" x2="1998.3243" y1="3759.9971" y2="3769.3721"/><line style="stroke:#000000;stroke-width:1.875;" x1="1998.3243" x2="103.125" y1="3769.3721" y2="3769.3721"/><line style="stroke:#000000;stroke-width:1.875;" x1="103.125" x2="103.125" y1="3769.3721" y2="3797.4971"/><polygon fill="#000000" points="95.625,3778.7471,103.125,3797.4971,110.625,3778.7471,103.125,3786.2471" style="stroke:#000000;stroke-width:1.875;"/><line style="stroke:#000000;stroke-width:1.875;" x1="1544.9268" x2="1522.4268" y1="3528.105" y2="3528.105"/><line style="stroke:#000000;stroke-width:1.875;" x1="1522.4268" x2="1522.4268" y1="3528.105" y2="3561.855"/><line style="stroke:#000000;stroke-width:1.875;" x1="1522.4268" x2="1998.3243" y1="3561.855" y2="3561.855"/><line style="stroke:#000000;stroke-width:1.875;" x1="1998.3243" x2="1998.3243" y1="3561.855" y2="3588.105"/><polygon fill="#000000" points="1990.8243,3569.355,1998.3243,3588.105,2005.8243,3569.355,1998.3243,3576.855" style="stroke:#000000;stroke-width:1.875;"/><line style="stroke:#000000;stroke-width:1.875;" x1="1682.3868" x2="1704.8868" y1="3528.105" y2="3528.105"/><line style="stroke:#000000;stroke-width:1.875;" x1="1704.8868" x2="1704.8868" y1="3528.105" y2="3561.855"/><line style="stroke:#000000;stroke-width:1.875;" x1="1704.8868" x2="828.75" y1="3561.855" y2="3561.855"/><line style="stroke:#000000;stroke-width:1.875;" x1="828.75" x2="828.75" y1="3561.855" y2="3588.105"/><polygon fill="#000000" points="821.25,3569.355,828.75,3588.105,836.25,3569.355,828.75,3576.855" style="stroke:#000000;stroke-width:1.875;"/><text fill="#000000" font-family="Microsoft YaHei" font-size="33.75" lengthAdjust="spacing" textLength="101.25" x="195.4688" y="134.502">&#38144;&#21806;&#37096;</text><text fill="#000000" font-family="Microsoft YaHei" font-size="33.75" lengthAdjust="spacing" textLength="177.4512" x="634.2332" y="134.502">PMC&#35745;&#21010;&#21592;</text><text fill="#000000" font-family="Microsoft YaHei" font-size="33.75" lengthAdjust="spacing" textLength="101.25" x="1036.3802" y="134.502">&#30740;&#21457;&#37096;</text><text fill="#000000" font-family="Microsoft YaHei" font-size="33.75" lengthAdjust="spacing" textLength="101.25" x="1298.0928" y="134.502">&#37319;&#36141;&#37096;</text><text fill="#000000" font-family="Microsoft YaHei" font-size="33.75" lengthAdjust="spacing" textLength="101.25" x="1652.4273" y="134.502">&#36136;&#26816;&#37096;</text><text fill="#000000" font-family="Microsoft YaHei" font-size="33.75" lengthAdjust="spacing" textLength="101.25" x="2079.418" y="134.502">&#20179;&#20648;&#37096;</text><text fill="#000000" font-family="Microsoft YaHei" font-size="33.75" lengthAdjust="spacing" textLength="101.25" x="2461.7418" y="134.502">&#29983;&#20135;&#37096;</text><?plantuml-src bPLBJzj04CVl_XIMUe53rQ9ALMKVga9RjGSULKyzciGX5Y56ZYcgb4C23J61a502X4S9uPaYOL8rG4WWV9diUlqjElOwmJ5HeLoGPsPdVl-PsOqggI6HHLkD5q_xM9HUnvM6kLz0At5ZgOotvvkrOpCNG-aCoYusgvieLSJdSQEq00SO9Z8kXIS5HPXWHmNV-9WYJuNz0t98LjZfeAIABdyaAFZbQIaynWQ4KCJjyKzARD-hvswB612cGkfxEQmE2HCYEoZv53aY1rJsY_11b5oH4t9OzWKL6O9KPSgTzOsYoDCKPJG4R6wNJvM-IkgtVbdnYye3CG_8QiMzbGHWyVzl-2C8Fgk2eluxv5shd3TW18vAgYI7tOMUlBJ_keOzW3yag-AZOhgKOwBM6kLqSxOKPIAMA8P3-XxMBitj6FuzOnHreX_m34V3K5Q3XKCtgoXns3OIVG-bLv6sXUer7ZAE30uGlOYq7sWv7sLO3cjPs5jKMq6dURnRHMTNF2C5s1x7KY-IYpyqn-jULWsAORO7vyzw6PRbK6QPL8xDsAPHW7eYh2WSonvPlgYncmEt3GwH_SE3pz3b8PcluKossTW248ZneB1Sixf06WqZLu0BH6lobjcO_uNNDgXafCtXdQnbjY6N2gIH02TA983JIzY110NDP99KJXqeI4o_QILQcwSEf9L16RaiaEg9pGg7IQM4zsDtX_7FGoXicKuMUpv-6kYbPoqijmk6WdUllMHsncPz1SsKsXcjkgaT8pj7iM28C0EQr2FalXHBJ2m6p5XRGzSpg5f51zyX5Uzu8weyIJE5_LA0QVst9sMtkpKfvsjl3WIqkWpCK1hwJuxYpd2Abi3xehoIE1g8ahMsbCvwRGoEt1oPwnNgHAbTs1R-ZWUd3cq3uvq3HswJyB2sfZ3YZC6YTdjeIxhmTi3OwN9Go6gYlQsaF8jNAtpt1K07QVZcEvhPeT-1RmsowyeZVH5ADM-BE7w6CcdpIAE1hellt83pEFoW013VvUhH-cv23dfkhGDjpB3T5_l69E94hrAdjnyUUkTHQS_EeQ2inaQTwELkhFI1CauRE7TX7slM3fhrF0Y5fyOosBlO-LhSRulT2cUJhoxCP1glbU_qqnIswhy0?></g></svg>