<?plantuml 1.2026.1?><svg xmlns="http://www.w3.org/2000/svg" xmlns:xlink="http://www.w3.org/1999/xlink" contentStyleType="text/css" data-diagram-type="DESCRIPTION" height="535px" preserveAspectRatio="none" style="width:367px;height:535px;background:#FFFFFF;" version="1.1" viewBox="0 0 367 535" width="367px" zoomAndPan="magnify"><title>&#22270;3-3&#65288;a&#65289;&#36136;&#37327;&#26816;&#39564;&#19982;&#23457;&#25209;&#29992;&#20363;&#22270;</title><defs/><g><g class="title" data-source-line="6"><text fill="#000000" font-family="Microsoft YaHei" font-size="14" font-weight="bold" lengthAdjust="spacing" textLength="216.7394" x="68.1553" y="22.9951">&#22270;3-3&#65288;a&#65289;&#36136;&#37327;&#26816;&#39564;&#19982;&#23457;&#25209;&#29992;&#20363;&#22270;</text></g><!--cluster EISCore--><g class="cluster" data-qualified-name="EISCore" data-source-line="12" id="ent0005"><rect fill="none" height="456" rx="2.5" ry="2.5" style="stroke:#181818;stroke-width:1;" width="188.05" x="173" y="44.2969"/><text fill="#000000" font-family="Microsoft YaHei" font-size="14" font-weight="bold" lengthAdjust="spacing" textLength="61.1475" x="236.4513" y="59.292">EISCore</text></g><!--entity UC1--><g class="entity" data-qualified-name="EISCore.UC1" data-source-line="13" id="ent0006"><ellipse cx="267.0293" cy="313.2987" fill="#F1F1F1" rx="62.0093" ry="14.8019" style="stroke:#181818;stroke-width:0.5;"/><text fill="#000000" font-family="Microsoft YaHei" font-size="14" lengthAdjust="spacing" textLength="85.3738" x="224.3424" y="317.9472">&#26469;&#26009;&#26816;&#39564; IQC</text></g><!--entity UC2--><g class="entity" data-qualified-name="EISCore.UC2" data-source-line="14" id="ent0007"><ellipse cx="267.0313" cy="182.2931" fill="#F1F1F1" rx="65.1313" ry="15.4263" style="stroke:#181818;stroke-width:0.5;"/><text fill="#000000" font-family="Microsoft YaHei" font-size="14" lengthAdjust="spacing" textLength="93.8162" x="220.1232" y="186.9416">&#36807;&#31243;&#26816;&#39564; IPQC</text></g><!--entity UC3--><g class="entity" data-qualified-name="EISCore.UC3" data-source-line="15" id="ent0008"><ellipse cx="267.0276" cy="248.2964" fill="#F1F1F1" rx="64.5476" ry="15.3095" style="stroke:#181818;stroke-width:0.5;"/><text fill="#000000" font-family="Microsoft YaHei" font-size="14" lengthAdjust="spacing" textLength="92.2644" x="220.8954" y="252.9448">&#20986;&#36135;&#26816;&#39564; OQC</text></g><!--entity UC4--><g class="entity" data-qualified-name="EISCore.UC4" data-source-line="16" id="ent0009"><ellipse cx="267.0259" cy="97.2921" fill="#F1F1F1" rx="78.0259" ry="18.0052" style="stroke:#181818;stroke-width:0.5;"/><text fill="#000000" font-family="Microsoft YaHei" font-size="14" lengthAdjust="spacing" textLength="125.9995" x="204.0262" y="101.9405">&#26816;&#39564;&#38468;&#20214;&#19978;&#20256;&#19982;&#34917;&#24405;</text></g><!--entity UC5--><g class="entity" data-qualified-name="EISCore.UC5" data-source-line="17" id="ent0010"><ellipse cx="267.0324" cy="467.2974" fill="#F1F1F1" rx="72.2524" ry="16.8505" style="stroke:#181818;stroke-width:0.5;"/><text fill="#000000" font-family="Microsoft YaHei" font-size="14" lengthAdjust="spacing" textLength="111.9995" x="211.0327" y="471.9458">&#23457;&#25209;&#20013;&#24515;&#24453;&#21150;&#22788;&#29702;</text></g><!--entity UC6--><g class="entity" data-qualified-name="EISCore.UC6" data-source-line="18" id="ent0011"><ellipse cx="267.0259" cy="381.2921" fill="#F1F1F1" rx="78.0259" ry="18.0052" style="stroke:#181818;stroke-width:0.5;"/><text fill="#000000" font-family="Microsoft YaHei" font-size="14" lengthAdjust="spacing" textLength="125.9995" x="204.0262" y="385.9405">&#27969;&#31243;&#29366;&#24577;&#20889;&#22238;&#19994;&#21153;&#34920;</text></g><!--entity ???--><g class="entity" data-qualified-name="..." data-source-line="8" id="ent0002"><ellipse cx="33.9999" cy="185.6469" fill="#F1F1F1" rx="8" ry="8" style="stroke:#181818;stroke-width:0.5;"/><path d="M33.9999,193.6469 L33.9999,220.6469 M20.9999,201.6469 L46.9999,201.6469 M33.9999,220.6469 L20.9999,235.6469 M33.9999,220.6469 L46.9999,235.6469" fill="none" style="stroke:#181818;stroke-width:0.5;"/><text fill="#000000" font-family="Microsoft YaHei" font-size="14" lengthAdjust="spacing" textLength="41.9998" x="13" y="250.142">&#36136;&#26816;&#21592;</text></g><!--entity ????--><g class="entity" data-qualified-name="...." data-source-line="9" id="ent0003"><ellipse cx="33.9999" cy="351.6469" fill="#F1F1F1" rx="8" ry="8" style="stroke:#181818;stroke-width:0.5;"/><path d="M33.9999,359.6469 L33.9999,386.6469 M20.9999,367.6469 L46.9999,367.6469 M33.9999,386.6469 L20.9999,401.6469 M33.9999,386.6469 L46.9999,401.6469" fill="none" style="stroke:#181818;stroke-width:0.5;"/><text fill="#000000" font-family="Microsoft YaHei" font-size="14" lengthAdjust="spacing" textLength="55.9998" x="6" y="416.142">&#23457;&#25209;&#20154;&#21592;</text></g><!--entity ???--><g class="entity" data-qualified-name="..." data-source-line="10" id="ent0004"><ellipse cx="33.9999" cy="462.6469" fill="#F1F1F1" rx="8" ry="8" style="stroke:#181818;stroke-width:0.5;"/><path d="M33.9999,470.6469 L33.9999,497.6469 M20.9999,478.6469 L46.9999,478.6469 M33.9999,497.6469 L20.9999,512.6469 M33.9999,497.6469 L46.9999,512.6469" fill="none" style="stroke:#181818;stroke-width:0.5;"/><text fill="#000000" font-family="Microsoft YaHei" font-size="14" lengthAdjust="spacing" textLength="41.9998" x="13" y="527.142">&#31649;&#29702;&#23618;</text></g><!--link ??? to UC1--><g class="link" data-entity-1="ent0002" data-entity-2="ent0006" data-link-type="association" data-source-line="21" id="lnk12"><path d="M55.43,230.5269 C66,237.9869 79.32,246.7469 92,253.2969 C134.73,275.3869 187.36,292.2369 223.49,302.3769" fill="none" id="&#36136;&#26816;&#21592;-UC1" style="stroke:#181818;stroke-width:1;"/></g><!--link ??? to UC2--><g class="link" data-entity-1="ent0002" data-entity-2="ent0007" data-link-type="association" data-source-line="22" id="lnk13"><path d="M55.43,206.1669 C66.11,201.8069 79.52,196.9669 92,194.2969 C127.83,186.6269 168.67,183.5269 201.78,182.3869" fill="none" id="&#36136;&#26816;&#21592;-UC2" style="stroke:#181818;stroke-width:1;"/></g><!--link ??? to UC3--><g class="link" data-entity-1="ent0002" data-entity-2="ent0008" data-link-type="association" data-source-line="23" id="lnk14"><path d="M55.43,224.4269 C66.11,228.7869 79.52,233.6269 92,236.2969 C127.98,244.0069 169.01,247.0969 202.19,248.2169" fill="none" id="&#36136;&#26816;&#21592;-UC3" style="stroke:#181818;stroke-width:1;"/></g><!--link ??? to UC4--><g class="link" data-entity-1="ent0002" data-entity-2="ent0009" data-link-type="association" data-source-line="24" id="lnk15"><path d="M55.44,193.6869 C65.7,183.7469 78.74,172.3969 92,164.2969 C130.95,140.4869 179.78,122.5869 215.8,111.2969" fill="none" id="&#36136;&#26816;&#21592;-UC4" style="stroke:#181818;stroke-width:1;"/></g><!--link ???? to UC5--><g class="link" data-entity-1="ent0003" data-entity-2="ent0010" data-link-type="association" data-source-line="25" id="lnk16"><path d="M62.41,391.4969 C103.29,406.7169 180.4,435.4269 227.11,452.8069" fill="none" id="&#23457;&#25209;&#20154;&#21592;-UC5" style="stroke:#181818;stroke-width:1;"/></g><!--link ???? to UC6--><g class="link" data-entity-1="ent0003" data-entity-2="ent0011" data-link-type="association" data-source-line="26" id="lnk17"><path d="M62.41,381.2969 C93.37,381.2969 145.11,381.2969 188.68,381.2969" fill="none" id="&#23457;&#25209;&#20154;&#21592;-UC6" style="stroke:#181818;stroke-width:1;"/></g><!--link ??? to UC5--><g class="link" data-entity-1="ent0004" data-entity-2="ent0010" data-link-type="association" data-source-line="27" id="lnk18"><path d="M55.1,490.1269 C87.21,486.6469 151.47,479.6969 200.67,474.3669" fill="none" id="&#31649;&#29702;&#23618;-UC5" style="stroke:#181818;stroke-width:1;"/></g><!--link UC1 to UC4--><g class="link" data-entity-1="ent0006" data-entity-2="ent0009" data-link-type="dependency" data-source-line="29" id="lnk19"><path d="M216.71,304.2469 C179.65,294.4169 132.86,274.4669 115.75,234.7969 C91.1,177.5969 165.7867,136.4786 218.6867,114.8386" fill="none" id="UC1-to-UC4" style="stroke:#181818;stroke-width:1;stroke-dasharray:7,7;"/><polygon fill="#181818" points="224.24,112.5669,214.3956,112.2722,219.6122,114.46,217.4245,119.6767,224.24,112.5669" style="stroke:#181818;stroke-width:1;"/><text fill="#000000" font-family="Microsoft YaHei" font-size="13" lengthAdjust="spacing" textLength="63.0068" x="93" y="230.8638">&#171;include&#187;</text></g><!--link UC2 to UC4--><g class="link" data-entity-1="ent0007" data-entity-2="ent0009" data-link-type="dependency" data-source-line="30" id="lnk20"><path d="M267.03,166.7069 C267.03,152.3269 267.03,136.9669 267.03,121.7469" fill="none" id="UC2-to-UC4" style="stroke:#181818;stroke-width:1;stroke-dasharray:7,7;"/><polygon fill="#181818" points="267.03,115.7469,263.03,124.7469,267.03,120.7469,271.03,124.7469,267.03,115.7469" style="stroke:#181818;stroke-width:1;"/><text fill="#000000" font-family="Microsoft YaHei" font-size="13" lengthAdjust="spacing" textLength="63.0068" x="224.03" y="145.6538">&#171;include&#187;</text></g><!--link UC3 to UC4--><g class="link" data-entity-1="ent0008" data-entity-2="ent0009" data-link-type="dependency" data-source-line="31" id="lnk21"><path d="M202.88,250.5069 C171.51,247.8669 136.19,238.5869 115.75,212.7969 C80.25,167.9969 156.1302,132.9306 212.7602,113.6506" fill="none" id="UC3-to-UC4" style="stroke:#181818;stroke-width:1;stroke-dasharray:7,7;"/><polygon fill="#181818" points="218.44,111.7169,208.6311,110.8309,213.7068,113.3283,211.2094,118.404,218.44,111.7169" style="stroke:#181818;stroke-width:1;"/><text fill="#000000" font-family="Microsoft YaHei" font-size="13" lengthAdjust="spacing" textLength="63.0068" x="93" y="208.8638">&#171;include&#187;</text></g><!--link UC5 to UC6--><g class="link" data-entity-1="ent0010" data-entity-2="ent0011" data-link-type="dependency" data-source-line="32" id="lnk22"><path d="M267.03,450.3069 C267.03,435.7169 267.03,420.7369 267.03,405.7469" fill="none" id="UC5-to-UC6" style="stroke:#181818;stroke-width:1;stroke-dasharray:7,7;"/><polygon fill="#181818" points="267.03,399.7469,263.03,408.7469,267.03,404.7469,271.03,408.7469,267.03,399.7469" style="stroke:#181818;stroke-width:1;"/><text fill="#000000" font-family="Microsoft YaHei" font-size="13" lengthAdjust="spacing" textLength="63.0068" x="224.03" y="429.4438">&#171;include&#187;</text></g><?plantuml-src TP5FI-D06CRlyobUl5VOnlOWqajHzE2gY0UFGpfjXwQPaamH4S7_rIhgmYfMKJQinI8e2AxKMkkNoIJfoQ_WQ68sBNgSv_dD-yppZaQo73W3W-Ro73BK82gdJ4TcWUebRE0Y59dErBp1YWIuKIOHnypZ35kWUWwoM3EZJePaSLdZOqpdFx6yE4bLWvbCHitZSK8ZP0ch1PmZitnH8_0UZlMSHX2dN9x5MKU9AQ_jRVpQtl7k6ztAWVDtfNkzPpVtnQtbx3owlnjsPrTo266LCmCa9H7nwoGu-vZTQlsNt5lBFTmITsi8XO4mEZ6RPWQ19GHGDecAJG83pddTEQxvaJ0nanu0RC9S-aUKyLugRcFtavaEeNWK4fMMTtyLG5CXe_I4VRZTseRzz60tgtRxZspfMNNnV1JWGpqZ_MBD6_6oBZgRedeXBZTahu1Dz8p-johVw5OVd9LLiLKJPnTsyrHKBSzg17WIBICKxWvYiO-QVKAyNr3wXI4KtRUl9RxGaYZyX4y8oK0OJBqFWM4O6Q6wgfKp99MIHlmxG_dEIFX6ijTu0m00?></g></svg>