<?xml version="1.0" encoding="UTF-8" standalone="no"?>
<!DOCTYPE svg PUBLIC "-//W3C//DTD SVG 1.1//EN"
 "http://www.w3.org/Graphics/SVG/1.1/DTD/svg11.dtd">
<!-- Generated by graphviz version 14.1.3 (20260303.0454)
 -->
<!-- Title: G Pages: 1 -->
<svg width="1960pt" height="187pt"
 viewBox="0.00 0.00 1960.00 187.00" xmlns="http://www.w3.org/2000/svg" xmlns:xlink="http://www.w3.org/1999/xlink">
<g id="graph0" class="graph" transform="scale(1 1) rotate(0) translate(14.4 172.4)">
<title>G</title>
<polygon fill="white" stroke="none" points="-14.4,14.4 -14.4,-172.4 1945.84,-172.4 1945.84,14.4 -14.4,14.4"/>
<!-- s -->
<g id="node1" class="node">
<title>s</title>
<path fill="none" stroke="black" d="M71.04,-125C71.04,-125 12,-125 12,-125 6,-125 0,-119 0,-113 0,-113 0,-101 0,-101 0,-95 6,-89 12,-89 12,-89 71.04,-89 71.04,-89 77.04,-89 83.04,-95 83.04,-101 83.04,-101 83.04,-113 83.04,-113 83.04,-119 77.04,-125 71.04,-125"/>
<text xml:space="preserve" text-anchor="middle" x="41.52" y="-103.25" font-family="Microsoft YaHei" font-size="15.00">到货登记</text>
</g>
<!-- a -->
<g id="node2" class="node">
<title>a</title>
<path fill="none" stroke="black" d="M265.08,-125C265.08,-125 146.04,-125 146.04,-125 140.04,-125 134.04,-119 134.04,-113 134.04,-113 134.04,-101 134.04,-101 134.04,-95 140.04,-89 146.04,-89 146.04,-89 265.08,-89 265.08,-89 271.08,-89 277.08,-95 277.08,-101 277.08,-101 277.08,-113 277.08,-113 277.08,-119 271.08,-125 265.08,-125"/>
<text xml:space="preserve" text-anchor="middle" x="205.56" y="-103.25" font-family="Microsoft YaHei" font-size="15.00">关联合同与采购单</text>
</g>
<!-- s&#45;&gt;a -->
<g id="edge1" class="edge">
<title>s&#45;&gt;a</title>
<path fill="none" stroke="black" stroke-width="1.2" d="M83.34,-107C83.34,-107 123.73,-107 123.73,-107"/>
<polygon fill="black" stroke="black" stroke-width="1.2" points="123.73,-109.8 131.73,-107 123.73,-104.2 123.73,-109.8"/>
</g>
<!-- b -->
<g id="node3" class="node">
<title>b</title>
<path fill="none" stroke="black" d="M489.12,-125C489.12,-125 340.08,-125 340.08,-125 334.08,-125 328.08,-119 328.08,-113 328.08,-113 328.08,-101 328.08,-101 328.08,-95 334.08,-89 340.08,-89 340.08,-89 489.12,-89 489.12,-89 495.12,-89 501.12,-95 501.12,-101 501.12,-101 501.12,-113 501.12,-113 501.12,-119 495.12,-125 489.12,-125"/>
<text xml:space="preserve" text-anchor="middle" x="414.6" y="-103.25" font-family="Microsoft YaHei" font-size="15.00">质检人员发起来料检验</text>
</g>
<!-- a&#45;&gt;b -->
<g id="edge2" class="edge">
<title>a&#45;&gt;b</title>
<path fill="none" stroke="black" stroke-width="1.2" d="M277.5,-107C277.5,-107 317.92,-107 317.92,-107"/>
<polygon fill="black" stroke="black" stroke-width="1.2" points="317.92,-109.8 325.92,-107 317.92,-104.2 317.92,-109.8"/>
</g>
<!-- c -->
<g id="node4" class="node">
<title>c</title>
<polygon fill="none" stroke="black" points="642.66,-142.4 552.12,-107 642.66,-71.6 733.2,-107 642.66,-142.4"/>
<text xml:space="preserve" text-anchor="middle" x="642.66" y="-103.25" font-family="Microsoft YaHei" font-size="15.00">检验合格?</text>
</g>
<!-- b&#45;&gt;c -->
<g id="edge3" class="edge">
<title>b&#45;&gt;c</title>
<path fill="none" stroke="black" stroke-width="1.2" d="M501.47,-107C501.47,-107 541.29,-107 541.29,-107"/>
<polygon fill="black" stroke="black" stroke-width="1.2" points="541.29,-109.8 549.29,-107 541.29,-104.2 541.29,-109.8"/>
</g>
<!-- d1 -->
<g id="node5" class="node">
<title>d1</title>
<path fill="none" stroke="black" d="M911.24,-156C911.24,-156 807.2,-156 807.2,-156 801.2,-156 795.2,-150 795.2,-144 795.2,-144 795.2,-132 795.2,-132 795.2,-126 801.2,-120 807.2,-120 807.2,-120 911.24,-120 911.24,-120 917.24,-120 923.24,-126 923.24,-132 923.24,-132 923.24,-144 923.24,-144 923.24,-150 917.24,-156 911.24,-156"/>
<text xml:space="preserve" text-anchor="middle" x="859.22" y="-134.25" font-family="Microsoft YaHei" font-size="15.00">生成采购入库单</text>
</g>
<!-- c&#45;&gt;d1 -->
<g id="edge4" class="edge">
<title>c&#45;&gt;d1</title>
<path fill="none" stroke="black" stroke-width="1.2" d="M672.32,-131.2C672.32,-131.2 785.02,-131.2 785.02,-131.2"/>
<polygon fill="black" stroke="black" stroke-width="1.2" points="785.02,-134 793.02,-131.2 785.02,-128.4 785.02,-134"/>
<text xml:space="preserve" text-anchor="middle" x="764.2" y="-139.1" font-family="Microsoft YaHei" font-size="12.00">是</text>
</g>
<!-- e1 -->
<g id="node9" class="node">
<title>e1</title>
<path fill="none" stroke="black" d="M911.24,-95C911.24,-95 807.2,-95 807.2,-95 801.2,-95 795.2,-89 795.2,-83 795.2,-83 795.2,-71 795.2,-71 795.2,-65 801.2,-59 807.2,-59 807.2,-59 911.24,-59 911.24,-59 917.24,-59 923.24,-65 923.24,-71 923.24,-71 923.24,-83 923.24,-83 923.24,-89 917.24,-95 911.24,-95"/>
<text xml:space="preserve" text-anchor="middle" x="859.22" y="-73.25" font-family="Microsoft YaHei" font-size="15.00">记录不合格结果</text>
</g>
<!-- c&#45;&gt;e1 -->
<g id="edge9" class="edge">
<title>c&#45;&gt;e1</title>
<path fill="none" stroke="black" stroke-width="1.2" d="M673.69,-83.3C673.69,-83.3 784.96,-83.3 784.96,-83.3"/>
<polygon fill="black" stroke="black" stroke-width="1.2" points="784.96,-86.1 792.96,-83.3 784.96,-80.5 784.96,-86.1"/>
<text xml:space="preserve" text-anchor="middle" x="764.2" y="-89.1" font-family="Microsoft YaHei" font-size="12.00">否</text>
</g>
<!-- d2 -->
<g id="node6" class="node">
<title>d2</title>
<path fill="none" stroke="black" d="M1097.78,-157C1097.78,-157 1008.74,-157 1008.74,-157 1002.74,-157 996.74,-151 996.74,-145 996.74,-145 996.74,-133 996.74,-133 996.74,-127 1002.74,-121 1008.74,-121 1008.74,-121 1097.78,-121 1097.78,-121 1103.78,-121 1109.78,-127 1109.78,-133 1109.78,-133 1109.78,-145 1109.78,-145 1109.78,-151 1103.78,-157 1097.78,-157"/>
<text xml:space="preserve" text-anchor="middle" x="1053.26" y="-135.25" font-family="Microsoft YaHei" font-size="15.00">写入库存批次</text>
</g>
<!-- d1&#45;&gt;d2 -->
<g id="edge5" class="edge">
<title>d1&#45;&gt;d2</title>
<path fill="none" stroke="black" stroke-width="1.2" d="M923.56,-138.5C923.56,-138.5 986.45,-138.5 986.45,-138.5"/>
<polygon fill="black" stroke="black" stroke-width="1.2" points="986.45,-141.3 994.45,-138.5 986.45,-135.7 986.45,-141.3"/>
</g>
<!-- d3 -->
<g id="node7" class="node">
<title>d3</title>
<path fill="none" stroke="black" d="M1348.34,-158C1348.34,-158 1259.3,-158 1259.3,-158 1253.3,-158 1247.3,-152 1247.3,-146 1247.3,-146 1247.3,-134 1247.3,-134 1247.3,-128 1253.3,-122 1259.3,-122 1259.3,-122 1348.34,-122 1348.34,-122 1354.34,-122 1360.34,-128 1360.34,-134 1360.34,-134 1360.34,-146 1360.34,-146 1360.34,-152 1354.34,-158 1348.34,-158"/>
<text xml:space="preserve" text-anchor="middle" x="1303.82" y="-136.25" font-family="Microsoft YaHei" font-size="15.00">写入库存流水</text>
</g>
<!-- d2&#45;&gt;d3 -->
<g id="edge6" class="edge">
<title>d2&#45;&gt;d3</title>
<path fill="none" stroke="black" stroke-width="1.2" d="M1110.12,-139.5C1110.12,-139.5 1237.37,-139.5 1237.37,-139.5"/>
<polygon fill="black" stroke="black" stroke-width="1.2" points="1237.37,-142.3 1245.37,-139.5 1237.37,-136.7 1237.37,-142.3"/>
</g>
<!-- d4 -->
<g id="node8" class="node">
<title>d4</title>
<path fill="none" stroke="black" d="M1617.4,-158C1617.4,-158 1498.36,-158 1498.36,-158 1492.36,-158 1486.36,-152 1486.36,-146 1486.36,-146 1486.36,-134 1486.36,-134 1486.36,-128 1492.36,-122 1498.36,-122 1498.36,-122 1617.4,-122 1617.4,-122 1623.4,-122 1629.4,-128 1629.4,-134 1629.4,-134 1629.4,-146 1629.4,-146 1629.4,-152 1623.4,-158 1617.4,-158"/>
<text xml:space="preserve" text-anchor="middle" x="1557.88" y="-136.25" font-family="Microsoft YaHei" font-size="15.00">更新采购执行状态</text>
</g>
<!-- d3&#45;&gt;d4 -->
<g id="edge7" class="edge">
<title>d3&#45;&gt;d4</title>
<path fill="none" stroke="black" stroke-width="1.2" d="M1360.84,-140C1360.84,-140 1476.22,-140 1476.22,-140"/>
<polygon fill="black" stroke="black" stroke-width="1.2" points="1476.22,-142.8 1484.22,-140 1476.22,-137.2 1476.22,-142.8"/>
</g>
<!-- end1 -->
<g id="node14" class="node">
<title>end1</title>
<path fill="none" stroke="black" d="M1919.44,-97C1919.44,-97 1692.4,-97 1692.4,-97 1686.4,-97 1680.4,-91 1680.4,-85 1680.4,-85 1680.4,-73 1680.4,-73 1680.4,-67 1686.4,-61 1692.4,-61 1692.4,-61 1919.44,-61 1919.44,-61 1925.44,-61 1931.44,-67 1931.44,-73 1931.44,-73 1931.44,-85 1931.44,-85 1931.44,-91 1925.44,-97 1919.44,-97"/>
<text xml:space="preserve" text-anchor="middle" x="1805.92" y="-75.25" font-family="Microsoft YaHei" font-size="15.00">形成采购单—检验单—入库单关联</text>
</g>
<!-- d4&#45;&gt;end1 -->
<g id="edge8" class="edge">
<title>d4&#45;&gt;end1</title>
<path fill="none" stroke="black" stroke-width="1.2" d="M1625.44,-121.69C1625.44,-105.69 1625.44,-85 1625.44,-85 1625.44,-85 1670.26,-85 1670.26,-85"/>
<polygon fill="black" stroke="black" stroke-width="1.2" points="1670.26,-87.8 1678.26,-85 1670.26,-82.2 1670.26,-87.8"/>
</g>
<!-- e2 -->
<g id="node10" class="node">
<title>e2</title>
<path fill="none" stroke="black" d="M1120.28,-83C1120.28,-83 986.24,-83 986.24,-83 980.24,-83 974.24,-77 974.24,-71 974.24,-71 974.24,-59 974.24,-59 974.24,-53 980.24,-47 986.24,-47 986.24,-47 1120.28,-47 1120.28,-47 1126.28,-47 1132.28,-53 1132.28,-59 1132.28,-59 1132.28,-71 1132.28,-71 1132.28,-77 1126.28,-83 1120.28,-83"/>
<text xml:space="preserve" text-anchor="middle" x="1053.26" y="-61.25" font-family="Microsoft YaHei" font-size="15.00">保留附件与处理意见</text>
</g>
<!-- e1&#45;&gt;e2 -->
<g id="edge10" class="edge">
<title>e1&#45;&gt;e2</title>
<path fill="none" stroke="black" stroke-width="1.2" d="M923.56,-71C923.56,-71 964.06,-71 964.06,-71"/>
<polygon fill="black" stroke="black" stroke-width="1.2" points="964.06,-73.8 972.06,-71 964.06,-68.2 964.06,-73.8"/>
</g>
<!-- e3 -->
<g id="node11" class="node">
<title>e3</title>
<polygon fill="none" stroke="black" points="1303.82,-97.4 1183.28,-62 1303.82,-26.6 1424.36,-62 1303.82,-97.4"/>
<text xml:space="preserve" text-anchor="middle" x="1303.82" y="-58.25" font-family="Microsoft YaHei" font-size="15.00">允许后续补录?</text>
</g>
<!-- e2&#45;&gt;e3 -->
<g id="edge11" class="edge">
<title>e2&#45;&gt;e3</title>
<path fill="none" stroke="black" stroke-width="1.2" d="M1132.54,-65C1132.54,-65 1182.28,-65 1182.28,-65"/>
<polygon fill="black" stroke="black" stroke-width="1.2" points="1182.28,-67.8 1190.28,-65 1182.28,-62.2 1182.28,-67.8"/>
</g>
<!-- e4 -->
<g id="node12" class="node">
<title>e4</title>
<path fill="none" stroke="black" d="M1609.9,-97C1609.9,-97 1505.86,-97 1505.86,-97 1499.86,-97 1493.86,-91 1493.86,-85 1493.86,-85 1493.86,-73 1493.86,-73 1493.86,-67 1499.86,-61 1505.86,-61 1505.86,-61 1609.9,-61 1609.9,-61 1615.9,-61 1621.9,-67 1621.9,-73 1621.9,-73 1621.9,-85 1621.9,-85 1621.9,-91 1615.9,-97 1609.9,-97"/>
<text xml:space="preserve" text-anchor="middle" x="1557.88" y="-75.25" font-family="Microsoft YaHei" font-size="15.00">保留待补录状态</text>
</g>
<!-- e3&#45;&gt;e4 -->
<g id="edge12" class="edge">
<title>e3&#45;&gt;e4</title>
<path fill="none" stroke="black" stroke-width="1.2" d="M1367.93,-79C1367.93,-79 1483.97,-79 1483.97,-79"/>
<polygon fill="black" stroke="black" stroke-width="1.2" points="1483.97,-81.8 1491.97,-79 1483.97,-76.2 1483.97,-81.8"/>
<text xml:space="preserve" text-anchor="middle" x="1455.36" y="-77.1" font-family="Microsoft YaHei" font-size="12.00">是</text>
</g>
<!-- e5 -->
<g id="node13" class="node">
<title>e5</title>
<path fill="none" stroke="black" d="M1602.4,-36C1602.4,-36 1513.36,-36 1513.36,-36 1507.36,-36 1501.36,-30 1501.36,-24 1501.36,-24 1501.36,-12 1501.36,-12 1501.36,-6 1507.36,0 1513.36,0 1513.36,0 1602.4,0 1602.4,0 1608.4,0 1614.4,-6 1614.4,-12 1614.4,-12 1614.4,-24 1614.4,-24 1614.4,-30 1608.4,-36 1602.4,-36"/>
<text xml:space="preserve" text-anchor="middle" x="1557.88" y="-14.25" font-family="Microsoft YaHei" font-size="15.00">终止正式入库</text>
</g>
<!-- e3&#45;&gt;e5 -->
<g id="edge13" class="edge">
<title>e3&#45;&gt;e5</title>
<path fill="none" stroke="black" stroke-width="1.2" d="M1321.28,-31.3C1321.28,-31.3 1491.28,-31.3 1491.28,-31.3"/>
<polygon fill="black" stroke="black" stroke-width="1.2" points="1491.28,-34.1 1499.28,-31.3 1491.28,-28.5 1491.28,-34.1"/>
<text xml:space="preserve" text-anchor="middle" x="1455.36" y="-27.1" font-family="Microsoft YaHei" font-size="12.00">否</text>
</g>
<!-- e4&#45;&gt;end1 -->
<g id="edge14" class="edge">
<title>e4&#45;&gt;end1</title>
<path fill="none" stroke="black" stroke-width="1.2" d="M1622.08,-73C1622.08,-73 1670.54,-73 1670.54,-73"/>
<polygon fill="black" stroke="black" stroke-width="1.2" points="1670.54,-75.8 1678.54,-73 1670.54,-70.2 1670.54,-75.8"/>
</g>
<!-- e5&#45;&gt;end1 -->
<g id="edge15" class="edge">
<title>e5&#45;&gt;end1</title>
<path fill="none" stroke="black" stroke-width="1.2" d="M1614.68,-18C1687.76,-18 1805.44,-18 1805.44,-18 1805.44,-18 1805.44,-50.88 1805.44,-50.88"/>
<polygon fill="black" stroke="black" stroke-width="1.2" points="1802.64,-50.88 1805.44,-58.88 1808.24,-50.88 1802.64,-50.88"/>
</g>
</g>
</svg>
