<?plantuml 1.2026.2?><svg xmlns="http://www.w3.org/2000/svg" xmlns:xlink="http://www.w3.org/1999/xlink" contentStyleType="text/css" data-diagram-type="DESCRIPTION" height="1470px" preserveAspectRatio="none" style="width:678px;height:1470px;background:#FFFFFF;" version="1.1" viewBox="0 0 678 1470" width="678.75px" zoomAndPan="magnify"><title>&#22270;3-3 EISCore&#36136;&#37327;&#36861;&#28335;&#19982;&#32463;&#33829;&#31649;&#29702;&#29992;&#20363;&#22270;</title><defs/><g><g class="title" data-source-line="1"><text fill="#000000" font-family="Microsoft YaHei" font-size="26.25" font-weight="bold" lengthAdjust="spacing" textLength="493.8409" x="80.1545" y="46.5253">&#22270;3-3 EISCore&#36136;&#37327;&#36861;&#28335;&#19982;&#32463;&#33829;&#31649;&#29702;&#29992;&#20363;&#22270;</text></g><!--cluster EISCore--><g class="cluster" data-qualified-name="EISCore" data-source-line="27" id="ent0007"><rect fill="none" height="1117.5" rx="4.6875" ry="4.6875" style="stroke:#181818;stroke-width:1.875;" width="324.8812" x="344.2688" y="87.1454"/><text fill="#000000" font-family="Microsoft YaHei" font-size="26.25" font-weight="bold" lengthAdjust="spacing" textLength="100.9369" x="456.2409" y="118.6707">EISCore</text></g><!--entity UC1--><g class="entity" data-qualified-name="EISCore.UC1" data-source-line="28" id="ent0008"><ellipse cx="506.7003" cy="186.5121" fill="#FFFFFF" rx="125.2691" ry="30.123" style="stroke:#000000;stroke-width:0.9375;"/><text fill="#000000" font-family="Microsoft YaHei" font-size="26.25" lengthAdjust="spacing" textLength="169.2023" x="422.0992" y="197.2723">&#26469;&#26009;&#26816;&#39564;(IQC)</text></g><!--entity UC2--><g class="entity" data-qualified-name="EISCore.UC2" data-source-line="29" id="ent0009"><ellipse cx="506.6915" cy="509.0149" fill="#FFFFFF" rx="132.4415" ry="30.9883" style="stroke:#000000;stroke-width:0.9375;"/><text fill="#000000" font-family="Microsoft YaHei" font-size="26.25" lengthAdjust="spacing" textLength="185.2625" x="414.0603" y="519.7751">&#36807;&#31243;&#26816;&#39564;(IPQC)</text></g><!--entity UC3--><g class="entity" data-qualified-name="EISCore.UC3" data-source-line="30" id="ent0010"><ellipse cx="506.7047" cy="636.5288" fill="#FFFFFF" rx="131.5735" ry="30.8147" style="stroke:#000000;stroke-width:0.9375;"/><text fill="#000000" font-family="Microsoft YaHei" font-size="26.25" lengthAdjust="spacing" textLength="182.8784" x="415.2655" y="647.289">&#20986;&#36135;&#26816;&#39564;(OQC)</text></g><!--entity UC4--><g class="entity" data-qualified-name="EISCore.UC4" data-source-line="31" id="ent0011"><ellipse cx="506.6943" cy="347.7621" fill="#FFFFFF" rx="116.9943" ry="30.123" style="stroke:#000000;stroke-width:0.9375;"/><text fill="#000000" font-family="Microsoft YaHei" font-size="26.25" lengthAdjust="spacing" textLength="157.5" x="427.9443" y="358.5223">&#26816;&#39564;&#38468;&#20214;&#19978;&#20256;</text></g><!--entity UC5--><g class="entity" data-qualified-name="EISCore.UC5" data-source-line="33" id="ent0012"><ellipse cx="506.6943" cy="764.0121" fill="#FFFFFF" rx="116.9943" ry="30.123" style="stroke:#000000;stroke-width:0.9375;"/><text fill="#000000" font-family="Microsoft YaHei" font-size="26.25" lengthAdjust="spacing" textLength="157.5" x="427.9443" y="774.7723">&#25209;&#27425;&#36861;&#28335;&#26597;&#35810;</text></g><!--entity UC6--><g class="entity" data-qualified-name="EISCore.UC6" data-source-line="34" id="ent0013"><ellipse cx="506.6943" cy="1144.6371" fill="#FFFFFF" rx="116.9943" ry="30.123" style="stroke:#000000;stroke-width:0.9375;"/><text fill="#000000" font-family="Microsoft YaHei" font-size="26.25" lengthAdjust="spacing" textLength="157.5" x="427.9443" y="1155.3973">&#35746;&#21333;&#29366;&#24577;&#30417;&#25511;</text></g><!--entity UC7--><g class="entity" data-qualified-name="EISCore.UC7" data-source-line="35" id="ent0014"><ellipse cx="506.6943" cy="1019.0121" fill="#FFFFFF" rx="116.9943" ry="30.123" style="stroke:#000000;stroke-width:0.9375;"/><text fill="#000000" font-family="Microsoft YaHei" font-size="26.25" lengthAdjust="spacing" textLength="157.5" x="427.9443" y="1029.7723">&#24322;&#24120;&#21327;&#35843;&#22788;&#29702;</text></g><!--entity UC8--><g class="entity" data-qualified-name="EISCore.UC8" data-source-line="36" id="ent0015"><ellipse cx="506.7027" cy="891.5172" fill="#FFFFFF" rx="131.8902" ry="30.878" style="stroke:#000000;stroke-width:0.9375;"/><text fill="#000000" font-family="Microsoft YaHei" font-size="26.25" lengthAdjust="spacing" textLength="183.75" x="414.8277" y="902.2774">&#23457;&#25209;&#19982;&#32463;&#33829;&#26597;&#30475;</text></g><!--entity Quality--><g class="entity" data-qualified-name="Quality" data-source-line="21" id="ent0002"><ellipse cx="80.25" cy="293.8829" fill="#FFFFFF" rx="15" ry="15" style="stroke:#000000;stroke-width:0.9375;"/><path d="M80.25,308.8829 L80.25,359.5079 M55.875,323.8829 L104.625,323.8829 M80.25,359.5079 L55.875,387.6329 M80.25,359.5079 L104.625,387.6329" fill="none" style="stroke:#000000;stroke-width:0.9375;"/><text fill="#000000" font-family="Microsoft YaHei" font-size="26.25" lengthAdjust="spacing" textLength="105" x="27.75" y="418.2207">&#36136;&#26816;&#20154;&#21592;</text></g><!--entity Manager--><g class="entity" data-qualified-name="Manager" data-source-line="22" id="ent0003"><ellipse cx="80.25" cy="888.2579" fill="#FFFFFF" rx="15" ry="15" style="stroke:#000000;stroke-width:0.9375;"/><path d="M80.25,903.2579 L80.25,953.8829 M55.875,918.2579 L104.625,918.2579 M80.25,953.8829 L55.875,982.0079 M80.25,953.8829 L104.625,982.0079" fill="none" style="stroke:#000000;stroke-width:0.9375;"/><text fill="#000000" font-family="Microsoft YaHei" font-size="26.25" lengthAdjust="spacing" textLength="78.75" x="40.875" y="1012.5957">&#31649;&#29702;&#23618;</text></g><!--entity PMC--><g class="entity" data-qualified-name="PMC" data-source-line="23" id="ent0004"><ellipse cx="80.2588" cy="1109.5079" fill="#FFFFFF" rx="15" ry="15" style="stroke:#000000;stroke-width:0.9375;"/><path d="M80.2588,1124.5079 L80.2588,1175.1329 M55.8838,1139.5079 L104.6338,1139.5079 M80.2588,1175.1329 L55.8838,1203.2579 M80.2588,1175.1329 L104.6338,1203.2579" fill="none" style="stroke:#000000;stroke-width:0.9375;"/><text fill="#000000" font-family="Microsoft YaHei" font-size="26.25" lengthAdjust="spacing" textLength="138.0176" x="11.25" y="1233.8457">PMC&#35745;&#21010;&#21592;</text></g><!--entity Warehouse--><g class="entity" data-qualified-name="Warehouse" data-source-line="24" id="ent0005"><ellipse cx="80.25" cy="577.0079" fill="#FFFFFF" rx="15" ry="15" style="stroke:#000000;stroke-width:0.9375;"/><path d="M80.25,592.0079 L80.25,642.6329 M55.875,607.0079 L104.625,607.0079 M80.25,642.6329 L55.875,670.7579 M80.25,642.6329 L104.625,670.7579" fill="none" style="stroke:#000000;stroke-width:0.9375;"/><text fill="#000000" font-family="Microsoft YaHei" font-size="26.25" lengthAdjust="spacing" textLength="78.75" x="40.875" y="701.3457">&#20179;&#31649;&#21592;</text></g><!--entity Sales--><g class="entity" data-qualified-name="Sales" data-source-line="25" id="ent0006"><ellipse cx="80.25" cy="1330.7579" fill="#FFFFFF" rx="15" ry="15" style="stroke:#000000;stroke-width:0.9375;"/><path d="M80.25,1345.7579 L80.25,1396.3829 M55.875,1360.7579 L104.625,1360.7579 M80.25,1396.3829 L55.875,1424.5079 M80.25,1396.3829 L104.625,1424.5079" fill="none" style="stroke:#000000;stroke-width:0.9375;"/><text fill="#000000" font-family="Microsoft YaHei" font-size="26.25" lengthAdjust="spacing" textLength="105" x="27.75" y="1455.0957">&#38144;&#21806;&#20154;&#21592;</text></g><!--link Quality to UC1--><g class="link" data-entity-1="ent0002" data-entity-2="ent0008" data-link-type="association" data-source-line="39" id="lnk16"><path d="M133.6875,309.3704 C154.9125,293.6954 180.375,276.9141 205.5188,265.2704 C268.1813,236.2641 343.35,216.5391 402.675,204.0704" fill="none" id="Quality-UC1" style="stroke:#000000;stroke-width:1.875;"/></g><!--link Quality to UC2--><g class="link" data-entity-1="ent0002" data-entity-2="ent0009" data-link-type="association" data-source-line="40" id="lnk17"><path d="M133.2188,350.4891 C182.7938,351.7266 258.4875,359.6391 314.2688,392.7704 C323.4375,398.2266 321.1125,404.6391 329.2688,411.5204 C363.0938,440.0954 406.5563,464.3204 441.7875,481.4766" fill="none" id="Quality-UC2" style="stroke:#000000;stroke-width:1.875;"/></g><!--link Quality to UC3--><g class="link" data-entity-1="ent0002" data-entity-2="ent0010" data-link-type="association" data-source-line="41" id="lnk18"><path d="M133.2375,408.1829 C180.15,457.3454 253.6688,527.5266 329.2688,572.7704 C357.0938,589.4204 389.9625,602.7891 419.7,612.9141" fill="none" id="Quality-UC3" style="stroke:#000000;stroke-width:1.875;"/></g><!--link Quality to UC4--><g class="link" data-entity-1="ent0002" data-entity-2="ent0011" data-link-type="association" data-source-line="42" id="lnk19"><path d="M133.65,333.1454 C155.5125,326.2641 181.4625,319.3079 205.5188,315.8954 C276.9188,305.7891 358.3313,315.8391 418.2,327.2579" fill="none" id="Quality-UC4" style="stroke:#000000;stroke-width:1.875;"/></g><!--link Quality to UC5--><g class="link" data-entity-1="ent0002" data-entity-2="ent0012" data-link-type="association" data-source-line="43" id="lnk20"><path d="M113.8875,425.7704 C135.7875,472.2891 167.7,531.9891 205.5188,578.3954 C245.4938,627.4454 275.1563,620.5454 314.2688,670.2704 C323.475,681.9891 318.1312,690.3516 329.2688,700.2704 C352.9875,721.4204 384.2813,735.7079 413.8688,745.3079" fill="none" id="Quality-UC5" style="stroke:#000000;stroke-width:1.875;"/></g><!--link Manager to UC5--><g class="link" data-entity-1="ent0003" data-entity-2="ent0012" data-link-type="association" data-source-line="45" id="lnk21"><path d="M120.4125,896.0766 C142.575,870.6891 172.5563,841.5516 205.5188,824.0204 C262.8375,793.5516 333.8438,778.4954 392.3063,771.0891" fill="none" id="Manager-UC5" style="stroke:#000000;stroke-width:1.875;"/></g><!--link Manager to UC6--><g class="link" data-entity-1="ent0003" data-entity-2="ent0013" data-link-type="association" data-source-line="46" id="lnk22"><path d="M120.4688,969.7829 C168.2062,998.8829 252.7688,1048.4016 329.2688,1082.7704 C361.6875,1097.3391 398.6625,1110.8204 430.2938,1121.4516" fill="none" id="Manager-UC6" style="stroke:#000000;stroke-width:1.875;"/></g><!--link Manager to UC7--><g class="link" data-entity-1="ent0003" data-entity-2="ent0014" data-link-type="association" data-source-line="47" id="lnk23"><path d="M120.3938,952.5141 C184.8188,963.6516 316.8375,986.5079 408.0563,1002.2766" fill="none" id="Manager-UC7" style="stroke:#000000;stroke-width:1.875;"/></g><!--link Manager to UC8--><g class="link" data-entity-1="ent0003" data-entity-2="ent0015" data-link-type="association" data-source-line="48" id="lnk24"><path d="M120.3938,940.9829 C180.5438,933.2391 299.6438,917.9204 389.4188,906.3704" fill="none" id="Manager-UC8" style="stroke:#000000;stroke-width:1.875;"/></g><!--link PMC to UC5--><g class="link" data-entity-1="ent0004" data-entity-2="ent0012" data-link-type="association" data-source-line="50" id="lnk25"><path d="M128.8125,1092.9141 C185.3813,1004.8829 279.3188,865.3454 329.2688,827.7704 C355.4437,808.0829 388.2938,794.0016 418.4813,784.1766" fill="none" id="PMC-UC5" style="stroke:#000000;stroke-width:1.875;"/></g><!--link PMC to UC6--><g class="link" data-entity-1="ent0004" data-entity-2="ent0013" data-link-type="association" data-source-line="51" id="lnk26"><path d="M149.9438,1199.2079 C167.6437,1206.0891 186.9562,1212.3704 205.5188,1215.8954 C252.9938,1224.9329 266.7,1224.5016 314.2688,1215.8954 C361.1813,1207.4204 411.6188,1188.0704 448.8,1171.6641" fill="none" id="PMC-UC6" style="stroke:#000000;stroke-width:1.875;"/></g><!--link PMC to UC7--><g class="link" data-entity-1="ent0004" data-entity-2="ent0014" data-link-type="association" data-source-line="52" id="lnk27"><path d="M150.0563,1143.3516 C228.225,1115.9579 355.9875,1071.1829 434.9813,1043.5079" fill="none" id="PMC-UC7" style="stroke:#000000;stroke-width:1.875;"/></g><!--link Warehouse to UC3--><g class="link" data-entity-1="ent0005" data-entity-2="ent0010" data-link-type="association" data-source-line="54" id="lnk28"><path d="M120.3938,634.8141 C177.3,635.0766 286.9313,635.5641 374.6063,635.9391" fill="none" id="Warehouse-UC3" style="stroke:#000000;stroke-width:1.875;"/></g><!--link Warehouse to UC5--><g class="link" data-entity-1="ent0005" data-entity-2="ent0012" data-link-type="association" data-source-line="55" id="lnk29"><path d="M120.3938,646.3641 C189.9,667.6266 338.0813,712.9829 428.8125,740.7516" fill="none" id="Warehouse-UC5" style="stroke:#000000;stroke-width:1.875;"/></g><!--link Sales to UC6--><g class="link" data-entity-1="ent0006" data-entity-2="ent0013" data-link-type="association" data-source-line="57" id="lnk30"><path d="M133.125,1358.9954 C215.25,1311.6329 375.7313,1219.1016 456.2813,1172.6391" fill="none" id="Sales-UC6" style="stroke:#000000;stroke-width:1.875;"/></g><!--link Sales to UC7--><g class="link" data-entity-1="ent0006" data-entity-2="ent0014" data-link-type="association" data-source-line="58" id="lnk31"><path d="M133.4438,1347.0516 C186.5063,1301.5641 267.9563,1223.5829 314.2688,1139.0204 C327.075,1115.6204 311.2313,1100.5641 329.2688,1080.8954 C349.575,1058.7516 378.3,1044.5204 406.65,1035.3891" fill="none" id="Sales-UC7" style="stroke:#000000;stroke-width:1.875;"/></g><!--link UC1 to UC4--><g class="link" data-entity-1="ent0008" data-entity-2="ent0011" data-link-type="dependency" data-source-line="60" id="lnk32"><path d="M506.7,217.2704 C506.7,246.0516 506.7,277.5516 506.7,306.2016" fill="none" id="UC1-to-UC4" style="stroke:#000000;stroke-width:1.875;stroke-dasharray:13.125,13.125;"/><polygon fill="#000000" points="506.7,317.4516,514.2,300.5766,506.7,308.0766,499.2,300.5766,506.7,317.4516" style="stroke:#000000;stroke-width:1.875;"/><text fill="#000000" font-family="Microsoft YaHei" font-size="24.375" lengthAdjust="spacing" textLength="106.7953" x="430.7625" y="276.9992">&#171;extend&#187;</text></g><!--link UC2 to UC4--><g class="link" data-entity-1="ent0009" data-entity-2="ent0011" data-link-type="dependency" data-source-line="61" id="lnk33"><path d="M506.7,477.1641 C506.7,448.5329 506.7,417.9891 506.7,389.7141" fill="none" id="UC2-to-UC4" style="stroke:#000000;stroke-width:1.875;stroke-dasharray:13.125,13.125;"/><polygon fill="#000000" points="506.7,378.4641,499.2,395.3391,506.7,387.8391,514.2,395.3391,506.7,378.4641" style="stroke:#000000;stroke-width:1.875;"/><text fill="#000000" font-family="Microsoft YaHei" font-size="24.375" lengthAdjust="spacing" textLength="106.7953" x="430.7625" y="437.818">&#171;extend&#187;</text></g><!--link UC3 to UC4--><g class="link" data-entity-1="ent0010" data-entity-2="ent0011" data-link-type="dependency" data-source-line="62" id="lnk34"><path d="M410.0625,615.2579 C381.8438,605.6766 352.425,592.0266 329.2688,572.7704 C262.4625,517.2141 191.0438,462.3516 246.6563,395.5829 C282.0563,353.0766 330.5136,340.3967 383.7824,338.4655" fill="none" id="UC3-to-UC4" style="stroke:#000000;stroke-width:1.875;stroke-dasharray:13.125,13.125;"/><polygon fill="#000000" points="395.025,338.0579,377.8893,331.1742,385.6562,338.3976,378.4328,346.1644,395.025,338.0579" style="stroke:#000000;stroke-width:1.875;"/><text fill="#000000" font-family="Microsoft YaHei" font-size="24.375" lengthAdjust="spacing" textLength="106.7953" x="207.3938" y="423.2492">&#171;extend&#187;</text></g><?plantuml-src TLDTRn9157sVNp7XIHym5bfAJ4EYH6CVq3R461-dkmDikkoGsI7OD4smDgB5bbRHs5IZL4c9CLIJfa6exP_PB_w50yp2JaFVzfvpxjnpFvPfJCVGFho8XgFm_c8wIIZsJblzIisx_ETqJwpEhjkhUNjDjzrmzrwvzPPrKULo0CnLpIWWYl9m1IchMKgAXfeaEg6mbDCO3l1c3gcaf1bPc46w6MJKWWPduhU32CwWeiuU48CzGdaCKvf2YKao33v33x4MKEQ9GPGS9Lp4Q37uQe7xGLcSPckyDOeLXeoi7XGKJQmW4yDr0E6zgUOvJgYAwGXRqRc8OtSf9QKWj15u52cCu-lNf4ulim60ZdblZ42gPNCCgjh0hqOC04RlyLqutyjMjsllVuB8XCj5f6jiJR2ZfTX_DWTK2XcyQogeq58gwRKRzkjtF3Cqu3aWEAltdcUA5vyYYdE4ZqIG_NhPhhSd5TD8noO0updwLp9irPzaoFdIT3uUSAlzdszlB2udRmvBFadE14NUPSLjLNtHqaGL2QhiIjSxFHQgnnDHLAetfFi7MrRlpEfiM-VVX6eMIB8tVvrVZT4fEr-RticHaCr9ljf7ziu7T_lCARzm3_UTtMEXYac-pZVjJiVUgNc_Nze_jlZWXMfUKhKRlEZuj-55tSzL8OmF5Yus2CFXuNYaC2A7KJcSbSCv0CJA_LWAOt8uBuTn0FWz-8dZpzZaSnw0yMduTgu0tC7mElpSGC2pUNVmLcBW6zw12mluESE6caXmF78D7fsA_mS0?></g></svg>