<?plantuml 1.2026.2?><svg xmlns="http://www.w3.org/2000/svg" xmlns:xlink="http://www.w3.org/1999/xlink" contentStyleType="text/css" data-diagram-type="DESCRIPTION" height="2398.125px" preserveAspectRatio="none" style="width:723px;height:2398px;background:#FFFFFF;" version="1.1" viewBox="0 0 723 2398" width="723.75px" zoomAndPan="magnify"><title>&#22270;3-2 EISCore&#26680;&#24515;&#19994;&#21153;&#29992;&#20363;&#22270;</title><defs/><g><g class="title" data-source-line="1"><text fill="#000000" font-family="Microsoft YaHei" font-size="26.25" font-weight="bold" lengthAdjust="spacing" textLength="362.5909" x="168.2514" y="46.5253">&#22270;3-2 EISCore&#26680;&#24515;&#19994;&#21153;&#29992;&#20363;&#22270;</text></g><!--cluster EISCore--><g class="cluster" data-qualified-name="EISCore" data-source-line="27" id="ent0007"><rect fill="none" height="2300.625" rx="4.6875" ry="4.6875" style="stroke:#181818;stroke-width:1.875;" width="364.2" x="349.8938" y="87.1454"/><text fill="#000000" font-family="Microsoft YaHei" font-size="26.25" font-weight="bold" lengthAdjust="spacing" textLength="100.9369" x="481.5253" y="118.6707">EISCore</text></g><!--entity UC1--><g class="entity" data-qualified-name="EISCore.UC1" data-source-line="28" id="ent0008"><ellipse cx="531.9881" cy="473.3871" fill="#FFFFFF" rx="116.9943" ry="30.123" style="stroke:#000000;stroke-width:0.9375;"/><text fill="#000000" font-family="Microsoft YaHei" font-size="26.25" lengthAdjust="spacing" textLength="157.5" x="453.2381" y="484.1473">&#23458;&#25143;&#26723;&#26696;&#32500;&#25252;</text></g><!--entity UC2--><g class="entity" data-qualified-name="EISCore.UC2" data-source-line="29" id="ent0009"><ellipse cx="531.9881" cy="347.7621" fill="#FFFFFF" rx="116.9943" ry="30.123" style="stroke:#000000;stroke-width:0.9375;"/><text fill="#000000" font-family="Microsoft YaHei" font-size="26.25" lengthAdjust="spacing" textLength="157.5" x="453.2381" y="358.5223">&#38144;&#21806;&#21512;&#21516;&#31649;&#29702;</text></g><!--entity UC3--><g class="entity" data-qualified-name="EISCore.UC3" data-source-line="30" id="ent0010"><ellipse cx="531.9881" cy="186.5121" fill="#FFFFFF" rx="116.9943" ry="30.123" style="stroke:#000000;stroke-width:0.9375;"/><text fill="#000000" font-family="Microsoft YaHei" font-size="26.25" lengthAdjust="spacing" textLength="157.5" x="453.2381" y="197.2723">&#38144;&#21806;&#35746;&#21333;&#31649;&#29702;</text></g><!--entity UC4--><g class="entity" data-qualified-name="EISCore.UC4" data-source-line="31" id="ent0011"><ellipse cx="531.9881" cy="599.0121" fill="#FFFFFF" rx="116.9943" ry="30.123" style="stroke:#000000;stroke-width:0.9375;"/><text fill="#000000" font-family="Microsoft YaHei" font-size="26.25" lengthAdjust="spacing" textLength="157.5" x="453.2381" y="609.7723">&#35746;&#21333;&#29366;&#24577;&#26597;&#35810;</text></g><!--entity UC5--><g class="entity" data-qualified-name="EISCore.UC5" data-source-line="33" id="ent0012"><ellipse cx="531.9881" cy="885.8871" fill="#FFFFFF" rx="116.9943" ry="30.123" style="stroke:#000000;stroke-width:0.9375;"/><text fill="#000000" font-family="Microsoft YaHei" font-size="26.25" lengthAdjust="spacing" textLength="157.5" x="453.2381" y="896.6473">&#29983;&#20135;&#35746;&#21333;&#19979;&#36798;</text></g><!--entity UC6--><g class="entity" data-qualified-name="EISCore.UC6" data-source-line="34" id="ent0013"><ellipse cx="531.9881" cy="724.6371" fill="#FFFFFF" rx="116.9943" ry="30.123" style="stroke:#000000;stroke-width:0.9375;"/><text fill="#000000" font-family="Microsoft YaHei" font-size="26.25" lengthAdjust="spacing" textLength="157.5" x="453.2381" y="735.3973">&#29289;&#26009;&#38656;&#27714;&#20998;&#26512;</text></g><!--entity UC7--><g class="entity" data-qualified-name="EISCore.UC7" data-source-line="35" id="ent0014"><ellipse cx="531.9881" cy="1274.0121" fill="#FFFFFF" rx="116.9943" ry="30.123" style="stroke:#000000;stroke-width:0.9375;"/><text fill="#000000" font-family="Microsoft YaHei" font-size="26.25" lengthAdjust="spacing" textLength="157.5" x="453.2381" y="1284.7723">&#37319;&#36141;&#38656;&#27714;&#29983;&#25104;</text></g><!--entity UC8--><g class="entity" data-qualified-name="EISCore.UC8" data-source-line="37" id="ent0015"><ellipse cx="531.9881" cy="1399.6371" fill="#FFFFFF" rx="116.9943" ry="30.123" style="stroke:#000000;stroke-width:0.9375;"/><text fill="#000000" font-family="Microsoft YaHei" font-size="26.25" lengthAdjust="spacing" textLength="157.5" x="453.2381" y="1410.3973">&#37319;&#36141;&#35746;&#21333;&#31649;&#29702;</text></g><!--entity UC9--><g class="entity" data-qualified-name="EISCore.UC9" data-source-line="38" id="ent0016"><ellipse cx="531.99" cy="1525.2621" fill="#FFFFFF" rx="79.8712" ry="30.123" style="stroke:#000000;stroke-width:0.9375;"/><text fill="#000000" font-family="Microsoft YaHei" font-size="26.25" lengthAdjust="spacing" textLength="105" x="479.49" y="1536.0223">&#21040;&#36135;&#36319;&#36394;</text></g><!--entity UC10--><g class="entity" data-qualified-name="EISCore.UC10" data-source-line="40" id="ent0017"><ellipse cx="531.99" cy="1776.5121" fill="#FFFFFF" rx="79.8712" ry="30.123" style="stroke:#000000;stroke-width:0.9375;"/><text fill="#000000" font-family="Microsoft YaHei" font-size="26.25" lengthAdjust="spacing" textLength="105" x="479.49" y="1787.2723">&#37319;&#36141;&#20837;&#24211;</text></g><!--entity UC11--><g class="entity" data-qualified-name="EISCore.UC11" data-source-line="41" id="ent0018"><ellipse cx="531.9993" cy="2052.142" fill="#FFFFFF" rx="85.9368" ry="53.5092" style="stroke:#000000;stroke-width:0.9375;"/><text fill="#000000" font-family="Microsoft YaHei" font-size="26.25" lengthAdjust="spacing" textLength="116.2152" x="473.8917" y="2047.1706">&#29983;&#20135;&#39046;&#26009;/</text><text fill="#000000" font-family="Microsoft YaHei" font-size="26.25" lengthAdjust="spacing" textLength="105" x="479.4993" y="2081.816">&#34917;&#26009;&#20986;&#24211;</text></g><!--entity UC12--><g class="entity" data-qualified-name="EISCore.UC12" data-source-line="42" id="ent0019"><ellipse cx="531.99" cy="2327.7621" fill="#FFFFFF" rx="79.8712" ry="30.123" style="stroke:#000000;stroke-width:0.9375;"/><text fill="#000000" font-family="Microsoft YaHei" font-size="26.25" lengthAdjust="spacing" textLength="105" x="479.49" y="2338.5223">&#29983;&#20135;&#25253;&#24037;</text></g><!--entity UC13--><g class="entity" data-qualified-name="EISCore.UC13" data-source-line="43" id="ent0020"><ellipse cx="531.9881" cy="2202.1371" fill="#FFFFFF" rx="116.9943" ry="30.123" style="stroke:#000000;stroke-width:0.9375;"/><text fill="#000000" font-family="Microsoft YaHei" font-size="26.25" lengthAdjust="spacing" textLength="157.5" x="453.2381" y="2212.8973">&#21253;&#35013;&#20219;&#21153;&#22788;&#29702;</text></g><!--entity UC14--><g class="entity" data-qualified-name="EISCore.UC14" data-source-line="44" id="ent0021"><ellipse cx="531.99" cy="1902.1371" fill="#FFFFFF" rx="79.8712" ry="30.123" style="stroke:#000000;stroke-width:0.9375;"/><text fill="#000000" font-family="Microsoft YaHei" font-size="26.25" lengthAdjust="spacing" textLength="105" x="479.49" y="1912.8973">&#29983;&#20135;&#20837;&#24211;</text></g><!--entity UC15--><g class="entity" data-qualified-name="EISCore.UC15" data-source-line="46" id="ent0022"><ellipse cx="531.99" cy="1011.5121" fill="#FFFFFF" rx="79.8712" ry="30.123" style="stroke:#000000;stroke-width:0.9375;"/><text fill="#000000" font-family="Microsoft YaHei" font-size="26.25" lengthAdjust="spacing" textLength="105" x="479.49" y="1022.2723">&#38144;&#21806;&#20986;&#24211;</text></g><!--entity UC16--><g class="entity" data-qualified-name="EISCore.UC16" data-source-line="47" id="ent0023"><ellipse cx="531.9881" cy="1650.8871" fill="#FFFFFF" rx="116.9943" ry="30.123" style="stroke:#000000;stroke-width:0.9375;"/><text fill="#000000" font-family="Microsoft YaHei" font-size="26.25" lengthAdjust="spacing" textLength="157.5" x="453.2381" y="1661.6473">&#24211;&#23384;&#21488;&#36134;&#26597;&#35810;</text></g><!--entity UC17--><g class="entity" data-qualified-name="EISCore.UC17" data-source-line="48" id="ent0024"><ellipse cx="531.9954" cy="1142.7782" fill="#FFFFFF" rx="152.1016" ry="34.9203" style="stroke:#000000;stroke-width:0.9375;"/><text fill="#000000" font-family="Microsoft YaHei" font-size="26.25" lengthAdjust="spacing" textLength="236.25" x="413.8704" y="1153.5384">&#21457;&#36135;&#19982;&#29289;&#27969;&#20449;&#24687;&#30331;&#35760;</text></g><!--entity Sales--><g class="entity" data-qualified-name="Sales" data-source-line="21" id="ent0002"><ellipse cx="80.25" cy="443.8829" fill="#FFFFFF" rx="15" ry="15" style="stroke:#000000;stroke-width:0.9375;"/><path d="M80.25,458.8829 L80.25,509.5079 M55.875,473.8829 L104.625,473.8829 M80.25,509.5079 L55.875,537.6329 M80.25,509.5079 L104.625,537.6329" fill="none" style="stroke:#000000;stroke-width:0.9375;"/><text fill="#000000" font-family="Microsoft YaHei" font-size="26.25" lengthAdjust="spacing" textLength="105" x="27.75" y="568.2207">&#38144;&#21806;&#20154;&#21592;</text></g><!--entity PMC--><g class="entity" data-qualified-name="PMC" data-source-line="22" id="ent0003"><ellipse cx="80.2588" cy="828.2579" fill="#FFFFFF" rx="15" ry="15" style="stroke:#000000;stroke-width:0.9375;"/><path d="M80.2588,843.2579 L80.2588,893.8829 M55.8838,858.2579 L104.6338,858.2579 M80.2588,893.8829 L55.8838,922.0079 M80.2588,893.8829 L104.6338,922.0079" fill="none" style="stroke:#000000;stroke-width:0.9375;"/><text fill="#000000" font-family="Microsoft YaHei" font-size="26.25" lengthAdjust="spacing" textLength="138.0176" x="11.25" y="952.5957">PMC&#35745;&#21010;&#21592;</text></g><!--entity Purchase--><g class="entity" data-qualified-name="Purchase" data-source-line="23" id="ent0004"><ellipse cx="80.25" cy="1403.8829" fill="#FFFFFF" rx="15" ry="15" style="stroke:#000000;stroke-width:0.9375;"/><path d="M80.25,1418.8829 L80.25,1469.5079 M55.875,1433.8829 L104.625,1433.8829 M80.25,1469.5079 L55.875,1497.6329 M80.25,1469.5079 L104.625,1497.6329" fill="none" style="stroke:#000000;stroke-width:0.9375;"/><text fill="#000000" font-family="Microsoft YaHei" font-size="26.25" lengthAdjust="spacing" textLength="105" x="27.75" y="1528.2207">&#37319;&#36141;&#20154;&#21592;</text></g><!--entity Warehouse--><g class="entity" data-qualified-name="Warehouse" data-source-line="24" id="ent0005"><ellipse cx="80.25" cy="1690.7579" fill="#FFFFFF" rx="15" ry="15" style="stroke:#000000;stroke-width:0.9375;"/><path d="M80.25,1705.7579 L80.25,1756.3829 M55.875,1720.7579 L104.625,1720.7579 M80.25,1756.3829 L55.875,1784.5079 M80.25,1756.3829 L104.625,1784.5079" fill="none" style="stroke:#000000;stroke-width:0.9375;"/><text fill="#000000" font-family="Microsoft YaHei" font-size="26.25" lengthAdjust="spacing" textLength="78.75" x="40.875" y="1815.0957">&#20179;&#31649;&#21592;</text></g><!--entity Production--><g class="entity" data-qualified-name="Production" data-source-line="25" id="ent0006"><ellipse cx="80.2514" cy="2095.3079" fill="#FFFFFF" rx="15" ry="15" style="stroke:#000000;stroke-width:0.9375;"/><path d="M80.2514,2110.3079 L80.2514,2160.9329 M55.8764,2125.3079 L104.6264,2125.3079 M80.2514,2160.9329 L55.8764,2189.0579 M80.2514,2160.9329 L104.6264,2189.0579" fill="none" style="stroke:#000000;stroke-width:0.9375;"/><text fill="#000000" font-family="Microsoft YaHei" font-size="26.25" lengthAdjust="spacing" textLength="116.2152" x="22.1437" y="2219.6457">&#29983;&#20135;&#20027;&#31649;/</text><text fill="#000000" font-family="Microsoft YaHei" font-size="26.25" lengthAdjust="spacing" textLength="105" x="22.1437" y="2254.291">&#36710;&#38388;&#20027;&#20219;</text></g><!--link Sales to UC1--><g class="link" data-entity-1="ent0002" data-entity-2="ent0008" data-link-type="association" data-source-line="51" id="lnk25"><path d="M133.5187,498.2954 C202.4625,493.9641 326.775,486.1641 417.9,480.4454" fill="none" id="Sales-UC1" style="stroke:#000000;stroke-width:1.875;"/></g><!--link Sales to UC2--><g class="link" data-entity-1="ent0002" data-entity-2="ent0009" data-link-type="association" data-source-line="52" id="lnk26"><path d="M133.4813,474.1079 C155.325,463.1016 181.275,450.8391 205.5188,441.5204 C284.6438,411.1079 377.85,385.1579 444.0563,368.3204" fill="none" id="Sales-UC2" style="stroke:#000000;stroke-width:1.875;"/></g><!--link Sales to UC3--><g class="link" data-entity-1="ent0002" data-entity-2="ent0010" data-link-type="association" data-source-line="53" id="lnk27"><path d="M133.35,443.9204 C154.7438,421.1579 180.4125,395.3766 205.5188,374.0204 C288.5625,303.3891 401.8875,244.9266 470.325,212.9391" fill="none" id="Sales-UC3" style="stroke:#000000;stroke-width:1.875;"/></g><!--link Sales to UC4--><g class="link" data-entity-1="ent0002" data-entity-2="ent0011" data-link-type="association" data-source-line="54" id="lnk28"><path d="M133.5187,512.7141 C208.4438,529.0079 348.75,559.5516 440.7938,579.5766" fill="none" id="Sales-UC4" style="stroke:#000000;stroke-width:1.875;"/></g><!--link Sales to UC15--><g class="link" data-entity-1="ent0002" data-entity-2="ent0022" data-link-type="association" data-source-line="55" id="lnk29"><path d="M133.5375,531.7641 C200.1375,571.4391 309.0563,638.2641 319.8938,657.1454 C352.2938,713.5829 295.1063,898.1391 334.8938,949.6454 C362.4938,985.3829 410.7562,1000.8891 452.3813,1007.4516" fill="none" id="Sales-UC15" style="stroke:#000000;stroke-width:1.875;"/></g><!--link Sales to UC17--><g class="link" data-entity-1="ent0002" data-entity-2="ent0024" data-link-type="association" data-source-line="56" id="lnk30"><path d="M113.0813,576.0141 C176.1188,727.1391 315.1688,1057.1016 334.8938,1075.2704 C357.0563,1095.6704 385.6875,1109.9579 414.1688,1119.9516" fill="none" id="Sales-UC17" style="stroke:#000000;stroke-width:1.875;"/></g><!--link PMC to UC4--><g class="link" data-entity-1="ent0003" data-entity-2="ent0011" data-link-type="association" data-source-line="58" id="lnk31"><path d="M149.325,811.5704 C196.9688,762.7829 264.675,700.8329 334.8938,660.8954 C367.65,642.2579 406.7625,628.4579 441.3375,618.6704" fill="none" id="PMC-UC4" style="stroke:#000000;stroke-width:1.875;"/></g><!--link PMC to UC5--><g class="link" data-entity-1="ent0003" data-entity-2="ent0012" data-link-type="association" data-source-line="59" id="lnk32"><path d="M150.1688,885.8954 C220.1813,885.8954 330.525,885.8954 414.3,885.8954" fill="none" id="PMC-UC5" style="stroke:#000000;stroke-width:1.875;"/></g><!--link PMC to UC6--><g class="link" data-entity-1="ent0003" data-entity-2="ent0013" data-link-type="association" data-source-line="60" id="lnk33"><path d="M150.0188,863.6579 C197.7188,847.8516 262.9125,825.8579 319.8938,805.2704 C369.15,787.4766 424.4438,766.2141 465.9562,749.9954" fill="none" id="PMC-UC6" style="stroke:#000000;stroke-width:1.875;"/></g><!--link PMC to UC7--><g class="link" data-entity-1="ent0003" data-entity-2="ent0014" data-link-type="association" data-source-line="61" id="lnk34"><path d="M111.525,960.2766 C132.8625,1008.2579 165.0563,1070.1516 205.5188,1116.5204 C268.5375,1188.7266 372.1688,1230.8766 445.3688,1253.1141" fill="none" id="PMC-UC7" style="stroke:#000000;stroke-width:1.875;"/></g><!--link Purchase to UC8--><g class="link" data-entity-1="ent0004" data-entity-2="ent0015" data-link-type="association" data-source-line="63" id="lnk35"><path d="M133.5187,1454.4141 C204.9938,1444.5516 335.9625,1426.4579 427.7813,1413.7829" fill="none" id="Purchase-UC8" style="stroke:#000000;stroke-width:1.875;"/></g><!--link Purchase to UC9--><g class="link" data-entity-1="ent0004" data-entity-2="ent0016" data-link-type="association" data-source-line="64" id="lnk36"><path d="M133.5187,1468.8329 C212.8125,1480.1204 365.325,1501.8141 456.375,1514.7704" fill="none" id="Purchase-UC9" style="stroke:#000000;stroke-width:1.875;"/></g><!--link Warehouse to UC10--><g class="link" data-entity-1="ent0005" data-entity-2="ent0017" data-link-type="association" data-source-line="66" id="lnk37"><path d="M120.3375,1750.7954 C193.7438,1755.4079 355.875,1765.5891 452.7563,1771.6641" fill="none" id="Warehouse-UC10" style="stroke:#000000;stroke-width:1.875;"/></g><!--link Warehouse to UC11--><g class="link" data-entity-1="ent0005" data-entity-2="ent0018" data-link-type="association" data-source-line="67" id="lnk38"><path d="M120.375,1787.7516 C167.5313,1834.6829 251.6812,1913.3391 334.8938,1965.8954 C373.1063,1990.0266 419.25,2010.7454 457.0688,2025.8391" fill="none" id="Warehouse-UC11" style="stroke:#000000;stroke-width:1.875;"/></g><!--link Warehouse to UC14--><g class="link" data-entity-1="ent0005" data-entity-2="ent0021" data-link-type="association" data-source-line="68" id="lnk39"><path d="M120.5063,1762.9079 C169.875,1781.4516 258.4125,1814.2641 334.8938,1840.2704 C379.3313,1855.3829 429.8438,1871.3579 468.3563,1883.3016" fill="none" id="Warehouse-UC14" style="stroke:#000000;stroke-width:1.875;"/></g><!--link Warehouse to UC15--><g class="link" data-entity-1="ent0005" data-entity-2="ent0022" data-link-type="association" data-source-line="69" id="lnk40"><path d="M110.4,1674.0891 C155.2125,1556.0766 245.175,1318.5141 319.8938,1116.5204 C326.6625,1098.2204 320.8688,1088.8266 334.8938,1075.2704 C367.05,1044.1641 414.6,1028.2266 454.725,1020.0704" fill="none" id="Warehouse-UC15" style="stroke:#000000;stroke-width:1.875;"/></g><!--link Warehouse to UC16--><g class="link" data-entity-1="ent0005" data-entity-2="ent0023" data-link-type="association" data-source-line="70" id="lnk41"><path d="M120.3375,1740.0891 C190.7813,1724.7516 342.9375,1691.6391 440.7188,1670.3579" fill="none" id="Warehouse-UC16" style="stroke:#000000;stroke-width:1.875;"/></g><!--link Warehouse to UC17--><g class="link" data-entity-1="ent0005" data-entity-2="ent0024" data-link-type="association" data-source-line="71" id="lnk42"><path d="M120.375,1705.7391 C175.4813,1641.4079 275.4563,1513.3641 319.8938,1384.6454 C332.5875,1347.8766 310.9875,1240.9454 334.8938,1210.2704 C352.5187,1187.6391 378.2063,1172.5641 405.1688,1162.5141" fill="none" id="Warehouse-UC17" style="stroke:#000000;stroke-width:1.875;"/></g><!--link Production to UC11--><g class="link" data-entity-1="ent0006" data-entity-2="ent0018" data-link-type="association" data-source-line="73" id="lnk43"><path d="M138.8625,2155.3079 C218.2125,2134.3829 362.6063,2096.3204 452.0438,2072.7329" fill="none" id="Production-UC11" style="stroke:#000000;stroke-width:1.875;"/></g><!--link Production to UC12--><g class="link" data-entity-1="ent0006" data-entity-2="ent0019" data-link-type="association" data-source-line="74" id="lnk44"><path d="M139.0313,2192.8079 C190.05,2212.7954 267.075,2242.3454 334.8938,2265.8954 C379.2188,2281.2891 429.75,2297.2641 468.2813,2309.1141" fill="none" id="Production-UC12" style="stroke:#000000;stroke-width:1.875;"/></g><!--link Production to UC13--><g class="link" data-entity-1="ent0006" data-entity-2="ent0020" data-link-type="association" data-source-line="75" id="lnk45"><path d="M138.8625,2174.3016 C208.8,2179.2891 329.25,2187.8579 418.0875,2194.1766" fill="none" id="Production-UC13" style="stroke:#000000;stroke-width:1.875;"/></g><!--link Production to UC14--><g class="link" data-entity-1="ent0006" data-entity-2="ent0021" data-link-type="association" data-source-line="76" id="lnk46"><path d="M138.975,2114.0391 C187.5188,2068.6829 261.0188,2006.0391 334.8938,1965.8954 C375,1944.1079 423.8063,1928.1704 462.5813,1917.6704" fill="none" id="Production-UC14" style="stroke:#000000;stroke-width:1.875;"/></g><!--link UC3 to UC2--><g class="link" data-entity-1="ent0010" data-entity-2="ent0009" data-link-type="dependency" data-source-line="78" id="lnk47"><path d="M531.9938,217.2704 C531.9938,246.0516 531.9938,277.5516 531.9938,306.1829" fill="none" id="UC3-to-UC2" style="stroke:#000000;stroke-width:1.875;stroke-dasharray:13.125,13.125;"/><polygon fill="#000000" points="531.9938,317.4329,539.4938,300.5579,531.9938,308.0579,524.4938,300.5579,531.9938,317.4329" style="stroke:#000000;stroke-width:1.875;"/><text fill="#000000" font-family="Microsoft YaHei" font-size="24.375" lengthAdjust="spacing" textLength="111.7465" x="453.2438" y="276.9992">&#171;include&#187;</text></g><!--link UC5 to UC6--><g class="link" data-entity-1="ent0012" data-entity-2="ent0013" data-link-type="dependency" data-source-line="79" id="lnk48"><path d="M531.9938,855.5579 C531.9938,826.9266 531.9938,795.4266 531.9938,766.6454" fill="none" id="UC5-to-UC6" style="stroke:#000000;stroke-width:1.875;stroke-dasharray:13.125,13.125;"/><polygon fill="#000000" points="531.9938,755.3954,524.4938,772.2704,531.9938,764.7704,539.4938,772.2704,531.9938,755.3954" style="stroke:#000000;stroke-width:1.875;"/><text fill="#000000" font-family="Microsoft YaHei" font-size="24.375" lengthAdjust="spacing" textLength="111.7465" x="453.2438" y="815.1242">&#171;include&#187;</text></g><!--link UC7 to UC6--><g class="link" data-entity-1="ent0014" data-entity-2="ent0013" data-link-type="dependency" data-source-line="80" id="lnk49"><path d="M437.4938,1255.6454 C403.1063,1245.9329 365.2688,1231.4766 334.8938,1210.2704 C284.9813,1175.4141 270.2625,1160.0016 250.4063,1102.4579 C217.1625,1006.1954 211.2563,962.5454 334.8938,822.1454 C366.0563,786.7641 402.5089,766.8172 442.7652,751.5172" fill="none" id="UC7-to-UC6" style="stroke:#000000;stroke-width:1.875;stroke-dasharray:13.125,13.125;"/><polygon fill="#000000" points="453.2813,747.5204,434.8426,746.5049,444.5178,750.8511,440.1717,760.5263,453.2813,747.5204" style="stroke:#000000;stroke-width:1.875;"/><text fill="#000000" font-family="Microsoft YaHei" font-size="24.375" lengthAdjust="spacing" textLength="111.7465" x="207.3938" y="1094.4992">&#171;include&#187;</text></g><?plantuml-src TLHHJzDG57xlhxZPEyesDj0G4bqq-e0n8SQO-79fozPGUibj6s882QZ072X3fe8QSOE1cZ0mcR9iSVoPtgxx5vwkxNPhvzizt_VTSy_vJayDnL1bn3wraoC9TEV-J8PGsVxQO5SlhCP7LYXtIj-izXRmWg3FAzeYfdW1pM9nFak9gKaPeXAAbdAA8NEydiCIMLAqB9h3giupqgA2uXEZF2BFOLCrxXBDU80NP3IjY9JePCv0J_0zMU6K2qGZOeuI41dKvBCkGZquAyyOpw0NAei6rh8gBp1rMSIwZ9O5X6uFBHvmGYMPUjYi2YB0Rb5AbdXeXKkAHGFmvVzS7VxCYY2eClHc44ILRCv0akBMgn1D4BnytT8gAzMiPfFjxYEienciohhFnHvEPvnQcUNV0XbpMG22UvkRJlriSE-XISKSzEpJLckl0pSzxZ6cSewOVJBMAHrQpLEhqGBDzQUQy-Ua-w4EeTLgUSzG8fb-cNr_Wy-bPq7WS8pLAdR-qYuVsULyfrMt2yUz38yoSLxbTScAULRSXZSxnGrVbOYgd5g5lNuNKYLvbSyNVjkhQ_PXrJcl-AenWPTvFNfYgx7bjDk-B1LIlVfklp_eVbwrVpvd-GtxIz5NfKE5zSpsL93NpWUgSI4g6rB_HCYn_8LJFtKk3vt63v-_CIGDMw-ovbvWvcYqjMvb0qftnrUkme5jDZbzFAgt2rLsMGq48UFPzhfpj0xJXpy0EtuvA3oUZEO95nOstPzpg9IGtu2pitss0nQSX8ON3ndETdR18wlnnftFhpNhgcoldNSEMaxj8j2FkylLsnOqCjBxthWWmGT9FXWBtKc58fWcB5YWwnzJWsDwS7J5_ivvmCG_CGorltZ-0wCH91v1nY98AeAa8uXRJNzf-xaZK28A9QCGp1HSGzUcN2VHJJGvgMYYQahor1GGAOz8HuZnuSHV?></g></svg>