<?plantuml 1.2026.1?><svg xmlns="http://www.w3.org/2000/svg" xmlns:xlink="http://www.w3.org/1999/xlink" contentStyleType="text/css" data-diagram-type="DESCRIPTION" height="736px" preserveAspectRatio="none" style="width:307px;height:736px;background:#FFFFFF;" version="1.1" viewBox="0 0 307 736" width="307px" zoomAndPan="magnify"><title>&#22270;3-2&#65288;a&#65289;&#38144;&#21806;&#35745;&#21010;&#19982;&#37319;&#36141;&#29992;&#20363;&#22270;</title><defs/><g><g class="title" data-source-line="6"><text fill="#000000" font-family="Microsoft YaHei" font-size="14" font-weight="bold" lengthAdjust="spacing" textLength="216.7394" x="38.5303" y="22.9951">&#22270;3-2&#65288;a&#65289;&#38144;&#21806;&#35745;&#21010;&#19982;&#37319;&#36141;&#29992;&#20363;&#22270;</text></g><!--cluster EISCore--><g class="cluster" data-qualified-name="EISCore" data-source-line="13" id="ent0006"><rect fill="none" height="667" rx="2.5" ry="2.5" style="stroke:#181818;stroke-width:1;" width="176.5" x="125.3" y="44.2969"/><text fill="#000000" font-family="Microsoft YaHei" font-size="14" font-weight="bold" lengthAdjust="spacing" textLength="61.1475" x="182.9763" y="59.292">EISCore</text></g><!--entity UC1--><g class="entity" data-qualified-name="EISCore.UC1" data-source-line="14" id="ent0007"><ellipse cx="213.5542" cy="175.2997" fill="#F1F1F1" rx="61.5142" ry="14.7028" style="stroke:#181818;stroke-width:0.5;"/><text fill="#000000" font-family="Microsoft YaHei" font-size="14" lengthAdjust="spacing" textLength="83.9996" x="171.5544" y="179.9482">&#38144;&#21806;&#21512;&#21516;&#24405;&#20837;</text></g><!--entity UC2--><g class="entity" data-qualified-name="EISCore.UC2" data-source-line="15" id="ent0008"><ellipse cx="213.5542" cy="94.2997" fill="#F1F1F1" rx="61.5142" ry="14.7028" style="stroke:#181818;stroke-width:0.5;"/><text fill="#000000" font-family="Microsoft YaHei" font-size="14" lengthAdjust="spacing" textLength="83.9996" x="171.5544" y="98.9482">&#38144;&#21806;&#35746;&#21333;&#19979;&#25512;</text></g><!--entity UC3--><g class="entity" data-qualified-name="EISCore.UC3" data-source-line="16" id="ent0009"><ellipse cx="213.5524" cy="242.2974" fill="#F1F1F1" rx="72.2524" ry="16.8505" style="stroke:#181818;stroke-width:0.5;"/><text fill="#000000" font-family="Microsoft YaHei" font-size="14" lengthAdjust="spacing" textLength="111.9995" x="157.5527" y="246.9458">&#35746;&#21333;&#25191;&#34892;&#29366;&#24577;&#26597;&#35810;</text></g><!--entity UC4--><g class="entity" data-qualified-name="EISCore.UC4" data-source-line="17" id="ent0010"><ellipse cx="213.5542" cy="309.2997" fill="#F1F1F1" rx="61.5142" ry="14.7028" style="stroke:#181818;stroke-width:0.5;"/><text fill="#000000" font-family="Microsoft YaHei" font-size="14" lengthAdjust="spacing" textLength="83.9996" x="171.5544" y="313.9482">&#29983;&#20135;&#35745;&#21010;&#19979;&#36798;</text></g><!--entity UC5--><g class="entity" data-qualified-name="EISCore.UC5" data-source-line="18" id="ent0011"><ellipse cx="213.5542" cy="390.2997" fill="#F1F1F1" rx="61.5142" ry="14.7028" style="stroke:#181818;stroke-width:0.5;"/><text fill="#000000" font-family="Microsoft YaHei" font-size="14" lengthAdjust="spacing" textLength="83.9996" x="171.5544" y="394.9482">&#29289;&#26009;&#38656;&#27714;&#20998;&#26512;</text></g><!--entity UC6--><g class="entity" data-qualified-name="EISCore.UC6" data-source-line="19" id="ent0012"><ellipse cx="213.5542" cy="454.2997" fill="#F1F1F1" rx="61.5142" ry="14.7028" style="stroke:#181818;stroke-width:0.5;"/><text fill="#000000" font-family="Microsoft YaHei" font-size="14" lengthAdjust="spacing" textLength="83.9996" x="171.5544" y="458.9482">&#37319;&#36141;&#38656;&#27714;&#29983;&#25104;</text></g><!--entity UC7--><g class="entity" data-qualified-name="EISCore.UC7" data-source-line="20" id="ent0013"><ellipse cx="213.5542" cy="535.2997" fill="#F1F1F1" rx="61.5142" ry="14.7028" style="stroke:#181818;stroke-width:0.5;"/><text fill="#000000" font-family="Microsoft YaHei" font-size="14" lengthAdjust="spacing" textLength="83.9996" x="171.5544" y="539.9482">&#37319;&#36141;&#35746;&#21333;&#32500;&#25252;</text></g><!--entity UC8--><g class="entity" data-qualified-name="EISCore.UC8" data-source-line="21" id="ent0014"><ellipse cx="213.5478" cy="680.3005" fill="#F1F1F1" rx="42.5978" ry="14.5236" style="stroke:#181818;stroke-width:0.5;"/><text fill="#000000" font-family="Microsoft YaHei" font-size="14" lengthAdjust="spacing" textLength="55.9998" x="185.5479" y="684.9489">&#21040;&#36135;&#30331;&#35760;</text></g><!--entity UC9--><g class="entity" data-qualified-name="EISCore.UC9" data-source-line="22" id="ent0015"><ellipse cx="213.5478" cy="599.3005" fill="#F1F1F1" rx="42.5978" ry="14.5236" style="stroke:#181818;stroke-width:0.5;"/><text fill="#000000" font-family="Microsoft YaHei" font-size="14" lengthAdjust="spacing" textLength="55.9998" x="185.5479" y="603.9489">&#37319;&#36141;&#20837;&#24211;</text></g><!--entity ????--><g class="entity" data-qualified-name="...." data-source-line="8" id="ent0002"><ellipse cx="42.1499" cy="145.6469" fill="#F1F1F1" rx="8" ry="8" style="stroke:#181818;stroke-width:0.5;"/><path d="M42.1499,153.6469 L42.1499,180.6469 M29.1499,161.6469 L55.1499,161.6469 M42.1499,180.6469 L29.1499,195.6469 M42.1499,180.6469 L55.1499,195.6469" fill="none" style="stroke:#181818;stroke-width:0.5;"/><text fill="#000000" font-family="Microsoft YaHei" font-size="14" lengthAdjust="spacing" textLength="55.9998" x="14.15" y="210.142">&#38144;&#21806;&#25991;&#21592;</text></g><!--entity PMC--><g class="entity" data-qualified-name="PMC" data-source-line="9" id="ent0003"><ellipse cx="42.1483" cy="320.6469" fill="#F1F1F1" rx="8" ry="8" style="stroke:#181818;stroke-width:0.5;"/><path d="M42.1483,328.6469 L42.1483,355.6469 M29.1483,336.6469 L55.1483,336.6469 M42.1483,355.6469 L29.1483,370.6469 M42.1483,355.6469 L55.1483,370.6469" fill="none" style="stroke:#181818;stroke-width:0.5;"/><text fill="#000000" font-family="Microsoft YaHei" font-size="14" lengthAdjust="spacing" textLength="72.2967" x="6" y="385.142">PMC&#35745;&#21010;&#21592;</text></g><!--entity ???--><g class="entity" data-qualified-name="..." data-source-line="10" id="ent0004"><ellipse cx="42.1499" cy="546.6469" fill="#F1F1F1" rx="8" ry="8" style="stroke:#181818;stroke-width:0.5;"/><path d="M42.1499,554.6469 L42.1499,581.6469 M29.1499,562.6469 L55.1499,562.6469 M42.1499,581.6469 L29.1499,596.6469 M42.1499,581.6469 L55.1499,596.6469" fill="none" style="stroke:#181818;stroke-width:0.5;"/><text fill="#000000" font-family="Microsoft YaHei" font-size="14" lengthAdjust="spacing" textLength="41.9998" x="21.15" y="611.142">&#37319;&#36141;&#21592;</text></g><!--entity ???--><g class="entity" data-qualified-name="..." data-source-line="11" id="ent0005"><ellipse cx="42.1499" cy="663.6469" fill="#F1F1F1" rx="8" ry="8" style="stroke:#181818;stroke-width:0.5;"/><path d="M42.1499,671.6469 L42.1499,698.6469 M29.1499,679.6469 L55.1499,679.6469 M42.1499,698.6469 L29.1499,713.6469 M42.1499,698.6469 L55.1499,713.6469" fill="none" style="stroke:#181818;stroke-width:0.5;"/><text fill="#000000" font-family="Microsoft YaHei" font-size="14" lengthAdjust="spacing" textLength="41.9998" x="21.15" y="728.142">&#20179;&#31649;&#21592;</text></g><!--link ???? to UC1--><g class="link" data-entity-1="ent0002" data-entity-2="ent0007" data-link-type="association" data-source-line="25" id="lnk16"><path d="M70.37,175.2969 C92.25,175.2969 123.83,175.2969 151.67,175.2969" fill="none" id="&#38144;&#21806;&#25991;&#21592;-UC1" style="stroke:#181818;stroke-width:1;"/></g><!--link ???? to UC2--><g class="link" data-entity-1="ent0002" data-entity-2="ent0008" data-link-type="association" data-source-line="26" id="lnk17"><path d="M70.37,162.2869 C101.7,147.3069 152.9,122.8169 184.55,107.6869" fill="none" id="&#38144;&#21806;&#25991;&#21592;-UC2" style="stroke:#181818;stroke-width:1;"/></g><!--link ???? to UC3--><g class="link" data-entity-1="ent0002" data-entity-2="ent0009" data-link-type="association" data-source-line="27" id="lnk18"><path d="M70.46,187.5169 C84.4,193.6369 101.67,201.0569 117.3,207.2969 C135.3,214.4869 155.41,221.9569 172.51,228.1369" fill="none" id="&#38144;&#21806;&#25991;&#21592;-UC3" style="stroke:#181818;stroke-width:1;"/></g><!--link PMC to UC3--><g class="link" data-entity-1="ent0003" data-entity-2="ent0009" data-link-type="association" data-source-line="29" id="lnk19"><path d="M76.3,311.6569 C88.27,299.4269 102.5,286.6769 117.3,277.2969 C132.03,267.9669 149.61,260.6169 165.64,255.1069" fill="none" id="PMC-UC3" style="stroke:#181818;stroke-width:1;"/></g><!--link PMC to UC4--><g class="link" data-entity-1="ent0003" data-entity-2="ent0010" data-link-type="association" data-source-line="30" id="lnk20"><path d="M78.66,341.7069 C104.95,335.3369 140.92,326.6369 168.96,319.8469" fill="none" id="PMC-UC4" style="stroke:#181818;stroke-width:1;"/></g><!--link PMC to UC5--><g class="link" data-entity-1="ent0003" data-entity-2="ent0011" data-link-type="association" data-source-line="31" id="lnk21"><path d="M78.66,358.6869 C104.86,364.8669 140.66,373.3269 168.65,379.9369" fill="none" id="PMC-UC5" style="stroke:#181818;stroke-width:1;"/></g><!--link PMC to UC6--><g class="link" data-entity-1="ent0003" data-entity-2="ent0012" data-link-type="association" data-source-line="32" id="lnk22"><path d="M76.23,388.6369 C88.19,400.7069 102.43,413.2369 117.3,422.2969 C132.94,431.8369 151.77,438.9269 168.55,443.9869" fill="none" id="PMC-UC6" style="stroke:#181818;stroke-width:1;"/></g><!--link ??? to UC7--><g class="link" data-entity-1="ent0004" data-entity-2="ent0013" data-link-type="association" data-source-line="34" id="lnk23"><path d="M63.36,570.8669 C76.2,567.4469 93.2,563.0069 108.3,559.2969 C127.6,554.5569 148.98,549.5869 167.32,545.4069" fill="none" id="&#37319;&#36141;&#21592;-UC7" style="stroke:#181818;stroke-width:1;"/></g><!--link ??? to UC8--><g class="link" data-entity-1="ent0004" data-entity-2="ent0014" data-link-type="association" data-source-line="35" id="lnk24"><path d="M63.6,592.8869 C78.15,604.3269 98.38,619.5269 117.3,631.2969 C140.19,645.5469 167.71,659.3769 187.27,668.6869" fill="none" id="&#37319;&#36141;&#21592;-UC8" style="stroke:#181818;stroke-width:1;"/></g><!--link ??? to UC9--><g class="link" data-entity-1="ent0004" data-entity-2="ent0015" data-link-type="association" data-source-line="36" id="lnk25"><path d="M63.58,579.0769 C90.69,582.7569 139.09,589.3269 173.36,593.9769" fill="none" id="&#37319;&#36141;&#21592;-UC9" style="stroke:#181818;stroke-width:1;"/></g><!--link ??? to UC8--><g class="link" data-entity-1="ent0005" data-entity-2="ent0014" data-link-type="association" data-source-line="38" id="lnk26"><path d="M63.58,691.7269 C90.25,689.6869 137.52,686.0569 171.68,683.4369" fill="none" id="&#20179;&#31649;&#21592;-UC8" style="stroke:#181818;stroke-width:1;"/></g><!--link ??? to UC9--><g class="link" data-entity-1="ent0005" data-entity-2="ent0015" data-link-type="association" data-source-line="39" id="lnk27"><path d="M63.38,680.4969 C78.16,671.2669 98.77,658.6669 117.3,648.2969 C140.99,635.0369 168.64,620.9669 188.03,611.3169" fill="none" id="&#20179;&#31649;&#21592;-UC9" style="stroke:#181818;stroke-width:1;"/></g><!--link UC2 to UC1--><g class="link" data-entity-1="ent0008" data-entity-2="ent0007" data-link-type="dependency" data-source-line="41" id="lnk28"><path d="M213.55,109.3369 C213.55,123.9169 213.55,139.9169 213.55,154.4369" fill="none" id="UC2-to-UC1" style="stroke:#181818;stroke-width:1;stroke-dasharray:7,7;"/><polygon fill="#181818" points="213.55,160.4369,217.55,151.4369,213.55,155.4369,209.55,151.4369,213.55,160.4369" style="stroke:#181818;stroke-width:1;"/><text fill="#000000" font-family="Microsoft YaHei" font-size="13" lengthAdjust="spacing" textLength="63.0068" x="170.55" y="139.3638">&#171;include&#187;</text></g><!--link UC4 to UC5--><g class="link" data-entity-1="ent0010" data-entity-2="ent0011" data-link-type="dependency" data-source-line="42" id="lnk29"><path d="M213.55,324.3369 C213.55,338.9169 213.55,354.9169 213.55,369.4369" fill="none" id="UC4-to-UC5" style="stroke:#181818;stroke-width:1;stroke-dasharray:7,7;"/><polygon fill="#181818" points="213.55,375.4369,217.55,366.4369,213.55,370.4369,209.55,366.4369,213.55,375.4369" style="stroke:#181818;stroke-width:1;"/><text fill="#000000" font-family="Microsoft YaHei" font-size="13" lengthAdjust="spacing" textLength="63.0068" x="170.55" y="354.3638">&#171;include&#187;</text></g><!--link UC7 to UC6--><g class="link" data-entity-1="ent0013" data-entity-2="ent0012" data-link-type="dependency" data-source-line="43" id="lnk30"><path d="M213.55,520.4369 C213.55,505.9169 213.55,489.9169 213.55,475.3369" fill="none" id="UC7-to-UC6" style="stroke:#181818;stroke-width:1;stroke-dasharray:7,7;"/><polygon fill="#181818" points="213.55,469.3369,209.55,478.3369,213.55,474.3369,217.55,478.3369,213.55,469.3369" style="stroke:#181818;stroke-width:1;"/><text fill="#000000" font-family="Microsoft YaHei" font-size="13" lengthAdjust="spacing" textLength="63.0068" x="170.55" y="499.3638">&#171;include&#187;</text></g><!--link UC9 to UC8--><g class="link" data-entity-1="ent0015" data-entity-2="ent0014" data-link-type="dependency" data-source-line="44" id="lnk31"><path d="M213.55,614.0569 C213.55,628.6469 213.55,644.8269 213.55,659.4369" fill="none" id="UC9-to-UC8" style="stroke:#181818;stroke-width:1;stroke-dasharray:7,7;"/><polygon fill="#181818" points="213.55,665.4369,217.55,656.4369,213.55,660.4369,209.55,656.4369,213.55,665.4369" style="stroke:#181818;stroke-width:1;"/><text fill="#000000" font-family="Microsoft YaHei" font-size="13" lengthAdjust="spacing" textLength="63.0068" x="170.55" y="644.3638">&#171;include&#187;</text></g><?plantuml-src RPBFQnD15CVlyrSySezWVaTABa7HGqKe7ZmEcqcoTBDJTYU8Y105pQQf9RLfiIWjBIsf1sE58AMf-MjsPZUd_WjECxl99kljpVVxcVVUl3S6gJ9W52ozLcTGqIsYCPsQoDxKpIriuGOqg4crkaKR19ZL9177hkCAVQsRDQXYmuuw5LB5JOCzeIPxZkN5TLspg4rbgLVuAT4Zv1RMDd6DRB0t1e7xujYi6GGndSap_pP99rDtjmw-k-rC-otU7_h3K-vySQztf-ssF_hfzI_TILTo266DKGiK9GxRVEzh82LUh9VLDQab0DiWXH2VPLcmxdZVawWyetapyFZPHfbQ1DuYWAPDD6mJIAX2lEVmtWx_Uy0_NinIlom_Z5F-y8n_Fd2lksBtCg1IKKhveZFmJtUyxJ-YzLwSNFY_pW8s7MMz_ebxCmZ7qFKdau3AB56T7-BmQFgz9Nv_uCudSTmBgEnITxFNAqhc5Kv8vUAKwj4RZyJsUK3benHthlpHm3iQ-yEhm2_4iyWnyPlzm2-YTmX55mR9v6o0SItr7osDa5na6C_3p2BCBiASh1JkMYdvLQ6mAXGHcl-745aH92ARWmUb-xxX4QojwQPcD2kaL996HXdPc95NHYvc59LHM3R-0G00?></g></svg>