<svg xmlns="http://www.w3.org/2000/svg" width="2200" height="980" viewBox="0 0 2200 980">
<style>
text { font-family: 'Microsoft YaHei','PingFang SC',sans-serif; fill: #000; }
.title { font-size: 30px; font-weight: 700; }
.head { font-size: 24px; font-weight: 600; }
.body { font-size: 19px; }
.box { fill: #fff; stroke: #000; stroke-width: 2; rx: 18; ry: 18; }
.line { stroke: #000; stroke-width: 2; fill: none; }
</style>
<defs><marker id="arrow" markerWidth="10" markerHeight="10" refX="7" refY="3" orient="auto"><polygon points="0 0, 8 3, 0 6" fill="#000"/></marker></defs>
<text x="1100.0" y="58" text-anchor="middle" class="title">图3-6 EISCore总体功能结构图</text>
<rect class="box" x="935" y="120" width="330" height="85"/><text x="1100.0" y="175" text-anchor="middle" class="head">EISCore系统</text><rect class="box" x="420" y="280" width="560" height="85"/><text x="700.0" y="335" text-anchor="middle" class="head">核心业务域</text><rect class="box" x="1220" y="280" width="560" height="85"/><text x="1500.0" y="335" text-anchor="middle" class="head">支撑能力域</text><rect class="box" x="120" y="450" width="400" height="120"/><text x="320.0" y="484" text-anchor="middle" class="head">人事管理</text><text x="320.0" y="526" text-anchor="middle" class="body">员工档案 / 组织结构 / 考勤</text><rect class="box" x="600" y="450" width="400" height="120"/><text x="800.0" y="484" text-anchor="middle" class="head">物料与仓储</text><text x="800.0" y="526" text-anchor="middle" class="body">物料主数据 / 库存 / 出入库 / 盘点</text><rect class="box" x="1080" y="450" width="400" height="120"/><text x="1280.0" y="484" text-anchor="middle" class="head">应用中心</text><text x="1280.0" y="526" text-anchor="middle" class="body">数据应用 / 流程设计 / 审批 / 闪念应用</text><rect class="box" x="1560" y="450" width="400" height="120"/><text x="1760.0" y="484" text-anchor="middle" class="head">移动端</text><text x="1760.0" y="526" text-anchor="middle" class="body">扫码 / 盘点 / 冷库模式</text><rect class="box" x="420" y="690" width="480" height="120"/><text x="660.0" y="724" text-anchor="middle" class="head">主数据与权限支撑</text><text x="660.0" y="766" text-anchor="middle" class="body">组织 / 岗位 / 角色 / RLS</text><rect class="box" x="940" y="690" width="480" height="120"/><text x="1180.0" y="724" text-anchor="middle" class="head">流程与状态支撑</text><text x="1180.0" y="766" text-anchor="middle" class="body">BPMN / 审批联动 / 状态写回</text><rect class="box" x="1460" y="690" width="480" height="120"/><text x="1700.0" y="724" text-anchor="middle" class="head">轻量语义支撑</text><text x="1700.0" y="766" text-anchor="middle" class="body">表级语义 / 列级语义 / 关系语义</text><line class="line" x1="1100" y1="205" x2="1100" y2="280" marker-end="url(#arrow)"/><line class="line" x1="980" y1="322" x2="1220" y2="322" marker-end="url(#arrow)"/><line class="line" x1="700" y1="365" x2="320" y2="450" marker-end="url(#arrow)"/><line class="line" x1="740" y1="365" x2="800" y2="450" marker-end="url(#arrow)"/><line class="line" x1="1500" y1="365" x2="1280" y2="450" marker-end="url(#arrow)"/><line class="line" x1="1540" y1="365" x2="1760" y2="450" marker-end="url(#arrow)"/><line class="line" x1="700" y1="365" x2="660" y2="690" marker-end="url(#arrow)"/><line class="line" x1="1100" y1="365" x2="1180" y2="690" marker-end="url(#arrow)"/><line class="line" x1="1500" y1="365" x2="1700" y2="690" marker-end="url(#arrow)"/></svg>