<?xml version="1.0" encoding="UTF-8" standalone="no"?>
<!DOCTYPE svg PUBLIC "-//W3C//DTD SVG 1.1//EN"
 "http://www.w3.org/Graphics/SVG/1.1/DTD/svg11.dtd">
<!-- Generated by graphviz version 14.1.3 (20260303.0454)
 -->
<!-- Title: G Pages: 1 -->
<svg width="3011pt" height="168pt"
 viewBox="0.00 0.00 3011.00 168.00" xmlns="http://www.w3.org/2000/svg" xmlns:xlink="http://www.w3.org/1999/xlink">
<g id="graph0" class="graph" transform="scale(1 1) rotate(0) translate(14.4 153.4)">
<title>G</title>
<polygon fill="white" stroke="none" points="-14.4,14.4 -14.4,-153.4 2997.08,-153.4 2997.08,14.4 -14.4,14.4"/>
<!-- s -->
<g id="node1" class="node">
<title>s</title>
<path fill="none" stroke="black" d="M134.79,-67C134.79,-67 12,-67 12,-67 6,-67 0,-61 0,-55 0,-55 0,-43 0,-43 0,-37 6,-31 12,-31 12,-31 134.79,-31 134.79,-31 140.79,-31 146.79,-37 146.79,-43 146.79,-43 146.79,-55 146.79,-55 146.79,-61 140.79,-67 134.79,-67"/>
<text xml:space="preserve" text-anchor="middle" x="73.39" y="-45.25" font-family="Microsoft YaHei" font-size="15.00">PMC下达生产任务</text>
</g>
<!-- a -->
<g id="node2" class="node">
<title>a</title>
<path fill="none" stroke="black" d="M358.83,-67C358.83,-67 209.79,-67 209.79,-67 203.79,-67 197.79,-61 197.79,-55 197.79,-55 197.79,-43 197.79,-43 197.79,-37 203.79,-31 209.79,-31 209.79,-31 358.83,-31 358.83,-31 364.83,-31 370.83,-37 370.83,-43 370.83,-43 370.83,-55 370.83,-55 370.83,-61 364.83,-67 358.83,-67"/>
<text xml:space="preserve" text-anchor="middle" x="284.31" y="-45.25" font-family="Microsoft YaHei" font-size="15.00">系统生成工单用料需求</text>
</g>
<!-- s&#45;&gt;a -->
<g id="edge1" class="edge">
<title>s&#45;&gt;a</title>
<path fill="none" stroke="black" stroke-width="1.2" d="M147.16,-49C147.16,-49 187.74,-49 187.74,-49"/>
<polygon fill="black" stroke="black" stroke-width="1.2" points="187.74,-51.8 195.74,-49 187.74,-46.2 187.74,-51.8"/>
</g>
<!-- b -->
<g id="node3" class="node">
<title>b</title>
<path fill="none" stroke="black" d="M552.87,-67C552.87,-67 433.83,-67 433.83,-67 427.83,-67 421.83,-61 421.83,-55 421.83,-55 421.83,-43 421.83,-43 421.83,-37 427.83,-31 433.83,-31 433.83,-31 552.87,-31 552.87,-31 558.87,-31 564.87,-37 564.87,-43 564.87,-43 564.87,-55 564.87,-55 564.87,-61 558.87,-67 552.87,-67"/>
<text xml:space="preserve" text-anchor="middle" x="493.35" y="-45.25" font-family="Microsoft YaHei" font-size="15.00">生产主管发起领料</text>
</g>
<!-- a&#45;&gt;b -->
<g id="edge2" class="edge">
<title>a&#45;&gt;b</title>
<path fill="none" stroke="black" stroke-width="1.2" d="M371.15,-49C371.15,-49 411.56,-49 411.56,-49"/>
<polygon fill="black" stroke="black" stroke-width="1.2" points="411.56,-51.8 419.56,-49 411.56,-46.2 411.56,-51.8"/>
</g>
<!-- c -->
<g id="node4" class="node">
<title>c</title>
<path fill="none" stroke="black" d="M776.91,-67C776.91,-67 627.87,-67 627.87,-67 621.87,-67 615.87,-61 615.87,-55 615.87,-55 615.87,-43 615.87,-43 615.87,-37 621.87,-31 627.87,-31 627.87,-31 776.91,-31 776.91,-31 782.91,-31 788.91,-37 788.91,-43 788.91,-43 788.91,-55 788.91,-55 788.91,-61 782.91,-67 776.91,-67"/>
<text xml:space="preserve" text-anchor="middle" x="702.39" y="-45.25" font-family="Microsoft YaHei" font-size="15.00">仓管员按批次领料出库</text>
</g>
<!-- b&#45;&gt;c -->
<g id="edge3" class="edge">
<title>b&#45;&gt;c</title>
<path fill="none" stroke="black" stroke-width="1.2" d="M565.29,-49C565.29,-49 605.71,-49 605.71,-49"/>
<polygon fill="black" stroke="black" stroke-width="1.2" points="605.71,-51.8 613.71,-49 605.71,-46.2 605.71,-51.8"/>
</g>
<!-- d -->
<g id="node5" class="node">
<title>d</title>
<polygon fill="none" stroke="black" points="960.45,-84.4 839.91,-49 960.45,-13.6 1080.99,-49 960.45,-84.4"/>
<text xml:space="preserve" text-anchor="middle" x="960.45" y="-45.25" font-family="Microsoft YaHei" font-size="15.00">是否需要补料?</text>
</g>
<!-- c&#45;&gt;d -->
<g id="edge4" class="edge">
<title>c&#45;&gt;d</title>
<path fill="none" stroke="black" stroke-width="1.2" d="M789.4,-49C789.4,-49 828.72,-49 828.72,-49"/>
<polygon fill="black" stroke="black" stroke-width="1.2" points="828.72,-51.8 836.72,-49 828.72,-46.2 828.72,-51.8"/>
</g>
<!-- e1 -->
<g id="node6" class="node">
<title>e1</title>
<path fill="none" stroke="black" d="M1274.03,-101C1274.03,-101 1154.99,-101 1154.99,-101 1148.99,-101 1142.99,-95 1142.99,-89 1142.99,-89 1142.99,-77 1142.99,-77 1142.99,-71 1148.99,-65 1154.99,-65 1154.99,-65 1274.03,-65 1274.03,-65 1280.03,-65 1286.03,-71 1286.03,-77 1286.03,-77 1286.03,-89 1286.03,-89 1286.03,-95 1280.03,-101 1274.03,-101"/>
<text xml:space="preserve" text-anchor="middle" x="1214.51" y="-79.25" font-family="Microsoft YaHei" font-size="15.00">车间提出补料申请</text>
</g>
<!-- d&#45;&gt;e1 -->
<g id="edge5" class="edge">
<title>d&#45;&gt;e1</title>
<path fill="none" stroke="black" stroke-width="1.2" d="M995.24,-74.7C995.24,-74.7 1132.83,-74.7 1132.83,-74.7"/>
<polygon fill="black" stroke="black" stroke-width="1.2" points="1132.83,-77.5 1140.83,-74.7 1132.83,-71.9 1132.83,-77.5"/>
<text xml:space="preserve" text-anchor="middle" x="1111.99" y="-82.1" font-family="Microsoft YaHei" font-size="12.00">是</text>
</g>
<!-- f1 -->
<g id="node12" class="node">
<title>f1</title>
<path fill="none" stroke="black" d="M1457.07,-36C1457.07,-36 1323.03,-36 1323.03,-36 1317.03,-36 1311.03,-30 1311.03,-24 1311.03,-24 1311.03,-12 1311.03,-12 1311.03,-6 1317.03,0 1323.03,0 1323.03,0 1457.07,0 1457.07,0 1463.07,0 1469.07,-6 1469.07,-12 1469.07,-12 1469.07,-24 1469.07,-24 1469.07,-30 1463.07,-36 1457.07,-36"/>
<text xml:space="preserve" text-anchor="middle" x="1390.05" y="-14.25" font-family="Microsoft YaHei" font-size="15.00">按标准配方继续生产</text>
</g>
<!-- d&#45;&gt;f1 -->
<g id="edge13" class="edge">
<title>d&#45;&gt;f1</title>
<path fill="none" stroke="black" stroke-width="1.2" d="M1000.1,-24.8C1000.1,-24.8 1300.88,-24.8 1300.88,-24.8"/>
<polygon fill="black" stroke="black" stroke-width="1.2" points="1300.88,-27.6 1308.88,-24.8 1300.88,-22 1300.88,-27.6"/>
<text xml:space="preserve" text-anchor="middle" x="1111.99" y="-31.1" font-family="Microsoft YaHei" font-size="12.00">否</text>
</g>
<!-- e2 -->
<g id="node7" class="node">
<title>e2</title>
<path fill="none" stroke="black" d="M1670.11,-104C1670.11,-104 1506.07,-104 1506.07,-104 1500.07,-104 1494.07,-98 1494.07,-92 1494.07,-92 1494.07,-80 1494.07,-80 1494.07,-74 1500.07,-68 1506.07,-68 1506.07,-68 1670.11,-68 1670.11,-68 1676.11,-68 1682.11,-74 1682.11,-80 1682.11,-80 1682.11,-92 1682.11,-92 1682.11,-98 1676.11,-104 1670.11,-104"/>
<text xml:space="preserve" text-anchor="middle" x="1588.09" y="-82.25" font-family="Microsoft YaHei" font-size="15.00">仓库校验可用批次与库存</text>
</g>
<!-- e1&#45;&gt;e2 -->
<g id="edge6" class="edge">
<title>e1&#45;&gt;e2</title>
<path fill="none" stroke="black" stroke-width="1.2" d="M1286.1,-84.5C1286.1,-84.5 1483.95,-84.5 1483.95,-84.5"/>
<polygon fill="black" stroke="black" stroke-width="1.2" points="1483.95,-87.3 1491.95,-84.5 1483.95,-81.7 1483.95,-87.3"/>
</g>
<!-- e3 -->
<g id="node8" class="node">
<title>e3</title>
<polygon fill="none" stroke="black" points="1823.65,-122.4 1733.11,-87 1823.65,-51.6 1914.19,-87 1823.65,-122.4"/>
<text xml:space="preserve" text-anchor="middle" x="1823.65" y="-83.25" font-family="Microsoft YaHei" font-size="15.00">库存充足?</text>
</g>
<!-- e2&#45;&gt;e3 -->
<g id="edge7" class="edge">
<title>e2&#45;&gt;e3</title>
<path fill="none" stroke="black" stroke-width="1.2" d="M1682.54,-86C1682.54,-86 1724.71,-86 1724.71,-86"/>
<polygon fill="black" stroke="black" stroke-width="1.2" points="1724.71,-88.8 1732.71,-86 1724.71,-83.2 1724.71,-88.8"/>
</g>
<!-- e4 -->
<g id="node9" class="node">
<title>e4</title>
<path fill="none" stroke="black" d="M2077.23,-139C2077.23,-139 1988.19,-139 1988.19,-139 1982.19,-139 1976.19,-133 1976.19,-127 1976.19,-127 1976.19,-115 1976.19,-115 1976.19,-109 1982.19,-103 1988.19,-103 1988.19,-103 2077.23,-103 2077.23,-103 2083.23,-103 2089.23,-109 2089.23,-115 2089.23,-115 2089.23,-127 2089.23,-127 2089.23,-133 2083.23,-139 2077.23,-139"/>
<text xml:space="preserve" text-anchor="middle" x="2032.71" y="-117.25" font-family="Microsoft YaHei" font-size="15.00">执行补料出库</text>
</g>
<!-- e3&#45;&gt;e4 -->
<g id="edge8" class="edge">
<title>e3&#45;&gt;e4</title>
<path fill="none" stroke="black" stroke-width="1.2" d="M1849.7,-112.7C1849.7,-112.7 1966.13,-112.7 1966.13,-112.7"/>
<polygon fill="black" stroke="black" stroke-width="1.2" points="1966.13,-115.5 1974.13,-112.7 1966.13,-109.9 1966.13,-115.5"/>
<text xml:space="preserve" text-anchor="middle" x="1945.19" y="-121.1" font-family="Microsoft YaHei" font-size="12.00">是</text>
</g>
<!-- e6 -->
<g id="node11" class="node">
<title>e6</title>
<path fill="none" stroke="black" d="M2215.27,-83C2215.27,-83 2126.23,-83 2126.23,-83 2120.23,-83 2114.23,-77 2114.23,-71 2114.23,-71 2114.23,-59 2114.23,-59 2114.23,-53 2120.23,-47 2126.23,-47 2126.23,-47 2215.27,-47 2215.27,-47 2221.27,-47 2227.27,-53 2227.27,-59 2227.27,-59 2227.27,-71 2227.27,-71 2227.27,-77 2221.27,-83 2215.27,-83"/>
<text xml:space="preserve" text-anchor="middle" x="2170.75" y="-61.25" font-family="Microsoft YaHei" font-size="15.00">提示库存不足</text>
</g>
<!-- e3&#45;&gt;e6 -->
<g id="edge11" class="edge">
<title>e3&#45;&gt;e6</title>
<path fill="none" stroke="black" stroke-width="1.2" d="M1865.17,-67.3C1865.17,-67.3 2104.12,-67.3 2104.12,-67.3"/>
<polygon fill="black" stroke="black" stroke-width="1.2" points="2104.12,-70.1 2112.12,-67.3 2104.12,-64.5 2104.12,-70.1"/>
<text xml:space="preserve" text-anchor="middle" x="1945.19" y="-70.1" font-family="Microsoft YaHei" font-size="12.00">否</text>
</g>
<!-- e5 -->
<g id="node10" class="node">
<title>e5</title>
<path fill="none" stroke="black" d="M2398.31,-139C2398.31,-139 2264.27,-139 2264.27,-139 2258.27,-139 2252.27,-133 2252.27,-127 2252.27,-127 2252.27,-115 2252.27,-115 2252.27,-109 2258.27,-103 2264.27,-103 2264.27,-103 2398.31,-103 2398.31,-103 2404.31,-103 2410.31,-109 2410.31,-115 2410.31,-115 2410.31,-127 2410.31,-127 2410.31,-133 2404.31,-139 2398.31,-139"/>
<text xml:space="preserve" text-anchor="middle" x="2331.29" y="-117.25" font-family="Microsoft YaHei" font-size="15.00">记录补料原因与数量</text>
</g>
<!-- e4&#45;&gt;e5 -->
<g id="edge9" class="edge">
<title>e4&#45;&gt;e5</title>
<path fill="none" stroke="black" stroke-width="1.2" d="M2089.57,-121C2089.57,-121 2241.99,-121 2241.99,-121"/>
<polygon fill="black" stroke="black" stroke-width="1.2" points="2241.99,-123.8 2249.99,-121 2241.99,-118.2 2241.99,-123.8"/>
</g>
<!-- g1 -->
<g id="node13" class="node">
<title>g1</title>
<path fill="none" stroke="black" d="M2532.35,-83C2532.35,-83 2473.31,-83 2473.31,-83 2467.31,-83 2461.31,-77 2461.31,-71 2461.31,-71 2461.31,-59 2461.31,-59 2461.31,-53 2467.31,-47 2473.31,-47 2473.31,-47 2532.35,-47 2532.35,-47 2538.35,-47 2544.35,-53 2544.35,-59 2544.35,-59 2544.35,-71 2544.35,-71 2544.35,-77 2538.35,-83 2532.35,-83"/>
<text xml:space="preserve" text-anchor="middle" x="2502.83" y="-61.25" font-family="Microsoft YaHei" font-size="15.00">生产报工</text>
</g>
<!-- e5&#45;&gt;g1 -->
<g id="edge10" class="edge">
<title>e5&#45;&gt;g1</title>
<path fill="none" stroke="black" stroke-width="1.2" d="M2410.71,-121C2455.55,-121 2502.68,-121 2502.68,-121 2502.68,-121 2502.68,-93.15 2502.68,-93.15"/>
<polygon fill="black" stroke="black" stroke-width="1.2" points="2505.48,-93.15 2502.68,-85.15 2499.88,-93.15 2505.48,-93.15"/>
</g>
<!-- e6&#45;&gt;g1 -->
<g id="edge12" class="edge">
<title>e6&#45;&gt;g1</title>
<path fill="none" stroke="black" stroke-width="1.2" d="M2227.46,-65C2227.46,-65 2451.26,-65 2451.26,-65"/>
<polygon fill="black" stroke="black" stroke-width="1.2" points="2451.26,-67.8 2459.26,-65 2451.26,-62.2 2451.26,-67.8"/>
</g>
<!-- f1&#45;&gt;g1 -->
<g id="edge14" class="edge">
<title>f1&#45;&gt;g1</title>
<path fill="none" stroke="black" stroke-width="1.2" d="M1469.18,-18C1723.37,-18 2502.68,-18 2502.68,-18 2502.68,-18 2502.68,-36.88 2502.68,-36.88"/>
<polygon fill="black" stroke="black" stroke-width="1.2" points="2499.88,-36.88 2502.68,-44.88 2505.48,-36.88 2499.88,-36.88"/>
</g>
<!-- g2 -->
<g id="node14" class="node">
<title>g2</title>
<path fill="none" stroke="black" d="M2666.39,-83C2666.39,-83 2607.35,-83 2607.35,-83 2601.35,-83 2595.35,-77 2595.35,-71 2595.35,-71 2595.35,-59 2595.35,-59 2595.35,-53 2601.35,-47 2607.35,-47 2607.35,-47 2666.39,-47 2666.39,-47 2672.39,-47 2678.39,-53 2678.39,-59 2678.39,-59 2678.39,-71 2678.39,-71 2678.39,-77 2672.39,-83 2666.39,-83"/>
<text xml:space="preserve" text-anchor="middle" x="2636.87" y="-61.25" font-family="Microsoft YaHei" font-size="15.00">完工入库</text>
</g>
<!-- g1&#45;&gt;g2 -->
<g id="edge15" class="edge">
<title>g1&#45;&gt;g2</title>
<path fill="none" stroke="black" stroke-width="1.2" d="M2544.51,-65C2544.51,-65 2585.4,-65 2585.4,-65"/>
<polygon fill="black" stroke="black" stroke-width="1.2" points="2585.4,-67.8 2593.4,-65 2585.4,-62.2 2585.4,-67.8"/>
</g>
<!-- end1 -->
<g id="node15" class="node">
<title>end1</title>
<path fill="none" stroke="black" d="M2970.68,-83C2970.68,-83 2741.39,-83 2741.39,-83 2735.39,-83 2729.39,-77 2729.39,-71 2729.39,-71 2729.39,-59 2729.39,-59 2729.39,-53 2735.39,-47 2741.39,-47 2741.39,-47 2970.68,-47 2970.68,-47 2976.68,-47 2982.68,-53 2982.68,-59 2982.68,-59 2982.68,-71 2982.68,-71 2982.68,-77 2976.68,-83 2970.68,-83"/>
<text xml:space="preserve" text-anchor="middle" x="2856.03" y="-61.25" font-family="Microsoft YaHei" font-size="15.00">形成领料/补料/报工/入库追溯链路</text>
</g>
<!-- g2&#45;&gt;end1 -->
<g id="edge16" class="edge">
<title>g2&#45;&gt;end1</title>
<path fill="none" stroke="black" stroke-width="1.2" d="M2678.87,-65C2678.87,-65 2719.46,-65 2719.46,-65"/>
<polygon fill="black" stroke="black" stroke-width="1.2" points="2719.46,-67.8 2727.46,-65 2719.46,-62.2 2719.46,-67.8"/>
</g>
</g>
</svg>
