<?plantuml 1.2026.1?><svg xmlns="http://www.w3.org/2000/svg" xmlns:xlink="http://www.w3.org/1999/xlink" contentStyleType="text/css" data-diagram-type="DESCRIPTION" height="630px" preserveAspectRatio="none" style="width:383px;height:630px;background:#FFFFFF;" version="1.1" viewBox="0 0 383 630" width="383px" zoomAndPan="magnify"><title>&#22270;3-2&#65288;b&#65289;&#20179;&#20648;&#19982;&#24211;&#23384;&#20316;&#19994;&#29992;&#20363;&#22270;</title><defs/><g><g class="title" data-source-line="6"><text fill="#000000" font-family="Microsoft YaHei" font-size="14" font-weight="bold" lengthAdjust="spacing" textLength="217.3137" x="76.0182" y="22.9951">&#22270;3-2&#65288;b&#65289;&#20179;&#20648;&#19982;&#24211;&#23384;&#20316;&#19994;&#29992;&#20363;&#22270;</text></g><!--cluster EISCore--><g class="cluster" data-qualified-name="EISCore" data-source-line="14" id="ent0007"><rect fill="none" height="444" rx="2.5" ry="2.5" style="stroke:#181818;stroke-width:1;" width="188.05" x="189.3" y="51.3669"/><text fill="#000000" font-family="Microsoft YaHei" font-size="14" font-weight="bold" lengthAdjust="spacing" textLength="61.1475" x="252.7513" y="66.362">EISCore</text></g><!--entity UC1--><g class="entity" data-qualified-name="EISCore.UC1" data-source-line="15" id="ent0008"><ellipse cx="283.3242" cy="165.3697" fill="#F1F1F1" rx="61.5142" ry="14.7028" style="stroke:#181818;stroke-width:0.5;"/><text fill="#000000" font-family="Microsoft YaHei" font-size="14" lengthAdjust="spacing" textLength="83.9996" x="241.3244" y="170.0182">&#29983;&#20135;&#39046;&#26009;&#30003;&#35831;</text></g><!--entity UC2--><g class="entity" data-qualified-name="EISCore.UC2" data-source-line="16" id="ent0009"><ellipse cx="283.3242" cy="246.3697" fill="#F1F1F1" rx="61.5142" ry="14.7028" style="stroke:#181818;stroke-width:0.5;"/><text fill="#000000" font-family="Microsoft YaHei" font-size="14" lengthAdjust="spacing" textLength="83.9996" x="241.3244" y="251.0182">&#29983;&#20135;&#34917;&#26009;&#30003;&#35831;</text></g><!--entity UC3--><g class="entity" data-qualified-name="EISCore.UC3" data-source-line="17" id="ent0010"><ellipse cx="283.3242" cy="101.3697" fill="#F1F1F1" rx="61.5142" ry="14.7028" style="stroke:#181818;stroke-width:0.5;"/><text fill="#000000" font-family="Microsoft YaHei" font-size="14" lengthAdjust="spacing" textLength="83.9996" x="241.3244" y="106.0182">&#29983;&#20135;&#20837;&#24211;&#30331;&#35760;</text></g><!--entity UC4--><g class="entity" data-qualified-name="EISCore.UC4" data-source-line="18" id="ent0011"><ellipse cx="283.3242" cy="310.3697" fill="#F1F1F1" rx="61.5142" ry="14.7028" style="stroke:#181818;stroke-width:0.5;"/><text fill="#000000" font-family="Microsoft YaHei" font-size="14" lengthAdjust="spacing" textLength="83.9996" x="241.3244" y="315.0182">&#38144;&#21806;&#20986;&#24211;&#21150;&#29702;</text></g><!--entity UC5--><g class="entity" data-qualified-name="EISCore.UC5" data-source-line="19" id="ent0012"><ellipse cx="283.3159" cy="394.3621" fill="#F1F1F1" rx="78.0259" ry="18.0052" style="stroke:#181818;stroke-width:0.5;"/><text fill="#000000" font-family="Microsoft YaHei" font-size="14" lengthAdjust="spacing" textLength="125.9995" x="220.3162" y="399.0105">&#24211;&#23384;&#21488;&#36134;&#19982;&#25209;&#27425;&#26597;&#35810;</text></g><!--entity UC6--><g class="entity" data-qualified-name="EISCore.UC6" data-source-line="20" id="ent0013"><ellipse cx="283.3152" cy="463.3619" fill="#F1F1F1" rx="66.7252" ry="15.745" style="stroke:#181818;stroke-width:0.5;"/><text fill="#000000" font-family="Microsoft YaHei" font-size="14" lengthAdjust="spacing" textLength="97.9996" x="234.3154" y="468.0104">&#25209;&#27425;&#21495;&#35268;&#21017;&#32500;&#25252;</text></g><!--entity ???--><g class="entity" data-qualified-name="..." data-source-line="8" id="ent0002"><ellipse cx="42.1499" cy="216.7169" fill="#F1F1F1" rx="8" ry="8" style="stroke:#181818;stroke-width:0.5;"/><path d="M42.1499,224.7169 L42.1499,251.7169 M29.1499,232.7169 L55.1499,232.7169 M42.1499,251.7169 L29.1499,266.7169 M42.1499,251.7169 L55.1499,266.7169" fill="none" style="stroke:#181818;stroke-width:0.5;"/><text fill="#000000" font-family="Microsoft YaHei" font-size="14" lengthAdjust="spacing" textLength="41.9998" x="21.15" y="281.212">&#20179;&#31649;&#21592;</text></g><!--entity Prod--><g class="entity" data-qualified-name="Prod" data-source-line="9" id="ent0003"><ellipse cx="42.1499" cy="93.7169" fill="#F1F1F1" rx="8" ry="8" style="stroke:#181818;stroke-width:0.5;"/><path d="M42.1499,101.7169 L42.1499,128.7169 M29.1499,109.7169 L55.1499,109.7169 M42.1499,128.7169 L29.1499,143.7169 M42.1499,128.7169 L55.1499,143.7169" fill="none" style="stroke:#181818;stroke-width:0.5;"/><text fill="#000000" font-family="Microsoft YaHei" font-size="14" lengthAdjust="spacing" textLength="55.9998" x="14.15" y="158.212">&#29983;&#20135;&#20027;&#31649;</text></g><!--entity ????--><g class="entity" data-qualified-name="...." data-source-line="10" id="ent0004"><ellipse cx="42.1499" cy="335.7169" fill="#F1F1F1" rx="8" ry="8" style="stroke:#181818;stroke-width:0.5;"/><path d="M42.1499,343.7169 L42.1499,370.7169 M29.1499,351.7169 L55.1499,351.7169 M42.1499,370.7169 L29.1499,385.7169 M42.1499,370.7169 L55.1499,385.7169" fill="none" style="stroke:#181818;stroke-width:0.5;"/><text fill="#000000" font-family="Microsoft YaHei" font-size="14" lengthAdjust="spacing" textLength="55.9998" x="14.15" y="400.212">&#38144;&#21806;&#25991;&#21592;</text></g><!--entity ?????--><g class="entity" data-qualified-name="....." data-source-line="11" id="ent0005"><ellipse cx="42.1498" cy="557.7169" fill="#F1F1F1" rx="8" ry="8" style="stroke:#181818;stroke-width:0.5;"/><path d="M42.1498,565.7169 L42.1498,592.7169 M29.1498,573.7169 L55.1498,573.7169 M42.1498,592.7169 L29.1498,607.7169 M42.1498,592.7169 L55.1498,607.7169" fill="none" style="stroke:#181818;stroke-width:0.5;"/><text fill="#000000" font-family="Microsoft YaHei" font-size="14" lengthAdjust="spacing" textLength="69.9997" x="7.15" y="622.212">&#31995;&#32479;&#31649;&#29702;&#21592;</text></g><!--entity PMC--><g class="entity" data-qualified-name="PMC" data-source-line="12" id="ent0006"><ellipse cx="42.1483" cy="446.7169" fill="#F1F1F1" rx="8" ry="8" style="stroke:#181818;stroke-width:0.5;"/><path d="M42.1483,454.7169 L42.1483,481.7169 M29.1483,462.7169 L55.1483,462.7169 M42.1483,481.7169 L29.1483,496.7169 M42.1483,481.7169 L55.1483,496.7169" fill="none" style="stroke:#181818;stroke-width:0.5;"/><text fill="#000000" font-family="Microsoft YaHei" font-size="14" lengthAdjust="spacing" textLength="72.2967" x="6" y="511.212">PMC&#35745;&#21010;&#21592;</text></g><!--link ??? to UC1--><g class="link" data-entity-1="ent0002" data-entity-2="ent0008" data-link-type="association" data-source-line="23" id="lnk14"><path d="M63.54,237.7869 C76.31,232.5169 93.16,225.7769 108.3,220.3669 C154.1,204.0169 207.55,187.4969 243,176.8969" fill="none" id="&#20179;&#31649;&#21592;-UC1" style="stroke:#181818;stroke-width:1;"/></g><!--link ??? to UC2--><g class="link" data-entity-1="ent0002" data-entity-2="ent0009" data-link-type="association" data-source-line="24" id="lnk15"><path d="M63.54,246.3669 C98.11,246.3669 169.5,246.3669 221.36,246.3669" fill="none" id="&#20179;&#31649;&#21592;-UC2" style="stroke:#181818;stroke-width:1;"/></g><!--link ??? to UC3--><g class="link" data-entity-1="ent0002" data-entity-2="ent0010" data-link-type="association" data-source-line="25" id="lnk16"><path d="M63.45,224.5669 C88.64,198.8569 134.06,156.6769 181.3,133.3669 C199.45,124.4169 220.65,117.2469 238.93,111.9869" fill="none" id="&#20179;&#31649;&#21592;-UC3" style="stroke:#181818;stroke-width:1;"/></g><!--link ??? to UC4--><g class="link" data-entity-1="ent0002" data-entity-2="ent0011" data-link-type="association" data-source-line="26" id="lnk17"><path d="M63.58,274.9269 C75.01,288.4069 90.54,303.1069 108.3,310.3669 C148.7,326.8969 198.94,324.7669 235.04,319.7769" fill="none" id="&#20179;&#31649;&#21592;-UC4" style="stroke:#181818;stroke-width:1;"/></g><!--link ??? to UC5--><g class="link" data-entity-1="ent0002" data-entity-2="ent0012" data-link-type="association" data-source-line="27" id="lnk18"><path d="M63.53,281.6869 C74.86,298.6869 90.3,318.1869 108.3,331.3669 C142.78,356.6169 188.4,372.6369 224.28,382.1969" fill="none" id="&#20179;&#31649;&#21592;-UC5" style="stroke:#181818;stroke-width:1;"/></g><!--link Prod to UC1--><g class="link" data-entity-1="ent0003" data-entity-2="ent0008" data-link-type="association" data-source-line="29" id="lnk19"><path d="M70.59,127.8969 C96.94,132.2669 137.86,139.1269 173.3,145.3669 C193.1,148.8569 214.9,152.8369 233.77,156.3169" fill="none" id="Prod-UC1" style="stroke:#181818;stroke-width:1;"/></g><!--link Prod to UC2--><g class="link" data-entity-1="ent0003" data-entity-2="ent0009" data-link-type="association" data-source-line="30" id="lnk20"><path d="M70.5,138.4369 C98.25,153.6269 142.52,177.5869 181.3,197.3669 C205.78,209.8569 233.94,223.4569 254.3,233.1469" fill="none" id="Prod-UC2" style="stroke:#181818;stroke-width:1;"/></g><!--link Prod to UC3--><g class="link" data-entity-1="ent0003" data-entity-2="ent0010" data-link-type="association" data-source-line="31" id="lnk21"><path d="M70.6,89.5969 C81.16,79.1269 94.12,68.9069 108.3,63.3669 C159.72,43.2969 224.04,69.6869 258.27,87.5069" fill="none" id="Prod-UC3" style="stroke:#181818;stroke-width:1;"/></g><!--link ???? to UC4--><g class="link" data-entity-1="ent0004" data-entity-2="ent0011" data-link-type="association" data-source-line="33" id="lnk22"><path d="M70.41,364.4369 C96.98,363.0569 138.36,359.6769 173.3,351.3669 C201.23,344.7269 231.72,332.8369 253.34,323.5669" fill="none" id="&#38144;&#21806;&#25991;&#21592;-UC4" style="stroke:#181818;stroke-width:1;"/></g><!--link PMC to UC5--><g class="link" data-entity-1="ent0006" data-entity-2="ent0012" data-link-type="association" data-source-line="34" id="lnk23"><path d="M78.76,472.5769 C106.41,468.2669 144.72,459.2069 173.3,440.3669 C178.05,437.2369 176.66,433.6669 181.3,430.3669 C195.25,420.4269 212.22,412.9769 228.24,407.5169" fill="none" id="PMC-UC5" style="stroke:#181818;stroke-width:1;"/></g><!--link ????? to UC6--><g class="link" data-entity-1="ent0005" data-entity-2="ent0013" data-link-type="association" data-source-line="35" id="lnk24"><path d="M77.42,569.6069 C125.08,544.8869 210.47,500.6169 254.45,477.8169" fill="none" id="&#31995;&#32479;&#31649;&#29702;&#21592;-UC6" style="stroke:#181818;stroke-width:1;"/></g><!--link UC2 to UC1--><g class="link" data-entity-1="ent0009" data-entity-2="ent0008" data-link-type="dependency" data-source-line="37" id="lnk25"><path d="M283.32,231.5069 C283.32,216.9869 283.32,200.9869 283.32,186.4069" fill="none" id="UC2-to-UC1" style="stroke:#181818;stroke-width:1;stroke-dasharray:7,7;"/><polygon fill="#181818" points="283.32,180.4069,279.32,189.4069,283.32,185.4069,287.32,189.4069,283.32,180.4069" style="stroke:#181818;stroke-width:1;"/><text fill="#000000" font-family="Microsoft YaHei" font-size="13" lengthAdjust="spacing" textLength="61.1851" x="241.32" y="210.4338">&#171;extend&#187;</text></g><!--link UC4 to UC5--><g class="link" data-entity-1="ent0011" data-entity-2="ent0012" data-link-type="dependency" data-source-line="38" id="lnk26"><path d="M283.32,325.4769 C283.32,339.6869 283.32,354.9869 283.32,370.1369" fill="none" id="UC4-to-UC5" style="stroke:#181818;stroke-width:1;stroke-dasharray:7,7;"/><polygon fill="#181818" points="283.32,376.1369,287.32,367.1369,283.32,371.1369,279.32,367.1369,283.32,376.1369" style="stroke:#181818;stroke-width:1;"/><text fill="#000000" font-family="Microsoft YaHei" font-size="13" lengthAdjust="spacing" textLength="63.0068" x="240.32" y="355.2838">&#171;include&#187;</text></g><!--link UC1 to UC5--><g class="link" data-entity-1="ent0008" data-entity-2="ent0012" data-link-type="dependency" data-source-line="39" id="lnk27"><path d="M249.38,177.9869 C195.7,200.0469 100.39,249.0369 132.05,308.8669 C151.88,346.3269 189.8339,366.4532 225.1739,378.7632" fill="none" id="UC1-to-UC5" style="stroke:#181818;stroke-width:1;stroke-dasharray:7,7;"/><polygon fill="#181818" points="230.84,380.7369,223.6566,373.999,226.1183,379.0921,221.0251,381.5538,230.84,380.7369" style="stroke:#181818;stroke-width:1;"/><text fill="#000000" font-family="Microsoft YaHei" font-size="13" lengthAdjust="spacing" textLength="63.0068" x="109.3" y="304.9338">&#171;include&#187;</text></g><!--link UC3 to UC5--><g class="link" data-entity-1="ent0010" data-entity-2="ent0012" data-link-type="dependency" data-source-line="40" id="lnk28"><path d="M229.18,108.6469 C212.09,113.2969 194.3,120.9069 181.3,133.3669 C76.85,233.4869 111.82,233.5869 132.05,286.8669 C149.78,333.5569 195.9622,360.7837 234.0122,376.8437" fill="none" id="UC3-to-UC5" style="stroke:#181818;stroke-width:1;stroke-dasharray:7,7;"/><polygon fill="#181818" points="239.54,379.1769,232.8038,371.992,234.9335,377.2326,229.6929,379.3623,239.54,379.1769" style="stroke:#181818;stroke-width:1;"/><text fill="#000000" font-family="Microsoft YaHei" font-size="13" lengthAdjust="spacing" textLength="63.0068" x="109.3" y="282.9338">&#171;include&#187;</text></g><?plantuml-src TP51QnD15CVlyoaUlKTeDkb1IYv1qKEaK3nu77SdoT3DJfcTe2A2YBPf1QljKXeLGugnFMXQQA4nM_jfTdQsftu59zbDEsprDlF__-R_vhtdahe0mO3JHbE0Gpcn1MKUybUejuevRa6BUSnkSjOY87YR68xVn0vxHhq6rB7hcuv3whZjYllC4u-mVbYZDcS-qwMUu0U46kGgjbTmWooB5ow1IN7iDLo211NwBhzSM8NYrNddwTNvHXJko3U7qUY37E_8NtlHdw_HwBCA3gEBzvf32Dk2ST2K6lRbfxtiFgU2NZG-Y4QXbkS0-x34cPEPby5h6GpZtVKRNfs4AknfLdrSCrAMQjL4ntQsjPQcrAe8NVyNxZrShZ9Eu2K2QFl4nZwPbRxSNujtkoeuIOxEfayVL-TlKqb_aAUAjodvRg2xLzqm6Hvdb6LIQKDoVJoPqUOttKD6bKmg7Q3SEavEV-XvnXk_uv_zk3T8ZlOpl6pYgI-tpfA3jxBJLU5flFaz0nVGAuIkPmw5mhIxd53C2rPUAEM5CaAJFSq2Ryv5usmXP6vm5gLNCml9RJEL5n3IEN2dCec6kx2uI9uBuZcLYjPBgLwUwjIptRP3fiRy_mphdyPV?></g></svg>