<?plantuml 1.2026.2?><svg xmlns="http://www.w3.org/2000/svg" xmlns:xlink="http://www.w3.org/1999/xlink" contentStyleType="text/css" data-diagram-type="DESCRIPTION" height="3307.5px" preserveAspectRatio="none" style="width:718px;height:3307px;background:#FFFFFF;" version="1.1" viewBox="0 0 718 3307" width="718.125px" zoomAndPan="magnify"><title>&#22270;3-2 EISCore&#31995;&#32479;&#26680;&#24515;&#19994;&#21153;&#29992;&#20363;&#22270;</title><defs/><g><g class="title" data-source-line="1"><text fill="#000000" font-family="Microsoft YaHei" font-size="26.25" font-weight="bold" lengthAdjust="spacing" textLength="415.0909" x="139.1889" y="46.5253">&#22270;3-2 EISCore&#31995;&#32479;&#26680;&#24515;&#19994;&#21153;&#29992;&#20363;&#22270;</text></g><!--cluster EISCore--><g class="cluster" data-qualified-name="EISCore" data-source-line="30" id="ent0010"><rect fill="none" height="3091.875" rx="4.6875" ry="4.6875" style="stroke:#181818;stroke-width:1.875;" width="364.2" x="344.2688" y="87.1454"/><text fill="#000000" font-family="Microsoft YaHei" font-size="26.25" font-weight="bold" lengthAdjust="spacing" textLength="100.9369" x="475.9003" y="118.6707">EISCore</text></g><!--entity UC1--><g class="entity" data-qualified-name="EISCore.UC1" data-source-line="31" id="ent0011"><ellipse cx="526.3631" cy="473.3871" fill="#FFFFFF" rx="116.9943" ry="30.123" style="stroke:#000000;stroke-width:0.9375;"/><text fill="#000000" font-family="Microsoft YaHei" font-size="26.25" lengthAdjust="spacing" textLength="157.5" x="447.6131" y="484.1473">&#23458;&#25143;&#26723;&#26696;&#32500;&#25252;</text></g><!--entity UC2--><g class="entity" data-qualified-name="EISCore.UC2" data-source-line="32" id="ent0012"><ellipse cx="526.3631" cy="347.7621" fill="#FFFFFF" rx="116.9943" ry="30.123" style="stroke:#000000;stroke-width:0.9375;"/><text fill="#000000" font-family="Microsoft YaHei" font-size="26.25" lengthAdjust="spacing" textLength="157.5" x="447.6131" y="358.5223">&#38144;&#21806;&#21512;&#21516;&#31649;&#29702;</text></g><!--entity UC3--><g class="entity" data-qualified-name="EISCore.UC3" data-source-line="33" id="ent0013"><ellipse cx="526.3631" cy="186.5121" fill="#FFFFFF" rx="116.9943" ry="30.123" style="stroke:#000000;stroke-width:0.9375;"/><text fill="#000000" font-family="Microsoft YaHei" font-size="26.25" lengthAdjust="spacing" textLength="157.5" x="447.6131" y="197.2723">&#38144;&#21806;&#35746;&#21333;&#31649;&#29702;</text></g><!--entity UC4--><g class="entity" data-qualified-name="EISCore.UC4" data-source-line="34" id="ent0014"><ellipse cx="526.3631" cy="1184.0121" fill="#FFFFFF" rx="116.9943" ry="30.123" style="stroke:#000000;stroke-width:0.9375;"/><text fill="#000000" font-family="Microsoft YaHei" font-size="26.25" lengthAdjust="spacing" textLength="157.5" x="447.6131" y="1194.7723">&#35746;&#21333;&#29366;&#24577;&#26597;&#35810;</text></g><!--entity UC5--><g class="entity" data-qualified-name="EISCore.UC5" data-source-line="36" id="ent0015"><ellipse cx="526.3631" cy="735.8871" fill="#FFFFFF" rx="116.9943" ry="30.123" style="stroke:#000000;stroke-width:0.9375;"/><text fill="#000000" font-family="Microsoft YaHei" font-size="26.25" lengthAdjust="spacing" textLength="157.5" x="447.6131" y="746.6473">&#29983;&#20135;&#35746;&#21333;&#19979;&#36798;</text></g><!--entity UC6--><g class="entity" data-qualified-name="EISCore.UC6" data-source-line="37" id="ent0016"><ellipse cx="526.3631" cy="897.1371" fill="#FFFFFF" rx="116.9943" ry="30.123" style="stroke:#000000;stroke-width:0.9375;"/><text fill="#000000" font-family="Microsoft YaHei" font-size="26.25" lengthAdjust="spacing" textLength="157.5" x="447.6131" y="907.8973">&#29289;&#26009;&#38656;&#27714;&#20998;&#26512;</text></g><!--entity UC7--><g class="entity" data-qualified-name="EISCore.UC7" data-source-line="38" id="ent0017"><ellipse cx="526.3631" cy="1058.3871" fill="#FFFFFF" rx="116.9943" ry="30.123" style="stroke:#000000;stroke-width:0.9375;"/><text fill="#000000" font-family="Microsoft YaHei" font-size="26.25" lengthAdjust="spacing" textLength="157.5" x="447.6131" y="1069.1473">&#37319;&#36141;&#38656;&#27714;&#29983;&#25104;</text></g><!--entity UC8--><g class="entity" data-qualified-name="EISCore.UC8" data-source-line="40" id="ent0018"><ellipse cx="526.3631" cy="1309.6371" fill="#FFFFFF" rx="116.9943" ry="30.123" style="stroke:#000000;stroke-width:0.9375;"/><text fill="#000000" font-family="Microsoft YaHei" font-size="26.25" lengthAdjust="spacing" textLength="157.5" x="447.6131" y="1320.3973">&#37319;&#36141;&#35746;&#21333;&#31649;&#29702;</text></g><!--entity UC9--><g class="entity" data-qualified-name="EISCore.UC9" data-source-line="41" id="ent0019"><ellipse cx="526.365" cy="1435.2621" fill="#FFFFFF" rx="79.8712" ry="30.123" style="stroke:#000000;stroke-width:0.9375;"/><text fill="#000000" font-family="Microsoft YaHei" font-size="26.25" lengthAdjust="spacing" textLength="105" x="473.865" y="1446.0223">&#21040;&#36135;&#36319;&#36394;</text></g><!--entity UC10--><g class="entity" data-qualified-name="EISCore.UC10" data-source-line="43" id="ent0020"><ellipse cx="526.365" cy="1937.7621" fill="#FFFFFF" rx="79.8712" ry="30.123" style="stroke:#000000;stroke-width:0.9375;"/><text fill="#000000" font-family="Microsoft YaHei" font-size="26.25" lengthAdjust="spacing" textLength="105" x="473.865" y="1948.5223">&#37319;&#36141;&#20837;&#24211;</text></g><!--entity UC11--><g class="entity" data-qualified-name="EISCore.UC11" data-source-line="44" id="ent0021"><ellipse cx="526.3596" cy="2067.1361" fill="#FFFFFF" rx="146.1096" ry="33.7219" style="stroke:#000000;stroke-width:0.9375;"/><text fill="#000000" font-family="Microsoft YaHei" font-size="26.25" lengthAdjust="spacing" textLength="221.2152" x="415.752" y="2077.8963">&#29983;&#20135;&#39046;&#26009;/&#34917;&#26009;&#20986;&#24211;</text></g><!--entity UC12--><g class="entity" data-qualified-name="EISCore.UC12" data-source-line="45" id="ent0022"><ellipse cx="526.365" cy="1686.5121" fill="#FFFFFF" rx="79.8712" ry="30.123" style="stroke:#000000;stroke-width:0.9375;"/><text fill="#000000" font-family="Microsoft YaHei" font-size="26.25" lengthAdjust="spacing" textLength="105" x="473.865" y="1697.2723">&#29983;&#20135;&#20837;&#24211;</text></g><!--entity UC13--><g class="entity" data-qualified-name="EISCore.UC13" data-source-line="46" id="ent0023"><ellipse cx="526.365" cy="1560.8871" fill="#FFFFFF" rx="79.8712" ry="30.123" style="stroke:#000000;stroke-width:0.9375;"/><text fill="#000000" font-family="Microsoft YaHei" font-size="26.25" lengthAdjust="spacing" textLength="105" x="473.865" y="1571.6473">&#38144;&#21806;&#20986;&#24211;</text></g><!--entity UC14--><g class="entity" data-qualified-name="EISCore.UC14" data-source-line="47" id="ent0024"><ellipse cx="526.3631" cy="1812.1371" fill="#FFFFFF" rx="116.9943" ry="30.123" style="stroke:#000000;stroke-width:0.9375;"/><text fill="#000000" font-family="Microsoft YaHei" font-size="26.25" lengthAdjust="spacing" textLength="157.5" x="447.6131" y="1822.8973">&#24211;&#23384;&#21488;&#36134;&#26597;&#35810;</text></g><!--entity UC15--><g class="entity" data-qualified-name="EISCore.UC15" data-source-line="49" id="ent0025"><ellipse cx="526.365" cy="2196.5121" fill="#FFFFFF" rx="79.8712" ry="30.123" style="stroke:#000000;stroke-width:0.9375;"/><text fill="#000000" font-family="Microsoft YaHei" font-size="26.25" lengthAdjust="spacing" textLength="105" x="473.865" y="2207.2723">&#29983;&#20135;&#25253;&#24037;</text></g><!--entity UC16--><g class="entity" data-qualified-name="EISCore.UC16" data-source-line="50" id="ent0026"><ellipse cx="526.3631" cy="2322.1371" fill="#FFFFFF" rx="116.9943" ry="30.123" style="stroke:#000000;stroke-width:0.9375;"/><text fill="#000000" font-family="Microsoft YaHei" font-size="26.25" lengthAdjust="spacing" textLength="157.5" x="447.6131" y="2332.8973">&#21253;&#35013;&#20219;&#21153;&#22788;&#29702;</text></g><!--entity UC17--><g class="entity" data-qualified-name="EISCore.UC17" data-source-line="52" id="ent0027"><ellipse cx="526.3691" cy="2991.5121" fill="#FFFFFF" rx="125.2691" ry="30.123" style="stroke:#000000;stroke-width:0.9375;"/><text fill="#000000" font-family="Microsoft YaHei" font-size="26.25" lengthAdjust="spacing" textLength="169.2023" x="441.7679" y="3002.2723">&#26469;&#26009;&#26816;&#39564;(IQC)</text></g><!--entity UC18--><g class="entity" data-qualified-name="EISCore.UC18" data-source-line="53" id="ent0028"><ellipse cx="526.3603" cy="2864.0149" fill="#FFFFFF" rx="132.4415" ry="30.9883" style="stroke:#000000;stroke-width:0.9375;"/><text fill="#000000" font-family="Microsoft YaHei" font-size="26.25" lengthAdjust="spacing" textLength="185.2625" x="433.7291" y="2874.7751">&#36807;&#31243;&#26816;&#39564;(IPQC)</text></g><!--entity UC19--><g class="entity" data-qualified-name="EISCore.UC19" data-source-line="54" id="ent0029"><ellipse cx="526.3735" cy="3119.0288" fill="#FFFFFF" rx="131.5735" ry="30.8147" style="stroke:#000000;stroke-width:0.9375;"/><text fill="#000000" font-family="Microsoft YaHei" font-size="26.25" lengthAdjust="spacing" textLength="182.8784" x="434.9343" y="3129.789">&#20986;&#36135;&#26816;&#39564;(OQC)</text></g><!--entity UC20--><g class="entity" data-qualified-name="EISCore.UC20" data-source-line="55" id="ent0030"><ellipse cx="526.3631" cy="2702.7621" fill="#FFFFFF" rx="116.9943" ry="30.123" style="stroke:#000000;stroke-width:0.9375;"/><text fill="#000000" font-family="Microsoft YaHei" font-size="26.25" lengthAdjust="spacing" textLength="157.5" x="447.6131" y="2713.5223">&#26816;&#39564;&#38468;&#20214;&#19978;&#20256;</text></g><!--entity UC21--><g class="entity" data-qualified-name="EISCore.UC21" data-source-line="57" id="ent0031"><ellipse cx="526.3631" cy="2577.1371" fill="#FFFFFF" rx="116.9943" ry="30.123" style="stroke:#000000;stroke-width:0.9375;"/><text fill="#000000" font-family="Microsoft YaHei" font-size="26.25" lengthAdjust="spacing" textLength="157.5" x="447.6131" y="2587.8973">&#25209;&#27425;&#36861;&#28335;&#26597;&#35810;</text></g><!--entity UC22--><g class="entity" data-qualified-name="EISCore.UC22" data-source-line="58" id="ent0032"><ellipse cx="526.3704" cy="604.6532" fill="#FFFFFF" rx="152.1016" ry="34.9203" style="stroke:#000000;stroke-width:0.9375;"/><text fill="#000000" font-family="Microsoft YaHei" font-size="26.25" lengthAdjust="spacing" textLength="236.25" x="408.2454" y="615.4134">&#21457;&#36135;&#19982;&#29289;&#27969;&#20449;&#24687;&#30331;&#35760;</text></g><!--entity UC25--><g class="entity" data-qualified-name="EISCore.UC25" data-source-line="59" id="ent0033"><ellipse cx="526.3715" cy="2449.6422" fill="#FFFFFF" rx="131.8902" ry="30.878" style="stroke:#000000;stroke-width:0.9375;"/><text fill="#000000" font-family="Microsoft YaHei" font-size="26.25" lengthAdjust="spacing" textLength="183.75" x="434.4965" y="2460.4024">&#23457;&#25209;&#19982;&#32463;&#33829;&#26597;&#30475;</text></g><!--entity Sales--><g class="entity" data-qualified-name="Sales" data-source-line="21" id="ent0002"><ellipse cx="80.25" cy="415.7579" fill="#FFFFFF" rx="15" ry="15" style="stroke:#000000;stroke-width:0.9375;"/><path d="M80.25,430.7579 L80.25,481.3829 M55.875,445.7579 L104.625,445.7579 M80.25,481.3829 L55.875,509.5079 M80.25,481.3829 L104.625,509.5079" fill="none" style="stroke:#000000;stroke-width:0.9375;"/><text fill="#000000" font-family="Microsoft YaHei" font-size="26.25" lengthAdjust="spacing" textLength="105" x="27.75" y="540.0957">&#38144;&#21806;&#20154;&#21592;</text></g><!--entity PMC--><g class="entity" data-qualified-name="PMC" data-source-line="22" id="ent0003"><ellipse cx="80.2588" cy="993.2579" fill="#FFFFFF" rx="15" ry="15" style="stroke:#000000;stroke-width:0.9375;"/><path d="M80.2588,1008.2579 L80.2588,1058.8829 M55.8838,1023.2579 L104.6338,1023.2579 M80.2588,1058.8829 L55.8838,1087.0079 M80.2588,1058.8829 L104.6338,1087.0079" fill="none" style="stroke:#000000;stroke-width:0.9375;"/><text fill="#000000" font-family="Microsoft YaHei" font-size="26.25" lengthAdjust="spacing" textLength="138.0176" x="11.25" y="1117.5957">PMC&#35745;&#21010;&#21592;</text></g><!--entity Purchase--><g class="entity" data-qualified-name="Purchase" data-source-line="23" id="ent0004"><ellipse cx="80.25" cy="1340.1329" fill="#FFFFFF" rx="15" ry="15" style="stroke:#000000;stroke-width:0.9375;"/><path d="M80.25,1355.1329 L80.25,1405.7579 M55.875,1370.1329 L104.625,1370.1329 M80.25,1405.7579 L55.875,1433.8829 M80.25,1405.7579 L104.625,1433.8829" fill="none" style="stroke:#000000;stroke-width:0.9375;"/><text fill="#000000" font-family="Microsoft YaHei" font-size="26.25" lengthAdjust="spacing" textLength="105" x="27.75" y="1464.4707">&#37319;&#36141;&#20154;&#21592;</text></g><!--entity Warehouse--><g class="entity" data-qualified-name="Warehouse" data-source-line="24" id="ent0005"><ellipse cx="80.25" cy="1692.6329" fill="#FFFFFF" rx="15" ry="15" style="stroke:#000000;stroke-width:0.9375;"/><path d="M80.25,1707.6329 L80.25,1758.2579 M55.875,1722.6329 L104.625,1722.6329 M80.25,1758.2579 L55.875,1786.3829 M80.25,1758.2579 L104.625,1786.3829" fill="none" style="stroke:#000000;stroke-width:0.9375;"/><text fill="#000000" font-family="Microsoft YaHei" font-size="26.25" lengthAdjust="spacing" textLength="78.75" x="40.875" y="1816.9707">&#20179;&#31649;&#21592;</text></g><!--entity Production--><g class="entity" data-qualified-name="Production" data-source-line="25" id="ent0006"><ellipse cx="80.2514" cy="2121.5579" fill="#FFFFFF" rx="15" ry="15" style="stroke:#000000;stroke-width:0.9375;"/><path d="M80.2514,2136.5579 L80.2514,2187.1829 M55.8764,2151.5579 L104.6264,2151.5579 M80.2514,2187.1829 L55.8764,2215.3079 M80.2514,2187.1829 L104.6264,2215.3079" fill="none" style="stroke:#000000;stroke-width:0.9375;"/><text fill="#000000" font-family="Microsoft YaHei" font-size="26.25" lengthAdjust="spacing" textLength="116.2152" x="22.1437" y="2245.8957">&#29983;&#20135;&#20027;&#31649;/</text><text fill="#000000" font-family="Microsoft YaHei" font-size="26.25" lengthAdjust="spacing" textLength="105" x="22.1437" y="2280.541">&#36710;&#38388;&#20027;&#20219;</text></g><!--entity Quality--><g class="entity" data-qualified-name="Quality" data-source-line="26" id="ent0007"><ellipse cx="80.25" cy="3108.2579" fill="#FFFFFF" rx="15" ry="15" style="stroke:#000000;stroke-width:0.9375;"/><path d="M80.25,3123.2579 L80.25,3173.8829 M55.875,3138.2579 L104.625,3138.2579 M80.25,3173.8829 L55.875,3202.0079 M80.25,3173.8829 L104.625,3202.0079" fill="none" style="stroke:#000000;stroke-width:0.9375;"/><text fill="#000000" font-family="Microsoft YaHei" font-size="26.25" lengthAdjust="spacing" textLength="105" x="27.75" y="3232.5957">&#36136;&#26816;&#20154;&#21592;</text></g><!--entity Manager--><g class="entity" data-qualified-name="Manager" data-source-line="27" id="ent0008"><ellipse cx="80.25" cy="2800.7579" fill="#FFFFFF" rx="15" ry="15" style="stroke:#000000;stroke-width:0.9375;"/><path d="M80.25,2815.7579 L80.25,2866.3829 M55.875,2830.7579 L104.625,2830.7579 M80.25,2866.3829 L55.875,2894.5079 M80.25,2866.3829 L104.625,2894.5079" fill="none" style="stroke:#000000;stroke-width:0.9375;"/><text fill="#000000" font-family="Microsoft YaHei" font-size="26.25" lengthAdjust="spacing" textLength="78.75" x="40.875" y="2925.0957">&#31649;&#29702;&#23618;</text></g><!--entity Admin--><g class="entity" data-qualified-name="Admin" data-source-line="28" id="ent0009"><ellipse cx="80.25" cy="203.8829" fill="#FFFFFF" rx="15" ry="15" style="stroke:#000000;stroke-width:0.9375;"/><path d="M80.25,218.8829 L80.25,269.5079 M55.875,233.8829 L104.625,233.8829 M80.25,269.5079 L55.875,297.6329 M80.25,269.5079 L104.625,297.6329" fill="none" style="stroke:#000000;stroke-width:0.9375;"/><text fill="#000000" font-family="Microsoft YaHei" font-size="26.25" lengthAdjust="spacing" textLength="131.25" x="14.625" y="328.2207">&#31995;&#32479;&#31649;&#29702;&#21592;</text></g><!--link Sales to UC1--><g class="link" data-entity-1="ent0002" data-entity-2="ent0011" data-link-type="association" data-source-line="62" id="lnk34"><path d="M132.8813,473.3954 C199.8188,473.3954 319.6313,473.3954 409.1625,473.3954" fill="none" id="Sales-UC1" style="stroke:#000000;stroke-width:1.875;"/></g><!--link Sales to UC2--><g class="link" data-entity-1="ent0002" data-entity-2="ent0012" data-link-type="association" data-source-line="63" id="lnk35"><path d="M133.1813,451.3641 C155.1938,442.3641 181.3688,432.2766 205.5188,424.6454 C281.0063,400.7579 368.5687,380.1516 432.825,366.2954" fill="none" id="Sales-UC2" style="stroke:#000000;stroke-width:1.875;"/></g><!--link Sales to UC3--><g class="link" data-entity-1="ent0002" data-entity-2="ent0013" data-link-type="association" data-source-line="64" id="lnk36"><path d="M133.125,422.9954 C154.6875,402.7454 180.5438,379.7766 205.5188,360.8954 C288.825,297.8766 397.725,243.4641 464.325,212.8641" fill="none" id="Sales-UC3" style="stroke:#000000;stroke-width:1.875;"/></g><!--link Sales to UC4--><g class="link" data-entity-1="ent0002" data-entity-2="ent0014" data-link-type="association" data-source-line="65" id="lnk37"><path d="M116.1188,547.2516 C165.2625,656.3204 256.5938,867.7454 314.2688,1054.6454 C323.325,1084.0079 308.5125,1099.4766 329.2688,1122.1454 C352.5563,1147.5891 386.2313,1162.6266 419.0625,1171.4954" fill="none" id="Sales-UC4" style="stroke:#000000;stroke-width:1.875;"/></g><!--link Sales to UC22--><g class="link" data-entity-1="ent0002" data-entity-2="ent0032" data-link-type="association" data-source-line="66" id="lnk38"><path d="M132.8813,488.4516 C205.5,509.9954 340.3125,549.9891 431.2125,576.9704" fill="none" id="Sales-UC22" style="stroke:#000000;stroke-width:1.875;"/></g><!--link PMC to UC4--><g class="link" data-entity-1="ent0003" data-entity-2="ent0014" data-link-type="association" data-source-line="68" id="lnk39"><path d="M149.7938,1071.2579 C230.1563,1095.4454 363.8438,1135.6641 447.9188,1160.9766" fill="none" id="PMC-UC4" style="stroke:#000000;stroke-width:1.875;"/></g><!--link PMC to UC5--><g class="link" data-entity-1="ent0003" data-entity-2="ent0015" data-link-type="association" data-source-line="69" id="lnk40"><path d="M149.8125,989.8079 C167.85,973.6266 187.3688,956.2266 205.5188,940.2704 C260.0813,892.2516 268.8,873.6891 329.2688,833.3954 C371.8313,805.0266 423.7875,779.4704 463.4063,761.6391" fill="none" id="PMC-UC5" style="stroke:#000000;stroke-width:1.875;"/></g><!--link PMC to UC6--><g class="link" data-entity-1="ent0003" data-entity-2="ent0016" data-link-type="association" data-source-line="70" id="lnk41"><path d="M149.7938,1027.3829 C232.3312,998.6954 371.1375,950.4516 454.65,921.4266" fill="none" id="PMC-UC6" style="stroke:#000000;stroke-width:1.875;"/></g><!--link PMC to UC7--><g class="link" data-entity-1="ent0003" data-entity-2="ent0017" data-link-type="association" data-source-line="71" id="lnk42"><path d="M149.7938,1052.0391 C218.775,1053.2016 327.0563,1055.0391 409.5188,1056.4454" fill="none" id="PMC-UC7" style="stroke:#000000;stroke-width:1.875;"/></g><!--link PMC to UC21--><g class="link" data-entity-1="ent0003" data-entity-2="ent0031" data-link-type="association" data-source-line="72" id="lnk43"><path d="M105.4125,1124.9016 C119.5875,1172.0391 137.25,1234.6266 149.2688,1290.8954 C252.975,1776.2204 246.3375,1903.6641 314.2688,2395.2704 C317.8875,2421.4829 312.4125,2492.9954 329.2688,2513.3954 C351.4125,2540.1891 385.0125,2555.8266 418.125,2564.9016" fill="none" id="PMC-UC21" style="stroke:#000000;stroke-width:1.875;"/></g><!--link Purchase to UC8--><g class="link" data-entity-1="ent0004" data-entity-2="ent0018" data-link-type="association" data-source-line="74" id="lnk44"><path d="M132.8813,1387.6641 C205.725,1373.1516 341.1563,1346.1704 432.075,1328.0579" fill="none" id="Purchase-UC8" style="stroke:#000000;stroke-width:1.875;"/></g><!--link Purchase to UC9--><g class="link" data-entity-1="ent0004" data-entity-2="ent0019" data-link-type="association" data-source-line="75" id="lnk45"><path d="M132.8813,1402.0641 C210.0375,1408.6079 357.4125,1421.0954 447.7313,1428.7641" fill="none" id="Purchase-UC9" style="stroke:#000000;stroke-width:1.875;"/></g><!--link Warehouse to UC10--><g class="link" data-entity-1="ent0005" data-entity-2="ent0020" data-link-type="association" data-source-line="77" id="lnk46"><path d="M119.7563,1771.8329 C167.4375,1798.6079 252.6563,1844.5266 329.2688,1875.8954 C372.0375,1893.4079 421.725,1909.0829 460.2563,1920.2766" fill="none" id="Warehouse-UC10" style="stroke:#000000;stroke-width:1.875;"/></g><!--link Warehouse to UC11--><g class="link" data-entity-1="ent0005" data-entity-2="ent0021" data-link-type="association" data-source-line="78" id="lnk47"><path d="M120.525,1802.5079 C164.8312,1859.2641 242.7938,1948.8329 329.2688,2001.5204 C357.975,2018.9954 391.9125,2032.4954 423.3938,2042.5641" fill="none" id="Warehouse-UC11" style="stroke:#000000;stroke-width:1.875;"/></g><!--link Warehouse to UC12--><g class="link" data-entity-1="ent0005" data-entity-2="ent0022" data-link-type="association" data-source-line="79" id="lnk48"><path d="M119.85,1744.8329 C192.975,1734.2954 355.2188,1710.9141 450.5625,1697.1704" fill="none" id="Warehouse-UC12" style="stroke:#000000;stroke-width:1.875;"/></g><!--link Warehouse to UC13--><g class="link" data-entity-1="ent0005" data-entity-2="ent0023" data-link-type="association" data-source-line="80" id="lnk49"><path d="M120.2063,1725.1454 C144.1875,1709.8266 176.0625,1690.3641 205.5188,1675.2704 C289.8,1632.0516 394.2375,1597.9641 460.1438,1578.5954" fill="none" id="Warehouse-UC13" style="stroke:#000000;stroke-width:1.875;"/></g><!--link Warehouse to UC14--><g class="link" data-entity-1="ent0005" data-entity-2="ent0024" data-link-type="association" data-source-line="81" id="lnk50"><path d="M119.85,1755.5391 C186.075,1764.8016 325.4063,1784.3016 421.9313,1797.8016" fill="none" id="Warehouse-UC14" style="stroke:#000000;stroke-width:1.875;"/></g><!--link Warehouse to UC22--><g class="link" data-entity-1="ent0005" data-entity-2="ent0032" data-link-type="association" data-source-line="82" id="lnk51"><path d="M103.7813,1675.8704 C117.5813,1627.3266 135.3937,1562.4704 149.2688,1504.6454 C237.5625,1136.5266 77.5125,954.8391 329.2688,672.1454 C348.5813,650.4516 375.225,635.7329 402.6188,625.7391" fill="none" id="Warehouse-UC22" style="stroke:#000000;stroke-width:1.875;"/></g><!--link Production to UC11--><g class="link" data-entity-1="ent0006" data-entity-2="ent0021" data-link-type="association" data-source-line="84" id="lnk52"><path d="M138.7125,2172.3891 C159.5063,2164.0079 183.375,2154.9141 205.5188,2147.7704 C275.3813,2125.2329 355.4625,2105.0204 417.9188,2090.4516" fill="none" id="Production-UC11" style="stroke:#000000;stroke-width:1.875;"/></g><!--link Production to UC15--><g class="link" data-entity-1="ent0006" data-entity-2="ent0025" data-link-type="association" data-source-line="85" id="lnk53"><path d="M139.05,2196.5204 C217.2375,2196.5204 358.1063,2196.5204 446.175,2196.5204" fill="none" id="Production-UC15" style="stroke:#000000;stroke-width:1.875;"/></g><!--link Production to UC16--><g class="link" data-entity-1="ent0006" data-entity-2="ent0026" data-link-type="association" data-source-line="86" id="lnk54"><path d="M139.05,2212.6829 C216.9938,2234.8079 357.2813,2274.6516 445.3875,2299.6829" fill="none" id="Production-UC16" style="stroke:#000000;stroke-width:1.875;"/></g><!--link Quality to UC17--><g class="link" data-entity-1="ent0007" data-entity-2="ent0027" data-link-type="association" data-source-line="88" id="lnk55"><path d="M133.6875,3194.9016 C185.7938,3219.9141 265.3875,3245.6391 314.2688,3201.5204 C338.5125,3179.6204 308.7562,3080.6954 329.2688,3055.2704 C349.9688,3029.6016 381.2063,3014.1516 412.65,3004.8891" fill="none" id="Quality-UC17" style="stroke:#000000;stroke-width:1.875;"/></g><!--link Quality to UC18--><g class="link" data-entity-1="ent0007" data-entity-2="ent0028" data-link-type="association" data-source-line="89" id="lnk56"><path d="M133.575,3173.0579 C187.125,3177.3329 269.3625,3174.2579 314.2688,3124.6454 C343.7063,3092.1141 302.175,2962.2704 329.2688,2927.7704 C348.6375,2903.0954 377.775,2887.8516 407.6438,2878.4579" fill="none" id="Quality-UC18" style="stroke:#000000;stroke-width:1.875;"/></g><!--link Quality to UC19--><g class="link" data-entity-1="ent0007" data-entity-2="ent0029" data-link-type="association" data-source-line="90" id="lnk57"><path d="M133.6313,3228.6329 C153.75,3248.4704 178.4813,3267.9141 205.5188,3278.3954 C250.5938,3295.8516 268.4625,3293.7891 314.2688,3278.3954 C389.8125,3252.9891 459.7875,3188.4891 496.8563,3149.7891" fill="none" id="Quality-UC19" style="stroke:#000000;stroke-width:1.875;"/></g><!--link Quality to UC20--><g class="link" data-entity-1="ent0007" data-entity-2="ent0030" data-link-type="association" data-source-line="91" id="lnk58"><path d="M133.2938,3146.8079 C194.925,3122.6766 292.875,3080.3766 314.2688,3047.7704 C344.475,3001.6829 298.875,2846.2266 329.2688,2800.2704 C354.5438,2762.0204 399.5438,2738.1516 439.9688,2723.6016" fill="none" id="Quality-UC20" style="stroke:#000000;stroke-width:1.875;"/></g><!--link Quality to UC21--><g class="link" data-entity-1="ent0007" data-entity-2="ent0031" data-link-type="association" data-source-line="92" id="lnk59"><path d="M133.5563,3118.1579 C198.7875,3057.0516 304.1063,2956.2704 314.2688,2933.3954 C327.5625,2903.4516 309.2625,2664.9516 329.2688,2639.0204 C350.2313,2611.8516 383.1375,2596.3829 415.9875,2587.6454" fill="none" id="Quality-UC21" style="stroke:#000000;stroke-width:1.875;"/></g><!--link Manager to UC4--><g class="link" data-entity-1="ent0008" data-entity-2="ent0014" data-link-type="association" data-source-line="94" id="lnk60"><path d="M91.275,2784.2954 C129.675,2475.6891 278.1375,1305.6329 329.2688,1245.8954 C351.5812,1219.8329 384.8063,1204.6266 417.5625,1195.7954" fill="none" id="Manager-UC4" style="stroke:#000000;stroke-width:1.875;"/></g><!--link Manager to UC21--><g class="link" data-entity-1="ent0008" data-entity-2="ent0031" data-link-type="association" data-source-line="95" id="lnk61"><path d="M119.8125,2880.6141 C170.8875,2907.5391 261.7688,2943.5204 314.2688,2894.0204 C355.575,2855.0766 294.4125,2683.8141 329.2688,2639.0204 C350.3438,2611.9454 383.2688,2596.4766 416.1188,2587.7391" fill="none" id="Manager-UC21" style="stroke:#000000;stroke-width:1.875;"/></g><!--link Manager to UC25--><g class="link" data-entity-1="ent0008" data-entity-2="ent0033" data-link-type="association" data-source-line="96" id="lnk62"><path d="M120.2437,2864.4704 C172.6875,2870.3954 266.1,2871.8204 314.2688,2817.1454 C336.6,2791.7766 308.7562,2540.2454 329.2688,2513.3954 C348.4125,2488.3079 377.6625,2472.9516 407.7375,2463.5954" fill="none" id="Manager-UC25" style="stroke:#000000;stroke-width:1.875;"/></g><!--link UC3 to UC2--><g class="link" data-entity-1="ent0013" data-entity-2="ent0012" data-link-type="dependency" data-source-line="98" id="lnk63"><path d="M526.3688,217.2516 C526.3688,246.0329 526.3688,277.5329 526.3688,306.1829" fill="none" id="UC3-to-UC2" style="stroke:#000000;stroke-width:1.875;stroke-dasharray:13.125,13.125;"/><polygon fill="#000000" points="526.3688,317.4329,533.8688,300.5579,526.3688,308.0579,518.8688,300.5579,526.3688,317.4329" style="stroke:#000000;stroke-width:1.875;"/><text fill="#000000" font-family="Microsoft YaHei" font-size="24.375" lengthAdjust="spacing" textLength="111.7465" x="447.6188" y="276.9992">&#171;include&#187;</text></g><!--link UC5 to UC6--><g class="link" data-entity-1="ent0015" data-entity-2="ent0016" data-link-type="dependency" data-source-line="99" id="lnk64"><path d="M526.3688,766.6266 C526.3688,795.4079 526.3688,826.9079 526.3688,855.5579" fill="none" id="UC5-to-UC6" style="stroke:#000000;stroke-width:1.875;stroke-dasharray:13.125,13.125;"/><polygon fill="#000000" points="526.3688,866.8079,533.8688,849.9329,526.3688,857.4329,518.8688,849.9329,526.3688,866.8079" style="stroke:#000000;stroke-width:1.875;"/><text fill="#000000" font-family="Microsoft YaHei" font-size="24.375" lengthAdjust="spacing" textLength="111.7465" x="447.6188" y="826.3742">&#171;include&#187;</text></g><!--link UC7 to UC6--><g class="link" data-entity-1="ent0017" data-entity-2="ent0016" data-link-type="dependency" data-source-line="100" id="lnk65"><path d="M526.3688,1028.0579 C526.3688,999.4079 526.3688,967.9079 526.3688,939.1266" fill="none" id="UC7-to-UC6" style="stroke:#000000;stroke-width:1.875;stroke-dasharray:13.125,13.125;"/><polygon fill="#000000" points="526.3688,927.8766,518.8688,944.7516,526.3688,937.2516,533.8688,944.7516,526.3688,927.8766" style="stroke:#000000;stroke-width:1.875;"/><text fill="#000000" font-family="Microsoft YaHei" font-size="24.375" lengthAdjust="spacing" textLength="111.7465" x="447.6188" y="987.6242">&#171;include&#187;</text></g><!--link UC10 to UC17--><g class="link" data-entity-1="ent0020" data-entity-2="ent0027" data-link-type="dependency" data-source-line="101" id="lnk66"><path d="M447.4688,1943.5641 C406.125,1950.8579 358.1813,1966.8704 329.2688,2001.5204 C148.7063,2217.8766 213.2813,2351.1704 249.9375,2630.5829 C267.7125,2766.1266 235.1437,2828.6204 329.2688,2927.7704 C352.2938,2952.0329 373.8035,2963.9084 405.6222,2973.2272" fill="none" id="UC10-to-UC17" style="stroke:#000000;stroke-width:1.875;stroke-dasharray:13.125,13.125;"/><polygon fill="#000000" points="416.4188,2976.3891,402.332,2964.4485,407.4217,2973.7542,398.116,2978.8439,416.4188,2976.3891" style="stroke:#000000;stroke-width:1.875;"/><text fill="#000000" font-family="Microsoft YaHei" font-size="24.375" lengthAdjust="spacing" textLength="106.7953" x="207.3938" y="2622.6242">&#171;extend&#187;</text></g><!--link UC13 to UC19--><g class="link" data-entity-1="ent0023" data-entity-2="ent0029" data-link-type="dependency" data-source-line="102" id="lnk67"><path d="M446.5875,1565.6016 C405.225,1572.4454 357.5813,1588.0079 329.2688,1622.7704 C213.0938,1765.4204 238.0125,2263.2516 249.9375,2446.8329 C267.6,2718.9704 154.875,2845.6079 329.2688,3055.2704 C349.6125,3079.7391 368.7146,3091.5845 399.0333,3100.9595" fill="none" id="UC13-to-UC19" style="stroke:#000000;stroke-width:1.875;stroke-dasharray:13.125,13.125;"/><polygon fill="#000000" points="409.7813,3104.2829,395.875,3092.1325,400.8247,3101.5134,391.4438,3106.463,409.7813,3104.2829" style="stroke:#000000;stroke-width:1.875;"/><text fill="#000000" font-family="Microsoft YaHei" font-size="24.375" lengthAdjust="spacing" textLength="106.7953" x="207.3938" y="2438.8742">&#171;extend&#187;</text></g><!--link UC17 to UC20--><g class="link" data-entity-1="ent0027" data-entity-2="ent0030" data-link-type="dependency" data-source-line="103" id="lnk68"><path d="M421.8188,2974.1579 C389.3625,2964.7079 355.3125,2950.1391 329.2688,2927.7704 C258.5813,2867.0579 187.8188,2803.1579 249.9375,2733.7079 C294.0375,2684.3954 358.9038,2677.962 420.0851,2683.6058" fill="none" id="UC17-to-UC20" style="stroke:#000000;stroke-width:1.875;stroke-dasharray:13.125,13.125;"/><polygon fill="#000000" points="431.2875,2684.6391,415.1728,2675.6208,421.9521,2683.778,413.7949,2690.5574,431.2875,2684.6391" style="stroke:#000000;stroke-width:1.875;"/><text fill="#000000" font-family="Microsoft YaHei" font-size="24.375" lengthAdjust="spacing" textLength="106.7953" x="207.3938" y="2761.3742">&#171;extend&#187;</text></g><!--link UC18 to UC20--><g class="link" data-entity-1="ent0028" data-entity-2="ent0030" data-link-type="dependency" data-source-line="104" id="lnk69"><path d="M526.3688,2832.1641 C526.3688,2803.5141 526.3688,2772.9891 526.3688,2744.7141" fill="none" id="UC18-to-UC20" style="stroke:#000000;stroke-width:1.875;stroke-dasharray:13.125,13.125;"/><polygon fill="#000000" points="526.3688,2733.4641,518.8688,2750.3391,526.3688,2742.8391,533.8688,2750.3391,526.3688,2733.4641" style="stroke:#000000;stroke-width:1.875;"/><text fill="#000000" font-family="Microsoft YaHei" font-size="24.375" lengthAdjust="spacing" textLength="106.7953" x="450.4313" y="2792.818">&#171;extend&#187;</text></g><!--link UC19 to UC20--><g class="link" data-entity-1="ent0029" data-entity-2="ent0030" data-link-type="dependency" data-source-line="105" id="lnk70"><path d="M414.1688,3102.1641 C383.3813,3092.7516 352.2188,3078.0891 329.2688,3055.2704 C238.6125,2965.0829 172.4063,2880.4079 249.9375,2778.7079 C286.7438,2730.4079 340.0811,2712.3069 397.5311,2705.1069" fill="none" id="UC19-to-UC20" style="stroke:#000000;stroke-width:1.875;stroke-dasharray:13.125,13.125;"/><polygon fill="#000000" points="408.6938,2703.7079,391.0171,2698.3646,399.3915,2704.8737,392.8824,2713.2481,408.6938,2703.7079" style="stroke:#000000;stroke-width:1.875;"/><text fill="#000000" font-family="Microsoft YaHei" font-size="24.375" lengthAdjust="spacing" textLength="106.7953" x="207.3938" y="2806.3742">&#171;extend&#187;</text></g><?plantuml-src TLHTRnD757tVNp7AK_iGy3fnR5Se4hMAu24G55LLfRuiteczOhCJZNUL8eIKK18R9srCILlIqWOd659K7126k5v8_ipExlfVSBqVzapMUVBUSyxSkVVCzJKrKyU8_NKoDPb6trnRA12AlNUsP--vpxhiz2Ud-oUhDxsTG-Ta4rIILBcj6SiALPRGBQLukqI9PQW5eXEALigQYJc-KbPKig8P9RIew1MUKPSr9ETIF88N5Kithn33lAuiOJId5Icfa4KJVQzSnHgdN286APOf0P59BJxhCjIZbF22UGSwehXeAaP9vmLM1HUL2aPt9OI-7biyu8Igc8ROBHr4W5scbApmq3qkgL8q0Rzxpj7nrzoJ91r3RoP1L2kLJQHgWterOaXIcA-_iyfssawlnnuzGKe5BIWwhaJSnFnSmMytMUrN82S6B03nkMhLxxmUdPktQB4CFKUqOp_su6J8VQTGN2RMa9pmTlQStakdQuFcuW-6_-b5_uyEX8vjXzTGebfXcU49ltFe7goERhjfARfctebOoE8rDjZR-mDgJZ7WRMXC1HCM2SApbzKb3TeVlbiyZ86rySjDiFQ-MpjscmTki-RP7RV-FAZisuBCgqBtMAF66blX9P4gdLJvxNtsys-2QefNHNpzWxkwvkwr_AFzI3KjyRBGkr3iT3VzavD8bX5K3_zrVz_jFrrrtzvdjGttdqQacX4A2nunL45UjnQhib9IDgR-dE1OxOtVUUaVx_dTLn6V7vE6hRTOxt5iPYhPMdz_0qg_w3TRyCEgFKuj9zLYkZ6sYna4nm5dhv-mRQZxXU2uFCvojzvYnwrO8RZDjjRzWtMONjXWxFc3aK7oZ938_NlG4qno_zNM5zTk5hwCPLbX44whtk5ch9hdPABVrHxu7SbkSAgyS6N0ztSVEFO7frjtFZwB9pGbblRmV_U_fd_woUqT2Lwa1TFPzYEurEd-CXYmzslEQTDTE_9sRR_z9jQdnRzH4p8FzFQstsX1Pk_fPgpC3FPJi73Gv6Jmr-A2D1zCyS6q84jB4cobc1b-PaQVCwFFxEWJ-fBYfHKYkJCnJEzmSqK5fXA8d43I2MGgWKoVHO8sXbjlc3i1PP8GZ5Yq3YCWUoREdOdpOWo38CPWJBH4OrU547WnpaWIl12wC3i8q5VeqYNDAEgMYcTdWSY4n4o2o9v7oAcGaRC1XNyqiQ66J7IBd4ymKRPqAi7apcNouvdF?></g></svg>