<?xml version="1.0" encoding="UTF-8" standalone="no"?>
<!DOCTYPE svg PUBLIC "-//W3C//DTD SVG 1.1//EN"
 "http://www.w3.org/Graphics/SVG/1.1/DTD/svg11.dtd">
<!-- Generated by graphviz version 14.1.3 (20260303.0454)
 -->
<!-- Title: G Pages: 1 -->
<svg width="1680pt" height="1461pt"
 viewBox="0.00 0.00 1680.00 1461.00" xmlns="http://www.w3.org/2000/svg" xmlns:xlink="http://www.w3.org/1999/xlink">
<g id="graph0" class="graph" transform="scale(2.5 2.5) rotate(0) translate(4 580.25)">
<title>G</title>
<polygon fill="white" stroke="none" points="-4,4 -4,-580.25 667.95,-580.25 667.95,4 -4,4"/>
<!-- title -->
<g id="node1" class="node">
<title>title</title>
<text xml:space="preserve" text-anchor="middle" x="479.75" y="-559.15" font-family="Microsoft YaHei" font-size="18.00">图2&#45;2 闪念应用、智能体与轻量语义联动图</text>
</g>
<!-- flash -->
<g id="node2" class="node">
<title>flash</title>
<path fill="none" stroke="black" d="M565.38,-500.5C565.38,-500.5 394.12,-500.5 394.12,-500.5 388.12,-500.5 382.12,-494.5 382.12,-488.5 382.12,-488.5 382.12,-471.5 382.12,-471.5 382.12,-465.5 388.12,-459.5 394.12,-459.5 394.12,-459.5 565.38,-459.5 565.38,-459.5 571.38,-459.5 577.38,-465.5 577.38,-471.5 577.38,-471.5 577.38,-488.5 577.38,-488.5 577.38,-494.5 571.38,-500.5 565.38,-500.5"/>
<text xml:space="preserve" text-anchor="middle" x="479.75" y="-485.1" font-family="Microsoft YaHei" font-size="12.00">闪念应用构建器</text>
<text xml:space="preserve" text-anchor="middle" x="479.75" y="-468.6" font-family="Microsoft YaHei" font-size="12.00">FlashBuilder / 草稿 / 预览 / 发布</text>
</g>
<!-- title&#45;&gt;flash -->
<!-- agent -->
<g id="node3" class="node">
<title>agent</title>
<path fill="none" stroke="black" d="M541.75,-394.5C541.75,-394.5 417.75,-394.5 417.75,-394.5 411.75,-394.5 405.75,-388.5 405.75,-382.5 405.75,-382.5 405.75,-365.5 405.75,-365.5 405.75,-359.5 411.75,-353.5 417.75,-353.5 417.75,-353.5 541.75,-353.5 541.75,-353.5 547.75,-353.5 553.75,-359.5 553.75,-365.5 553.75,-365.5 553.75,-382.5 553.75,-382.5 553.75,-388.5 547.75,-394.5 541.75,-394.5"/>
<text xml:space="preserve" text-anchor="middle" x="479.75" y="-379.1" font-family="Microsoft YaHei" font-size="12.00">Agent Runtime</text>
<text xml:space="preserve" text-anchor="middle" x="479.75" y="-362.6" font-family="Microsoft YaHei" font-size="12.00">受控工具注册与调用编排</text>
</g>
<!-- flash&#45;&gt;agent -->
<g id="edge2" class="edge">
<title>flash&#45;&gt;agent</title>
<path fill="none" stroke="black" d="M479.75,-459.44C479.75,-444.43 479.75,-423.41 479.75,-406.1"/>
<polygon fill="black" stroke="black" points="483.25,-406.34 479.75,-396.34 476.25,-406.34 483.25,-406.34"/>
<text xml:space="preserve" text-anchor="middle" x="519.12" y="-424.05" font-family="Microsoft YaHei" font-size="11.00">提交草稿与意图</text>
</g>
<!-- tools -->
<g id="node7" class="node">
<title>tools</title>
<path fill="none" stroke="black" d="M422.75,-288.5C422.75,-288.5 340.75,-288.5 340.75,-288.5 334.75,-288.5 328.75,-282.5 328.75,-276.5 328.75,-276.5 328.75,-226.5 328.75,-226.5 328.75,-220.5 334.75,-214.5 340.75,-214.5 340.75,-214.5 422.75,-214.5 422.75,-214.5 428.75,-214.5 434.75,-220.5 434.75,-226.5 434.75,-226.5 434.75,-276.5 434.75,-276.5 434.75,-282.5 428.75,-288.5 422.75,-288.5"/>
<text xml:space="preserve" text-anchor="middle" x="381.75" y="-273.1" font-family="Microsoft YaHei" font-size="12.00">白名单工具</text>
<text xml:space="preserve" text-anchor="middle" x="381.75" y="-256.6" font-family="Microsoft YaHei" font-size="12.00">flash.data.*</text>
<text xml:space="preserve" text-anchor="middle" x="381.75" y="-240.1" font-family="Microsoft YaHei" font-size="12.00">flash.workflow.*</text>
<text xml:space="preserve" text-anchor="middle" x="381.75" y="-223.6" font-family="Microsoft YaHei" font-size="12.00">flash.ontology.*</text>
</g>
<!-- agent&#45;&gt;tools -->
<g id="edge3" class="edge">
<title>agent&#45;&gt;tools</title>
<path fill="none" stroke="black" d="M463.57,-353.1C451.36,-338.1 434.14,-316.92 418.64,-297.85"/>
<polygon fill="black" stroke="black" points="421.41,-295.72 412.38,-290.17 415.98,-300.13 421.41,-295.72"/>
<text xml:space="preserve" text-anchor="middle" x="493.03" y="-318.05" font-family="Microsoft YaHei" font-size="11.00">选择允许调用的工具</text>
</g>
<!-- output -->
<g id="node9" class="node">
<title>output</title>
<path fill="none" stroke="black" d="M600.75,-57.5C600.75,-57.5 428.75,-57.5 428.75,-57.5 422.75,-57.5 416.75,-51.5 416.75,-45.5 416.75,-45.5 416.75,-12 416.75,-12 416.75,-6 422.75,0 428.75,0 428.75,0 600.75,0 600.75,0 606.75,0 612.75,-6 612.75,-12 612.75,-12 612.75,-45.5 612.75,-45.5 612.75,-51.5 606.75,-57.5 600.75,-57.5"/>
<text xml:space="preserve" text-anchor="middle" x="514.75" y="-42.1" font-family="Microsoft YaHei" font-size="12.00">结果落点</text>
<text xml:space="preserve" text-anchor="middle" x="514.75" y="-25.6" font-family="Microsoft YaHei" font-size="12.00">页面生成、对象解释、流程联动、</text>
<text xml:space="preserve" text-anchor="middle" x="514.75" y="-9.1" font-family="Microsoft YaHei" font-size="12.00">受控数据访问</text>
</g>
<!-- agent&#45;&gt;output -->
<g id="edge10" class="edge">
<title>agent&#45;&gt;output</title>
<path fill="none" stroke="black" d="M521.69,-353.21C532.56,-346.55 543.52,-338.28 551.75,-328.5 606.98,-262.9 607.45,-233.69 623.75,-149.5 627.21,-131.61 632.04,-124.73 623.75,-108.5 614.6,-90.61 599.29,-75.85 582.99,-64.13"/>
<polygon fill="black" stroke="black" points="585.35,-61.51 575.11,-58.79 581.42,-67.3 585.35,-61.51"/>
<text xml:space="preserve" text-anchor="middle" x="641.45" y="-179.05" font-family="Microsoft YaHei" font-size="11.00">组织结果</text>
</g>
<!-- dataapp -->
<g id="node4" class="node">
<title>dataapp</title>
<path fill="none" stroke="black" d="M377.75,-149.5C377.75,-149.5 229.75,-149.5 229.75,-149.5 223.75,-149.5 217.75,-143.5 217.75,-137.5 217.75,-137.5 217.75,-120.5 217.75,-120.5 217.75,-114.5 223.75,-108.5 229.75,-108.5 229.75,-108.5 377.75,-108.5 377.75,-108.5 383.75,-108.5 389.75,-114.5 389.75,-120.5 389.75,-120.5 389.75,-137.5 389.75,-137.5 389.75,-143.5 383.75,-149.5 377.75,-149.5"/>
<text xml:space="preserve" text-anchor="middle" x="303.75" y="-134.1" font-family="Microsoft YaHei" font-size="12.00">数据表格应用</text>
<text xml:space="preserve" text-anchor="middle" x="303.75" y="-117.6" font-family="Microsoft YaHei" font-size="12.00">动态表、字段配置、表格读写</text>
</g>
<!-- db -->
<g id="node8" class="node">
<title>db</title>
<path fill="none" stroke="black" d="M372.5,-49.25C372.5,-49.25 151,-49.25 151,-49.25 145,-49.25 139,-43.25 139,-37.25 139,-37.25 139,-20.25 139,-20.25 139,-14.25 145,-8.25 151,-8.25 151,-8.25 372.5,-8.25 372.5,-8.25 378.5,-8.25 384.5,-14.25 384.5,-20.25 384.5,-20.25 384.5,-37.25 384.5,-37.25 384.5,-43.25 378.5,-49.25 372.5,-49.25"/>
<text xml:space="preserve" text-anchor="middle" x="261.75" y="-33.85" font-family="Microsoft YaHei" font-size="12.00">数据库与应用Schema</text>
<text xml:space="preserve" text-anchor="middle" x="261.75" y="-17.35" font-family="Microsoft YaHei" font-size="12.00">app_center / workflow / app_data / scm</text>
</g>
<!-- dataapp&#45;&gt;db -->
<g id="edge7" class="edge">
<title>dataapp&#45;&gt;db</title>
<path fill="none" stroke="black" d="M295.25,-108.12C289.33,-94.27 281.33,-75.54 274.63,-59.87"/>
<polygon fill="black" stroke="black" points="277.98,-58.81 270.83,-50.99 271.54,-61.57 277.98,-58.81"/>
</g>
<!-- dataapp&#45;&gt;output -->
<g id="edge11" class="edge">
<title>dataapp&#45;&gt;output</title>
<path fill="none" stroke="black" stroke-dasharray="5,2" d="M346.45,-108.12C374.37,-95.11 411.53,-77.81 443.83,-62.78"/>
<polygon fill="black" stroke="black" points="445.16,-66.01 452.75,-58.62 442.21,-59.67 445.16,-66.01"/>
</g>
<!-- flow -->
<g id="node5" class="node">
<title>flow</title>
<path fill="none" stroke="black" d="M595.5,-149.5C595.5,-149.5 434,-149.5 434,-149.5 428,-149.5 422,-143.5 422,-137.5 422,-137.5 422,-120.5 422,-120.5 422,-114.5 428,-108.5 434,-108.5 434,-108.5 595.5,-108.5 595.5,-108.5 601.5,-108.5 607.5,-114.5 607.5,-120.5 607.5,-120.5 607.5,-137.5 607.5,-137.5 607.5,-143.5 601.5,-149.5 595.5,-149.5"/>
<text xml:space="preserve" text-anchor="middle" x="514.75" y="-134.1" font-family="Microsoft YaHei" font-size="12.00">流程对象</text>
<text xml:space="preserve" text-anchor="middle" x="514.75" y="-117.6" font-family="Microsoft YaHei" font-size="12.00">流程定义 / 流程实例 / 状态映射</text>
</g>
<!-- flow&#45;&gt;db -->
<g id="edge8" class="edge">
<title>flow&#45;&gt;db</title>
<path fill="none" stroke="black" d="M463.55,-108.12C423.09,-92.4 366.46,-70.41 323.49,-53.72"/>
<polygon fill="black" stroke="black" points="324.87,-50.51 314.28,-50.15 322.34,-57.03 324.87,-50.51"/>
</g>
<!-- flow&#45;&gt;output -->
<g id="edge12" class="edge">
<title>flow&#45;&gt;output</title>
<path fill="none" stroke="black" stroke-dasharray="5,2" d="M514.75,-108.12C514.75,-96.93 514.75,-82.56 514.75,-69.18"/>
<polygon fill="black" stroke="black" points="518.25,-69.31 514.75,-59.31 511.25,-69.31 518.25,-69.31"/>
</g>
<!-- sem -->
<g id="node6" class="node">
<title>sem</title>
<path fill="none" stroke="black" d="M173.5,-149.5C173.5,-149.5 12,-149.5 12,-149.5 6,-149.5 0,-143.5 0,-137.5 0,-137.5 0,-120.5 0,-120.5 0,-114.5 6,-108.5 12,-108.5 12,-108.5 173.5,-108.5 173.5,-108.5 179.5,-108.5 185.5,-114.5 185.5,-120.5 185.5,-120.5 185.5,-137.5 185.5,-137.5 185.5,-143.5 179.5,-149.5 173.5,-149.5"/>
<text xml:space="preserve" text-anchor="middle" x="92.75" y="-134.1" font-family="Microsoft YaHei" font-size="12.00">轻量化语义</text>
<text xml:space="preserve" text-anchor="middle" x="92.75" y="-117.6" font-family="Microsoft YaHei" font-size="12.00">表级语义 / 列级语义 / 关系语义</text>
</g>
<!-- sem&#45;&gt;db -->
<g id="edge9" class="edge">
<title>sem&#45;&gt;db</title>
<path fill="none" stroke="black" d="M126.95,-108.12C153.18,-92.87 189.57,-71.71 217.93,-55.22"/>
<polygon fill="black" stroke="black" points="219.41,-58.42 226.29,-50.36 215.89,-52.36 219.41,-58.42"/>
</g>
<!-- sem&#45;&gt;output -->
<g id="edge13" class="edge">
<title>sem&#45;&gt;output</title>
<path fill="none" stroke="black" stroke-dasharray="5,2" d="M181.45,-108.04C243.03,-94.09 326.94,-74.93 400.75,-57.5 402.36,-57.12 403.98,-56.74 405.62,-56.35"/>
<polygon fill="black" stroke="black" points="406.13,-59.82 415.05,-54.1 404.51,-53.01 406.13,-59.82"/>
</g>
<!-- tools&#45;&gt;dataapp -->
<g id="edge4" class="edge">
<title>tools&#45;&gt;dataapp</title>
<path fill="none" stroke="black" d="M358.14,-214.02C346.85,-196.58 333.51,-175.98 322.87,-159.54"/>
<polygon fill="black" stroke="black" points="325.83,-157.67 317.46,-151.18 319.95,-161.47 325.83,-157.67"/>
<text xml:space="preserve" text-anchor="middle" x="385.41" y="-179.05" font-family="Microsoft YaHei" font-size="11.00">表结构与表格能力</text>
</g>
<!-- tools&#45;&gt;flow -->
<g id="edge5" class="edge">
<title>tools&#45;&gt;flow</title>
<path fill="none" stroke="black" d="M422.02,-214.02C442.08,-195.84 465.94,-174.22 484.43,-157.47"/>
<polygon fill="black" stroke="black" points="486.6,-160.23 491.66,-150.92 481.9,-155.04 486.6,-160.23"/>
<text xml:space="preserve" text-anchor="middle" x="503.45" y="-179.05" font-family="Microsoft YaHei" font-size="11.00">流程与状态读取</text>
</g>
<!-- tools&#45;&gt;sem -->
<g id="edge6" class="edge">
<title>tools&#45;&gt;sem</title>
<path fill="none" stroke="black" d="M328.41,-228.26C278.05,-207.26 202.74,-175.86 150.88,-154.24"/>
<polygon fill="black" stroke="black" points="152.48,-151.11 141.91,-150.5 149.79,-157.57 152.48,-151.11"/>
<text xml:space="preserve" text-anchor="middle" x="262.33" y="-179.05" font-family="Microsoft YaHei" font-size="11.00">对象语义解释</text>
</g>
</g>
</svg>
