<?xml version="1.0" encoding="UTF-8" standalone="no"?>
<!DOCTYPE svg PUBLIC "-//W3C//DTD SVG 1.1//EN"
 "http://www.w3.org/Graphics/SVG/1.1/DTD/svg11.dtd">
<!-- Generated by graphviz version 14.1.3 (20260303.0454)
 -->
<!-- Title: G Pages: 1 -->
<svg width="1456pt" height="1488pt"
 viewBox="0.00 0.00 1456.00 1488.00" xmlns="http://www.w3.org/2000/svg" xmlns:xlink="http://www.w3.org/1999/xlink">
<g id="graph0" class="graph" transform="scale(2.5 2.5) rotate(0) translate(4 591)">
<title>G</title>
<polygon fill="white" stroke="none" points="-4,4 -4,-591 578.5,-591 578.5,4 -4,4"/>
<!-- title -->
<g id="node1" class="node">
<title>title</title>
<text xml:space="preserve" text-anchor="middle" x="453" y="-561.77" font-family="Microsoft YaHei" font-size="18.00">图2&#45;1 EISCore关键技术关系图</text>
</g>
<!-- frontend -->
<g id="node2" class="node">
<title>frontend</title>
<path fill="none" stroke="black" d="M469.5,-496C469.5,-496 342.5,-496 342.5,-496 336.5,-496 330.5,-490 330.5,-484 330.5,-484 330.5,-467 330.5,-467 330.5,-461 336.5,-455 342.5,-455 342.5,-455 469.5,-455 469.5,-455 475.5,-455 481.5,-461 481.5,-467 481.5,-467 481.5,-484 481.5,-484 481.5,-490 475.5,-496 469.5,-496"/>
<text xml:space="preserve" text-anchor="middle" x="406" y="-480.6" font-family="Microsoft YaHei" font-size="12.00">前端组织</text>
<text xml:space="preserve" text-anchor="middle" x="406" y="-464.1" font-family="Microsoft YaHei" font-size="12.00">Vue 3 + Vite + qiankun</text>
</g>
<!-- title&#45;&gt;frontend -->
<!-- ui -->
<g id="node3" class="node">
<title>ui</title>
<path fill="none" stroke="black" d="M445.75,-405C445.75,-405 284.25,-405 284.25,-405 278.25,-405 272.25,-399 272.25,-393 272.25,-393 272.25,-376 272.25,-376 272.25,-370 278.25,-364 284.25,-364 284.25,-364 445.75,-364 445.75,-364 451.75,-364 457.75,-370 457.75,-376 457.75,-376 457.75,-393 457.75,-393 457.75,-399 451.75,-405 445.75,-405"/>
<text xml:space="preserve" text-anchor="middle" x="365" y="-389.6" font-family="Microsoft YaHei" font-size="12.00">界面与交互</text>
<text xml:space="preserve" text-anchor="middle" x="365" y="-373.1" font-family="Microsoft YaHei" font-size="12.00">Element Plus / Vant / AG Grid</text>
</g>
<!-- frontend&#45;&gt;ui -->
<g id="edge2" class="edge">
<title>frontend&#45;&gt;ui</title>
<path fill="none" stroke="black" d="M396.9,-454.75C391.59,-443.23 384.79,-428.46 378.83,-415.52"/>
<polygon fill="black" stroke="black" points="382.07,-414.19 374.71,-406.57 375.71,-417.12 382.07,-414.19"/>
</g>
<!-- api -->
<g id="node4" class="node">
<title>api</title>
<path fill="none" stroke="black" d="M341.62,-223C341.62,-223 290.38,-223 290.38,-223 284.38,-223 278.38,-217 278.38,-211 278.38,-211 278.38,-194 278.38,-194 278.38,-188 284.38,-182 290.38,-182 290.38,-182 341.62,-182 341.62,-182 347.62,-182 353.62,-188 353.62,-194 353.62,-194 353.62,-211 353.62,-211 353.62,-217 347.62,-223 341.62,-223"/>
<text xml:space="preserve" text-anchor="middle" x="316" y="-207.6" font-family="Microsoft YaHei" font-size="12.00">接口层</text>
<text xml:space="preserve" text-anchor="middle" x="316" y="-191.1" font-family="Microsoft YaHei" font-size="12.00">PostgREST</text>
</g>
<!-- frontend&#45;&gt;api -->
<g id="edge3" class="edge">
<title>frontend&#45;&gt;api</title>
<path fill="none" stroke="black" d="M433.88,-454.76C448.84,-442.38 465.84,-425.01 474,-405 480.88,-388.13 478.23,-381.73 474,-364 463.49,-319.92 458.62,-306.41 428,-273 410.12,-253.48 385.53,-237.41 363.94,-225.66"/>
<polygon fill="black" stroke="black" points="365.77,-222.67 355.29,-221.11 362.51,-228.86 365.77,-222.67"/>
</g>
<!-- mobile -->
<g id="node10" class="node">
<title>mobile</title>
<path fill="none" stroke="black" d="M400.38,-314C400.38,-314 311.62,-314 311.62,-314 305.62,-314 299.62,-308 299.62,-302 299.62,-302 299.62,-285 299.62,-285 299.62,-279 305.62,-273 311.62,-273 311.62,-273 400.38,-273 400.38,-273 406.38,-273 412.38,-279 412.38,-285 412.38,-285 412.38,-302 412.38,-302 412.38,-308 406.38,-314 400.38,-314"/>
<text xml:space="preserve" text-anchor="middle" x="356" y="-298.6" font-family="Microsoft YaHei" font-size="12.00">现场入口</text>
<text xml:space="preserve" text-anchor="middle" x="356" y="-282.1" font-family="Microsoft YaHei" font-size="12.00">移动端 / 冷库模式</text>
</g>
<!-- ui&#45;&gt;mobile -->
<g id="edge4" class="edge">
<title>ui&#45;&gt;mobile</title>
<path fill="none" stroke="black" d="M363,-363.75C361.86,-352.46 360.4,-338.05 359.11,-325.3"/>
<polygon fill="black" stroke="black" points="362.63,-325.3 358.14,-315.7 355.67,-326 362.63,-325.3"/>
</g>
<!-- db -->
<g id="node5" class="node">
<title>db</title>
<path fill="none" stroke="black" d="M353.25,-132C353.25,-132 278.75,-132 278.75,-132 272.75,-132 266.75,-126 266.75,-120 266.75,-120 266.75,-103 266.75,-103 266.75,-97 272.75,-91 278.75,-91 278.75,-91 353.25,-91 353.25,-91 359.25,-91 365.25,-97 365.25,-103 365.25,-103 365.25,-120 365.25,-120 365.25,-126 359.25,-132 353.25,-132"/>
<text xml:space="preserve" text-anchor="middle" x="316" y="-116.6" font-family="Microsoft YaHei" font-size="12.00">数据底座</text>
<text xml:space="preserve" text-anchor="middle" x="316" y="-100.1" font-family="Microsoft YaHei" font-size="12.00">PostgreSQL 16</text>
</g>
<!-- api&#45;&gt;db -->
<g id="edge5" class="edge">
<title>api&#45;&gt;db</title>
<path fill="none" stroke="black" d="M316,-181.75C316,-170.57 316,-156.34 316,-143.69"/>
<polygon fill="black" stroke="black" points="319.5,-143.71 316,-133.71 312.5,-143.71 319.5,-143.71"/>
</g>
<!-- sec -->
<g id="node6" class="node">
<title>sec</title>
<path fill="none" stroke="black" d="M546.88,-41C546.88,-41 413.12,-41 413.12,-41 407.12,-41 401.12,-35 401.12,-29 401.12,-29 401.12,-12 401.12,-12 401.12,-6 407.12,0 413.12,0 413.12,0 546.88,0 546.88,0 552.88,0 558.88,-6 558.88,-12 558.88,-12 558.88,-29 558.88,-29 558.88,-35 552.88,-41 546.88,-41"/>
<text xml:space="preserve" text-anchor="middle" x="480" y="-25.6" font-family="Microsoft YaHei" font-size="12.00">权限治理</text>
<text xml:space="preserve" text-anchor="middle" x="480" y="-9.1" font-family="Microsoft YaHei" font-size="12.00">RLS / 用户角色 / 访问边界</text>
</g>
<!-- db&#45;&gt;sec -->
<g id="edge6" class="edge">
<title>db&#45;&gt;sec</title>
<path fill="none" stroke="black" d="M352.8,-90.53C376.65,-77.59 407.91,-60.62 433.47,-46.75"/>
<polygon fill="black" stroke="black" points="434.87,-49.97 441.99,-42.13 431.53,-43.82 434.87,-49.97"/>
</g>
<!-- flow -->
<g id="node7" class="node">
<title>flow</title>
<path fill="none" stroke="black" d="M139.38,-41C139.38,-41 44.62,-41 44.62,-41 38.62,-41 32.62,-35 32.62,-29 32.62,-29 32.62,-12 32.62,-12 32.62,-6 38.62,0 44.62,0 44.62,0 139.38,0 139.38,0 145.38,0 151.38,-6 151.38,-12 151.38,-12 151.38,-29 151.38,-29 151.38,-35 145.38,-41 139.38,-41"/>
<text xml:space="preserve" text-anchor="middle" x="92" y="-25.6" font-family="Microsoft YaHei" font-size="12.00">流程支撑</text>
<text xml:space="preserve" text-anchor="middle" x="92" y="-9.1" font-family="Microsoft YaHei" font-size="12.00">BPMN / workflow</text>
</g>
<!-- db&#45;&gt;flow -->
<g id="edge7" class="edge">
<title>db&#45;&gt;flow</title>
<path fill="none" stroke="black" d="M266.29,-90.75C232.62,-77.37 187.94,-59.62 152.25,-45.44"/>
<polygon fill="black" stroke="black" points="153.95,-42.35 143.37,-41.91 151.37,-48.85 153.95,-42.35"/>
</g>
<!-- sem -->
<g id="node8" class="node">
<title>sem</title>
<path fill="none" stroke="black" d="M356.75,-41C356.75,-41 195.25,-41 195.25,-41 189.25,-41 183.25,-35 183.25,-29 183.25,-29 183.25,-12 183.25,-12 183.25,-6 189.25,0 195.25,0 195.25,0 356.75,0 356.75,0 362.75,0 368.75,-6 368.75,-12 368.75,-12 368.75,-29 368.75,-29 368.75,-35 362.75,-41 356.75,-41"/>
<text xml:space="preserve" text-anchor="middle" x="276" y="-25.6" font-family="Microsoft YaHei" font-size="12.00">语义增强</text>
<text xml:space="preserve" text-anchor="middle" x="276" y="-9.1" font-family="Microsoft YaHei" font-size="12.00">表级语义 / 列级语义 / 本体关系</text>
</g>
<!-- db&#45;&gt;sem -->
<g id="edge8" class="edge">
<title>db&#45;&gt;sem</title>
<path fill="none" stroke="black" d="M307.12,-90.75C301.94,-79.23 295.31,-64.46 289.49,-51.52"/>
<polygon fill="black" stroke="black" points="292.76,-50.26 285.47,-42.58 286.38,-53.13 292.76,-50.26"/>
</g>
<!-- agent -->
<g id="node9" class="node">
<title>agent</title>
<path fill="none" stroke="black" d="M172,-314C172,-314 12,-314 12,-314 6,-314 0,-308 0,-302 0,-302 0,-285 0,-285 0,-279 6,-273 12,-273 12,-273 172,-273 172,-273 178,-273 184,-279 184,-285 184,-285 184,-302 184,-302 184,-308 178,-314 172,-314"/>
<text xml:space="preserve" text-anchor="middle" x="92" y="-298.6" font-family="Microsoft YaHei" font-size="12.00">辅助运行</text>
<text xml:space="preserve" text-anchor="middle" x="92" y="-282.1" font-family="Microsoft YaHei" font-size="12.00">FlashBuilder / Agent Runtime</text>
</g>
<!-- agent&#45;&gt;api -->
<g id="edge9" class="edge">
<title>agent&#45;&gt;api</title>
<path fill="none" stroke="black" d="M142.27,-272.53C179.72,-257.65 230.56,-237.45 267.57,-222.74"/>
<polygon fill="black" stroke="black" points="268.69,-226.07 276.69,-219.12 266.1,-219.56 268.69,-226.07"/>
</g>
<!-- agent&#45;&gt;flow -->
<g id="edge10" class="edge">
<title>agent&#45;&gt;flow</title>
<path fill="none" stroke="black" d="M92,-272.57C92,-225.88 92,-109.12 92,-52.82"/>
<polygon fill="black" stroke="black" points="95.5,-52.97 92,-42.97 88.5,-52.97 95.5,-52.97"/>
</g>
<!-- agent&#45;&gt;sem -->
<g id="edge11" class="edge">
<title>agent&#45;&gt;sem</title>
<path fill="none" stroke="black" d="M105.53,-272.57C137.63,-225.3 218.51,-106.17 256.16,-50.73"/>
<polygon fill="black" stroke="black" points="258.88,-52.95 261.6,-42.71 253.09,-49.02 258.88,-52.95"/>
</g>
<!-- mobile&#45;&gt;api -->
<g id="edge12" class="edge">
<title>mobile&#45;&gt;api</title>
<path fill="none" stroke="black" d="M347.12,-272.75C341.94,-261.23 335.31,-246.46 329.49,-233.52"/>
<polygon fill="black" stroke="black" points="332.76,-232.26 325.47,-224.58 326.38,-235.13 332.76,-232.26"/>
</g>
<!-- ops -->
<g id="node11" class="node">
<title>ops</title>
<path fill="none" stroke="black" d="M287.62,-587C287.62,-587 158.38,-587 158.38,-587 152.38,-587 146.38,-581 146.38,-575 146.38,-575 146.38,-558 146.38,-558 146.38,-552 152.38,-546 158.38,-546 158.38,-546 287.62,-546 287.62,-546 293.62,-546 299.62,-552 299.62,-558 299.62,-558 299.62,-575 299.62,-575 299.62,-581 293.62,-587 287.62,-587"/>
<text xml:space="preserve" text-anchor="middle" x="223" y="-571.6" font-family="Microsoft YaHei" font-size="12.00">运行环境</text>
<text xml:space="preserve" text-anchor="middle" x="223" y="-555.1" font-family="Microsoft YaHei" font-size="12.00">Docker Compose / PM2</text>
</g>
<!-- ops&#45;&gt;frontend -->
<g id="edge13" class="edge">
<title>ops&#45;&gt;frontend</title>
<path fill="none" stroke="black" d="M264.07,-545.53C290.91,-532.47 326.17,-515.32 354.84,-501.38"/>
<polygon fill="black" stroke="black" points="356.25,-504.59 363.71,-497.07 353.18,-498.29 356.25,-504.59"/>
</g>
<!-- ops&#45;&gt;api -->
<g id="edge14" class="edge">
<title>ops&#45;&gt;api</title>
<path fill="none" stroke="black" d="M225.35,-545.59C229.83,-509.22 240.58,-429.75 256,-364 265.66,-322.8 268.9,-312.53 284,-273 289.06,-259.76 295.46,-245.47 301.21,-233.32"/>
<polygon fill="black" stroke="black" points="304.21,-235.16 305.39,-224.64 297.9,-232.13 304.21,-235.16"/>
</g>
<!-- ops&#45;&gt;db -->
<g id="edge15" class="edge">
<title>ops&#45;&gt;db</title>
<path fill="none" stroke="black" d="M300.05,-548.98C375.55,-532.31 481.64,-507.46 498,-496 546.62,-461.95 573,-444.85 573,-385.5 573,-385.5 573,-385.5 573,-292.5 573,-196.97 452.39,-147.85 376.42,-126.39"/>
<polygon fill="black" stroke="black" points="377.58,-123.08 367.01,-123.82 375.74,-129.83 377.58,-123.08"/>
</g>
<!-- ops&#45;&gt;agent -->
<g id="edge16" class="edge">
<title>ops&#45;&gt;agent</title>
<path fill="none" stroke="black" d="M213.37,-545.57C190.66,-498.59 133.64,-380.65 106.63,-324.77"/>
<polygon fill="black" stroke="black" points="109.81,-323.3 102.31,-315.82 103.51,-326.35 109.81,-323.3"/>
</g>
</g>
</svg>
