<svg xmlns="http://www.w3.org/2000/svg" width="2200" height="1550" viewBox="0 0 2200 1550">
<rect width="100%" height="100%" fill="white"/>
<text x="1100.0" y="60" font-family="Microsoft YaHei, SimHei, sans-serif" font-size="34" text-anchor="middle" font-weight="bold">图5-1 EISCore核心数据实体关系图</text>
<line x1="270.0" y1="220.0" x2="435.0" y2="220.0" stroke="black" stroke-width="2"/>
<line x1="435.0" y1="220.0" x2="600.0" y2="220.0" stroke="black" stroke-width="2"/>
<line x1="600.0" y1="220.0" x2="765.0" y2="220.0" stroke="black" stroke-width="2"/>
<line x1="765.0" y1="220.0" x2="930.0" y2="220.0" stroke="black" stroke-width="2"/>
<line x1="600.0" y1="390.0" x2="765.0" y2="390.0" stroke="black" stroke-width="2"/>
<line x1="765.0" y1="390.0" x2="600.0" y2="220.0" stroke="black" stroke-width="2"/>
<line x1="270.0" y1="220.0" x2="170.0" y2="100.0" stroke="black" stroke-width="2"/>
<line x1="270.0" y1="220.0" x2="170.0" y2="310.0" stroke="black" stroke-width="2"/>
<line x1="600.0" y1="220.0" x2="550.0" y2="100.0" stroke="black" stroke-width="2"/>
<line x1="600.0" y1="220.0" x2="720.0" y2="100.0" stroke="black" stroke-width="2"/>
<line x1="930.0" y1="220.0" x2="970.0" y2="100.0" stroke="black" stroke-width="2"/>
<line x1="930.0" y1="220.0" x2="1120.0" y2="210.0" stroke="black" stroke-width="2"/>
<line x1="600.0" y1="390.0" x2="770.0" y2="500.0" stroke="black" stroke-width="2"/>
<line x1="270.0" y1="690.0" x2="435.0" y2="690.0" stroke="black" stroke-width="2"/>
<line x1="435.0" y1="690.0" x2="600.0" y2="690.0" stroke="black" stroke-width="2"/>
<line x1="930.0" y1="690.0" x2="765.0" y2="690.0" stroke="black" stroke-width="2"/>
<line x1="765.0" y1="690.0" x2="600.0" y2="690.0" stroke="black" stroke-width="2"/>
<line x1="600.0" y1="690.0" x2="1095.0" y2="690.0" stroke="black" stroke-width="2"/>
<line x1="1095.0" y1="690.0" x2="1260.0" y2="690.0" stroke="black" stroke-width="2"/>
<line x1="270.0" y1="690.0" x2="150.0" y2="570.0" stroke="black" stroke-width="2"/>
<line x1="270.0" y1="690.0" x2="150.0" y2="780.0" stroke="black" stroke-width="2"/>
<line x1="930.0" y1="690.0" x2="1040.0" y2="570.0" stroke="black" stroke-width="2"/>
<line x1="930.0" y1="690.0" x2="1040.0" y2="780.0" stroke="black" stroke-width="2"/>
<line x1="600.0" y1="690.0" x2="550.0" y2="570.0" stroke="black" stroke-width="2"/>
<line x1="600.0" y1="690.0" x2="720.0" y2="570.0" stroke="black" stroke-width="2"/>
<line x1="1260.0" y1="690.0" x2="1340.0" y2="570.0" stroke="black" stroke-width="2"/>
<line x1="1260.0" y1="690.0" x2="1340.0" y2="780.0" stroke="black" stroke-width="2"/>
<line x1="270.0" y1="1160.0" x2="435.0" y2="1160.0" stroke="black" stroke-width="2"/>
<line x1="435.0" y1="1160.0" x2="600.0" y2="1160.0" stroke="black" stroke-width="2"/>
<line x1="600.0" y1="1160.0" x2="765.0" y2="1160.0" stroke="black" stroke-width="2"/>
<line x1="765.0" y1="1160.0" x2="930.0" y2="1160.0" stroke="black" stroke-width="2"/>
<line x1="930.0" y1="1160.0" x2="1095.0" y2="1160.0" stroke="black" stroke-width="2"/>
<line x1="1095.0" y1="1160.0" x2="1260.0" y2="1160.0" stroke="black" stroke-width="2"/>
<line x1="930.0" y1="1160.0" x2="1425.0" y2="1160.0" stroke="black" stroke-width="2"/>
<line x1="1425.0" y1="1160.0" x2="1590.0" y2="1160.0" stroke="black" stroke-width="2"/>
<line x1="600.0" y1="1160.0" x2="550.0" y2="1040.0" stroke="black" stroke-width="2"/>
<line x1="600.0" y1="1160.0" x2="720.0" y2="1040.0" stroke="black" stroke-width="2"/>
<line x1="930.0" y1="1160.0" x2="970.0" y2="1040.0" stroke="black" stroke-width="2"/>
<line x1="1260.0" y1="1160.0" x2="1250.0" y2="1040.0" stroke="black" stroke-width="2"/>
<line x1="1590.0" y1="1160.0" x2="1580.0" y2="1040.0" stroke="black" stroke-width="2"/>
<rect x="180" y="180" width="180" height="80" rx="14" ry="14" fill="white" stroke="black" stroke-width="3"/>
<text x="270.0" y="229.0" font-family="Microsoft YaHei, SimHei, sans-serif" font-size="24" text-anchor="middle" font-weight="normal">部门</text>
<rect x="510" y="180" width="180" height="80" rx="14" ry="14" fill="white" stroke="black" stroke-width="3"/>
<text x="600.0" y="229.0" font-family="Microsoft YaHei, SimHei, sans-serif" font-size="24" text-anchor="middle" font-weight="normal">用户</text>
<rect x="840" y="180" width="180" height="80" rx="14" ry="14" fill="white" stroke="black" stroke-width="3"/>
<text x="930.0" y="229.0" font-family="Microsoft YaHei, SimHei, sans-serif" font-size="24" text-anchor="middle" font-weight="normal">角色</text>
<rect x="510" y="350" width="180" height="80" rx="14" ry="14" fill="white" stroke="black" stroke-width="3"/>
<text x="600.0" y="399.0" font-family="Microsoft YaHei, SimHei, sans-serif" font-size="24" text-anchor="middle" font-weight="normal">岗位</text>
<polygon points="435.0,180 490,220.0 435.0,260 380,220.0" fill="white" stroke="black" stroke-width="3"/>
<text x="435.0" y="227.5" font-family="Microsoft YaHei, SimHei, sans-serif" font-size="21" text-anchor="middle" font-weight="normal">归属</text>
<polygon points="765.0,180 820,220.0 765.0,260 710,220.0" fill="white" stroke="black" stroke-width="3"/>
<text x="765.0" y="227.5" font-family="Microsoft YaHei, SimHei, sans-serif" font-size="21" text-anchor="middle" font-weight="normal">拥有</text>
<polygon points="765.0,350 820,390.0 765.0,430 710,390.0" fill="white" stroke="black" stroke-width="3"/>
<text x="765.0" y="397.5" font-family="Microsoft YaHei, SimHei, sans-serif" font-size="21" text-anchor="middle" font-weight="normal">任职</text>
<rect x="180" y="650" width="180" height="80" rx="14" ry="14" fill="white" stroke="black" stroke-width="3"/>
<text x="270.0" y="699.0" font-family="Microsoft YaHei, SimHei, sans-serif" font-size="24" text-anchor="middle" font-weight="normal">物料</text>
<rect x="840" y="650" width="180" height="80" rx="14" ry="14" fill="white" stroke="black" stroke-width="3"/>
<text x="930.0" y="699.0" font-family="Microsoft YaHei, SimHei, sans-serif" font-size="24" text-anchor="middle" font-weight="normal">仓库</text>
<rect x="510" y="650" width="180" height="80" rx="14" ry="14" fill="white" stroke="black" stroke-width="3"/>
<text x="600.0" y="699.0" font-family="Microsoft YaHei, SimHei, sans-serif" font-size="24" text-anchor="middle" font-weight="normal">库存批次</text>
<rect x="1170" y="650" width="180" height="80" rx="14" ry="14" fill="white" stroke="black" stroke-width="3"/>
<text x="1260.0" y="699.0" font-family="Microsoft YaHei, SimHei, sans-serif" font-size="24" text-anchor="middle" font-weight="normal">库存流水</text>
<polygon points="435.0,650 490,690.0 435.0,730 380,690.0" fill="white" stroke="black" stroke-width="3"/>
<text x="435.0" y="697.5" font-family="Microsoft YaHei, SimHei, sans-serif" font-size="21" text-anchor="middle" font-weight="normal">存放</text>
<polygon points="765.0,650 820,690.0 765.0,730 710,690.0" fill="white" stroke="black" stroke-width="3"/>
<text x="765.0" y="697.5" font-family="Microsoft YaHei, SimHei, sans-serif" font-size="21" text-anchor="middle" font-weight="normal">形成</text>
<polygon points="1095.0,650 1150,690.0 1095.0,730 1040,690.0" fill="white" stroke="black" stroke-width="3"/>
<text x="1095.0" y="697.5" font-family="Microsoft YaHei, SimHei, sans-serif" font-size="21" text-anchor="middle" font-weight="normal">记录</text>
<rect x="180" y="1120" width="180" height="80" rx="14" ry="14" fill="white" stroke="black" stroke-width="3"/>
<text x="270.0" y="1169.0" font-family="Microsoft YaHei, SimHei, sans-serif" font-size="24" text-anchor="middle" font-weight="normal">应用分类</text>
<rect x="510" y="1120" width="180" height="80" rx="14" ry="14" fill="white" stroke="black" stroke-width="3"/>
<text x="600.0" y="1169.0" font-family="Microsoft YaHei, SimHei, sans-serif" font-size="24" text-anchor="middle" font-weight="normal">应用</text>
<rect x="840" y="1120" width="180" height="80" rx="14" ry="14" fill="white" stroke="black" stroke-width="3"/>
<text x="930.0" y="1169.0" font-family="Microsoft YaHei, SimHei, sans-serif" font-size="24" text-anchor="middle" font-weight="normal">流程定义</text>
<rect x="1170" y="1120" width="180" height="80" rx="14" ry="14" fill="white" stroke="black" stroke-width="3"/>
<text x="1260.0" y="1169.0" font-family="Microsoft YaHei, SimHei, sans-serif" font-size="24" text-anchor="middle" font-weight="normal">流程实例</text>
<rect x="1500" y="1120" width="180" height="80" rx="14" ry="14" fill="white" stroke="black" stroke-width="3"/>
<text x="1590.0" y="1169.0" font-family="Microsoft YaHei, SimHei, sans-serif" font-size="24" text-anchor="middle" font-weight="normal">状态映射</text>
<polygon points="435.0,1120 490,1160.0 435.0,1200 380,1160.0" fill="white" stroke="black" stroke-width="3"/>
<text x="435.0" y="1167.5" font-family="Microsoft YaHei, SimHei, sans-serif" font-size="21" text-anchor="middle" font-weight="normal">归类</text>
<polygon points="765.0,1120 820,1160.0 765.0,1200 710,1160.0" fill="white" stroke="black" stroke-width="3"/>
<text x="765.0" y="1167.5" font-family="Microsoft YaHei, SimHei, sans-serif" font-size="21" text-anchor="middle" font-weight="normal">绑定</text>
<polygon points="1095.0,1120 1150,1160.0 1095.0,1200 1040,1160.0" fill="white" stroke="black" stroke-width="3"/>
<text x="1095.0" y="1167.5" font-family="Microsoft YaHei, SimHei, sans-serif" font-size="21" text-anchor="middle" font-weight="normal">运行</text>
<polygon points="1425.0,1120 1480,1160.0 1425.0,1200 1370,1160.0" fill="white" stroke="black" stroke-width="3"/>
<text x="1425.0" y="1167.5" font-family="Microsoft YaHei, SimHei, sans-serif" font-size="21" text-anchor="middle" font-weight="normal">写回</text>
<ellipse cx="170.0" cy="100.0" rx="80.0" ry="30.0" fill="white" stroke="black" stroke-width="3"/>
<text x="170.0" y="107.5" font-family="Microsoft YaHei, SimHei, sans-serif" font-size="21" text-anchor="middle" font-weight="normal">部门名称</text>
<ellipse cx="170.0" cy="310.0" rx="80.0" ry="30.0" fill="white" stroke="black" stroke-width="3"/>
<text x="170.0" y="317.5" font-family="Microsoft YaHei, SimHei, sans-serif" font-size="21" text-anchor="middle" font-weight="normal">父部门</text>
<ellipse cx="550.0" cy="100.0" rx="80.0" ry="30.0" fill="white" stroke="black" stroke-width="3"/>
<text x="550.0" y="107.5" font-family="Microsoft YaHei, SimHei, sans-serif" font-size="21" text-anchor="middle" font-weight="normal">用户名</text>
<ellipse cx="720.0" cy="100.0" rx="80.0" ry="30.0" fill="white" stroke="black" stroke-width="3"/>
<text x="720.0" y="107.5" font-family="Microsoft YaHei, SimHei, sans-serif" font-size="21" text-anchor="middle" font-weight="normal">状态</text>
<ellipse cx="970.0" cy="100.0" rx="80.0" ry="30.0" fill="white" stroke="black" stroke-width="3"/>
<text x="970.0" y="107.5" font-family="Microsoft YaHei, SimHei, sans-serif" font-size="21" text-anchor="middle" font-weight="normal">角色编码</text>
<ellipse cx="1120.0" cy="210.0" rx="80.0" ry="30.0" fill="white" stroke="black" stroke-width="3"/>
<text x="1120.0" y="217.5" font-family="Microsoft YaHei, SimHei, sans-serif" font-size="21" text-anchor="middle" font-weight="normal">角色名称</text>
<ellipse cx="770.0" cy="500.0" rx="80.0" ry="30.0" fill="white" stroke="black" stroke-width="3"/>
<text x="770.0" y="507.5" font-family="Microsoft YaHei, SimHei, sans-serif" font-size="21" text-anchor="middle" font-weight="normal">岗位名称</text>
<ellipse cx="150.0" cy="570.0" rx="80.0" ry="30.0" fill="white" stroke="black" stroke-width="3"/>
<text x="150.0" y="577.5" font-family="Microsoft YaHei, SimHei, sans-serif" font-size="21" text-anchor="middle" font-weight="normal">物料名称</text>
<ellipse cx="150.0" cy="780.0" rx="80.0" ry="30.0" fill="white" stroke="black" stroke-width="3"/>
<text x="150.0" y="787.5" font-family="Microsoft YaHei, SimHei, sans-serif" font-size="21" text-anchor="middle" font-weight="normal">物料分类</text>
<ellipse cx="1040.0" cy="570.0" rx="80.0" ry="30.0" fill="white" stroke="black" stroke-width="3"/>
<text x="1040.0" y="577.5" font-family="Microsoft YaHei, SimHei, sans-serif" font-size="21" text-anchor="middle" font-weight="normal">仓库名称</text>
<ellipse cx="1040.0" cy="780.0" rx="80.0" ry="30.0" fill="white" stroke="black" stroke-width="3"/>
<text x="1040.0" y="787.5" font-family="Microsoft YaHei, SimHei, sans-serif" font-size="21" text-anchor="middle" font-weight="normal">层级</text>
<ellipse cx="550.0" cy="570.0" rx="80.0" ry="30.0" fill="white" stroke="black" stroke-width="3"/>
<text x="550.0" y="577.5" font-family="Microsoft YaHei, SimHei, sans-serif" font-size="21" text-anchor="middle" font-weight="normal">批次号</text>
<ellipse cx="720.0" cy="570.0" rx="80.0" ry="30.0" fill="white" stroke="black" stroke-width="3"/>
<text x="720.0" y="577.5" font-family="Microsoft YaHei, SimHei, sans-serif" font-size="21" text-anchor="middle" font-weight="normal">可用数量</text>
<ellipse cx="1340.0" cy="570.0" rx="80.0" ry="30.0" fill="white" stroke="black" stroke-width="3"/>
<text x="1340.0" y="577.5" font-family="Microsoft YaHei, SimHei, sans-serif" font-size="21" text-anchor="middle" font-weight="normal">事务类型</text>
<ellipse cx="1340.0" cy="780.0" rx="80.0" ry="30.0" fill="white" stroke="black" stroke-width="3"/>
<text x="1340.0" y="787.5" font-family="Microsoft YaHei, SimHei, sans-serif" font-size="21" text-anchor="middle" font-weight="normal">变动数量</text>
<ellipse cx="550.0" cy="1040.0" rx="80.0" ry="30.0" fill="white" stroke="black" stroke-width="3"/>
<text x="550.0" y="1047.5" font-family="Microsoft YaHei, SimHei, sans-serif" font-size="21" text-anchor="middle" font-weight="normal">应用名称</text>
<ellipse cx="720.0" cy="1040.0" rx="80.0" ry="30.0" fill="white" stroke="black" stroke-width="3"/>
<text x="720.0" y="1047.5" font-family="Microsoft YaHei, SimHei, sans-serif" font-size="21" text-anchor="middle" font-weight="normal">应用类型</text>
<ellipse cx="970.0" cy="1040.0" rx="80.0" ry="30.0" fill="white" stroke="black" stroke-width="3"/>
<text x="970.0" y="1047.5" font-family="Microsoft YaHei, SimHei, sans-serif" font-size="21" text-anchor="middle" font-weight="normal">流程名称</text>
<ellipse cx="1250.0" cy="1040.0" rx="80.0" ry="30.0" fill="white" stroke="black" stroke-width="3"/>
<text x="1250.0" y="1047.5" font-family="Microsoft YaHei, SimHei, sans-serif" font-size="21" text-anchor="middle" font-weight="normal">实例状态</text>
<ellipse cx="1580.0" cy="1040.0" rx="80.0" ry="30.0" fill="white" stroke="black" stroke-width="3"/>
<text x="1580.0" y="1047.5" font-family="Microsoft YaHei, SimHei, sans-serif" font-size="21" text-anchor="middle" font-weight="normal">状态字段</text>
<text x="600" y="110" font-family="Microsoft YaHei, SimHei, sans-serif" font-size="21" text-anchor="middle" font-weight="normal">组织与权限主线</text>
<text x="770" y="580" font-family="Microsoft YaHei, SimHei, sans-serif" font-size="21" text-anchor="middle" font-weight="normal">物料与仓储主线</text>
<text x="940" y="1050" font-family="Microsoft YaHei, SimHei, sans-serif" font-size="21" text-anchor="middle" font-weight="normal">应用与流程主线</text>
</svg>