<?plantuml 1.2026.1?><svg xmlns="http://www.w3.org/2000/svg" xmlns:xlink="http://www.w3.org/1999/xlink" contentStyleType="text/css" data-diagram-type="SEQUENCE" height="818px" preserveAspectRatio="none" style="width:2076px;height:818px;background:#FFFFFF;" version="1.1" viewBox="0 0 2076 818" width="2076px" zoomAndPan="magnify"><title>&#22270;6-3 &#27969;&#31243;&#21551;&#21160;&#19982;&#29366;&#24577;&#20889;&#22238;&#26102;&#24207;&#22270;</title><defs/><g><text fill="#000000" font-family="sans-serif" font-size="14" font-weight="bold" lengthAdjust="spacing" textLength="212.1662" x="933.2495" y="27.9951">&#22270;6-3 &#27969;&#31243;&#21551;&#21160;&#19982;&#29366;&#24577;&#20889;&#22238;&#26102;&#24207;&#22270;</text><rect fill="none" height="265" style="stroke:#000000;stroke-width:1.5;" width="1964.6434" x="105.0218" y="456.0547"/><g class="participant-lifeline" data-entity-uid="part1" data-qualified-name=".." id="part1-lifeline"><g><title>..</title><rect fill="#000000" fill-opacity="0.00000" height="619.4609" width="8" x="17.9999" y="118.5938"/><line style="stroke:#181818;stroke-width:0.5;stroke-dasharray:5,5;" x1="21" x2="21" y1="118.5938" y2="738.0547"/></g></g><g class="participant-lifeline" data-entity-uid="part2" data-qualified-name="Page" id="part2-lifeline"><g><title>.........</title><rect fill="#000000" fill-opacity="0.00000" height="619.4609" width="8" x="176.38" y="118.5938"/><line style="stroke:#181818;stroke-width:0.5;stroke-dasharray:5,5;" x1="180.0218" x2="180.0218" y1="118.5938" y2="738.0547"/></g></g><g class="participant-lifeline" data-entity-uid="part3" data-qualified-name="Api" id="part3-lifeline"><g><title>PostgREST</title><rect fill="#000000" fill-opacity="0.00000" height="619.4609" width="8" x="518.8863" y="118.5938"/><line style="stroke:#181818;stroke-width:0.5;stroke-dasharray:5,5;" x1="522.5416" x2="522.5416" y1="118.5938" y2="738.0547"/></g></g><g class="participant-lifeline" data-entity-uid="part4" data-qualified-name="StartFn" id="part4-lifeline"><g><title>workflow.start_workflow_instance</title><rect fill="#000000" fill-opacity="0.00000" height="619.4609" width="8" x="698.127" y="118.5938"/><line style="stroke:#181818;stroke-width:0.5;stroke-dasharray:5,5;" x1="701.231" x2="701.231" y1="118.5938" y2="738.0547"/></g></g><g class="participant-lifeline" data-entity-uid="part5" data-qualified-name="TransitionFn" id="part5-lifeline"><g><title>workflow.transition_workflow_instance</title><rect fill="#000000" fill-opacity="0.00000" height="619.4609" width="8" x="974.9644" y="118.5938"/><line style="stroke:#181818;stroke-width:0.5;stroke-dasharray:5,5;" x1="978.023" x2="978.023" y1="118.5938" y2="738.0547"/></g></g><g class="participant-lifeline" data-entity-uid="part6" data-qualified-name="CheckFn" id="part6-lifeline"><g><title>workflow.can_execute_task</title><rect fill="#000000" fill-opacity="0.00000" height="619.4609" width="8" x="1229.8893" y="118.5938"/><line style="stroke:#181818;stroke-width:0.5;stroke-dasharray:5,5;" x1="1232.9059" x2="1232.9059" y1="118.5938" y2="738.0547"/></g></g><g class="participant-lifeline" data-entity-uid="part7" data-qualified-name="Instances" id="part7-lifeline"><g><title>workflow.instances</title><rect fill="#000000" fill-opacity="0.00000" height="619.4609" width="8" x="1412.7555" y="118.5938"/><line style="stroke:#181818;stroke-width:0.5;stroke-dasharray:5,5;" x1="1415.8727" x2="1415.8727" y1="118.5938" y2="738.0547"/></g></g><g class="participant-lifeline" data-entity-uid="part8" data-qualified-name="Approvals" id="part8-lifeline"><g><title>workflow.task_approvals</title><rect fill="#000000" fill-opacity="0.00000" height="619.4609" width="8" x="1581.8155" y="118.5938"/><line style="stroke:#181818;stroke-width:0.5;stroke-dasharray:5,5;" x1="1585.6383" x2="1585.6383" y1="118.5938" y2="738.0547"/></g></g><g class="participant-lifeline" data-entity-uid="part9" data-qualified-name="Mappings" id="part9-lifeline"><g><title>app_center.workflow_state_mappings</title><rect fill="#000000" fill-opacity="0.00000" height="619.4609" width="8" x="1815.9708" y="118.5938"/><line style="stroke:#181818;stroke-width:0.5;stroke-dasharray:5,5;" x1="1818.9928" x2="1818.9928" y1="118.5938" y2="738.0547"/></g></g><g class="participant-lifeline" data-entity-uid="part10" data-qualified-name="Biz" id="part10-lifeline"><g><title>.......</title><rect fill="#000000" fill-opacity="0.00000" height="619.4609" width="8" x="2008.307" y="118.5938"/><line style="stroke:#181818;stroke-width:0.5;stroke-dasharray:5,5;" x1="2011.9488" x2="2011.9488" y1="118.5938" y2="738.0547"/></g></g><g class="participant participant-head" data-entity-uid="part1" data-qualified-name=".." id="part1-head"><text fill="#000000" font-family="sans-serif" font-size="14" lengthAdjust="spacing" textLength="27.9999" x="5" y="115.292">&#29992;&#25143;</text><ellipse cx="21.9999" cy="50.7969" fill="#E2E2F0" rx="8" ry="8" style="stroke:#181818;stroke-width:0.5;"/><path d="M21.9999,58.7969 L21.9999,85.7969 M8.9999,66.7969 L34.9999,66.7969 M21.9999,85.7969 L8.9999,100.7969 M21.9999,85.7969 L34.9999,100.7969" fill="none" style="stroke:#181818;stroke-width:0.5;"/></g><g class="participant participant-tail" data-entity-uid="part1" data-qualified-name=".." id="part1-tail"><text fill="#000000" font-family="sans-serif" font-size="14" lengthAdjust="spacing" textLength="27.9999" x="5" y="750.0498">&#29992;&#25143;</text><ellipse cx="21.9999" cy="761.8516" fill="#E2E2F0" rx="8" ry="8" style="stroke:#181818;stroke-width:0.5;"/><path d="M21.9999,769.8516 L21.9999,796.8516 M8.9999,777.8516 L34.9999,777.8516 M21.9999,796.8516 L8.9999,811.8516 M21.9999,796.8516 L34.9999,811.8516" fill="none" style="stroke:#181818;stroke-width:0.5;"/></g><g class="participant participant-head" data-entity-uid="part2" data-qualified-name="Page" id="part2-head"><rect fill="#E2E2F0" height="30.2969" rx="2.5" ry="2.5" style="stroke:#181818;stroke-width:0.5;" width="130.7163" x="115.0218" y="87.2969"/><text fill="#000000" font-family="sans-serif" font-size="14" lengthAdjust="spacing" textLength="116.7163" x="122.0218" y="107.292">&#19994;&#21153;&#39029;&#38754;/&#23457;&#25209;&#20013;&#24515;</text></g><g class="participant participant-tail" data-entity-uid="part2" data-qualified-name="Page" id="part2-tail"><rect fill="#E2E2F0" height="30.2969" rx="2.5" ry="2.5" style="stroke:#181818;stroke-width:0.5;" width="130.7163" x="115.0218" y="737.0547"/><text fill="#000000" font-family="sans-serif" font-size="14" lengthAdjust="spacing" textLength="116.7163" x="122.0218" y="757.0498">&#19994;&#21153;&#39029;&#38754;/&#23457;&#25209;&#20013;&#24515;</text></g><g class="participant participant-head" data-entity-uid="part3" data-qualified-name="Api" id="part3-head"><rect fill="#E2E2F0" height="30.2969" rx="2.5" ry="2.5" style="stroke:#181818;stroke-width:0.5;" width="88.6895" x="478.5416" y="87.2969"/><text fill="#000000" font-family="sans-serif" font-size="14" lengthAdjust="spacing" textLength="74.6895" x="485.5416" y="107.292">PostgREST</text></g><g class="participant participant-tail" data-entity-uid="part3" data-qualified-name="Api" id="part3-tail"><rect fill="#E2E2F0" height="30.2969" rx="2.5" ry="2.5" style="stroke:#181818;stroke-width:0.5;" width="88.6895" x="478.5416" y="737.0547"/><text fill="#000000" font-family="sans-serif" font-size="14" lengthAdjust="spacing" textLength="74.6895" x="485.5416" y="757.0498">PostgREST</text></g><g class="participant participant-head" data-entity-uid="part4" data-qualified-name="StartFn" id="part4-head"><rect fill="#E2E2F0" height="30.2969" rx="2.5" ry="2.5" style="stroke:#181818;stroke-width:0.5;" width="249.792" x="577.231" y="87.2969"/><text fill="#000000" font-family="sans-serif" font-size="14" lengthAdjust="spacing" textLength="235.792" x="584.231" y="107.292">workflow.start_workflow_instance</text></g><g class="participant participant-tail" data-entity-uid="part4" data-qualified-name="StartFn" id="part4-tail"><rect fill="#E2E2F0" height="30.2969" rx="2.5" ry="2.5" style="stroke:#181818;stroke-width:0.5;" width="249.792" x="577.231" y="737.0547"/><text fill="#000000" font-family="sans-serif" font-size="14" lengthAdjust="spacing" textLength="235.792" x="584.231" y="757.0498">workflow.start_workflow_instance</text></g><g class="participant participant-head" data-entity-uid="part5" data-qualified-name="TransitionFn" id="part5-head"><rect fill="#E2E2F0" height="30.2969" rx="2.5" ry="2.5" style="stroke:#181818;stroke-width:0.5;" width="283.8828" x="837.023" y="87.2969"/><text fill="#000000" font-family="sans-serif" font-size="14" lengthAdjust="spacing" textLength="269.8828" x="844.023" y="107.292">workflow.transition_workflow_instance</text></g><g class="participant participant-tail" data-entity-uid="part5" data-qualified-name="TransitionFn" id="part5-tail"><rect fill="#E2E2F0" height="30.2969" rx="2.5" ry="2.5" style="stroke:#181818;stroke-width:0.5;" width="283.8828" x="837.023" y="737.0547"/><text fill="#000000" font-family="sans-serif" font-size="14" lengthAdjust="spacing" textLength="269.8828" x="844.023" y="757.0498">workflow.transition_workflow_instance</text></g><g class="participant participant-head" data-entity-uid="part6" data-qualified-name="CheckFn" id="part6-head"><rect fill="#E2E2F0" height="30.2969" rx="2.5" ry="2.5" style="stroke:#181818;stroke-width:0.5;" width="205.9668" x="1130.9059" y="87.2969"/><text fill="#000000" font-family="sans-serif" font-size="14" lengthAdjust="spacing" textLength="191.9668" x="1137.9059" y="107.292">workflow.can_execute_task</text></g><g class="participant participant-tail" data-entity-uid="part6" data-qualified-name="CheckFn" id="part6-tail"><rect fill="#E2E2F0" height="30.2969" rx="2.5" ry="2.5" style="stroke:#181818;stroke-width:0.5;" width="205.9668" x="1130.9059" y="737.0547"/><text fill="#000000" font-family="sans-serif" font-size="14" lengthAdjust="spacing" textLength="191.9668" x="1137.9059" y="757.0498">workflow.can_execute_task</text></g><g class="participant participant-head" data-entity-uid="part7" data-qualified-name="Instances" id="part7-head"><text fill="#000000" font-family="sans-serif" font-size="14" lengthAdjust="spacing" textLength="133.7656" x="1346.8727" y="115.292">workflow.instances</text><path d="M1398.7555,66.2969 C1398.7555,56.2969 1416.7555,56.2969 1416.7555,56.2969 C1416.7555,56.2969 1434.7555,56.2969 1434.7555,66.2969 L1434.7555,92.2969 C1434.7555,102.2969 1416.7555,102.2969 1416.7555,102.2969 C1416.7555,102.2969 1398.7555,102.2969 1398.7555,92.2969 L1398.7555,66.2969" fill="#E2E2F0" style="stroke:#181818;stroke-width:0.5;"/><path d="M1398.7555,66.2969 C1398.7555,76.2969 1416.7555,76.2969 1416.7555,76.2969 C1416.7555,76.2969 1434.7555,76.2969 1434.7555,66.2969" fill="none" style="stroke:#181818;stroke-width:0.5;"/></g><g class="participant participant-tail" data-entity-uid="part7" data-qualified-name="Instances" id="part7-tail"><text fill="#000000" font-family="sans-serif" font-size="14" lengthAdjust="spacing" textLength="133.7656" x="1346.8727" y="750.0498">workflow.instances</text><path d="M1398.7555,763.3516 C1398.7555,753.3516 1416.7555,753.3516 1416.7555,753.3516 C1416.7555,753.3516 1434.7555,753.3516 1434.7555,763.3516 L1434.7555,789.3516 C1434.7555,799.3516 1416.7555,799.3516 1416.7555,799.3516 C1416.7555,799.3516 1398.7555,799.3516 1398.7555,789.3516 L1398.7555,763.3516" fill="#E2E2F0" style="stroke:#181818;stroke-width:0.5;"/><path d="M1398.7555,763.3516 C1398.7555,773.3516 1416.7555,773.3516 1416.7555,773.3516 C1416.7555,773.3516 1434.7555,773.3516 1434.7555,763.3516" fill="none" style="stroke:#181818;stroke-width:0.5;"/></g><g class="participant participant-head" data-entity-uid="part8" data-qualified-name="Approvals" id="part8-head"><text fill="#000000" font-family="sans-serif" font-size="14" lengthAdjust="spacing" textLength="172.3545" x="1496.6383" y="115.292">workflow.task_approvals</text><path d="M1567.8155,66.2969 C1567.8155,56.2969 1585.8155,56.2969 1585.8155,56.2969 C1585.8155,56.2969 1603.8155,56.2969 1603.8155,66.2969 L1603.8155,92.2969 C1603.8155,102.2969 1585.8155,102.2969 1585.8155,102.2969 C1585.8155,102.2969 1567.8155,102.2969 1567.8155,92.2969 L1567.8155,66.2969" fill="#E2E2F0" style="stroke:#181818;stroke-width:0.5;"/><path d="M1567.8155,66.2969 C1567.8155,76.2969 1585.8155,76.2969 1585.8155,76.2969 C1585.8155,76.2969 1603.8155,76.2969 1603.8155,66.2969" fill="none" style="stroke:#181818;stroke-width:0.5;"/></g><g class="participant participant-tail" data-entity-uid="part8" data-qualified-name="Approvals" id="part8-tail"><text fill="#000000" font-family="sans-serif" font-size="14" lengthAdjust="spacing" textLength="172.3545" x="1496.6383" y="750.0498">workflow.task_approvals</text><path d="M1567.8155,763.3516 C1567.8155,753.3516 1585.8155,753.3516 1585.8155,753.3516 C1585.8155,753.3516 1603.8155,753.3516 1603.8155,763.3516 L1603.8155,789.3516 C1603.8155,799.3516 1585.8155,799.3516 1585.8155,799.3516 C1585.8155,799.3516 1567.8155,799.3516 1567.8155,789.3516 L1567.8155,763.3516" fill="#E2E2F0" style="stroke:#181818;stroke-width:0.5;"/><path d="M1567.8155,763.3516 C1567.8155,773.3516 1585.8155,773.3516 1585.8155,773.3516 C1585.8155,773.3516 1603.8155,773.3516 1603.8155,763.3516" fill="none" style="stroke:#181818;stroke-width:0.5;"/></g><g class="participant participant-head" data-entity-uid="part9" data-qualified-name="Mappings" id="part9-head"><text fill="#000000" font-family="sans-serif" font-size="14" lengthAdjust="spacing" textLength="263.9561" x="1684.9928" y="115.292">app_center.workflow_state_mappings</text><path d="M1801.9708,66.2969 C1801.9708,56.2969 1819.9708,56.2969 1819.9708,56.2969 C1819.9708,56.2969 1837.9708,56.2969 1837.9708,66.2969 L1837.9708,92.2969 C1837.9708,102.2969 1819.9708,102.2969 1819.9708,102.2969 C1819.9708,102.2969 1801.9708,102.2969 1801.9708,92.2969 L1801.9708,66.2969" fill="#E2E2F0" style="stroke:#181818;stroke-width:0.5;"/><path d="M1801.9708,66.2969 C1801.9708,76.2969 1819.9708,76.2969 1819.9708,76.2969 C1819.9708,76.2969 1837.9708,76.2969 1837.9708,66.2969" fill="none" style="stroke:#181818;stroke-width:0.5;"/></g><g class="participant participant-tail" data-entity-uid="part9" data-qualified-name="Mappings" id="part9-tail"><text fill="#000000" font-family="sans-serif" font-size="14" lengthAdjust="spacing" textLength="263.9561" x="1684.9928" y="750.0498">app_center.workflow_state_mappings</text><path d="M1801.9708,763.3516 C1801.9708,753.3516 1819.9708,753.3516 1819.9708,753.3516 C1819.9708,753.3516 1837.9708,753.3516 1837.9708,763.3516 L1837.9708,789.3516 C1837.9708,799.3516 1819.9708,799.3516 1819.9708,799.3516 C1819.9708,799.3516 1801.9708,799.3516 1801.9708,789.3516 L1801.9708,763.3516" fill="#E2E2F0" style="stroke:#181818;stroke-width:0.5;"/><path d="M1801.9708,763.3516 C1801.9708,773.3516 1819.9708,773.3516 1819.9708,773.3516 C1819.9708,773.3516 1837.9708,773.3516 1837.9708,763.3516" fill="none" style="stroke:#181818;stroke-width:0.5;"/></g><g class="participant participant-head" data-entity-uid="part10" data-qualified-name="Biz" id="part10-head"><text fill="#000000" font-family="sans-serif" font-size="14" lengthAdjust="spacing" textLength="88.7164" x="1964.9488" y="115.292">&#19994;&#21153;&#34920;/&#33609;&#31295;&#34920;</text><path d="M1994.307,66.2969 C1994.307,56.2969 2012.307,56.2969 2012.307,56.2969 C2012.307,56.2969 2030.307,56.2969 2030.307,66.2969 L2030.307,92.2969 C2030.307,102.2969 2012.307,102.2969 2012.307,102.2969 C2012.307,102.2969 1994.307,102.2969 1994.307,92.2969 L1994.307,66.2969" fill="#E2E2F0" style="stroke:#181818;stroke-width:0.5;"/><path d="M1994.307,66.2969 C1994.307,76.2969 2012.307,76.2969 2012.307,76.2969 C2012.307,76.2969 2030.307,76.2969 2030.307,66.2969" fill="none" style="stroke:#181818;stroke-width:0.5;"/></g><g class="participant participant-tail" data-entity-uid="part10" data-qualified-name="Biz" id="part10-tail"><text fill="#000000" font-family="sans-serif" font-size="14" lengthAdjust="spacing" textLength="88.7164" x="1964.9488" y="750.0498">&#19994;&#21153;&#34920;/&#33609;&#31295;&#34920;</text><path d="M1994.307,763.3516 C1994.307,753.3516 2012.307,753.3516 2012.307,753.3516 C2012.307,753.3516 2030.307,753.3516 2030.307,763.3516 L2030.307,789.3516 C2030.307,799.3516 2012.307,799.3516 2012.307,799.3516 C2012.307,799.3516 1994.307,799.3516 1994.307,789.3516 L1994.307,763.3516" fill="#E2E2F0" style="stroke:#181818;stroke-width:0.5;"/><path d="M1994.307,763.3516 C1994.307,773.3516 2012.307,773.3516 2012.307,773.3516 C2012.307,773.3516 2030.307,773.3516 2030.307,763.3516" fill="none" style="stroke:#181818;stroke-width:0.5;"/></g><g class="message" data-entity-1="part1" data-entity-2="part2" id="msg1"><polygon fill="#181818" points="168.38,145.7266,178.38,149.7266,168.38,153.7266,172.38,149.7266" style="stroke:#181818;stroke-width:1;"/><line style="stroke:#181818;stroke-width:1;" x1="21.9999" x2="174.38" y1="149.7266" y2="149.7266"/><text fill="#000000" font-family="sans-serif" font-size="13" lengthAdjust="spacing" textLength="117.0001" x="28.9999" y="144.6606">&#21457;&#36215;&#27969;&#31243;&#25110;&#25191;&#34892;&#23457;&#25209;</text></g><g class="message" data-entity-1="part2" data-entity-2="part3" id="msg2"><polygon fill="#181818" points="510.8863,174.8594,520.8863,178.8594,510.8863,182.8594,514.8863,178.8594" style="stroke:#181818;stroke-width:1;"/><line style="stroke:#181818;stroke-width:1;" x1="180.38" x2="516.8863" y1="178.8594" y2="178.8594"/><text fill="#000000" font-family="sans-serif" font-size="13" lengthAdjust="spacing" textLength="286.8506" x="187.38" y="173.7935">POST /rpc/workflow.start_workflow_instance</text></g><g class="message" data-entity-1="part3" data-entity-2="part4" id="msg3"><polygon fill="#181818" points="690.127,203.9922,700.127,207.9922,690.127,211.9922,694.127,207.9922" style="stroke:#181818;stroke-width:1;"/><line style="stroke:#181818;stroke-width:1;" x1="522.8863" x2="696.127" y1="207.9922" y2="207.9922"/><text fill="#000000" font-family="sans-serif" font-size="13" lengthAdjust="spacing" textLength="78.0001" x="529.8863" y="202.9263">&#21019;&#24314;&#27969;&#31243;&#23454;&#20363;</text></g><g class="message" data-entity-1="part4" data-entity-2="part7" id="msg4"><polygon fill="#181818" points="1404.7555,233.125,1414.7555,237.125,1404.7555,241.125,1408.7555,237.125" style="stroke:#181818;stroke-width:1;"/><line style="stroke:#181818;stroke-width:1;" x1="702.127" x2="1410.7555" y1="237.125" y2="237.125"/><text fill="#000000" font-family="sans-serif" font-size="13" lengthAdjust="spacing" textLength="104.0001" x="709.127" y="232.0591">&#20889;&#20837;&#21021;&#22987;&#23454;&#20363;&#29366;&#24577;</text></g><g class="message" data-entity-1="part4" data-entity-2="part3" id="msg5"><polygon fill="#181818" points="533.8863,262.2578,523.8863,266.2578,533.8863,270.2578,529.8863,266.2578" style="stroke:#181818;stroke-width:1;"/><line style="stroke:#181818;stroke-width:1;stroke-dasharray:2,2;" x1="527.8863" x2="701.127" y1="266.2578" y2="266.2578"/><text fill="#000000" font-family="sans-serif" font-size="13" lengthAdjust="spacing" textLength="78.0001" x="539.8863" y="261.1919">&#36820;&#22238;&#23454;&#20363;&#32534;&#21495;</text></g><g class="message" data-entity-1="part3" data-entity-2="part2" id="msg6"><polygon fill="#181818" points="191.38,291.3906,181.38,295.3906,191.38,299.3906,187.38,295.3906" style="stroke:#181818;stroke-width:1;"/><line style="stroke:#181818;stroke-width:1;stroke-dasharray:2,2;" x1="185.38" x2="521.8863" y1="295.3906" y2="295.3906"/><text fill="#000000" font-family="sans-serif" font-size="13" lengthAdjust="spacing" textLength="78.0001" x="197.38" y="290.3247">&#36820;&#22238;&#27969;&#31243;&#23454;&#20363;</text></g><g class="message" data-entity-1="part1" data-entity-2="part2" id="msg7"><polygon fill="#181818" points="168.38,320.5234,178.38,324.5234,168.38,328.5234,172.38,324.5234" style="stroke:#181818;stroke-width:1;"/><line style="stroke:#181818;stroke-width:1;" x1="21.9999" x2="174.38" y1="324.5234" y2="324.5234"/><text fill="#000000" font-family="sans-serif" font-size="13" lengthAdjust="spacing" textLength="134.38" x="28.9999" y="319.4575">&#25552;&#20132;&#23457;&#25209;&#24847;&#35265;/&#19979;&#19968;&#33410;&#28857;</text></g><g class="message" data-entity-1="part2" data-entity-2="part3" id="msg8"><polygon fill="#181818" points="510.8863,349.6563,520.8863,353.6563,510.8863,357.6563,514.8863,353.6563" style="stroke:#181818;stroke-width:1;"/><line style="stroke:#181818;stroke-width:1;" x1="180.38" x2="516.8863" y1="353.6563" y2="353.6563"/><text fill="#000000" font-family="sans-serif" font-size="13" lengthAdjust="spacing" textLength="318.5063" x="187.38" y="348.5903">POST /rpc/workflow.transition_workflow_instance</text></g><g class="message" data-entity-1="part3" data-entity-2="part5" id="msg9"><polygon fill="#181818" points="966.9644,378.7891,976.9644,382.7891,966.9644,386.7891,970.9644,382.7891" style="stroke:#181818;stroke-width:1;"/><line style="stroke:#181818;stroke-width:1;" x1="522.8863" x2="972.9644" y1="382.7891" y2="382.7891"/><text fill="#000000" font-family="sans-serif" font-size="13" lengthAdjust="spacing" textLength="78.0001" x="529.8863" y="377.7231">&#25512;&#36827;&#27969;&#31243;&#23454;&#20363;</text></g><g class="message" data-entity-1="part5" data-entity-2="part6" id="msg10"><polygon fill="#181818" points="1221.8893,407.9219,1231.8893,411.9219,1221.8893,415.9219,1225.8893,411.9219" style="stroke:#181818;stroke-width:1;"/><line style="stroke:#181818;stroke-width:1;" x1="978.9644" x2="1227.8893" y1="411.9219" y2="411.9219"/><text fill="#000000" font-family="sans-serif" font-size="13" lengthAdjust="spacing" textLength="169.0002" x="985.9644" y="406.856">&#26657;&#39564;&#24403;&#21069;&#29992;&#25143;&#26159;&#21542;&#21487;&#25191;&#34892;&#20219;&#21153;</text></g><g class="message" data-entity-1="part6" data-entity-2="part5" id="msg11"><polygon fill="#181818" points="989.9644,437.0547,979.9644,441.0547,989.9644,445.0547,985.9644,441.0547" style="stroke:#181818;stroke-width:1;"/><line style="stroke:#181818;stroke-width:1;stroke-dasharray:2,2;" x1="983.9644" x2="1232.8893" y1="441.0547" y2="441.0547"/><text fill="#000000" font-family="sans-serif" font-size="13" lengthAdjust="spacing" textLength="92.1172" x="995.9644" y="435.9888">&#36820;&#22238; true/false</text></g><path d="M105.0218,456.0547 L169.4647,456.0547 L169.4647,463.1875 L159.4647,473.1875 L105.0218,473.1875 L105.0218,456.0547" fill="#EEEEEE" style="stroke:#000000;stroke-width:1.5;"/><rect fill="none" height="265" style="stroke:#000000;stroke-width:1.5;" width="1964.6434" x="105.0218" y="456.0547"/><text fill="#000000" font-family="sans-serif" font-size="13" font-weight="bold" lengthAdjust="spacing" textLength="19.4429" x="120.0218" y="469.1216">alt</text><text fill="#000000" font-family="sans-serif" font-size="11" font-weight="bold" lengthAdjust="spacing" textLength="65.0543" x="184.4647" y="468.2651">[&#26080;&#25191;&#34892;&#26435;&#38480;]</text><g class="message" data-entity-1="part5" data-entity-2="part3" id="msg12"><polygon fill="#181818" points="533.8863,490.3203,523.8863,494.3203,533.8863,498.3203,529.8863,494.3203" style="stroke:#181818;stroke-width:1;"/><line style="stroke:#181818;stroke-width:1;stroke-dasharray:2,2;" x1="527.8863" x2="977.9644" y1="494.3203" y2="494.3203"/><text fill="#000000" font-family="sans-serif" font-size="13" lengthAdjust="spacing" textLength="78.0001" x="539.8863" y="489.2544">&#36820;&#22238;&#26435;&#38480;&#24322;&#24120;</text></g><g class="message" data-entity-1="part3" data-entity-2="part2" id="msg13"><polygon fill="#181818" points="191.38,519.4531,181.38,523.4531,191.38,527.4531,187.38,523.4531" style="stroke:#181818;stroke-width:1;"/><line style="stroke:#181818;stroke-width:1;stroke-dasharray:2,2;" x1="185.38" x2="521.8863" y1="523.4531" y2="523.4531"/><text fill="#000000" font-family="sans-serif" font-size="13" lengthAdjust="spacing" textLength="78.0001" x="197.38" y="518.3872">&#25552;&#31034;&#26080;&#26435;&#23457;&#25209;</text></g><line style="stroke:#000000;stroke-width:1;stroke-dasharray:2,2;" x1="105.0218" x2="2069.6653" y1="532.4531" y2="532.4531"/><text fill="#000000" font-family="sans-serif" font-size="11" font-weight="bold" lengthAdjust="spacing" textLength="54.0544" x="110.0218" y="542.6636">[&#20801;&#35768;&#25512;&#36827;]</text><g class="message" data-entity-1="part5" data-entity-2="part7" id="msg14"><polygon fill="#181818" points="1404.7555,563.3906,1414.7555,567.3906,1404.7555,571.3906,1408.7555,567.3906" style="stroke:#181818;stroke-width:1;"/><line style="stroke:#181818;stroke-width:1;" x1="978.9644" x2="1410.7555" y1="567.3906" y2="567.3906"/><text fill="#000000" font-family="sans-serif" font-size="13" lengthAdjust="spacing" textLength="174.0972" x="985.9644" y="562.3247">&#26356;&#26032; current_task_id/status</text></g><g class="message" data-entity-1="part5" data-entity-2="part8" id="msg15"><polygon fill="#181818" points="1573.8155,592.5234,1583.8155,596.5234,1573.8155,600.5234,1577.8155,596.5234" style="stroke:#181818;stroke-width:1;"/><line style="stroke:#181818;stroke-width:1;" x1="978.9644" x2="1579.8155" y1="596.5234" y2="596.5234"/><text fill="#000000" font-family="sans-serif" font-size="13" lengthAdjust="spacing" textLength="78.0001" x="985.9644" y="591.4575">&#20889;&#20837;&#23457;&#25209;&#35760;&#24405;</text></g><g class="message" data-entity-1="part5" data-entity-2="part9" id="msg16"><polygon fill="#181818" points="1807.9708,621.6563,1817.9708,625.6563,1807.9708,629.6563,1811.9708,625.6563" style="stroke:#181818;stroke-width:1;"/><line style="stroke:#181818;stroke-width:1;" x1="978.9644" x2="1813.9708" y1="625.6563" y2="625.6563"/><text fill="#000000" font-family="sans-serif" font-size="13" lengthAdjust="spacing" textLength="156.0002" x="985.9644" y="620.5903">&#35835;&#21462;&#33410;&#28857;&#21040;&#19994;&#21153;&#29366;&#24577;&#30340;&#26144;&#23556;</text></g><g class="message" data-entity-1="part5" data-entity-2="part10" id="msg17"><polygon fill="#181818" points="2000.307,650.7891,2010.307,654.7891,2000.307,658.7891,2004.307,654.7891" style="stroke:#181818;stroke-width:1;"/><line style="stroke:#181818;stroke-width:1;" x1="978.9644" x2="2006.307" y1="654.7891" y2="654.7891"/><text fill="#000000" font-family="sans-serif" font-size="13" lengthAdjust="spacing" textLength="104.0001" x="985.9644" y="649.7231">&#22238;&#20889;&#19994;&#21153;&#29366;&#24577;&#23383;&#27573;</text></g><g class="message" data-entity-1="part5" data-entity-2="part3" id="msg18"><polygon fill="#181818" points="533.8863,679.9219,523.8863,683.9219,533.8863,687.9219,529.8863,683.9219" style="stroke:#181818;stroke-width:1;"/><line style="stroke:#181818;stroke-width:1;stroke-dasharray:2,2;" x1="527.8863" x2="977.9644" y1="683.9219" y2="683.9219"/><text fill="#000000" font-family="sans-serif" font-size="13" lengthAdjust="spacing" textLength="104.0001" x="539.8863" y="678.856">&#36820;&#22238;&#26356;&#26032;&#21518;&#30340;&#23454;&#20363;</text></g><g class="message" data-entity-1="part3" data-entity-2="part2" id="msg19"><polygon fill="#181818" points="191.38,709.0547,181.38,713.0547,191.38,717.0547,187.38,713.0547" style="stroke:#181818;stroke-width:1;"/><line style="stroke:#181818;stroke-width:1;stroke-dasharray:2,2;" x1="185.38" x2="521.8863" y1="713.0547" y2="713.0547"/><text fill="#000000" font-family="sans-serif" font-size="13" lengthAdjust="spacing" textLength="78.0001" x="197.38" y="707.9888">&#36820;&#22238;&#23457;&#25209;&#32467;&#26524;</text></g><?plantuml-src ZLFBRjD05DtxAqRTjruWiM2110Wa5eY8P6yDxhHO3KvaJoXYrVIb97qug6tw2AaIL6Y4r2GBqfYaRNx6T-py1MEFdURHKdOUttFkwvnBDPea2CetZsSV8TREklKjA3QXK7ViNRTmoLQoi7aCvLDsU0bTY-Ca2QiqPI1tlyvo7IcD3QgfMXhh5CquzWaKQeDQUr3vBaEZnl9_7Fi2-cip29ieXXV9E3wMCkdYkvVnH11_bjR6myifOsaXcLgUCod_hKHFHTFv3rqb0Ilknrxfzp2fWNLJerfAluUU60BkpQ5YNI6VYPgXHA7ON0fuBpuGTObJvZ75xx59Hl1HVZC0levUTq7zT0fEfutK9vmqmos4hn4yHoWgqIanvePJyAoyduyyfEcBWlecV8mmXI9UhIvxEtcttkTV0VIvzaMIX8HezcaW3Ng2mFhgjJl21InNOlbphxOjT9G228TobJWozZQUGBAHLkM7H99y0kU5ElbLScNeTKElDKwTcoqf2dBSS5y-abjlumVaAd0U8eKbR_73Xhp-FdTf2BegWTKHXM-74uYnijCRO5RHwPw9aTcwvPrdPSVUSkmLhx3ghlx75lvbk6WLevxpQ-xMlNvvhB4n16U4RlF1rThWrpPSxq5-HtJFZffG_0bMKyZbz7fSSIbYp4xN4uj0rCWGUO4RZKWuIH4xh8e4hB8sE2vEj32nPu61grMmxSazynMwPrq_NMKjz0xXHH1iPBs6BOQT6d1KTLR-pKejf6OCWti-E3b5cvTzmsVCAURmNcxz4XJr6YsuFfY2HpVYZzBiWLKImaAk9Kv56CmzMMT7LMYjJ_7vuVY5kDKsZqSPS7786kq7jXOC1iLTdZuK-awFYW7StXux_IOHVLxw2m00?></g></svg>