<?plantuml 1.2026.1?><svg xmlns="http://www.w3.org/2000/svg" xmlns:xlink="http://www.w3.org/1999/xlink" contentStyleType="text/css" data-diagram-type="SEQUENCE" height="614px" preserveAspectRatio="none" style="width:1033px;height:614px;background:#FFFFFF;" version="1.1" viewBox="0 0 1033 614" width="1033px" zoomAndPan="magnify"><title>&#22270;6-2 &#24211;&#23384;&#20986;&#24211;&#26102;&#24207;&#22270;</title><defs/><g><text fill="#000000" font-family="sans-serif" font-size="14" font-weight="bold" lengthAdjust="spacing" textLength="142.1665" x="446.4497" y="27.9951">&#22270;6-2 &#24211;&#23384;&#20986;&#24211;&#26102;&#24207;&#22270;</text><rect fill="none" height="265" style="stroke:#000000;stroke-width:1.5;" width="1016.0659" x="10" y="252.125"/><g class="participant-lifeline" data-entity-uid="part1" data-qualified-name=".." id="part1-lifeline"><g><title>..</title><rect fill="#000000" fill-opacity="0.00000" height="415.5313" width="8" x="32.9999" y="118.5938"/><line style="stroke:#181818;stroke-width:0.5;stroke-dasharray:5,5;" x1="36" x2="36" y1="118.5938" y2="534.125"/></g></g><g class="participant-lifeline" data-entity-uid="part2" data-qualified-name="Page" id="part2-lifeline"><g><title>......</title><rect fill="#000000" fill-opacity="0.00000" height="415.5313" width="8" x="200.0001" y="118.5938"/><line style="stroke:#181818;stroke-width:0.5;stroke-dasharray:5,5;" x1="203.0003" x2="203.0003" y1="118.5938" y2="534.125"/></g></g><g class="participant-lifeline" data-entity-uid="part3" data-qualified-name="Api" id="part3-lifeline"><g><title>PostgREST</title><rect fill="#000000" fill-opacity="0.00000" height="415.5313" width="8" x="384.9068" y="118.5938"/><line style="stroke:#181818;stroke-width:0.5;stroke-dasharray:5,5;" x1="388.5621" x2="388.5621" y1="118.5938" y2="534.125"/></g></g><g class="participant-lifeline" data-entity-uid="part4" data-qualified-name="StockOut" id="part4-lifeline"><g><title>scm.stock_out</title><rect fill="#000000" fill-opacity="0.00000" height="415.5313" width="8" x="525.907" y="118.5938"/><line style="stroke:#181818;stroke-width:0.5;stroke-dasharray:5,5;" x1="529.8269" x2="529.8269" y1="118.5938" y2="534.125"/></g></g><g class="participant-lifeline" data-entity-uid="part5" data-qualified-name="Batches" id="part5-lifeline"><g><title>scm.inventory_batches</title><rect fill="#000000" fill-opacity="0.00000" height="415.5313" width="8" x="718.9072" y="118.5938"/><line style="stroke:#181818;stroke-width:0.5;stroke-dasharray:5,5;" x1="722.8364" x2="722.8364" y1="118.5938" y2="534.125"/></g></g><g class="participant-lifeline" data-entity-uid="part6" data-qualified-name="Tx" id="part6-lifeline"><g><title>scm.inventory_transactions</title><rect fill="#000000" fill-opacity="0.00000" height="415.5313" width="8" x="912.5219" y="118.5938"/><line style="stroke:#181818;stroke-width:0.5;stroke-dasharray:5,5;" x1="915.978" x2="915.978" y1="118.5938" y2="534.125"/></g></g><g class="participant participant-head" data-entity-uid="part1" data-qualified-name=".." id="part1-head"><text fill="#000000" font-family="sans-serif" font-size="14" lengthAdjust="spacing" textLength="27.9999" x="20" y="115.292">&#29992;&#25143;</text><ellipse cx="36.9999" cy="50.7969" fill="#E2E2F0" rx="8" ry="8" style="stroke:#181818;stroke-width:0.5;"/><path d="M36.9999,58.7969 L36.9999,85.7969 M23.9999,66.7969 L49.9999,66.7969 M36.9999,85.7969 L23.9999,100.7969 M36.9999,85.7969 L49.9999,100.7969" fill="none" style="stroke:#181818;stroke-width:0.5;"/></g><g class="participant participant-tail" data-entity-uid="part1" data-qualified-name=".." id="part1-tail"><text fill="#000000" font-family="sans-serif" font-size="14" lengthAdjust="spacing" textLength="27.9999" x="20" y="546.1201">&#29992;&#25143;</text><ellipse cx="36.9999" cy="557.9219" fill="#E2E2F0" rx="8" ry="8" style="stroke:#181818;stroke-width:0.5;"/><path d="M36.9999,565.9219 L36.9999,592.9219 M23.9999,573.9219 L49.9999,573.9219 M36.9999,592.9219 L23.9999,607.9219 M36.9999,592.9219 L49.9999,607.9219" fill="none" style="stroke:#181818;stroke-width:0.5;"/></g><g class="participant participant-head" data-entity-uid="part2" data-qualified-name="Page" id="part2-head"><rect fill="#E2E2F0" height="30.2969" rx="2.5" ry="2.5" style="stroke:#181818;stroke-width:0.5;" width="97.9996" x="155.0003" y="87.2969"/><text fill="#000000" font-family="sans-serif" font-size="14" lengthAdjust="spacing" textLength="83.9996" x="162.0003" y="107.292">&#24211;&#23384;&#20986;&#24211;&#39029;&#38754;</text></g><g class="participant participant-tail" data-entity-uid="part2" data-qualified-name="Page" id="part2-tail"><rect fill="#E2E2F0" height="30.2969" rx="2.5" ry="2.5" style="stroke:#181818;stroke-width:0.5;" width="97.9996" x="155.0003" y="533.125"/><text fill="#000000" font-family="sans-serif" font-size="14" lengthAdjust="spacing" textLength="83.9996" x="162.0003" y="553.1201">&#24211;&#23384;&#20986;&#24211;&#39029;&#38754;</text></g><g class="participant participant-head" data-entity-uid="part3" data-qualified-name="Api" id="part3-head"><rect fill="#E2E2F0" height="30.2969" rx="2.5" ry="2.5" style="stroke:#181818;stroke-width:0.5;" width="88.6895" x="344.5621" y="87.2969"/><text fill="#000000" font-family="sans-serif" font-size="14" lengthAdjust="spacing" textLength="74.6895" x="351.5621" y="107.292">PostgREST</text></g><g class="participant participant-tail" data-entity-uid="part3" data-qualified-name="Api" id="part3-tail"><rect fill="#E2E2F0" height="30.2969" rx="2.5" ry="2.5" style="stroke:#181818;stroke-width:0.5;" width="88.6895" x="344.5621" y="533.125"/><text fill="#000000" font-family="sans-serif" font-size="14" lengthAdjust="spacing" textLength="74.6895" x="351.5621" y="553.1201">PostgREST</text></g><g class="participant participant-head" data-entity-uid="part4" data-qualified-name="StockOut" id="part4-head"><rect fill="#E2E2F0" height="30.2969" rx="2.5" ry="2.5" style="stroke:#181818;stroke-width:0.5;" width="114.1602" x="472.8269" y="87.2969"/><text fill="#000000" font-family="sans-serif" font-size="14" lengthAdjust="spacing" textLength="100.1602" x="479.8269" y="107.292">scm.stock_out</text></g><g class="participant participant-tail" data-entity-uid="part4" data-qualified-name="StockOut" id="part4-tail"><rect fill="#E2E2F0" height="30.2969" rx="2.5" ry="2.5" style="stroke:#181818;stroke-width:0.5;" width="114.1602" x="472.8269" y="533.125"/><text fill="#000000" font-family="sans-serif" font-size="14" lengthAdjust="spacing" textLength="100.1602" x="479.8269" y="553.1201">scm.stock_out</text></g><g class="participant participant-head" data-entity-uid="part5" data-qualified-name="Batches" id="part5-head"><text fill="#000000" font-family="sans-serif" font-size="14" lengthAdjust="spacing" textLength="162.1416" x="638.8364" y="115.292">scm.inventory_batches</text><path d="M704.9072,66.2969 C704.9072,56.2969 722.9072,56.2969 722.9072,56.2969 C722.9072,56.2969 740.9072,56.2969 740.9072,66.2969 L740.9072,92.2969 C740.9072,102.2969 722.9072,102.2969 722.9072,102.2969 C722.9072,102.2969 704.9072,102.2969 704.9072,92.2969 L704.9072,66.2969" fill="#E2E2F0" style="stroke:#181818;stroke-width:0.5;"/><path d="M704.9072,66.2969 C704.9072,76.2969 722.9072,76.2969 722.9072,76.2969 C722.9072,76.2969 740.9072,76.2969 740.9072,66.2969" fill="none" style="stroke:#181818;stroke-width:0.5;"/></g><g class="participant participant-tail" data-entity-uid="part5" data-qualified-name="Batches" id="part5-tail"><text fill="#000000" font-family="sans-serif" font-size="14" lengthAdjust="spacing" textLength="162.1416" x="638.8364" y="546.1201">scm.inventory_batches</text><path d="M704.9072,559.4219 C704.9072,549.4219 722.9072,549.4219 722.9072,549.4219 C722.9072,549.4219 740.9072,549.4219 740.9072,559.4219 L740.9072,585.4219 C740.9072,595.4219 722.9072,595.4219 722.9072,595.4219 C722.9072,595.4219 704.9072,595.4219 704.9072,585.4219 L704.9072,559.4219" fill="#E2E2F0" style="stroke:#181818;stroke-width:0.5;"/><path d="M704.9072,559.4219 C704.9072,569.4219 722.9072,569.4219 722.9072,569.4219 C722.9072,569.4219 740.9072,569.4219 740.9072,559.4219" fill="none" style="stroke:#181818;stroke-width:0.5;"/></g><g class="participant participant-head" data-entity-uid="part6" data-qualified-name="Tx" id="part6-head"><text fill="#000000" font-family="sans-serif" font-size="14" lengthAdjust="spacing" textLength="193.0879" x="816.978" y="115.292">scm.inventory_transactions</text><path d="M898.5219,66.2969 C898.5219,56.2969 916.5219,56.2969 916.5219,56.2969 C916.5219,56.2969 934.5219,56.2969 934.5219,66.2969 L934.5219,92.2969 C934.5219,102.2969 916.5219,102.2969 916.5219,102.2969 C916.5219,102.2969 898.5219,102.2969 898.5219,92.2969 L898.5219,66.2969" fill="#E2E2F0" style="stroke:#181818;stroke-width:0.5;"/><path d="M898.5219,66.2969 C898.5219,76.2969 916.5219,76.2969 916.5219,76.2969 C916.5219,76.2969 934.5219,76.2969 934.5219,66.2969" fill="none" style="stroke:#181818;stroke-width:0.5;"/></g><g class="participant participant-tail" data-entity-uid="part6" data-qualified-name="Tx" id="part6-tail"><text fill="#000000" font-family="sans-serif" font-size="14" lengthAdjust="spacing" textLength="193.0879" x="816.978" y="546.1201">scm.inventory_transactions</text><path d="M898.5219,559.4219 C898.5219,549.4219 916.5219,549.4219 916.5219,549.4219 C916.5219,549.4219 934.5219,549.4219 934.5219,559.4219 L934.5219,585.4219 C934.5219,595.4219 916.5219,595.4219 916.5219,595.4219 C916.5219,595.4219 898.5219,595.4219 898.5219,585.4219 L898.5219,559.4219" fill="#E2E2F0" style="stroke:#181818;stroke-width:0.5;"/><path d="M898.5219,559.4219 C898.5219,569.4219 916.5219,569.4219 916.5219,569.4219 C916.5219,569.4219 934.5219,569.4219 934.5219,559.4219" fill="none" style="stroke:#181818;stroke-width:0.5;"/></g><g class="message" data-entity-1="part1" data-entity-2="part2" id="msg1"><polygon fill="#181818" points="192.0001,145.7266,202.0001,149.7266,192.0001,153.7266,196.0001,149.7266" style="stroke:#181818;stroke-width:1;"/><line style="stroke:#181818;stroke-width:1;" x1="36.9999" x2="198.0001" y1="149.7266" y2="149.7266"/><text fill="#000000" font-family="sans-serif" font-size="13" lengthAdjust="spacing" textLength="143.0002" x="43.9999" y="144.6606">&#36873;&#25321;&#25209;&#27425;&#24182;&#22635;&#20889;&#20986;&#24211;&#25968;&#37327;</text></g><g class="message" data-entity-1="part2" data-entity-2="part3" id="msg2"><polygon fill="#181818" points="376.9068,174.8594,386.9068,178.8594,376.9068,182.8594,380.9068,178.8594" style="stroke:#181818;stroke-width:1;"/><line style="stroke:#181818;stroke-width:1;" x1="204.0001" x2="382.9068" y1="178.8594" y2="178.8594"/><text fill="#000000" font-family="sans-serif" font-size="13" lengthAdjust="spacing" textLength="160.9067" x="211.0001" y="173.7935">POST /rpc/scm.stock_out</text></g><g class="message" data-entity-1="part3" data-entity-2="part4" id="msg3"><polygon fill="#181818" points="517.907,203.9922,527.907,207.9922,517.907,211.9922,521.907,207.9922" style="stroke:#181818;stroke-width:1;"/><line style="stroke:#181818;stroke-width:1;" x1="388.9068" x2="523.907" y1="207.9922" y2="207.9922"/><text fill="#000000" font-family="sans-serif" font-size="13" lengthAdjust="spacing" textLength="78.0001" x="395.9068" y="202.9263">&#35843;&#29992;&#20986;&#24211;&#20989;&#25968;</text></g><g class="message" data-entity-1="part4" data-entity-2="part5" id="msg4"><polygon fill="#181818" points="710.9072,233.125,720.9072,237.125,710.9072,241.125,714.9072,237.125" style="stroke:#181818;stroke-width:1;"/><line style="stroke:#181818;stroke-width:1;" x1="529.907" x2="716.9072" y1="237.125" y2="237.125"/><text fill="#000000" font-family="sans-serif" font-size="13" lengthAdjust="spacing" textLength="169.0002" x="536.907" y="232.0591">&#38145;&#23450;&#25209;&#27425;&#35760;&#24405;&#24182;&#35835;&#21462;&#21487;&#29992;&#24211;&#23384;</text></g><path d="M10,252.125 L74.4429,252.125 L74.4429,259.2578 L64.4429,269.2578 L10,269.2578 L10,252.125" fill="#EEEEEE" style="stroke:#000000;stroke-width:1.5;"/><rect fill="none" height="265" style="stroke:#000000;stroke-width:1.5;" width="1016.0659" x="10" y="252.125"/><text fill="#000000" font-family="sans-serif" font-size="13" font-weight="bold" lengthAdjust="spacing" textLength="19.4429" x="25" y="265.1919">alt</text><text fill="#000000" font-family="sans-serif" font-size="11" font-weight="bold" lengthAdjust="spacing" textLength="54.0544" x="89.4429" y="264.3354">[&#24211;&#23384;&#19981;&#36275;]</text><g class="message" data-entity-1="part4" data-entity-2="part3" id="msg5"><polygon fill="#181818" points="399.9068,286.3906,389.9068,290.3906,399.9068,294.3906,395.9068,290.3906" style="stroke:#181818;stroke-width:1;"/><line style="stroke:#181818;stroke-width:1;stroke-dasharray:2,2;" x1="393.9068" x2="528.907" y1="290.3906" y2="290.3906"/><text fill="#000000" font-family="sans-serif" font-size="13" lengthAdjust="spacing" textLength="104.0001" x="405.9068" y="285.3247">&#25243;&#20986;&#24211;&#23384;&#19981;&#36275;&#24322;&#24120;</text></g><g class="message" data-entity-1="part3" data-entity-2="part2" id="msg6"><polygon fill="#181818" points="215.0001,315.5234,205.0001,319.5234,215.0001,323.5234,211.0001,319.5234" style="stroke:#181818;stroke-width:1;"/><line style="stroke:#181818;stroke-width:1;stroke-dasharray:2,2;" x1="209.0001" x2="387.9068" y1="319.5234" y2="319.5234"/><text fill="#000000" font-family="sans-serif" font-size="13" lengthAdjust="spacing" textLength="78.0001" x="221.0001" y="314.4575">&#36820;&#22238;&#38169;&#35823;&#20449;&#24687;</text></g><g class="message" data-entity-1="part2" data-entity-2="part1" id="msg7"><polygon fill="#181818" points="47.9999,344.6563,37.9999,348.6563,47.9999,352.6563,43.9999,348.6563" style="stroke:#181818;stroke-width:1;"/><line style="stroke:#181818;stroke-width:1;stroke-dasharray:2,2;" x1="41.9999" x2="203.0001" y1="348.6563" y2="348.6563"/><text fill="#000000" font-family="sans-serif" font-size="13" lengthAdjust="spacing" textLength="78.0001" x="53.9999" y="343.5903">&#25552;&#31034;&#20986;&#24211;&#22833;&#36133;</text></g><line style="stroke:#000000;stroke-width:1;stroke-dasharray:2,2;" x1="10" x2="1026.0659" y1="357.6563" y2="357.6563"/><text fill="#000000" font-family="sans-serif" font-size="11" font-weight="bold" lengthAdjust="spacing" textLength="54.0544" x="15" y="367.8667">[&#24211;&#23384;&#20805;&#36275;]</text><g class="message" data-entity-1="part4" data-entity-2="part5" id="msg8"><polygon fill="#181818" points="710.9072,388.5938,720.9072,392.5938,710.9072,396.5938,714.9072,392.5938" style="stroke:#181818;stroke-width:1;"/><line style="stroke:#181818;stroke-width:1;" x1="529.907" x2="716.9072" y1="392.5938" y2="392.5938"/><text fill="#000000" font-family="sans-serif" font-size="13" lengthAdjust="spacing" textLength="116.3526" x="536.907" y="387.5278">&#25187;&#20943; available_qty</text></g><g class="message" data-entity-1="part4" data-entity-2="part6" id="msg9"><polygon fill="#181818" points="904.5219,417.7266,914.5219,421.7266,904.5219,425.7266,908.5219,421.7266" style="stroke:#181818;stroke-width:1;"/><line style="stroke:#181818;stroke-width:1;" x1="529.907" x2="910.5219" y1="421.7266" y2="421.7266"/><text fill="#000000" font-family="sans-serif" font-size="13" lengthAdjust="spacing" textLength="78.0001" x="536.907" y="416.6606">&#20889;&#20837;&#20986;&#24211;&#27969;&#27700;</text></g><g class="message" data-entity-1="part4" data-entity-2="part3" id="msg10"><polygon fill="#181818" points="399.9068,446.8594,389.9068,450.8594,399.9068,454.8594,395.9068,450.8594" style="stroke:#181818;stroke-width:1;"/><line style="stroke:#181818;stroke-width:1;stroke-dasharray:2,2;" x1="393.9068" x2="528.907" y1="450.8594" y2="450.8594"/><text fill="#000000" font-family="sans-serif" font-size="13" lengthAdjust="spacing" textLength="117.0001" x="405.9068" y="445.7935">&#36820;&#22238;&#21097;&#20313;&#25968;&#37327;&#19982;&#32467;&#26524;</text></g><g class="message" data-entity-1="part3" data-entity-2="part2" id="msg11"><polygon fill="#181818" points="215.0001,475.9922,205.0001,479.9922,215.0001,483.9922,211.0001,479.9922" style="stroke:#181818;stroke-width:1;"/><line style="stroke:#181818;stroke-width:1;stroke-dasharray:2,2;" x1="209.0001" x2="387.9068" y1="479.9922" y2="479.9922"/><text fill="#000000" font-family="sans-serif" font-size="13" lengthAdjust="spacing" textLength="92.3077" x="221.0001" y="474.9263">&#36820;&#22238; JSON &#32467;&#26524;</text></g><g class="message" data-entity-1="part2" data-entity-2="part1" id="msg12"><polygon fill="#181818" points="47.9999,505.125,37.9999,509.125,47.9999,513.125,43.9999,509.125" style="stroke:#181818;stroke-width:1;"/><line style="stroke:#181818;stroke-width:1;stroke-dasharray:2,2;" x1="41.9999" x2="203.0001" y1="509.125" y2="509.125"/><text fill="#000000" font-family="sans-serif" font-size="13" lengthAdjust="spacing" textLength="117.0001" x="53.9999" y="504.0591">&#21047;&#26032;&#24211;&#23384;&#24182;&#25552;&#31034;&#25104;&#21151;</text></g><?plantuml-src TPBDJjj058NtynGZzXIfYovO81MfcowQY6GVJOm5Lbqxn0E27Q4AIQXQ8n5eGoXL2aWWVcm4X2IGyZAv4_ijUkqPQ2peRgpxtJFdd34tkAbJQFvvC_wQGcyBpdz0fOS7yRqDFHS7X32DsqKwh1-BwYqfi28tDAF0B4x7HXV2ratuy_SOPGvDipaz2QPjXy_DlCjau_dRWf4SEzgdLmwtjOyvUv77I2RwIYroCiiuopD7bv1XBUaMkbd9vHdNvdKdXgVb-RyiBpBBmHI6RSc5x38XCWyTduhjqaaQhjR4bnDHwugp5dJRq3g5zOOgOziFAow9GLn0_yYdKvaidIWMj8c4VH9D4NfCW6JWVyRRf1HK-gX6dgP8AlkHXNe9BdQbXU32X_us6WcyEt1tmFKYZRXmmaok7clG-HgqhqRadko9ZQQwyP62-pNeTAI_Vx63XpeqzyDw8_2ymKDBb3oL4n7L4OgvcyF3dj8xl0okZuXkOj7g1oYNaoP6CudQ0LHSofQOORAygUSM-4e2pIuZ5LLTFb9jtvI4V_rI9kaLQYU3VaE-oQ3pRNYt9VRtNev5tsTI7wWYdiU2wgtOyLM8Rbkc5DLDsFX5T6kM_0K0?></g></svg>