<?xml version="1.0" encoding="UTF-8" standalone="no"?>
<!DOCTYPE svg PUBLIC "-//W3C//DTD SVG 1.1//EN"
 "http://www.w3.org/Graphics/SVG/1.1/DTD/svg11.dtd">
<!-- Generated by graphviz version 14.1.3 (20260303.0454)
 -->
<!-- Title: G Pages: 1 -->
<svg width="2036pt" height="192pt"
 viewBox="0.00 0.00 2036.00 192.00" xmlns="http://www.w3.org/2000/svg" xmlns:xlink="http://www.w3.org/1999/xlink">
<g id="graph0" class="graph" transform="scale(1 1) rotate(0) translate(18 174.28)">
<title>G</title>
<polygon fill="white" stroke="none" points="-18,18 -18,-174.28 2018.1,-174.28 2018.1,18 -18,18"/>
<!-- user -->
<g id="node1" class="node">
<title>user</title>
<path fill="none" stroke="black" d="M51.3,-76.03C51.3,-76.03 12,-76.03 12,-76.03 6,-76.03 0,-70.03 0,-64.03 0,-64.03 0,-48.25 0,-48.25 0,-42.25 6,-36.25 12,-36.25 12,-36.25 51.3,-36.25 51.3,-36.25 57.3,-36.25 63.3,-42.25 63.3,-48.25 63.3,-48.25 63.3,-64.03 63.3,-64.03 63.3,-70.03 57.3,-76.03 51.3,-76.03"/>
<text xml:space="preserve" text-anchor="middle" x="31.65" y="-51.24" font-family="Microsoft YaHei" font-size="17.00">用户</text>
</g>
<!-- page -->
<g id="node2" class="node">
<title>page</title>
<path fill="none" stroke="black" d="M344.35,-87.28C344.35,-87.28 148.3,-87.28 148.3,-87.28 142.3,-87.28 136.3,-81.28 136.3,-75.28 136.3,-75.28 136.3,-37 136.3,-37 136.3,-31 142.3,-25 148.3,-25 148.3,-25 344.35,-25 344.35,-25 350.35,-25 356.35,-31 356.35,-37 356.35,-37 356.35,-75.28 356.35,-75.28 356.35,-81.28 350.35,-87.28 344.35,-87.28"/>
<text xml:space="preserve" text-anchor="middle" x="246.33" y="-62.49" font-family="Microsoft YaHei" font-size="17.00">页面与路由</text>
<text xml:space="preserve" text-anchor="middle" x="246.33" y="-39.99" font-family="Microsoft YaHei" font-size="17.00">登录页 / 守卫 / 按钮权限</text>
</g>
<!-- user&#45;&gt;page -->
<g id="edge1" class="edge">
<title>user&#45;&gt;page</title>
<path fill="none" stroke="black" stroke-width="1.2" d="M63.79,-56.14C63.79,-56.14 126.17,-56.14 126.17,-56.14"/>
<polygon fill="black" stroke="black" stroke-width="1.2" points="126.17,-58.94 134.17,-56.14 126.17,-53.34 126.17,-58.94"/>
</g>
<!-- store -->
<g id="node3" class="node">
<title>store</title>
<path fill="none" stroke="black" d="M609.65,-87.28C609.65,-87.28 441.35,-87.28 441.35,-87.28 435.35,-87.28 429.35,-81.28 429.35,-75.28 429.35,-75.28 429.35,-37 429.35,-37 429.35,-31 435.35,-25 441.35,-25 441.35,-25 609.65,-25 609.65,-25 615.65,-25 621.65,-31 621.65,-37 621.65,-37 621.65,-75.28 621.65,-75.28 621.65,-81.28 615.65,-87.28 609.65,-87.28"/>
<text xml:space="preserve" text-anchor="middle" x="525.5" y="-62.49" font-family="Microsoft YaHei" font-size="17.00">前端状态层</text>
<text xml:space="preserve" text-anchor="middle" x="525.5" y="-39.99" font-family="Microsoft YaHei" font-size="17.00">userStore / 权限函数</text>
</g>
<!-- page&#45;&gt;store -->
<g id="edge2" class="edge">
<title>page&#45;&gt;store</title>
<path fill="none" stroke="black" stroke-width="1.2" d="M356.66,-56.14C356.66,-56.14 419.25,-56.14 419.25,-56.14"/>
<polygon fill="black" stroke="black" stroke-width="1.2" points="419.25,-58.94 427.25,-56.14 419.25,-53.34 419.25,-58.94"/>
</g>
<!-- api -->
<g id="node4" class="node">
<title>api</title>
<path fill="none" stroke="black" d="M996.95,-87.28C996.95,-87.28 851.15,-87.28 851.15,-87.28 845.15,-87.28 839.15,-81.28 839.15,-75.28 839.15,-75.28 839.15,-37 839.15,-37 839.15,-31 845.15,-25 851.15,-25 851.15,-25 996.95,-25 996.95,-25 1002.95,-25 1008.95,-31 1008.95,-37 1008.95,-37 1008.95,-75.28 1008.95,-75.28 1008.95,-81.28 1002.95,-87.28 996.95,-87.28"/>
<text xml:space="preserve" text-anchor="middle" x="924.05" y="-62.49" font-family="Microsoft YaHei" font-size="17.00">接口层</text>
<text xml:space="preserve" text-anchor="middle" x="924.05" y="-39.99" font-family="Microsoft YaHei" font-size="17.00">PostgREST + JWT</text>
</g>
<!-- store&#45;&gt;api -->
<g id="edge3" class="edge">
<title>store&#45;&gt;api</title>
<path fill="none" stroke="black" stroke-width="1.2" d="M621.98,-56.14C621.98,-56.14 829.14,-56.14 829.14,-56.14"/>
<polygon fill="black" stroke="black" stroke-width="1.2" points="829.14,-58.94 837.14,-56.14 829.14,-53.34 829.14,-58.94"/>
<text xml:space="preserve" text-anchor="middle" x="730.4" y="-59.34" font-family="Times New Roman,serif" font-size="14.00">发起查询/新增/审批</text>
</g>
<!-- db -->
<g id="node5" class="node">
<title>db</title>
<path fill="none" stroke="black" d="M1370,-87.28C1370,-87.28 1196.45,-87.28 1196.45,-87.28 1190.45,-87.28 1184.45,-81.28 1184.45,-75.28 1184.45,-75.28 1184.45,-37 1184.45,-37 1184.45,-31 1190.45,-25 1196.45,-25 1196.45,-25 1370,-25 1370,-25 1376,-25 1382,-31 1382,-37 1382,-37 1382,-75.28 1382,-75.28 1382,-81.28 1376,-87.28 1370,-87.28"/>
<text xml:space="preserve" text-anchor="middle" x="1283.23" y="-62.49" font-family="Microsoft YaHei" font-size="17.00">数据库裁决层</text>
<text xml:space="preserve" text-anchor="middle" x="1283.23" y="-39.99" font-family="Microsoft YaHei" font-size="17.00">数据库函数 / RLS策略</text>
</g>
<!-- api&#45;&gt;db -->
<g id="edge4" class="edge">
<title>api&#45;&gt;db</title>
<path fill="none" stroke="black" stroke-width="1.2" d="M1009.17,-56.14C1009.17,-56.14 1174.26,-56.14 1174.26,-56.14"/>
<polygon fill="black" stroke="black" stroke-width="1.2" points="1174.26,-58.94 1182.26,-56.14 1174.26,-53.34 1174.26,-58.94"/>
<text xml:space="preserve" text-anchor="middle" x="1096.7" y="-59.34" font-family="Times New Roman,serif" font-size="14.00">传入 JWT 声明</text>
</g>
<!-- table -->
<g id="node6" class="node">
<title>table</title>
<path fill="none" stroke="black" d="M1731.05,-156.28C1731.05,-156.28 1535,-156.28 1535,-156.28 1529,-156.28 1523,-150.28 1523,-144.28 1523,-144.28 1523,-106 1523,-106 1523,-100 1529,-94 1535,-94 1535,-94 1731.05,-94 1731.05,-94 1737.05,-94 1743.05,-100 1743.05,-106 1743.05,-106 1743.05,-144.28 1743.05,-144.28 1743.05,-150.28 1737.05,-156.28 1731.05,-156.28"/>
<text xml:space="preserve" text-anchor="middle" x="1633.03" y="-131.49" font-family="Microsoft YaHei" font-size="17.00">目标对象</text>
<text xml:space="preserve" text-anchor="middle" x="1633.03" y="-108.99" font-family="Microsoft YaHei" font-size="17.00">业务表 / 配置表 / 流程表</text>
</g>
<!-- db&#45;&gt;table -->
<g id="edge5" class="edge">
<title>db&#45;&gt;table</title>
<path fill="none" stroke="black" stroke-width="1.2" d="M1382.47,-74.78C1450.35,-74.78 1528.1,-74.78 1528.1,-74.78 1528.1,-74.78 1528.1,-83.72 1528.1,-83.72"/>
<polygon fill="black" stroke="black" stroke-width="1.2" points="1525.3,-83.72 1528.1,-91.72 1530.9,-83.72 1525.3,-83.72"/>
<text xml:space="preserve" text-anchor="middle" x="1452.5" y="-104.09" font-family="Times New Roman,serif" font-size="14.00">通过校验</text>
</g>
<!-- deny -->
<g id="node8" class="node">
<title>deny</title>
<path fill="none" stroke="black" d="M1721.68,-62.28C1721.68,-62.28 1544.38,-62.28 1544.38,-62.28 1538.38,-62.28 1532.38,-56.28 1532.38,-50.28 1532.38,-50.28 1532.38,-12 1532.38,-12 1532.38,-6 1538.38,0 1544.38,0 1544.38,0 1721.68,0 1721.68,0 1727.68,0 1733.68,-6 1733.68,-12 1733.68,-12 1733.68,-50.28 1733.68,-50.28 1733.68,-56.28 1727.68,-62.28 1721.68,-62.28"/>
<text xml:space="preserve" text-anchor="middle" x="1633.03" y="-37.49" font-family="Microsoft YaHei" font-size="17.00">拒绝访问</text>
<text xml:space="preserve" text-anchor="middle" x="1633.03" y="-14.99" font-family="Microsoft YaHei" font-size="17.00">返回越权或无权限提示</text>
</g>
<!-- db&#45;&gt;deny -->
<g id="edge7" class="edge">
<title>db&#45;&gt;deny</title>
<path fill="none" stroke="black" stroke-width="1.2" d="M1382.06,-43.64C1382.06,-43.64 1522.19,-43.64 1522.19,-43.64"/>
<polygon fill="black" stroke="black" stroke-width="1.2" points="1522.19,-46.44 1530.19,-43.64 1522.19,-40.84 1522.19,-46.44"/>
<text xml:space="preserve" text-anchor="middle" x="1452.5" y="-32.09" font-family="Times New Roman,serif" font-size="14.00">校验失败</text>
</g>
<!-- ok -->
<g id="node7" class="node">
<title>ok</title>
<path fill="none" stroke="black" d="M1988.1,-156.28C1988.1,-156.28 1828.05,-156.28 1828.05,-156.28 1822.05,-156.28 1816.05,-150.28 1816.05,-144.28 1816.05,-144.28 1816.05,-106 1816.05,-106 1816.05,-100 1822.05,-94 1828.05,-94 1828.05,-94 1988.1,-94 1988.1,-94 1994.1,-94 2000.1,-100 2000.1,-106 2000.1,-106 2000.1,-144.28 2000.1,-144.28 2000.1,-150.28 1994.1,-156.28 1988.1,-156.28"/>
<text xml:space="preserve" text-anchor="middle" x="1908.08" y="-131.49" font-family="Microsoft YaHei" font-size="17.00">允许访问</text>
<text xml:space="preserve" text-anchor="middle" x="1908.08" y="-108.99" font-family="Microsoft YaHei" font-size="17.00">返回结果并刷新页面</text>
</g>
<!-- table&#45;&gt;ok -->
<g id="edge6" class="edge">
<title>table&#45;&gt;ok</title>
<path fill="none" stroke="black" stroke-width="1.2" d="M1743.31,-125.14C1743.31,-125.14 1806.05,-125.14 1806.05,-125.14"/>
<polygon fill="black" stroke="black" stroke-width="1.2" points="1806.05,-127.94 1814.05,-125.14 1806.05,-122.34 1806.05,-127.94"/>
</g>
</g>
</svg>
