<?plantuml 1.2026.1?><svg xmlns="http://www.w3.org/2000/svg" xmlns:xlink="http://www.w3.org/1999/xlink" contentStyleType="text/css" data-diagram-type="SEQUENCE" height="556px" preserveAspectRatio="none" style="width:1018px;height:556px;background:#FFFFFF;" version="1.1" viewBox="0 0 1018 556" width="1018px" zoomAndPan="magnify"><title>&#22270;6-1 &#24211;&#23384;&#20837;&#24211;&#26102;&#24207;&#22270;</title><defs/><g><text fill="#000000" font-family="sans-serif" font-size="14" font-weight="bold" lengthAdjust="spacing" textLength="142.1665" x="439.7302" y="27.9951">&#22270;6-1 &#24211;&#23384;&#20837;&#24211;&#26102;&#24207;&#22270;</text><rect fill="none" height="90.2031" style="stroke:#000000;stroke-width:1.5;" width="336.0685" x="482.4705" y="252.125"/><g class="participant-lifeline" data-entity-uid="part1" data-qualified-name=".." id="part1-lifeline"><g><title>..</title><rect fill="#000000" fill-opacity="0.00000" height="357.2656" width="8" x="17.9999" y="118.5938"/><line style="stroke:#181818;stroke-width:0.5;stroke-dasharray:5,5;" x1="21" x2="21" y1="118.5938" y2="475.8594"/></g></g><g class="participant-lifeline" data-entity-uid="part2" data-qualified-name="Page" id="part2-lifeline"><g><title>......</title><rect fill="#000000" fill-opacity="0.00000" height="357.2656" width="8" x="224.0002" y="118.5938"/><line style="stroke:#181818;stroke-width:0.5;stroke-dasharray:5,5;" x1="227.0003" x2="227.0003" y1="118.5938" y2="475.8594"/></g></g><g class="participant-lifeline" data-entity-uid="part3" data-qualified-name="Api" id="part3-lifeline"><g><title>PostgREST</title><rect fill="#000000" fill-opacity="0.00000" height="357.2656" width="8" x="399.4679" y="118.5938"/><line style="stroke:#181818;stroke-width:0.5;stroke-dasharray:5,5;" x1="403.1232" x2="403.1232" y1="118.5938" y2="475.8594"/></g></g><g class="participant-lifeline" data-entity-uid="part4" data-qualified-name="StockIn" id="part4-lifeline"><g><title>scm.stock_in</title><rect fill="#000000" fill-opacity="0.00000" height="357.2656" width="8" x="540.4681" y="118.5938"/><line style="stroke:#181818;stroke-width:0.5;stroke-dasharray:5,5;" x1="543.4705" x2="543.4705" y1="118.5938" y2="475.8594"/></g></g><g class="participant-lifeline" data-entity-uid="part5" data-qualified-name="Batches" id="part5-lifeline"><g><title>scm.inventory_batches</title><rect fill="#000000" fill-opacity="0.00000" height="357.2656" width="8" x="720.4682" y="118.5938"/><line style="stroke:#181818;stroke-width:0.5;stroke-dasharray:5,5;" x1="724.3974" x2="724.3974" y1="118.5938" y2="475.8594"/></g></g><g class="participant-lifeline" data-entity-uid="part6" data-qualified-name="Tx" id="part6-lifeline"><g><title>scm.inventory_transactions</title><rect fill="#000000" fill-opacity="0.00000" height="357.2656" width="8" x="914.083" y="118.5938"/><line style="stroke:#181818;stroke-width:0.5;stroke-dasharray:5,5;" x1="917.539" x2="917.539" y1="118.5938" y2="475.8594"/></g></g><g class="participant participant-head" data-entity-uid="part1" data-qualified-name=".." id="part1-head"><text fill="#000000" font-family="sans-serif" font-size="14" lengthAdjust="spacing" textLength="27.9999" x="5" y="115.292">&#29992;&#25143;</text><ellipse cx="21.9999" cy="50.7969" fill="#E2E2F0" rx="8" ry="8" style="stroke:#181818;stroke-width:0.5;"/><path d="M21.9999,58.7969 L21.9999,85.7969 M8.9999,66.7969 L34.9999,66.7969 M21.9999,85.7969 L8.9999,100.7969 M21.9999,85.7969 L34.9999,100.7969" fill="none" style="stroke:#181818;stroke-width:0.5;"/></g><g class="participant participant-tail" data-entity-uid="part1" data-qualified-name=".." id="part1-tail"><text fill="#000000" font-family="sans-serif" font-size="14" lengthAdjust="spacing" textLength="27.9999" x="5" y="487.8545">&#29992;&#25143;</text><ellipse cx="21.9999" cy="499.6563" fill="#E2E2F0" rx="8" ry="8" style="stroke:#181818;stroke-width:0.5;"/><path d="M21.9999,507.6563 L21.9999,534.6563 M8.9999,515.6563 L34.9999,515.6563 M21.9999,534.6563 L8.9999,549.6563 M21.9999,534.6563 L34.9999,549.6563" fill="none" style="stroke:#181818;stroke-width:0.5;"/></g><g class="participant participant-head" data-entity-uid="part2" data-qualified-name="Page" id="part2-head"><rect fill="#E2E2F0" height="30.2969" rx="2.5" ry="2.5" style="stroke:#181818;stroke-width:0.5;" width="97.9996" x="179.0003" y="87.2969"/><text fill="#000000" font-family="sans-serif" font-size="14" lengthAdjust="spacing" textLength="83.9996" x="186.0003" y="107.292">&#24211;&#23384;&#20837;&#24211;&#39029;&#38754;</text></g><g class="participant participant-tail" data-entity-uid="part2" data-qualified-name="Page" id="part2-tail"><rect fill="#E2E2F0" height="30.2969" rx="2.5" ry="2.5" style="stroke:#181818;stroke-width:0.5;" width="97.9996" x="179.0003" y="474.8594"/><text fill="#000000" font-family="sans-serif" font-size="14" lengthAdjust="spacing" textLength="83.9996" x="186.0003" y="494.8545">&#24211;&#23384;&#20837;&#24211;&#39029;&#38754;</text></g><g class="participant participant-head" data-entity-uid="part3" data-qualified-name="Api" id="part3-head"><rect fill="#E2E2F0" height="30.2969" rx="2.5" ry="2.5" style="stroke:#181818;stroke-width:0.5;" width="88.6895" x="359.1232" y="87.2969"/><text fill="#000000" font-family="sans-serif" font-size="14" lengthAdjust="spacing" textLength="74.6895" x="366.1232" y="107.292">PostgREST</text></g><g class="participant participant-tail" data-entity-uid="part3" data-qualified-name="Api" id="part3-tail"><rect fill="#E2E2F0" height="30.2969" rx="2.5" ry="2.5" style="stroke:#181818;stroke-width:0.5;" width="88.6895" x="359.1232" y="474.8594"/><text fill="#000000" font-family="sans-serif" font-size="14" lengthAdjust="spacing" textLength="74.6895" x="366.1232" y="494.8545">PostgREST</text></g><g class="participant participant-head" data-entity-uid="part4" data-qualified-name="StockIn" id="part4-head"><rect fill="#E2E2F0" height="30.2969" rx="2.5" ry="2.5" style="stroke:#181818;stroke-width:0.5;" width="103.9951" x="492.4705" y="87.2969"/><text fill="#000000" font-family="sans-serif" font-size="14" lengthAdjust="spacing" textLength="89.9951" x="499.4705" y="107.292">scm.stock_in</text></g><g class="participant participant-tail" data-entity-uid="part4" data-qualified-name="StockIn" id="part4-tail"><rect fill="#E2E2F0" height="30.2969" rx="2.5" ry="2.5" style="stroke:#181818;stroke-width:0.5;" width="103.9951" x="492.4705" y="474.8594"/><text fill="#000000" font-family="sans-serif" font-size="14" lengthAdjust="spacing" textLength="89.9951" x="499.4705" y="494.8545">scm.stock_in</text></g><g class="participant participant-head" data-entity-uid="part5" data-qualified-name="Batches" id="part5-head"><text fill="#000000" font-family="sans-serif" font-size="14" lengthAdjust="spacing" textLength="162.1416" x="640.3974" y="115.292">scm.inventory_batches</text><path d="M706.4682,66.2969 C706.4682,56.2969 724.4682,56.2969 724.4682,56.2969 C724.4682,56.2969 742.4682,56.2969 742.4682,66.2969 L742.4682,92.2969 C742.4682,102.2969 724.4682,102.2969 724.4682,102.2969 C724.4682,102.2969 706.4682,102.2969 706.4682,92.2969 L706.4682,66.2969" fill="#E2E2F0" style="stroke:#181818;stroke-width:0.5;"/><path d="M706.4682,66.2969 C706.4682,76.2969 724.4682,76.2969 724.4682,76.2969 C724.4682,76.2969 742.4682,76.2969 742.4682,66.2969" fill="none" style="stroke:#181818;stroke-width:0.5;"/></g><g class="participant participant-tail" data-entity-uid="part5" data-qualified-name="Batches" id="part5-tail"><text fill="#000000" font-family="sans-serif" font-size="14" lengthAdjust="spacing" textLength="162.1416" x="640.3974" y="487.8545">scm.inventory_batches</text><path d="M706.4682,501.1563 C706.4682,491.1563 724.4682,491.1563 724.4682,491.1563 C724.4682,491.1563 742.4682,491.1563 742.4682,501.1563 L742.4682,527.1563 C742.4682,537.1563 724.4682,537.1563 724.4682,537.1563 C724.4682,537.1563 706.4682,537.1563 706.4682,527.1563 L706.4682,501.1563" fill="#E2E2F0" style="stroke:#181818;stroke-width:0.5;"/><path d="M706.4682,501.1563 C706.4682,511.1563 724.4682,511.1563 724.4682,511.1563 C724.4682,511.1563 742.4682,511.1563 742.4682,501.1563" fill="none" style="stroke:#181818;stroke-width:0.5;"/></g><g class="participant participant-head" data-entity-uid="part6" data-qualified-name="Tx" id="part6-head"><text fill="#000000" font-family="sans-serif" font-size="14" lengthAdjust="spacing" textLength="193.0879" x="818.539" y="115.292">scm.inventory_transactions</text><path d="M900.083,66.2969 C900.083,56.2969 918.083,56.2969 918.083,56.2969 C918.083,56.2969 936.083,56.2969 936.083,66.2969 L936.083,92.2969 C936.083,102.2969 918.083,102.2969 918.083,102.2969 C918.083,102.2969 900.083,102.2969 900.083,92.2969 L900.083,66.2969" fill="#E2E2F0" style="stroke:#181818;stroke-width:0.5;"/><path d="M900.083,66.2969 C900.083,76.2969 918.083,76.2969 918.083,76.2969 C918.083,76.2969 936.083,76.2969 936.083,66.2969" fill="none" style="stroke:#181818;stroke-width:0.5;"/></g><g class="participant participant-tail" data-entity-uid="part6" data-qualified-name="Tx" id="part6-tail"><text fill="#000000" font-family="sans-serif" font-size="14" lengthAdjust="spacing" textLength="193.0879" x="818.539" y="487.8545">scm.inventory_transactions</text><path d="M900.083,501.1563 C900.083,491.1563 918.083,491.1563 918.083,491.1563 C918.083,491.1563 936.083,491.1563 936.083,501.1563 L936.083,527.1563 C936.083,537.1563 918.083,537.1563 918.083,537.1563 C918.083,537.1563 900.083,537.1563 900.083,527.1563 L900.083,501.1563" fill="#E2E2F0" style="stroke:#181818;stroke-width:0.5;"/><path d="M900.083,501.1563 C900.083,511.1563 918.083,511.1563 918.083,511.1563 C918.083,511.1563 936.083,511.1563 936.083,501.1563" fill="none" style="stroke:#181818;stroke-width:0.5;"/></g><g class="message" data-entity-1="part1" data-entity-2="part2" id="msg1"><polygon fill="#181818" points="216.0002,145.7266,226.0002,149.7266,216.0002,153.7266,220.0002,149.7266" style="stroke:#181818;stroke-width:1;"/><line style="stroke:#181818;stroke-width:1;" x1="21.9999" x2="222.0002" y1="149.7266" y2="149.7266"/><text fill="#000000" font-family="sans-serif" font-size="13" lengthAdjust="spacing" textLength="182.0002" x="28.9999" y="144.6606">&#24405;&#20837;&#29289;&#26009;&#12289;&#20179;&#24211;&#12289;&#25209;&#27425;&#21495;&#12289;&#25968;&#37327;</text></g><g class="message" data-entity-1="part2" data-entity-2="part3" id="msg2"><polygon fill="#181818" points="391.4679,174.8594,401.4679,178.8594,391.4679,182.8594,395.4679,178.8594" style="stroke:#181818;stroke-width:1;"/><line style="stroke:#181818;stroke-width:1;" x1="228.0002" x2="397.4679" y1="178.8594" y2="178.8594"/><text fill="#000000" font-family="sans-serif" font-size="13" lengthAdjust="spacing" textLength="151.4678" x="235.0002" y="173.7935">POST /rpc/scm.stock_in</text></g><g class="message" data-entity-1="part3" data-entity-2="part4" id="msg3"><polygon fill="#181818" points="532.4681,203.9922,542.4681,207.9922,532.4681,211.9922,536.4681,207.9922" style="stroke:#181818;stroke-width:1;"/><line style="stroke:#181818;stroke-width:1;" x1="403.4679" x2="538.4681" y1="207.9922" y2="207.9922"/><text fill="#000000" font-family="sans-serif" font-size="13" lengthAdjust="spacing" textLength="78.0001" x="410.4679" y="202.9263">&#35843;&#29992;&#20837;&#24211;&#20989;&#25968;</text></g><g class="message" data-entity-1="part4" data-entity-2="part5" id="msg4"><polygon fill="#181818" points="712.4682,233.125,722.4682,237.125,712.4682,241.125,716.4682,237.125" style="stroke:#181818;stroke-width:1;"/><line style="stroke:#181818;stroke-width:1;" x1="544.4681" x2="718.4682" y1="237.125" y2="237.125"/><text fill="#000000" font-family="sans-serif" font-size="13" lengthAdjust="spacing" textLength="117.0001" x="551.4681" y="232.0591">&#26597;&#35810;&#24182;&#38145;&#23450;&#23545;&#24212;&#25209;&#27425;</text></g><path d="M482.4705,252.125 L546.9134,252.125 L546.9134,259.2578 L536.9134,269.2578 L482.4705,269.2578 L482.4705,252.125" fill="#EEEEEE" style="stroke:#000000;stroke-width:1.5;"/><rect fill="none" height="90.2031" style="stroke:#000000;stroke-width:1.5;" width="336.0685" x="482.4705" y="252.125"/><text fill="#000000" font-family="sans-serif" font-size="13" font-weight="bold" lengthAdjust="spacing" textLength="19.4429" x="497.4705" y="265.1919">alt</text><text fill="#000000" font-family="sans-serif" font-size="11" font-weight="bold" lengthAdjust="spacing" textLength="65.0543" x="561.9134" y="264.3354">[&#25209;&#27425;&#19981;&#23384;&#22312;]</text><g class="message" data-entity-1="part4" data-entity-2="part5" id="msg5"><polygon fill="#181818" points="712.4682,286.3906,722.4682,290.3906,712.4682,294.3906,716.4682,290.3906" style="stroke:#181818;stroke-width:1;"/><line style="stroke:#181818;stroke-width:1;" x1="544.4681" x2="718.4682" y1="290.3906" y2="290.3906"/><text fill="#000000" font-family="sans-serif" font-size="13" lengthAdjust="spacing" textLength="156.0002" x="551.4681" y="285.3247">&#21019;&#24314;&#26032;&#25209;&#27425;&#24182;&#20889;&#20837;&#21021;&#22987;&#24211;&#23384;</text></g><line style="stroke:#000000;stroke-width:1;stroke-dasharray:2,2;" x1="482.4705" x2="818.539" y1="299.3906" y2="299.3906"/><text fill="#000000" font-family="sans-serif" font-size="11" font-weight="bold" lengthAdjust="spacing" textLength="65.0543" x="487.4705" y="309.6011">[&#25209;&#27425;&#24050;&#23384;&#22312;]</text><g class="message" data-entity-1="part4" data-entity-2="part5" id="msg6"><polygon fill="#181818" points="712.4682,330.3281,722.4682,334.3281,712.4682,338.3281,716.4682,334.3281" style="stroke:#181818;stroke-width:1;"/><line style="stroke:#181818;stroke-width:1;" x1="544.4681" x2="718.4682" y1="334.3281" y2="334.3281"/><text fill="#000000" font-family="sans-serif" font-size="13" lengthAdjust="spacing" textLength="116.3526" x="551.4681" y="329.2622">&#32047;&#21152; available_qty</text></g><g class="message" data-entity-1="part4" data-entity-2="part6" id="msg7"><polygon fill="#181818" points="906.083,366.4609,916.083,370.4609,906.083,374.4609,910.083,370.4609" style="stroke:#181818;stroke-width:1;"/><line style="stroke:#181818;stroke-width:1;" x1="544.4681" x2="912.083" y1="370.4609" y2="370.4609"/><text fill="#000000" font-family="sans-serif" font-size="13" lengthAdjust="spacing" textLength="78.0001" x="551.4681" y="365.395">&#20889;&#20837;&#20837;&#24211;&#27969;&#27700;</text></g><g class="message" data-entity-1="part4" data-entity-2="part3" id="msg8"><polygon fill="#181818" points="414.4679,395.5938,404.4679,399.5938,414.4679,403.5938,410.4679,399.5938" style="stroke:#181818;stroke-width:1;"/><line style="stroke:#181818;stroke-width:1;stroke-dasharray:2,2;" x1="408.4679" x2="543.4681" y1="399.5938" y2="399.5938"/><text fill="#000000" font-family="sans-serif" font-size="13" lengthAdjust="spacing" textLength="117.0001" x="420.4679" y="394.5278">&#36820;&#22238;&#25209;&#27425;&#32534;&#21495;&#19982;&#32467;&#26524;</text></g><g class="message" data-entity-1="part3" data-entity-2="part2" id="msg9"><polygon fill="#181818" points="239.0002,424.7266,229.0002,428.7266,239.0002,432.7266,235.0002,428.7266" style="stroke:#181818;stroke-width:1;"/><line style="stroke:#181818;stroke-width:1;stroke-dasharray:2,2;" x1="233.0002" x2="402.4679" y1="428.7266" y2="428.7266"/><text fill="#000000" font-family="sans-serif" font-size="13" lengthAdjust="spacing" textLength="92.3077" x="245.0002" y="423.6606">&#36820;&#22238; JSON &#32467;&#26524;</text></g><g class="message" data-entity-1="part2" data-entity-2="part1" id="msg10"><polygon fill="#181818" points="32.9999,453.8594,22.9999,457.8594,32.9999,461.8594,28.9999,457.8594" style="stroke:#181818;stroke-width:1;"/><line style="stroke:#181818;stroke-width:1;stroke-dasharray:2,2;" x1="26.9999" x2="227.0002" y1="457.8594" y2="457.8594"/><text fill="#000000" font-family="sans-serif" font-size="13" lengthAdjust="spacing" textLength="117.0001" x="38.9999" y="452.7935">&#21047;&#26032;&#21488;&#36134;&#24182;&#25552;&#31034;&#25104;&#21151;</text></g><?plantuml-src VP9BBmDH5CVtzrFSs2Cs5XOI4WiMscZtpUsOC36crRaHTXf14KRIAbMlYcU2JgHQdNfy63rtsc_XpDn19TYTc_CxZ___NAvnNQLGVEtlxgFWPE5k7rOkC11xLN0iJ13259v8KJTtBJ8racGfhYbQaXcSTdKMj4kFxQEpBifC6cPJwaymd33vrCH89EhdXvBQpxIfpFQOFA7Cn3J39oBUOzGWauopE3DLYMZ6l6hWBeknEEFAj6hwxB2C_sHvYXacQj0IXYo8BX0YrT3kGNzPEa3XPHTrkEit8bzuNqet6rdKX85OhulR4bWrBzwrssiMyIkm4cLWOJWKYTBUL5BfxLH1l2GoWH3aMlOo3fLUmTeBzYAVIUG24SY9aujM-GpgrNOk3VS7KAw3avDR4APpAiFcqvRd_E7rxqqWKuI68_9si7wz2gi5RtRc2AusvTc8ggDP0L1x-A-TMod3nYbbyqpJMLnNOtDyaQZ6P2STNV3coYdo1pscXLtvHhuSQxtbe7Wi1xlFUVIs-RJjDhBY-53QzdqLYTAnI6YS1eHq7v7WX9xO6Ye5osvLBb6fi7RSSqTaTc3ZX7m0?></g></svg>